<svg xmlns="http://www.w3.org/2000/svg" xmlns:xlink="http://www.w3.org/1999/xlink" width="444" height="396.016" viewBox="0 0 444 396.016">
  <defs>
    <clipPath id="clip-path">
      <path id="Trazado_101045" data-name="Trazado 101045" d="M-373.043,298.8-187,228.07A199.043,199.043,0,0,1-174.01,298.8c0,109.186-89.847,199.033-199.033,199.033S-572.075,407.986-572.075,298.8a199.048,199.048,0,0,1,32.348-108.765Z" transform="translate(572.075 -190.035)" fill="#8ca6de"/>
    </clipPath>
  </defs>
  <g id="Grupo_54435" data-name="Grupo 54435" transform="translate(-493 -147.239)">
    <g id="Grupo_54128" data-name="Grupo 54128" transform="translate(493 147.239)">
      <g id="Grupo_54106" data-name="Grupo 54106" transform="translate(45.935 88.218)">
        <path id="Trazado_101044" data-name="Trazado 101044" d="M-373.043,298.8-187,228.07A199.043,199.043,0,0,1-174.01,298.8c0,109.186-89.847,199.033-199.033,199.033S-572.075,407.986-572.075,298.8a199.048,199.048,0,0,1,32.348-108.765Z" transform="translate(572.075 -190.035)" fill="#8ca6de"/>
        <g id="Grupo_54105" data-name="Grupo 54105" clip-path="url(#clip-path)">
          <ellipse id="Elipse_3998" data-name="Elipse 3998" cx="22.669" cy="227.121" rx="22.669" ry="227.121" transform="translate(5.396 213.895) rotate(-89.753)" fill="#7391d7"/>
          <ellipse id="Elipse_3999" data-name="Elipse 3999" cx="10.645" cy="82.931" rx="10.645" ry="82.931" transform="matrix(0.024, -1, 1, 0.024, 173.041, 285.991)" fill="#7391d7"/>
        </g>
      </g>
      <path id="Trazado_101046" data-name="Trazado 101046" d="M-394.8,224.947a101,101,0,0,0-10.012-60.808l9.149,65.788C-395.334,228.277-395.042,226.623-394.8,224.947Zm-200.7-29.378A101.415,101.415,0,0,0-509.828,310.6a100.22,100.22,0,0,0,13.483,1.067L-523.986,113A101.407,101.407,0,0,0-595.5,195.569Zm102.438-86.726,27.615,198.4q4.246-1.294,8.345-2.961l-27.128-194.847Q-488.664,108.932-493.06,108.843Zm-13.338.585,27.956,200.881c2.874-.469,5.717-1.078,8.51-1.795l-27.8-199.665C-500.645,108.908-503.53,109.108-506.4,109.428Zm-13.093,2.349,27.822,199.854c2.9-.1,5.792-.328,8.647-.666l-27.969-200.917C-513.862,110.5-516.7,111.077-519.491,111.777Zm120.785,129.9L-410.94,153.7a104.4,104.4,0,0,0-10.578-13.222l16.243,116.813A97.733,97.733,0,0,0-398.707,241.675ZM-452.69,302.37c2.776-1.29,5.5-2.688,8.142-4.217L-470.46,111.882q-4.42-1.125-9.005-1.822Zm20.414-12.548L-456.389,116.5c-2.994-1.228-6.057-2.332-9.211-3.28L-440.23,295.51A96.884,96.884,0,0,0-432.276,289.822Zm23.234-25.959-17.914-128.7a97.187,97.187,0,0,0-9.833-7.872l20.432,146.836A95.176,95.176,0,0,0-409.042,263.862Zm-11.34,14.934L-441.95,123.883a101.122,101.122,0,0,0-9.47-5.183l23.332,167.636A95.417,95.417,0,0,0-420.382,278.8Z" transform="translate(615.889 -108.843)" fill="#e7efab"/>
      <g id="Grupo_54109" data-name="Grupo 54109" transform="translate(0 46.898)">
        <g id="Grupo_54107" data-name="Grupo 54107" transform="translate(0 186.559)">
          <rect id="Rectángulo_5422" data-name="Rectángulo 5422" width="5.208" height="5.208" fill="#fff"/>
          <rect id="Rectángulo_5423" data-name="Rectángulo 5423" width="5.208" height="5.208" transform="translate(13.672)" fill="#fff"/>
          <rect id="Rectángulo_5424" data-name="Rectángulo 5424" width="5.208" height="5.208" transform="translate(27.344)" fill="#fff"/>
          <rect id="Rectángulo_5425" data-name="Rectángulo 5425" width="5.208" height="5.208" transform="translate(41.016)" fill="#fff"/>
          <rect id="Rectángulo_5426" data-name="Rectángulo 5426" width="5.208" height="5.208" transform="translate(54.688)" fill="#fff"/>
          <rect id="Rectángulo_5427" data-name="Rectángulo 5427" width="5.208" height="5.208" transform="translate(68.36)" fill="#fff"/>
          <rect id="Rectángulo_5428" data-name="Rectángulo 5428" width="5.208" height="5.208" transform="translate(0 13.929)" fill="#fff"/>
          <rect id="Rectángulo_5429" data-name="Rectángulo 5429" width="5.208" height="5.208" transform="translate(13.672 13.929)" fill="#fff"/>
          <rect id="Rectángulo_5430" data-name="Rectángulo 5430" width="5.208" height="5.208" transform="translate(27.344 13.929)" fill="#fff"/>
          <rect id="Rectángulo_5431" data-name="Rectángulo 5431" width="5.208" height="5.208" transform="translate(41.016 13.929)" fill="#fff"/>
          <rect id="Rectángulo_5432" data-name="Rectángulo 5432" width="5.208" height="5.208" transform="translate(54.688 13.929)" fill="#fff"/>
          <rect id="Rectángulo_5433" data-name="Rectángulo 5433" width="5.208" height="5.208" transform="translate(68.36 13.929)" fill="#fff"/>
          <rect id="Rectángulo_5434" data-name="Rectángulo 5434" width="5.208" height="5.208" transform="translate(0 27.857)" fill="#fff"/>
          <rect id="Rectángulo_5435" data-name="Rectángulo 5435" width="5.208" height="5.208" transform="translate(13.672 27.857)" fill="#fff"/>
          <rect id="Rectángulo_5436" data-name="Rectángulo 5436" width="5.208" height="5.208" transform="translate(27.344 27.857)" fill="#fff"/>
          <rect id="Rectángulo_5437" data-name="Rectángulo 5437" width="5.208" height="5.208" transform="translate(41.016 27.857)" fill="#fff"/>
          <rect id="Rectángulo_5438" data-name="Rectángulo 5438" width="5.208" height="5.208" transform="translate(54.688 27.857)" fill="#fff"/>
          <rect id="Rectángulo_5439" data-name="Rectángulo 5439" width="5.208" height="5.208" transform="translate(68.36 27.857)" fill="#fff"/>
          <rect id="Rectángulo_5440" data-name="Rectángulo 5440" width="5.208" height="5.208" transform="translate(0 41.786)" fill="#fff"/>
          <rect id="Rectángulo_5441" data-name="Rectángulo 5441" width="5.208" height="5.208" transform="translate(13.672 41.786)" fill="#fff"/>
          <rect id="Rectángulo_5442" data-name="Rectángulo 5442" width="5.208" height="5.208" transform="translate(27.344 41.786)" fill="#fff"/>
          <rect id="Rectángulo_5443" data-name="Rectángulo 5443" width="5.208" height="5.208" transform="translate(41.016 41.786)" fill="#fff"/>
          <rect id="Rectángulo_5444" data-name="Rectángulo 5444" width="5.208" height="5.208" transform="translate(54.688 41.786)" fill="#fff"/>
          <rect id="Rectángulo_5445" data-name="Rectángulo 5445" width="5.208" height="5.208" transform="translate(68.36 41.786)" fill="#fff"/>
          <rect id="Rectángulo_5446" data-name="Rectángulo 5446" width="5.208" height="5.208" transform="translate(0 55.715)" fill="#fff"/>
          <rect id="Rectángulo_5447" data-name="Rectángulo 5447" width="5.208" height="5.208" transform="translate(13.672 55.715)" fill="#fff"/>
          <rect id="Rectángulo_5448" data-name="Rectángulo 5448" width="5.208" height="5.208" transform="translate(27.344 55.715)" fill="#fff"/>
          <rect id="Rectángulo_5449" data-name="Rectángulo 5449" width="5.208" height="5.208" transform="translate(41.016 55.715)" fill="#fff"/>
          <rect id="Rectángulo_5450" data-name="Rectángulo 5450" width="5.208" height="5.208" transform="translate(54.688 55.715)" fill="#fff"/>
          <rect id="Rectángulo_5451" data-name="Rectángulo 5451" width="5.208" height="5.208" transform="translate(68.36 55.715)" fill="#fff"/>
          <rect id="Rectángulo_5452" data-name="Rectángulo 5452" width="5.208" height="5.208" transform="translate(0 69.644)" fill="#fff"/>
          <rect id="Rectángulo_5453" data-name="Rectángulo 5453" width="5.208" height="5.208" transform="translate(13.672 69.644)" fill="#fff"/>
          <rect id="Rectángulo_5454" data-name="Rectángulo 5454" width="5.208" height="5.208" transform="translate(27.344 69.644)" fill="#fff"/>
          <rect id="Rectángulo_5455" data-name="Rectángulo 5455" width="5.208" height="5.208" transform="translate(41.016 69.644)" fill="#fff"/>
          <rect id="Rectángulo_5456" data-name="Rectángulo 5456" width="5.208" height="5.208" transform="translate(54.688 69.644)" fill="#fff"/>
          <rect id="Rectángulo_5457" data-name="Rectángulo 5457" width="5.208" height="5.208" transform="translate(68.36 69.644)" fill="#fff"/>
        </g>
        <g id="Grupo_54108" data-name="Grupo 54108" transform="translate(368.607)">
          <rect id="Rectángulo_5458" data-name="Rectángulo 5458" width="5.208" height="5.208" fill="#626e30"/>
          <rect id="Rectángulo_5459" data-name="Rectángulo 5459" width="5.208" height="5.208" transform="translate(13.672)" fill="#626e30"/>
          <rect id="Rectángulo_5460" data-name="Rectángulo 5460" width="5.208" height="5.208" transform="translate(27.344)" fill="#626e30"/>
          <rect id="Rectángulo_5461" data-name="Rectángulo 5461" width="5.208" height="5.208" transform="translate(41.016)" fill="#626e30"/>
          <rect id="Rectángulo_5462" data-name="Rectángulo 5462" width="5.208" height="5.208" transform="translate(54.688)" fill="#626e30"/>
          <rect id="Rectángulo_5463" data-name="Rectángulo 5463" width="5.208" height="5.208" transform="translate(68.36)" fill="#626e30"/>
          <rect id="Rectángulo_5464" data-name="Rectángulo 5464" width="5.208" height="5.208" transform="translate(0 13.929)" fill="#626e30"/>
          <rect id="Rectángulo_5465" data-name="Rectángulo 5465" width="5.208" height="5.208" transform="translate(13.672 13.929)" fill="#626e30"/>
          <rect id="Rectángulo_5466" data-name="Rectángulo 5466" width="5.208" height="5.208" transform="translate(27.344 13.929)" fill="#626e30"/>
          <rect id="Rectángulo_5467" data-name="Rectángulo 5467" width="5.208" height="5.208" transform="translate(41.016 13.929)" fill="#626e30"/>
          <rect id="Rectángulo_5468" data-name="Rectángulo 5468" width="5.208" height="5.208" transform="translate(54.688 13.929)" fill="#626e30"/>
          <rect id="Rectángulo_5469" data-name="Rectángulo 5469" width="5.208" height="5.208" transform="translate(68.36 13.929)" fill="#626e30"/>
          <rect id="Rectángulo_5470" data-name="Rectángulo 5470" width="5.208" height="5.208" transform="translate(0 27.858)" fill="#626e30"/>
          <rect id="Rectángulo_5471" data-name="Rectángulo 5471" width="5.208" height="5.208" transform="translate(13.672 27.858)" fill="#626e30"/>
          <rect id="Rectángulo_5472" data-name="Rectángulo 5472" width="5.208" height="5.208" transform="translate(27.344 27.858)" fill="#626e30"/>
          <rect id="Rectángulo_5473" data-name="Rectángulo 5473" width="5.208" height="5.208" transform="translate(41.016 27.858)" fill="#626e30"/>
          <rect id="Rectángulo_5474" data-name="Rectángulo 5474" width="5.208" height="5.208" transform="translate(54.688 27.858)" fill="#626e30"/>
          <rect id="Rectángulo_5475" data-name="Rectángulo 5475" width="5.208" height="5.208" transform="translate(68.36 27.858)" fill="#626e30"/>
          <rect id="Rectángulo_5476" data-name="Rectángulo 5476" width="5.208" height="5.208" transform="translate(0 41.786)" fill="#626e30"/>
          <rect id="Rectángulo_5477" data-name="Rectángulo 5477" width="5.208" height="5.208" transform="translate(13.672 41.786)" fill="#626e30"/>
          <rect id="Rectángulo_5478" data-name="Rectángulo 5478" width="5.208" height="5.208" transform="translate(27.344 41.786)" fill="#626e30"/>
          <rect id="Rectángulo_5479" data-name="Rectángulo 5479" width="5.208" height="5.208" transform="translate(41.016 41.786)" fill="#626e30"/>
          <rect id="Rectángulo_5480" data-name="Rectángulo 5480" width="5.208" height="5.208" transform="translate(54.688 41.786)" fill="#626e30"/>
          <rect id="Rectángulo_5481" data-name="Rectángulo 5481" width="5.208" height="5.208" transform="translate(68.36 41.786)" fill="#626e30"/>
          <rect id="Rectángulo_5482" data-name="Rectángulo 5482" width="5.208" height="5.208" transform="translate(0 55.715)" fill="#626e30"/>
          <rect id="Rectángulo_5483" data-name="Rectángulo 5483" width="5.208" height="5.208" transform="translate(13.672 55.715)" fill="#626e30"/>
          <rect id="Rectángulo_5484" data-name="Rectángulo 5484" width="5.208" height="5.208" transform="translate(27.344 55.715)" fill="#626e30"/>
          <rect id="Rectángulo_5485" data-name="Rectángulo 5485" width="5.208" height="5.208" transform="translate(41.016 55.715)" fill="#626e30"/>
          <rect id="Rectángulo_5486" data-name="Rectángulo 5486" width="5.208" height="5.208" transform="translate(54.688 55.715)" fill="#626e30"/>
          <rect id="Rectángulo_5487" data-name="Rectángulo 5487" width="5.208" height="5.208" transform="translate(68.36 55.715)" fill="#626e30"/>
          <rect id="Rectángulo_5488" data-name="Rectángulo 5488" width="5.208" height="5.208" transform="translate(0 69.644)" fill="#626e30"/>
          <rect id="Rectángulo_5489" data-name="Rectángulo 5489" width="5.208" height="5.208" transform="translate(13.672 69.644)" fill="#626e30"/>
          <rect id="Rectángulo_5490" data-name="Rectángulo 5490" width="5.208" height="5.208" transform="translate(27.344 69.644)" fill="#626e30"/>
          <rect id="Rectángulo_5491" data-name="Rectángulo 5491" width="5.208" height="5.208" transform="translate(41.016 69.644)" fill="#626e30"/>
          <rect id="Rectángulo_5492" data-name="Rectángulo 5492" width="5.208" height="5.208" transform="translate(54.688 69.644)" fill="#626e30"/>
          <rect id="Rectángulo_5493" data-name="Rectángulo 5493" width="5.208" height="5.208" transform="translate(68.36 69.644)" fill="#626e30"/>
        </g>
      </g>
      <g id="Grupo_54111" data-name="Grupo 54111" transform="translate(77.625 145.275)">
        <g id="Grupo_54110" data-name="Grupo 54110" transform="translate(304.302)">
          <path id="Trazado_101047" data-name="Trazado 101047" d="M-245.007,245.315a15.085,15.085,0,0,1,15.068,15.068,15.085,15.085,0,0,1-15.068,15.067,15.085,15.085,0,0,1-15.068-15.067,15.085,15.085,0,0,1,15.068-15.068Zm0-2.767a17.835,17.835,0,0,0-17.835,17.835,17.836,17.836,0,0,0,17.835,17.835,17.836,17.836,0,0,0,17.835-17.835,17.835,17.835,0,0,0-17.835-17.835Z" transform="translate(262.842 -242.548)" fill="#3d4b6c"/>
        </g>
        <path id="Trazado_101048" data-name="Trazado 101048" d="M-494.3,423.825a25.586,25.586,0,0,0-3.1-2.906,27.72,27.72,0,0,0-17.561-6.227,27.946,27.946,0,0,0-27.953,27.953A27.955,27.955,0,0,0-514.956,470.6a27.927,27.927,0,0,0,23.262-12.454,26.967,26.967,0,0,0,2.076-3.7,27.817,27.817,0,0,0,2.615-11.8A27.786,27.786,0,0,0-494.3,423.825Z" transform="translate(542.909 -227.652)" fill="#d6e994"/>
      </g>
      <g id="Grupo_54122" data-name="Grupo 54122" transform="translate(70.85 25.352)">
        <g id="Grupo_54112" data-name="Grupo 54112" transform="translate(19.935)">
          <path id="Trazado_101049" data-name="Trazado 101049" d="M-238.87,145.3h0l-9.067-11.287-.03.01a4.376,4.376,0,0,0-4.236-1.8L-520.88,173.666a4.426,4.426,0,0,0-3.629,3.341l-6.163,25.677a4.413,4.413,0,0,0,2.825,5.186l7.041,9.8c.074.1.135.21.217.3l.008.012,0,0a4.4,4.4,0,0,0,3.732,1.467l14.128-1.356,21.2-2.034,12.815-1.232,216.542-20.771a4.45,4.45,0,0,0,3.889-3.363l10.144-41.709A4.385,4.385,0,0,0-238.87,145.3Z" transform="translate(530.797 -132.176)" fill="#fb7880"/>
          <path id="Trazado_101050" data-name="Trazado 101050" d="M-258.788,145.3h0l-9.067-11.287-.03.01a4.376,4.376,0,0,0-4.236-1.8l-24.717,3.812-3.792,3.265,12.8,34.709,18.3,18.9a4.473,4.473,0,0,0,1.338-2.227l10.144-41.709A4.385,4.385,0,0,0-258.788,145.3Z" transform="translate(550.714 -132.176)" fill="#fa505b"/>
          <path id="Trazado_101051" data-name="Trazado 101051" d="M-530.672,202.685l6.163-25.677a4.426,4.426,0,0,1,3.629-3.341L-252.2,132.229a4.426,4.426,0,0,1,4.975,5.42l-10.147,41.715a4.424,4.424,0,0,1-3.878,3.358l-264.692,25.4A4.426,4.426,0,0,1-530.672,202.685Z" transform="translate(530.797 -132.176)" fill="#fb7880"/>
          <path id="Trazado_101052" data-name="Trazado 101052" d="M-521.049,199.648a.346.346,0,0,1-.343-.311.345.345,0,0,1,.309-.379l254.8-26.51a.35.35,0,0,1,.379.309.346.346,0,0,1-.308.38l-254.8,26.509Z" transform="translate(531.61 -128.691)" fill="#ffc4ce"/>
          <path id="Trazado_101053" data-name="Trazado 101053" d="M-363.312,151.08l97.051-14.376-7.057,24.494Z" transform="translate(545.29 -131.784)" fill="#fff"/>
        </g>
        <g id="Grupo_54119" data-name="Grupo 54119" transform="translate(116.87 4.856)">
          <g id="Grupo_54114" data-name="Grupo 54114" transform="translate(0 8.58)">
            <path id="Trazado_101054" data-name="Trazado 101054" d="M-432.045,168.148c-.456,2.062-2.147,3.442-3.776,3.081s-2.579-2.324-2.123-4.386,2.147-3.442,3.776-3.081S-431.589,166.086-432.045,168.148Z" transform="translate(441.887 -142.884)" fill="#fa505b"/>
            <g id="Grupo_54113" data-name="Grupo 54113">
              <path id="Trazado_101055" data-name="Trazado 101055" d="M-418.583,155.64l-4.109.623c-.61-4.3-3.654-7.57-7.307-7.57-4.1,0-7.432,4.11-7.432,9.176a3.5,3.5,0,0,0,.042.664,9.675,9.675,0,0,0,2.878,6.6,2.076,2.076,0,0,1,.083,2.934,2.034,2.034,0,0,1-1.508.651,2.034,2.034,0,0,1-1.426-.567,13.916,13.916,0,0,1-4.165-8.981c-.042-.429-.055-.858-.055-1.3,0-7.348,5.2-13.326,11.582-13.326C-424.27,144.542-419.5,149.358-418.583,155.64Z" transform="translate(441.582 -144.542)" fill="#ede9fd"/>
            </g>
            <path id="Trazado_101056" data-name="Trazado 101056" d="M-434.626,146.133c.385.586-.105,1.586-1.094,2.237s-2.1.7-2.487.116.105-1.586,1.094-2.236S-435.011,145.548-434.626,146.133Z" transform="translate(441.863 -144.439)" fill="#fff"/>
            <path id="Trazado_101057" data-name="Trazado 101057" d="M-437.267,149.754a.824.824,0,0,1-.333,1.107.823.823,0,0,1-1.148-.134.822.822,0,0,1,.332-1.107A.824.824,0,0,1-437.267,149.754Z" transform="translate(441.818 -144.117)" fill="#fff"/>
          </g>
          <g id="Grupo_54116" data-name="Grupo 54116" transform="translate(29.281 4.29)">
            <path id="Trazado_101058" data-name="Trazado 101058" d="M-405.094,164.2c-.456,2.062-2.146,3.441-3.776,3.081s-2.579-2.324-2.123-4.386,2.147-3.442,3.776-3.081S-404.638,162.142-405.094,164.2Z" transform="translate(414.938 -138.934)" fill="#fa505b"/>
            <g id="Grupo_54115" data-name="Grupo 54115">
              <path id="Trazado_101059" data-name="Trazado 101059" d="M-391.66,151.456l-4.1.637c-.678-4.193-3.7-7.348-7.293-7.348-4.1,0-7.432,4.11-7.432,9.175a2.34,2.34,0,0,0,.028.443,9.792,9.792,0,0,0,2.892,6.836,2.076,2.076,0,0,1,.083,2.934,2.091,2.091,0,0,1-1.508.65,2.044,2.044,0,0,1-1.426-.581,13.96,13.96,0,0,1-4.179-9.2c-.028-.36-.042-.72-.042-1.08,0-7.348,5.2-13.326,11.584-13.326C-397.39,140.593-392.657,145.285-391.66,151.456Z" transform="translate(414.633 -140.593)" fill="#ede9fd"/>
            </g>
            <path id="Trazado_101060" data-name="Trazado 101060" d="M-407.915,142.857a1.169,1.169,0,0,1-.472,1.571,1.169,1.169,0,0,1-1.63-.19,1.169,1.169,0,0,1,.472-1.571A1.17,1.17,0,0,1-407.915,142.857Z" transform="translate(415.02 -140.434)" fill="#fff"/>
          </g>
          <g id="Grupo_54118" data-name="Grupo 54118" transform="translate(58.563)">
            <path id="Trazado_101061" data-name="Trazado 101061" d="M-378.142,160.26c-.456,2.062-2.147,3.441-3.776,3.081s-2.579-2.325-2.123-4.386,2.147-3.442,3.776-3.081S-377.686,158.2-378.142,160.26Z" transform="translate(387.988 -134.986)" fill="#fa505b"/>
            <g id="Grupo_54117" data-name="Grupo 54117">
              <path id="Trazado_101062" data-name="Trazado 101062" d="M-364.739,147.286v.014l-4.11.623c-.746-4.082-3.708-7.127-7.237-7.127-4.109,0-7.445,4.123-7.445,9.175a1.166,1.166,0,0,0,.014.222,9.876,9.876,0,0,0,2.905,7.057,2.076,2.076,0,0,1,.084,2.934,2.088,2.088,0,0,1-1.508.651,2.091,2.091,0,0,1-1.426-.567,13.986,13.986,0,0,1-4.193-9.438c-.014-.291-.028-.567-.028-.858,0-7.348,5.2-13.326,11.6-13.326C-370.509,136.645-365.819,141.226-364.739,147.286Z" transform="translate(387.683 -136.645)" fill="#ede9fd"/>
            </g>
            <path id="Trazado_101063" data-name="Trazado 101063" d="M-381.805,139.061c.268.409.018,1.046-.557,1.424a1.115,1.115,0,0,1-1.529-.054c-.268-.409-.018-1.046.557-1.424A1.115,1.115,0,0,1-381.805,139.061Z" transform="translate(388.002 -136.464)" fill="#fff"/>
            <path id="Trazado_101064" data-name="Trazado 101064" d="M-380.163,139.194c.138.209.01.536-.285.729a.571.571,0,0,1-.783-.027c-.138-.21-.01-.537.285-.73A.57.57,0,0,1-380.163,139.194Z" transform="translate(388.237 -136.439)" fill="#fff"/>
          </g>
        </g>
        <g id="Grupo_54121" data-name="Grupo 54121" transform="translate(0 51.342)">
          <path id="Trazado_101065" data-name="Trazado 101065" d="M-260.122,183.389s-5.462,45.154,5.254,83.982c16.276,58.974,52.55,78.089,52.55,78.089l-227.954-29.118s-34.9-18.09-52.4-49.356c-13.218-23.621-21.843-60.145-21.843-60.145Z" transform="translate(553.006 -179.086)" fill="#c5b8f8"/>
          <path id="Trazado_101066" data-name="Trazado 101066" d="M-262.963,180.3S-274.1,229.249-267.4,280.415s35.619,92.17,35.619,92.17l-236.878-26.042s-27.9-22.7-38.69-60.784,0-82.009,0-82.009Z" transform="translate(552.346 -179.354)" fill="#e1dafc"/>
          <path id="Trazado_101067" data-name="Trazado 101067" d="M-267.946,179.429l-1.6,7.643L-312.266,389.5l-236.878-26.042,8.776-38.367,10.011-43.667,11.673-50.892,6.347-27.65Z" transform="translate(549.144 -179.429)" fill="#f8f7fe"/>
          <path id="Trazado_101068" data-name="Trazado 101068" d="M-429.328,294.178l-111.739,22.788,10.011-43.667,94.184,7.826Z" transform="translate(549.843 -171.306)" fill="#e1dafc"/>
          <path id="Trazado_101069" data-name="Trazado 101069" d="M-270.372,179.429l-1.6,7.643-249.135,43.459,6.347-27.65Z" transform="translate(551.57 -179.429)" fill="#e1dafc"/>
          <path id="Trazado_101070" data-name="Trazado 101070" d="M-316.092,278.808v-1.265l-20.153-.024,8.858-40.708,20.891-.689-.04-1.265-20.574.678,7.78-35.748-1.237-.268-7.847,36.06-38.627,1.272,7.385-34.006-1.235-.269-7.454,34.318-36.55,1.2,7.031-32.357-1.235-.268-7.1,32.669-39.522,1.3,6.823-30.589-1.235-.275-6.894,30.906-37.484,1.234,6.258-28.886-1.236-.268-6.325,29.2-16.937.558.041,1.264,16.619-.548-7.647,35.3-16.762-.018v1.265l16.488.02L-501.05,311.1l-16.554-.726-.055,1.265,16.337.716L-508.7,346.4l1.236.268,7.422-34.262,36.391,1.6-7.894,35.384,1.235.276,7.943-35.6,39.3,1.723-8.01,36.864,1.235.268,8.057-37.076,35.952,1.577-8.3,38.2,1.235.268,8.343-38.416,37.955,1.665-8.621,39.613,1.236.268,8.666-39.826,22.076.968.055-1.265-21.858-.958,8.52-39.151Zm-12.6-41.954-8.85,40.665-38.324-.045,8.547-39.348Zm-39.931,1.316-8.537,39.3-36.282-.041,8.27-38.059Zm-37.854,1.246-8.259,38.014-39.45-.046L-446,240.717Zm-78.311,2.579,37.476-1.234-8.17,36.622-36.963-.042Zm-14.982,69.156,7.051-32.546,36.955.042-7.607,34.1Zm37.682,1.653,7.62-34.155,39.457.046-7.786,35.833Zm40.573,1.78,7.8-35.887,36.282.041-8.127,37.422Zm75.19,3.3-37.956-1.665,8.139-37.476,38.324.043Z" transform="translate(551.869 -177.69)" fill="#553ac7"/>
          <g id="Grupo_54120" data-name="Grupo 54120" transform="translate(138.12 64.729)">
            <path id="Trazado_101071" data-name="Trazado 101071" d="M-325.044,249.933a4.67,4.67,0,0,1-4.706,4.635,4.671,4.671,0,0,1-4.635-4.706,4.671,4.671,0,0,1,4.706-4.635A4.671,4.671,0,0,1-325.044,249.933Z" transform="translate(429.608 -238.464)" fill="#fff"/>
            <path id="Trazado_101072" data-name="Trazado 101072" d="M-338.211,261.315a2.336,2.336,0,0,1-2.353,2.318,2.335,2.335,0,0,1-2.318-2.352,2.335,2.335,0,0,1,2.352-2.318A2.336,2.336,0,0,1-338.211,261.315Z" transform="translate(428.873 -237.276)" fill="#fff"/>
            <path id="Trazado_101073" data-name="Trazado 101073" d="M-414.972,327.012a3.526,3.526,0,0,1-3.553,3.5,3.526,3.526,0,0,1-3.5-3.552,3.526,3.526,0,0,1,3.553-3.5A3.525,3.525,0,0,1-414.972,327.012Z" transform="translate(422.024 -231.694)" fill="#fff"/>
            <path id="Trazado_101074" data-name="Trazado 101074" d="M-390.309,241.245a2.224,2.224,0,0,1-2.242,2.207,2.225,2.225,0,0,1-2.208-2.24A2.226,2.226,0,0,1-392.517,239,2.225,2.225,0,0,1-390.309,241.245Z" transform="translate(424.384 -239.003)" fill="#fff"/>
          </g>
        </g>
      </g>
      <g id="Grupo_54126" data-name="Grupo 54126" transform="translate(28.712 19.167)">
        <path id="Trazado_101075" data-name="Trazado 101075" d="M-419.18,284.427c-1.92-3.871-5.975-5.877-10.083-6.457-4.421-.624-10.6-.116-13.91,3.218a1.763,1.763,0,0,0,1.68,2.937c1.688-.4,3.22-1.2,4.914-1.629a17.926,17.926,0,0,1,5.162-.544c2.89.121,6.219,1.128,8.057,3.5,3.662,4.734.94,12.015-2.2,16.261a26.3,26.3,0,0,1-14.268,9.425c-6.135,1.643-14.812,1.194-17.307-5.877-2.91-8.244,4.793-14.617,9.726-19.925.131-.141-.037-.4-.214-.281-6.382,4.158-13.045,10.769-12.4,19.073.667,8.615,9.706,12.212,17.291,11.3A30.341,30.341,0,0,0-423.519,305.3C-418.852,299.825-415.758,291.327-419.18,284.427Z" transform="translate(598.991 -113.394)" fill="#7c7c7c"/>
        <g id="Grupo_54125" data-name="Grupo 54125">
          <path id="Trazado_101076" data-name="Trazado 101076" d="M-441.66,289.432l.564,5.536a3.142,3.142,0,0,1-4.058,3.366l-5.337-1.58c1.481-1.012,3.025-2.184,4.569-3.465S-442.929,290.7-441.66,289.432Z" transform="translate(599.82 -112.382)" fill="#001552"/>
          <path id="Trazado_101077" data-name="Trazado 101077" d="M-442.17,271.224l1.1,10.933.9,8.851c-1.269,1.267-2.707,2.568-4.263,3.857s-3.088,2.453-4.569,3.465l-8.541-2.516-10.253-3.021,11.915-11.733Z" transform="translate(598.323 -113.958)" fill="#feafab"/>
          <path id="Trazado_101078" data-name="Trazado 101078" d="M-548.419,142.569l115.005,138.679c1.678,2.024-.564,6.778-5.169,11.675a46.571,46.571,0,0,1-4.178,3.915,46.466,46.466,0,0,1-4.621,3.381c-5.653,3.611-10.75,4.943-12.429,2.92l-115.005-138.68Z" transform="translate(589.061 -125.091)" fill="#6e6e6e"/>
          <path id="Trazado_101079" data-name="Trazado 101079" d="M-566.016,156l118.635,143.056c-5.653,3.611-10.75,4.943-12.429,2.919L-574.815,163.3Z" transform="translate(589.061 -123.929)" fill="#a87a24"/>
          <path id="Trazado_101080" data-name="Trazado 101080" d="M-557.918,149.284l118.635,143.057a46.571,46.571,0,0,1-4.178,3.915,46.463,46.463,0,0,1-4.621,3.381L-566.717,156.581Z" transform="translate(589.762 -124.51)" fill="#e2a22e"/>
          <path id="Trazado_101081" data-name="Trazado 101081" d="M-549.82,142.569l115.005,138.679c1.678,2.024-.564,6.778-5.169,11.675L-558.619,149.865Z" transform="translate(590.463 -125.091)" fill="#ecc677"/>
          <path id="Trazado_101082" data-name="Trazado 101082" d="M-564.54,150c-7.292,6.047-11.88,12.543-10.249,14.508l.627.756,1.14,1.374.627.756c1.631,1.967,8.863-1.341,16.155-7.387s11.879-12.542,10.248-14.508l-.627-.756-1.14-1.374-.627-.755C-550.018,140.646-557.25,143.953-564.54,150Z" transform="translate(589.035 -125.137)" fill="#fff"/>
          <path id="Trazado_101083" data-name="Trazado 101083" d="M-551.991,152.436a.331.331,0,0,1-.068.083c-.25.305-.513.61-.776.9-.276.318-.567.637-.857.941-.429.457-.858.886-1.3,1.315-.858.844-1.8,1.688-2.782,2.506-5.439,4.511-11.071,7.2-14.489,7.2a3.59,3.59,0,0,1-2.284-.65,13.1,13.1,0,0,1-5.95-8.691l12.413-10.295,12.414-10.3a12.727,12.727,0,0,1,3.1,1.73,12.9,12.9,0,0,1,4.346,5.715l-.014.014C-547.2,144.825-548.739,148.478-551.991,152.436Z" transform="translate(588.569 -125.708)" fill="#feafab"/>
          <g id="Grupo_54123" data-name="Grupo 54123" transform="translate(18.372 11.465)">
            <path id="Trazado_101084" data-name="Trazado 101084" d="M-552.811,152.3a.331.331,0,0,1-.068.083c-.25.305-.513.61-.776.9-.276.318-.567.637-.857.941-.429.457-.858.886-1.3,1.315a47.662,47.662,0,0,1-10.158,7.432,3.459,3.459,0,0,1-1.591.387,3.465,3.465,0,0,1-3.073-1.868,3.474,3.474,0,0,1,1.481-4.663,40.941,40.941,0,0,0,7.375-5.189c3.709-3.252,7.514-7.86,8-13.3a3.389,3.389,0,0,1,.387-1.3,12.9,12.9,0,0,1,4.346,5.715l-.014.014C-548.023,144.687-549.559,148.34-552.811,152.3Z" transform="translate(571.018 -137.035)" fill="#fed3d1"/>
          </g>
          <path id="Trazado_101085" data-name="Trazado 101085" d="M-555.817,141.892a33.877,33.877,0,0,1-7.958,9.037c-6.241,5.175-12.759,7.8-15.4,6.393l-.014.013-.208-.124c-.014,0-.014,0-.014-.014a25.371,25.371,0,0,1-8.164-8.137l.027-.014c-1.687-2.782,2.422-9.506,9.466-15.36,7.057-5.839,14.433-8.635,16.855-6.476l.027-.014a18.654,18.654,0,0,1,1.578,1.564,26.283,26.283,0,0,1,4.9,7.957.013.013,0,0,0,.013.014c.055.152.084.236.084.236l-.014.013C-554.267,138.183-554.711,139.9-555.817,141.892Z" transform="translate(587.927 -126.483)" fill="#feafab"/>
          <path id="Trazado_101086" data-name="Trazado 101086" d="M-563.853,129.035c1.659,2-2.169,7.913-8.55,13.2s-12.9,7.96-14.56,5.959,2.169-7.913,8.55-13.2S-565.513,127.034-563.853,129.035Z" transform="translate(587.977 -126.32)" fill="#fb7880"/>
          <g id="Grupo_54124" data-name="Grupo 54124" transform="translate(13.051 2.276)">
            <path id="Trazado_101087" data-name="Trazado 101087" d="M-556.856,141.711c-4.8,7.583-12.843,12.357-13.326,12.648a3.773,3.773,0,0,1-1.924.526,3.812,3.812,0,0,1-3.293-1.9,3.8,3.8,0,0,1,1.37-5.189c3.694-2.187,13.119-9.48,13.119-17.381v-.36a3.754,3.754,0,0,1,.249-1.481,26.282,26.282,0,0,1,4.9,7.957.013.013,0,0,0,.013.014c.055.152.084.236.084.236l-.014.013C-555.307,138-555.75,139.718-556.856,141.711Z" transform="translate(575.915 -128.578)" fill="#fed3d1"/>
          </g>
        </g>
      </g>
      <g id="Grupo_54127" data-name="Grupo 54127" transform="translate(233.806 241.779)">
        <path id="Trazado_101088" data-name="Trazado 101088" d="M-360.955,338.151l93.565-6.785s-10.3,59.618-27.049,98.529l-31.782,19.332-72.946-5.011S-374.883,418.86-360.955,338.151Z" transform="translate(399.167 -331.366)" fill="#cee077"/>
        <path id="Trazado_101089" data-name="Trazado 101089" d="M-332.031,441.51s8.056-11.4,2.861-20.974l28.921,1.643Z" transform="translate(404.977 -323.65)" fill="#758138"/>
        <path id="Trazado_101090" data-name="Trazado 101090" d="M-300.475,357.555a65.094,65.094,0,0,0-6.83,6.162c-2.289,2.207-4.485,4.524-6.65,6.854a174.162,174.162,0,0,0-11.729,14.156,174.623,174.623,0,0,0-10.473,15.283q-2.445,4.1-4.819,8.254c-.352.616-.682,1.251-1.007,1.889-.118-.812-.246-1.619-.375-2.416a89.983,89.983,0,0,0-1.919-9.638c-1.718-6.214-3.627-13.066-7.325-18.436-1.151-1.672-4.093-.705-3.438,1.449.913,3,2.236,5.91,3.326,8.854a84.634,84.634,0,0,1,2.805,9.08c.755,3.074,1.521,6.155,2.036,9.281.518,3.143.665,6.323,1.084,9.474.319,2.4,3.464,3.076,4.335.587,1.026-2.934,2.943-5.778,4.411-8.516,1.415-2.638,2.918-5.209,4.51-7.744,3.175-5.056,6.352-10.118,9.84-14.965,3.515-4.888,7.233-9.625,11.051-14.279,1.9-2.314,3.857-4.576,5.843-6.816,2.1-2.373,4.455-4.62,6.4-7.122C-298.848,358.235-299.575,356.907-300.475,357.555Z" transform="translate(402.977 -329.115)" fill="#fff"/>
        <path id="Trazado_101091" data-name="Trazado 101091" d="M-307.021,344.639c1.267,1.994.362,4.836-2.02,6.349s-5.338,1.122-6.6-.87-.362-4.836,2.02-6.349S-308.286,342.646-307.021,344.639Z" transform="translate(406.345 -330.373)" fill="#cee077"/>
        <path id="Trazado_101092" data-name="Trazado 101092" d="M-320.805,358.032a1.975,1.975,0,0,1-.84,2.641,1.977,1.977,0,0,1-2.749-.362,1.976,1.976,0,0,1,.841-2.641A1.975,1.975,0,0,1-320.805,358.032Z" transform="translate(405.617 -329.123)" fill="#cee077"/>
      </g>
    </g>
  </g>
</svg>
