<svg xmlns="http://www.w3.org/2000/svg" xmlns:xlink="http://www.w3.org/1999/xlink" width="432.235" height="387.024" viewBox="0 0 432.235 387.024"><defs><linearGradient id="a" y1="0.5" x2="1" y2="0.5" gradientUnits="objectBoundingBox"><stop offset="0.091" stop-color="#71af63"/><stop offset="0.86" stop-color="#a1b74c"/></linearGradient><clipPath id="c"><path d="M-210.4,194.621l-171.224,65.1-14.839-9.683c-1.622.706-3.207,1.423-4.734,2.134a3.9,3.9,0,0,0-2.233,4.293,7.253,7.253,0,0,0-2.681,4.655H-510.042c-19.889,0-36.162-14.425-36.162-32.056,0-7.364-5.186-13.7-12.475-16.3a183.172,183.172,0,0,0-6.128,46.956c0,100.49,82.691,183.181,183.181,183.181s183.181-82.691,183.181-183.181A183.186,183.186,0,0,0-210.4,194.621Z" fill="url(#a)"/></clipPath></defs><g transform="translate(-518 -158)"><g transform="translate(1131.4 102.125)"><path d="M-210.4,194.621l-171.224,65.1-14.839-9.683c-1.622.706-3.207,1.423-4.734,2.134a3.9,3.9,0,0,0-2.233,4.293,7.253,7.253,0,0,0-2.681,4.655H-510.042c-19.889,0-36.162-14.425-36.162-32.056,0-7.364-5.186-13.7-12.475-16.3a183.172,183.172,0,0,0-6.128,46.956c0,100.49,82.691,183.181,183.181,183.181s183.181-82.691,183.181-183.181A183.186,183.186,0,0,0-210.4,194.621Z" fill="url(#a)"/><g clip-path="url(#c)"><ellipse cx="20.863" cy="209.033" rx="20.863" ry="209.033" transform="translate(-559.841 356.474) rotate(-89.753)" fill="#5e745e" opacity="0.2" style="mix-blend-mode:multiply;isolation:isolate"/><ellipse cx="9.798" cy="76.326" rx="9.798" ry="76.326" transform="matrix(0.024, -1, 1, 0.024, -405.548, 422.828)" fill="#5e745e" opacity="0.2" style="mix-blend-mode:multiply;isolation:isolate"/><ellipse cx="9.798" cy="76.326" rx="9.798" ry="76.326" transform="matrix(0.024, -1, 1, 0.024, -461.44, 399.71)" fill="#5e745e" opacity="0.2" style="mix-blend-mode:multiply;isolation:isolate"/></g><path d="M-403.432,256.462a3.9,3.9,0,0,1,2.233-4.293c10.507-4.893,23.525-10.172,35.35-8.7a38.246,38.246,0,0,0,8.661-24c0-22.9-21.14-41.643-46.978-41.643-5.185,0-9.428-3.761-9.428-8.357s4.243-8.358,9.428-8.358h24.581c12.606,0,22.919-9.141,22.919-20.315s-10.289-20.3-22.874-20.315H-401.9c-10.9,0-19.819-7.907-19.819-17.57,0-17.631-16.273-32.056-36.162-32.056h-83.557c-25.838,0-46.978,18.739-46.978,41.643s21.14,41.644,46.978,41.644c5.185,0,9.428,3.76,9.428,8.357h0c0,4.6-4.243,8.358-9.428,8.358h-24.582c-12.605,0-22.917,9.141-22.917,20.315s10.312,20.314,22.917,20.314c10.9,0,19.82,7.907,19.82,17.571,0,17.631,16.273,32.056,36.162,32.056h103.929A7.253,7.253,0,0,1-403.432,256.462Z" fill="#fff" fill-rule="evenodd" opacity="0.22"/><path d="M-539.68,101.8a.722.722,0,0,1,.719-.722.723.723,0,0,1,.722.722v1.45h1.448a.723.723,0,0,1,.723.721.723.723,0,0,1-.723.72h-1.448v1.449a.723.723,0,0,1-.722.721.721.721,0,0,1-.719-.721v-1.449h-1.451a.722.722,0,0,1-.721-.72.722.722,0,0,1,.721-.721h1.451Z" fill="#fff" fill-rule="evenodd"/><path d="M-509.372,56.6a.722.722,0,0,1,.72-.722.723.723,0,0,1,.722.722v1.449h1.448a.723.723,0,0,1,.723.721.723.723,0,0,1-.723.721h-1.448v1.449a.723.723,0,0,1-.722.721.722.722,0,0,1-.72-.721V59.488h-1.451a.721.721,0,0,1-.719-.721.721.721,0,0,1,.719-.721h1.451Z" fill="#fff" fill-rule="evenodd"/><path d="M-384.71,137.043a.722.722,0,0,1,.72-.721.723.723,0,0,1,.722.721v1.45h1.448a.723.723,0,0,1,.723.721.724.724,0,0,1-.723.721h-1.448v1.449a.723.723,0,0,1-.722.72.721.721,0,0,1-.72-.72v-1.449h-1.451a.721.721,0,0,1-.719-.721.721.721,0,0,1,.719-.721h1.451Z" fill="#fff" fill-rule="evenodd"/><path d="M-605.743,88.518a.36.36,0,0,1,.359-.361.362.362,0,0,1,.361.361v.725h.724a.361.361,0,0,1,.361.36.361.361,0,0,1-.361.36h-.724v.724a.362.362,0,0,1-.361.361.36.36,0,0,1-.359-.361v-.724h-.726a.36.36,0,0,1-.36-.36.36.36,0,0,1,.36-.36h.726Z" fill="#fff" fill-rule="evenodd"/><path d="M-473.164,141.02a.361.361,0,0,1,.36-.361.362.362,0,0,1,.362.361v.724h.723a.361.361,0,0,1,.361.361.361.361,0,0,1-.361.36h-.723v.724a.362.362,0,0,1-.362.361.361.361,0,0,1-.36-.361v-.724h-.725a.361.361,0,0,1-.36-.36.361.361,0,0,1,.36-.361h.725Z" fill="#fff" fill-rule="evenodd"/><path d="M-381.458,192.4a.361.361,0,0,1,.36-.361.361.361,0,0,1,.361.361v.724h.724a.361.361,0,0,1,.361.361.361.361,0,0,1-.361.36h-.724v.724a.361.361,0,0,1-.361.36.36.36,0,0,1-.36-.36v-.724h-.725a.361.361,0,0,1-.36-.36.361.361,0,0,1,.36-.361h.725Z" fill="#fff" fill-rule="evenodd"/><path d="M-589.324,216.5a.722.722,0,0,1,.719-.722.724.724,0,0,1,.723.722v1.449h1.448a.723.723,0,0,1,.722.721.722.722,0,0,1-.722.721h-1.448v1.449a.723.723,0,0,1-.723.72.721.721,0,0,1-.719-.72v-1.449h-1.451a.721.721,0,0,1-.72-.721.722.722,0,0,1,.72-.721h1.451Z" fill="#fff" fill-rule="evenodd"/><path d="M-494.754,239.068h35.94s.608-2.8-3.047-4.142c.488-5.6-6.943-7.553-9.746-1.706-1.705-2.436-3.045-.625-2.314,1.15-3.411-1.881-9.687-1.028-10.57,2.627C-486.469,232.245-493.658,233.1-494.754,239.068Z" fill="#fff"/><path d="M-364.861,192.412h24.34s-1.217-2.826-4.97-1.71c.1-4.26-4.057-4.436-5.071-1.813-1.216-2.65-7.4-2.757-7.3.9-.913-1.722-1.927-.4-1.826.51C-364.861,188.673-364.861,192.412-364.861,192.412Z" fill="#fff"/><rect width="4.793" height="4.793" transform="translate(-607.084 293.287)" fill="#fff"/><rect width="4.793" height="4.793" transform="translate(-594.501 293.287)" fill="#fff"/><rect width="4.793" height="4.793" transform="translate(-581.917 293.287)" fill="#fff"/><rect width="4.793" height="4.793" transform="translate(-569.334 293.287)" fill="#fff"/><rect width="4.793" height="4.793" transform="translate(-556.751 293.287)" fill="#fff"/><rect width="4.793" height="4.793" transform="translate(-544.168 293.287)" fill="#fff"/><rect width="4.793" height="4.793" transform="translate(-607.084 306.106)" fill="#fff"/><rect width="4.793" height="4.793" transform="translate(-594.501 306.106)" fill="#fff"/><rect width="4.793" height="4.793" transform="translate(-581.917 306.106)" fill="#fff"/><rect width="4.793" height="4.793" transform="translate(-569.334 306.106)" fill="#fff"/><rect width="4.793" height="4.793" transform="translate(-556.751 306.106)" fill="#fff"/><rect width="4.793" height="4.793" transform="translate(-544.168 306.106)" fill="#fff"/><rect width="4.793" height="4.793" transform="translate(-607.084 318.925)" fill="#fff"/><rect width="4.793" height="4.793" transform="translate(-594.501 318.925)" fill="#fff"/><rect width="4.793" height="4.793" transform="translate(-581.917 318.925)" fill="#fff"/><rect width="4.793" height="4.793" transform="translate(-569.334 318.925)" fill="#fff"/><rect width="4.793" height="4.793" transform="translate(-556.751 318.925)" fill="#fff"/><rect width="4.793" height="4.793" transform="translate(-544.168 318.925)" fill="#fff"/><rect width="4.793" height="4.793" transform="translate(-607.084 331.745)" fill="#fff"/><rect width="4.793" height="4.793" transform="translate(-594.501 331.745)" fill="#fff"/><rect width="4.793" height="4.793" transform="translate(-581.917 331.745)" fill="#fff"/><rect width="4.793" height="4.793" transform="translate(-569.334 331.745)" fill="#fff"/><rect width="4.793" height="4.793" transform="translate(-556.751 331.745)" fill="#fff"/><rect width="4.793" height="4.793" transform="translate(-544.168 331.745)" fill="#fff"/><rect width="4.793" height="4.793" transform="translate(-607.084 344.564)" fill="#fff"/><rect width="4.793" height="4.793" transform="translate(-594.501 344.564)" fill="#fff"/><rect width="4.793" height="4.793" transform="translate(-581.917 344.564)" fill="#fff"/><rect width="4.793" height="4.793" transform="translate(-569.334 344.564)" fill="#fff"/><rect width="4.793" height="4.793" transform="translate(-556.751 344.564)" fill="#fff"/><rect width="4.793" height="4.793" transform="translate(-544.168 344.564)" fill="#fff"/><rect width="4.793" height="4.793" transform="translate(-607.084 357.384)" fill="#fff"/><rect width="4.793" height="4.793" transform="translate(-594.501 357.384)" fill="#fff"/><rect width="4.793" height="4.793" transform="translate(-581.917 357.384)" fill="#fff"/><rect width="4.793" height="4.793" transform="translate(-569.334 357.384)" fill="#fff"/><rect width="4.793" height="4.793" transform="translate(-556.751 357.384)" fill="#fff"/><rect width="4.793" height="4.793" transform="translate(-544.168 357.384)" fill="#fff"/><g transform="translate(8.089)"><path d="M-491.248,396.13a16.915,16.915,0,0,0-2.041-1.913,18.256,18.256,0,0,0-11.563-4.1,18.4,18.4,0,0,0-18.4,18.405,18.407,18.407,0,0,0,18.4,18.405,18.389,18.389,0,0,0,15.317-8.2,17.69,17.69,0,0,0,1.367-2.432,18.309,18.309,0,0,0,1.722-7.772A18.3,18.3,0,0,0-491.248,396.13Z" fill="#fac873"/></g><path d="M-278.3,169.124a37.364,37.364,0,0,0-16.5,15.735l18.2-16.51C-277.17,168.593-277.737,168.848-278.3,169.124Zm32.853,67.47a37.52,37.52,0,0,0,17.3-50.161v0a37,37,0,0,0-2.484-4.343l-54.964,49.858A37.516,37.516,0,0,0-245.446,236.594Zm-47.861-13.235,54.888-49.795q-1.281-1.027-2.644-1.933l-53.9,48.9q.771,1.461,1.66,2.823Zm2.959,3.955,55.575-50.416c-.742-.781-1.521-1.523-2.322-2.227l-55.236,50.115c.625.878,1.287,1.718,1.983,2.528Zm3.447,3.513,55.289-50.161c-.635-.866-1.307-1.7-2.005-2.505L-289.2,228.589q1.1,1.174,2.3,2.237Zm14.53-64-24.342,22.077a38.64,38.64,0,0,0-1.837,5.989l32.32-29.313a36.138,36.138,0,0,0-6.142,1.247Zm29.8,3.85c-.973-.58-1.968-1.121-2.987-1.61l-51.535,46.746q.577,1.585,1.32,3.133Zm-8.091-3.625-47.952,43.5c.248,1.171.549,2.337.917,3.5l50.432-45.751A36.045,36.045,0,0,0-250.658,167.056Zm-12.778-1.691-35.6,32.3a35.941,35.941,0,0,0-.356,4.646l40.624-36.851a35.229,35.229,0,0,0-4.663-.1Zm6.929.354L-299.363,204.6a37.556,37.556,0,0,0,.389,3.975L-252.6,166.5a35.41,35.41,0,0,0-3.91-.785Z" fill="#e8edac"/><path d="M-609.38,286.691s-9.732-16.171,1.088-26.114,22.965,13.079,22.965,13.079,2.23-10.566,10.2-10.178,7.456,11.668,7.456,11.668,2.9-12.11,15.361-13.351,17.2,10.994,17.2,10.994,1.564-6.658,8.184-6.135,7.256,6.923,7.256,6.923,3.613-16.931,18.638-15.295,16.329,17.462,16.329,17.462,12.976-12.58,16.614,7.473C-487.942,292.617-609.38,286.691-609.38,286.691Z" fill="#505928"/><path d="M-181.565,274.162s4.089-17.825-13.873-16.235-22.1,18.572-22.1,18.572-2.114-5.549-9.514-5.549a11.365,11.365,0,0,0-9.725,5.5s-2.959-13.923-11.416-14.98S-258.5,270.95-258.5,270.95s-5.286-10.809-12.685-7.9-3.963,13.477-3.963,13.477-17.706-5.581-29.023,14.883c31.531,8.123,115.437.18,115.437.18Z" fill="#505928"/><path d="M-254.853,113.839h0l-8.345-10.387-.029.008a4.024,4.024,0,0,0-3.9-1.654L-514.4,139.942a4.072,4.072,0,0,0-3.34,3.075l-5.672,23.632a4.062,4.062,0,0,0,2.6,4.773l6.48,9.017c.068.092.124.192.2.278l.007.01h0a4.048,4.048,0,0,0,3.435,1.35l13-1.248,19.512-1.872,11.794-1.134,199.3-19.117a4.1,4.1,0,0,0,3.579-3.1l9.336-38.387A4.035,4.035,0,0,0-254.853,113.839Z" fill="#fb7880"/><path d="M-254.853,113.839h0l-8.345-10.387-.029.008a4.024,4.024,0,0,0-3.9-1.654l-22.749,3.508-3.49,3,11.782,31.945,16.843,17.4a4.118,4.118,0,0,0,1.232-2.05l9.336-38.387A4.035,4.035,0,0,0-254.853,113.839Z" fill="#fa505b"/><path d="M-523.414,166.649l5.672-23.632a4.072,4.072,0,0,1,3.34-3.075l247.278-38.137a4.073,4.073,0,0,1,4.579,4.988l-9.339,38.392a4.072,4.072,0,0,1-3.569,3.092l-243.611,23.377A4.073,4.073,0,0,1-523.414,166.649Z" fill="#fb7880"/><path d="M-513.809,167.062a.318.318,0,0,1-.316-.286.317.317,0,0,1,.284-.349l234.5-24.4a.321.321,0,0,1,.349.284.317.317,0,0,1-.283.349l-234.5,24.4Z" fill="#ffc4ce"/><path d="M-356.044,119.514l89.322-13.231-6.5,22.543Z" fill="#fff"/><path d="M-425.257,137.374c-.419,1.9-1.975,3.167-3.474,2.836s-2.374-2.139-1.954-4.037,1.975-3.168,3.475-2.836S-424.836,135.476-425.257,137.374Z" fill="#fa505b"/><path d="M-413.147,124.336l-3.783.573c-.56-3.961-3.362-6.967-6.724-6.967-3.77,0-6.84,3.783-6.84,8.444a3.312,3.312,0,0,0,.038.612,8.9,8.9,0,0,0,2.65,6.075,1.911,1.911,0,0,1,.076,2.7,1.875,1.875,0,0,1-1.388.6,1.869,1.869,0,0,1-1.312-.523,12.809,12.809,0,0,1-3.834-8.265c-.038-.395-.051-.79-.051-1.2,0-6.763,4.789-12.265,10.661-12.265C-418.382,114.121-413.988,118.554-413.147,124.336Z" fill="#ede9fd"/><path d="M-427.654,115.681c.354.539-.1,1.46-1.007,2.058s-1.935.647-2.289.108.1-1.46,1.007-2.058S-428.008,115.142-427.654,115.681Z" fill="#fff"/><path d="M-430.126,119.31a.757.757,0,0,1-.3,1.019.758.758,0,0,1-1.057-.123.759.759,0,0,1,.3-1.02A.758.758,0,0,1-430.126,119.31Z" fill="#fff"/><path d="M-398.3,133.43c-.42,1.9-1.976,3.167-3.475,2.836s-2.374-2.14-1.954-4.037,1.976-3.168,3.475-2.836S-397.885,131.532-398.3,133.43Z" fill="#fa505b"/><path d="M-386.223,120.171l-3.77.586c-.624-3.859-3.4-6.763-6.712-6.763-3.769,0-6.839,3.783-6.839,8.444a2.152,2.152,0,0,0,.026.408,9.011,9.011,0,0,0,2.661,6.291,1.91,1.91,0,0,1,.077,2.7,1.921,1.921,0,0,1-1.388.6,1.88,1.88,0,0,1-1.312-.535,12.854,12.854,0,0,1-3.847-8.469q-.037-.5-.038-.994c0-6.763,4.789-12.265,10.66-12.265C-391.495,110.173-387.14,114.491-386.223,120.171Z" fill="#ede9fd"/><path d="M-400.827,112.4a1.075,1.075,0,0,1-.433,1.446,1.077,1.077,0,0,1-1.5-.175,1.076,1.076,0,0,1,.434-1.446A1.075,1.075,0,0,1-400.827,112.4Z" fill="#fff"/><path d="M-371.354,129.486c-.419,1.9-1.975,3.167-3.474,2.835s-2.374-2.139-1.954-4.037,1.975-3.167,3.474-2.835S-370.934,127.588-371.354,129.486Z" fill="#fa505b"/><path d="M-359.3,116.019v.013l-3.783.573c-.688-3.757-3.413-6.559-6.661-6.559-3.783,0-6.852,3.8-6.852,8.444a1.076,1.076,0,0,0,.013.2,9.089,9.089,0,0,0,2.674,6.5,1.911,1.911,0,0,1,.077,2.7,1.922,1.922,0,0,1-1.389.6,1.929,1.929,0,0,1-1.311-.522,12.874,12.874,0,0,1-3.859-8.686c-.013-.268-.026-.523-.026-.79,0-6.763,4.789-12.265,10.673-12.265C-364.609,106.225-360.292,110.441-359.3,116.019Z" fill="#ede9fd"/><path d="M-374.712,108.615c.247.375.017.962-.513,1.311a1.026,1.026,0,0,1-1.407-.05c-.247-.376-.017-.963.513-1.311A1.025,1.025,0,0,1-374.712,108.615Z" fill="#fff"/><path d="M-372.984,108.76c.127.193.009.494-.263.672a.524.524,0,0,1-.72-.025c-.127-.193-.009-.494.262-.672A.526.526,0,0,1-372.984,108.76Z" fill="#fff"/><path d="M-272.318,152.969s-5.027,41.558,4.836,77.293c14.979,54.277,48.365,71.869,48.365,71.869l-209.8-26.8s-32.122-16.649-48.224-45.425c-12.166-21.74-20.1-55.355-20.1-55.355Z" fill="#c5b8f8"/><path d="M-275.541,149.877s-10.252,45.052-4.087,92.144,32.782,84.829,32.782,84.829l-218.012-23.969s-25.681-20.894-35.609-55.942,0-75.479,0-75.479Z" fill="#e1dafc"/><path d="M-283.074,149.009l-1.474,7.034-39.316,186.305L-541.876,318.38l8.077-35.311,9.214-40.189,10.743-46.839L-508,170.592Z" fill="#f8f7fe"/><path d="M-431.52,262.1-533.8,283.069l9.164-40.189,86.211,7.2Z" transform="translate(-1.44 5)" fill="#e1dafc"/><path d="M-283.074,149.009l-1.474,7.034-229.293,40L-508,170.592Z" fill="#e1dafc"/><path d="M-324.878,242.073v-1.165l-18.549-.021,8.154-37.467,19.227-.633-.038-1.164-18.934.624,7.16-32.9-1.138-.247-7.222,33.187-35.552,1.171,6.8-31.3-1.138-.247-6.86,31.585-33.638,1.108,6.471-29.78-1.138-.248-6.533,30.067-36.374,1.2,6.28-28.152-1.137-.253-6.345,28.445-34.5,1.136,5.76-26.586-1.138-.246-5.822,26.872-15.587.513.038,1.164,15.3-.5-7.039,32.489L-503.8,240.7v1.165l15.175.017-6.479,29.9-15.235-.668-.051,1.164,15.036.66-6.789,31.338,1.137.247L-494.176,273l33.493,1.468-7.265,32.566,1.137.254,7.31-32.768,36.167,1.586-7.371,33.927,1.137.248,7.415-34.123,33.089,1.451-7.637,35.161,1.138.247,7.679-35.356,34.932,1.531-7.934,36.459,1.138.247,7.976-36.654,20.317.891.051-1.164-20.116-.882,7.841-36.034Zm-11.594-38.613-8.145,37.426-35.272-.041,7.866-36.214Zm-36.751,1.21-7.857,36.174-33.392-.039,7.61-35.027Zm-34.839,1.148-7.6,34.986-36.307-.042,7.528-33.746Zm-72.074,2.374,34.491-1.136-7.519,33.705-34.02-.04Zm-13.79,63.648,6.49-29.954,34.012.039-7,31.384Zm34.682,1.521,7.013-31.435,36.314.042-7.165,32.979ZM-421.9,275l7.176-33.029,33.393.038-7.48,34.441Zm69.2,3.034-34.933-1.532,7.491-34.492,35.272.041Z" fill="#553ac7"/><path d="M-318.52,219.138a4.3,4.3,0,0,1-4.331,4.266,4.3,4.3,0,0,1-4.266-4.331,4.3,4.3,0,0,1,4.331-4.266A4.3,4.3,0,0,1-318.52,219.138Z" fill="#fff"/><path d="M-331.316,230.708a2.149,2.149,0,0,1-2.165,2.133,2.149,2.149,0,0,1-2.133-2.166,2.149,2.149,0,0,1,2.165-2.133A2.15,2.15,0,0,1-331.316,230.708Z" fill="#fff"/><path d="M-408.267,296.309a3.244,3.244,0,0,1-3.269,3.22,3.245,3.245,0,0,1-3.22-3.269,3.245,3.245,0,0,1,3.27-3.22A3.243,3.243,0,0,1-408.267,296.309Z" fill="#fff"/><path d="M-383.4,210.646a2.046,2.046,0,0,1-2.062,2.031,2.048,2.048,0,0,1-2.032-2.063,2.047,2.047,0,0,1,2.063-2.031A2.046,2.046,0,0,1-383.4,210.646Z" fill="#fff"/><path d="M-415.168,253.474c-1.767-3.564-5.5-5.409-9.28-5.943-4.07-.574-9.753-.107-12.8,2.962a1.623,1.623,0,0,0,1.547,2.7c1.554-.367,2.964-1.108,4.522-1.5a16.508,16.508,0,0,1,4.752-.5c2.66.111,5.724,1.038,7.415,3.225,3.37,4.357.865,11.058-2.022,14.966a24.221,24.221,0,0,1-13.132,8.674c-5.646,1.512-13.633,1.1-15.929-5.409-2.678-7.587,4.411-13.453,8.951-18.338.121-.131-.034-.365-.2-.259-5.874,3.827-12.006,9.911-11.415,17.554.614,7.929,8.934,11.239,15.915,10.4a27.929,27.929,0,0,0,17.682-9.318C-414.866,267.645-412.019,259.824-415.168,253.474Z" fill="#7c7c7c"/><path d="M-435.1,259.011l.52,5.1a2.892,2.892,0,0,1-3.735,3.1l-4.912-1.454c1.362-.931,2.784-2.01,4.2-3.189S-436.263,260.178-435.1,259.011Z" fill="#001552"/><path d="M-436.942,240.8l1.015,10.063.831,8.145c-1.167,1.167-2.49,2.364-3.922,3.551s-2.843,2.258-4.2,3.189l-7.861-2.316-9.437-2.78,10.967-10.8Z" fill="#feafab"/><path d="M-543.253,112.148l105.845,127.635c1.545,1.863-.518,6.238-4.756,10.745a42.888,42.888,0,0,1-3.846,3.6,42.966,42.966,0,0,1-4.252,3.112c-5.2,3.323-9.9,4.549-11.439,2.686L-567.547,132.295Z" fill="#6e6e6e"/><path d="M-559.449,125.579l109.187,131.664c-5.2,3.323-9.9,4.549-11.439,2.686L-567.547,132.295Z" fill="#a87a24"/><path d="M-551.351,118.864l109.187,131.664a42.888,42.888,0,0,1-3.846,3.6,42.966,42.966,0,0,1-4.252,3.112L-559.449,125.579Z" fill="#e2a22e"/><path d="M-543.253,112.148l105.845,127.635c1.545,1.863-.518,6.238-4.756,10.745L-551.351,118.864Z" fill="#ecc677"/><path d="M-558.116,118.945c-6.71,5.565-10.933,11.543-9.432,13.353l.577.7,1.049,1.265.577.7c1.5,1.81,8.157-1.234,14.868-6.8s10.933-11.543,9.432-13.353l-.577-.7-1.049-1.265-.577-.7C-544.749,110.337-551.405,113.38-558.116,118.945Z" fill="#fff"/><path d="M-546.993,120.663a.332.332,0,0,1-.064.076c-.229.28-.471.561-.713.828-.254.293-.522.586-.789.866-.395.42-.79.815-1.2,1.21-.789.777-1.655,1.554-2.56,2.305-5.005,4.152-10.189,6.623-13.334,6.623a3.3,3.3,0,0,1-2.1-.6,12.063,12.063,0,0,1-5.476-8L-561.8,114.5l11.424-9.475a11.688,11.688,0,0,1,2.853,1.592,11.871,11.871,0,0,1,4,5.26l-.012.013C-542.586,113.658-544,117.02-546.993,120.663Z" fill="#feafab"/><path d="M-546.993,120.663a.332.332,0,0,1-.064.076c-.229.28-.471.561-.713.828-.254.293-.522.586-.789.866-.395.42-.79.815-1.2,1.21a43.778,43.778,0,0,1-9.348,6.839,3.186,3.186,0,0,1-1.465.357,3.189,3.189,0,0,1-2.827-1.719,3.2,3.2,0,0,1,1.363-4.292,37.714,37.714,0,0,0,6.788-4.777c3.413-2.993,6.916-7.234,7.362-12.239a3.114,3.114,0,0,1,.356-1.2,11.871,11.871,0,0,1,4,5.26l-.012.013C-542.586,113.658-544,117.02-546.993,120.663Z" fill="#fed3d1"/><path d="M-551.107,110.245a31.156,31.156,0,0,1-7.323,8.316c-5.744,4.764-11.743,7.184-14.175,5.884l-.013.013-.191-.114c-.013,0-.013,0-.013-.013a23.35,23.35,0,0,1-7.514-7.489l.025-.013c-1.554-2.56,2.229-8.75,8.712-14.137s13.284-7.947,15.513-5.961l.025-.012a17.171,17.171,0,0,1,1.452,1.439,24.2,24.2,0,0,1,4.509,7.323.012.012,0,0,0,.012.013c.051.14.077.216.077.216l-.013.013C-549.68,106.831-550.088,108.411-551.107,110.245Z" fill="#feafab"/><path d="M-558.457,98.562c1.528,1.841-2,7.282-7.868,12.153s-11.873,7.326-13.4,5.484,2-7.283,7.869-12.153S-559.984,96.72-558.457,98.562Z" fill="#fb7880"/><path d="M-551.107,110.245c-4.419,6.979-11.819,11.373-12.265,11.64a3.456,3.456,0,0,1-1.77.484,3.509,3.509,0,0,1-3.031-1.744,3.492,3.492,0,0,1,1.261-4.776c3.4-2.013,12.074-8.725,12.074-16v-.331a3.436,3.436,0,0,1,.229-1.363,24.2,24.2,0,0,1,4.509,7.323.012.012,0,0,0,.012.013c.051.14.077.216.077.216l-.013.013C-549.68,106.831-550.088,108.411-551.107,110.245Z" fill="#fed3d1"/><path d="M-374.207,388.517a32.849,32.849,0,0,0,32.788-32.784,32.85,32.85,0,0,0-32.788-32.786,32.846,32.846,0,0,0-32.783,32.786A32.846,32.846,0,0,0-374.207,388.517Z" fill="#c2d959" fill-rule="evenodd"/><path d="M-374.207,388.517c15.083,0,27.38-14.727,27.38-32.784s-12.3-32.786-27.38-32.786-27.376,14.727-27.376,32.786S-389.283,388.517-374.207,388.517Z" fill="#9bac48" fill-rule="evenodd"/><path d="M-374.206,388.517c11.582,0,21.029-14.727,21.029-32.784s-9.447-32.786-21.029-32.786-21.027,14.727-21.027,32.786S-385.786,388.517-374.206,388.517Z" fill="#c2d959" fill-rule="evenodd"/><path d="M-374.207,388.517c7.011,0,12.73-14.727,12.73-32.784s-5.719-32.786-12.73-32.786-12.728,14.727-12.728,32.786S-381.216,388.517-374.207,388.517Z" fill="#9bac48" fill-rule="evenodd"/><path d="M-374.207,388.517c4.165,0,7.558-14.727,7.558-32.784s-3.393-32.786-7.558-32.786-7.556,14.727-7.556,32.786S-378.369,388.517-374.207,388.517Z" fill="#c2d959" fill-rule="evenodd"/><path d="M-398.351,321.709c-.235,2.689-2.043,8.134-3.063,11.042-1.417,4.04-3.258,3.893-3.7-.3-.32-3.015-.82-8.645-.418-11.32C-404.766,315.961-397.9,316.509-398.351,321.709Z" fill="#9bac48" fill-rule="evenodd"/><path d="M-402.19,325.731c.334,2.678-.286,8.381-.672,11.438-.537,4.248-2.37,4.492-3.684.489-.948-2.877-2.62-8.277-2.793-10.976C-409.671,321.461-402.84,320.552-402.19,325.731Z" fill="#c2d959" fill-rule="evenodd"/><path d="M-402.623,325.887c-.876,2.552-1.426,8.263-1.671,11.334-.342,4.269,1.4,4.88,3.506,1.23,1.515-2.626,4.252-7.57,4.969-10.179C-394.429,323.229-400.933,320.949-402.623,325.887Z" fill="#c2d959" fill-rule="evenodd"/><path d="M-414.26,344.324c-.858,6.086,1.008,19.027,2.15,25.964,1.586,9.636,6.634,10.156,10.15,1.043,2.527-6.557,6.987-18.849,7.39-24.984C-393.792,334.483-412.61,332.547-414.26,344.324Z" fill="#d06f1a" fill-rule="evenodd"/><path d="M-404.729,362.517a2.872,2.872,0,0,0,.8.279l.01-.005.006.006a2.8,2.8,0,0,0,.842-.108c.392-.189.453-.6.493-.987a1.073,1.073,0,0,0-.283-1.066,2.827,2.827,0,0,0-.8-.278l-.009.007-.007-.008a2.778,2.778,0,0,0-.842.11c-.391.188-.451.6-.494.984A1.078,1.078,0,0,0-404.729,362.517Zm2.6-16.628a5.623,5.623,0,0,0,1.357.339.024.024,0,0,0,.014-.007c.006,0,.009.008.016.008a6.009,6.009,0,0,0,1.425-.058c.479-.15.535-.539.581-.978s.066-.834-.383-1.075a6.251,6.251,0,0,0-1.386-.33.027.027,0,0,0-.014.007c0-.006-.009-.008-.012-.009a5.853,5.853,0,0,0-1.364.055c-.436.147-.491.573-.546.97C-402.506,345.234-402.557,345.641-402.131,345.889Zm5.641,9.581c.221-.767.433-1.525.625-2.262a15.009,15.009,0,0,0-2.862-1.477.315.315,0,0,0-.059-.013.2.2,0,0,0-.051-.025,25.97,25.97,0,0,0-6.023-1.08c-.538-.036-1.081-.071-1.618-.086-.617-.005-2.9-.205-3.046.725-.051.937,2.231,1.209,2.835,1.329.532.1,1.072.151,1.6.247a24.888,24.888,0,0,1,5.434,1.177.158.158,0,0,0,.048.009.132.132,0,0,0,.042.023A22.12,22.12,0,0,1-396.49,355.47Zm-5.931,16.981c.154-.355.31-.728.462-1.121.142-.368.29-.756.444-1.161l-.149-.045a.08.08,0,0,0-.036-.007.162.162,0,0,0-.035-.017,16.384,16.384,0,0,0-3.905-.625c-.631-.005-1.8-.039-1.884.813-.086.824.993,1.058,1.6,1.231,1.187.314,2.3.541,3.484.93ZM-413.6,359.983c.1.82.2,1.632.31,2.432h.01c1.284-.157,2.535-.193,3.792-.331.713-.094,1.219-.173,1.3-.958.086-.821-.524-.976-1.242-1.1a17.936,17.936,0,0,0-4.1-.045.092.092,0,0,0-.041.01A.218.218,0,0,0-413.6,359.983Zm-.661-15.66c-.066.459-.114.959-.15,1.492.593-.106,1.186-.194,1.722-.277a.212.212,0,0,0,.048-.013.183.183,0,0,0,.047,0c.022,0,.06-.009.08-.014a35.09,35.09,0,0,1,4.252-.427c.152-.015.359-.007.518-.012.35-.009.719-.009,1.065-.039.573-.049.858.1,1.258-.42.479-.648-.421-1.05-.911-1.253a5.519,5.519,0,0,0-1.26-.344c-.2-.031-.394-.055-.592-.071a21.538,21.538,0,0,0-4.686.143.685.685,0,0,0-.087.011.226.226,0,0,0-.05.014.237.237,0,0,0-.054,0q-.509.086-1.008.19A9.6,9.6,0,0,0-414.259,344.323Z" fill="#c94e18" fill-rule="evenodd"/><path d="M-413.461,357.8l-3.468,1.962c-7.7,4.355-12.056-15.989-13.862-20.046-9.06-20.318-34.228-6.9-16.024,17.316C-437.337,369.639-415.821,372.293-413.461,357.8Z" fill="#9bac48" fill-rule="evenodd"/><path d="M-428.334,367.505q.927.1,1.832.11l2.38-.937a14.856,14.856,0,0,0,3.761-.083,11.627,11.627,0,0,0,2.578-1.409,16.819,16.819,0,0,1-1.937.513c-.165.033-.328.062-.49.089l.228-1.829a.39.39,0,0,0-.337-.43.388.388,0,0,0-.429.336L-421,365.9a13.718,13.718,0,0,1-3.1,0l-.05-.005a13.167,13.167,0,0,1-1.787-.337l1.083-3.308a.385.385,0,0,0-.244-.487.386.386,0,0,0-.487.246l-1.094,3.334a14.671,14.671,0,0,1-2.128-.879q-.54-.276-1.064-.594a17.839,17.839,0,0,1-1.7-1.174l2.183-5.089a.386.386,0,0,0-.2-.505.389.389,0,0,0-.508.2l-2.1,4.887a25.655,25.655,0,0,1-3.779-4.027l-.059-.076,3.411-8.778a.389.389,0,0,0-.22-.5.388.388,0,0,0-.5.219l-3.235,8.326a40.548,40.548,0,0,1-2.566-4.108l-.008-.02c-.505-.924-.981-1.872-1.428-2.832.362-1.241,2.985-10.237,3.213-11.268a.385.385,0,0,0-.292-.459.387.387,0,0,0-.461.294c-.2.887-2.189,7.749-2.947,10.352a61.952,61.952,0,0,1-3.917-12.4.387.387,0,0,0-.453-.3.387.387,0,0,0-.3.455,61.7,61.7,0,0,0,2.041,7.573l-5.127-1.746a.388.388,0,0,0-.49.241.385.385,0,0,0,.241.488l5.7,1.943c.593,1.669,1.268,3.354,2.03,5.007.373.809.769,1.61,1.183,2.4l-7.1-.712a.387.387,0,0,0-.422.347.387.387,0,0,0,.347.42l7.621.764a38.624,38.624,0,0,0,3.137,4.844c.312.413.636.812.966,1.2l-5.235.887a.386.386,0,0,0-.315.442.384.384,0,0,0,.444.317l5.7-.965a24.032,24.032,0,0,0,2.723,2.586l.035.026q.612.492,1.254.925l-2.848.748a.388.388,0,0,0-.275.472.387.387,0,0,0,.471.275l3.538-.929q.48.283.97.532a14.916,14.916,0,0,0,3.551,1.282Z" fill="#c2d959" fill-rule="evenodd"/><path d="M-420.354,324.678c.271,2.685-.494,8.372-.96,11.416-.642,4.235-2.479,4.432-3.7.4-.873-2.9-2.411-8.342-2.513-11.046C-427.722,320.22-420.871,319.485-420.354,324.678Z" fill="#9bac48" fill-rule="evenodd"/><path d="M-423.378,329.342c.827,2.568,1.277,8.289,1.464,11.364.261,4.275-1.495,4.853-3.532,1.166-1.463-2.654-4.11-7.648-4.779-10.269C-431.521,326.535-424.978,324.374-423.378,329.342Z" fill="#c2d959" fill-rule="evenodd"/><path d="M-423.776,329.576c-.386,2.671.132,8.384.463,11.448.459,4.257,2.285,4.534,3.676.557,1-2.862,2.77-8.227,2.991-10.925C-416.216,325.442-423.029,324.41-423.776,329.576Z" fill="#c2d959" fill-rule="evenodd"/><path d="M-431.788,349.85c.291,6.14,4.524,18.511,6.934,25.114,3.349,9.176,8.407,8.749,10.168-.858,1.268-6.914,3.367-19.82,2.624-25.921C-413.5,336.381-432.35,337.973-431.788,349.85Z" fill="#d47d1d" fill-rule="evenodd"/><path d="M-419.044,365.961a2.757,2.757,0,0,0,.841.124l.006-.006.009.005a2.774,2.774,0,0,0,.806-.263,1.078,1.078,0,0,0,.3-1.061c-.034-.391-.087-.8-.477-.994a2.734,2.734,0,0,0-.838-.124l-.007.006a.013.013,0,0,0-.011-.005,2.713,2.713,0,0,0-.8.264,1.073,1.073,0,0,0-.3,1.06C-419.485,365.357-419.431,365.766-419.044,365.961Zm-.535-16.821a5.57,5.57,0,0,0,1.4.078.017.017,0,0,0,.011-.006c.007,0,.011.005.017,0a6.039,6.039,0,0,0,1.389-.321c.442-.236.427-.63.389-1.069s-.089-.832-.574-.986a6.139,6.139,0,0,0-1.423-.066.017.017,0,0,0-.012.007.017.017,0,0,0-.015,0,5.714,5.714,0,0,0-1.329.306c-.4.224-.375.653-.357,1.055C-420.067,348.565-420.042,348.974-419.579,349.14Zm7.323,8.366c.075-.8.141-1.578.2-2.338a14.886,14.886,0,0,0-3.089-.919.189.189,0,0,0-.058,0,.252.252,0,0,0-.055-.015,26.093,26.093,0,0,0-6.119.055c-.534.067-1.074.133-1.605.22-.61.107-2.894.337-2.861,1.277.125.93,2.416.774,3.034.777.542,0,1.084-.049,1.62-.053a24.88,24.88,0,0,1,5.557.147.16.16,0,0,0,.049,0,.255.255,0,0,0,.047.014A22.158,22.158,0,0,1-412.256,357.506Zm-2.675,17.788q.131-.568.245-1.187c.07-.39.143-.8.221-1.224l-.154-.018a.1.1,0,0,0-.038,0,.1.1,0,0,0-.036-.011,16.336,16.336,0,0,0-3.954.111c-.623.111-1.774.295-1.7,1.148.07.826,1.177.854,1.8.912,1.228.09,2.36.1,3.6.268Zm-13.3-10.178c.248.787.5,1.567.755,2.332l.01,0c1.232-.392,2.453-.66,3.663-1.029.683-.224,1.164-.4,1.1-1.182-.07-.824-.7-.863-1.426-.855a18.073,18.073,0,0,0-4.037.716.137.137,0,0,0-.039.018A.115.115,0,0,0-428.227,365.116Zm-3.561-15.266c.023.465.068.966.132,1.5.565-.216,1.128-.412,1.642-.592a.474.474,0,0,0,.044-.023.174.174,0,0,0,.046-.01c.021-.007.058-.019.075-.027a35.045,35.045,0,0,1,4.1-1.209c.143-.045.352-.074.5-.107.343-.075.707-.142,1.044-.236.553-.156.857-.068,1.155-.648.348-.725-.608-.953-1.128-1.062a5.69,5.69,0,0,0-1.3-.1c-.2.007-.4.02-.6.04a21.755,21.755,0,0,0-4.575,1.01c-.023.006-.061.02-.084.028a.153.153,0,0,0-.046.024.285.285,0,0,0-.055.011q-.479.179-.953.373Q-431.812,349.321-431.788,349.85Z" fill="#cc5e17" fill-rule="evenodd"/><path d="M-347.237,360.06s-.093-.726-.347-2.687c-.775-5.962,13.148-3.5,16.165-3.6,15.108-.51,13.1-19.788-6.808-14.515C-348.588,342-355.758,354.867-347.237,360.06Z" fill="#9bac48" fill-rule="evenodd"/><path d="M-349.547,348.212c-.2.372-.376.748-.535,1.125l-.019,1.738a9.93,9.93,0,0,0-.906,2.389,7.7,7.7,0,0,0,.224,1.984,11.353,11.353,0,0,1,.174-1.35c.02-.112.043-.223.07-.332l1.092.611a.262.262,0,0,0,.355-.1.263.263,0,0,0-.1-.357l-1.215-.68a9.289,9.289,0,0,1,.791-1.955l.016-.031a9.027,9.027,0,0,1,.669-1.039l1.8,1.528a.265.265,0,0,0,.372-.031.263.263,0,0,0-.03-.368l-1.818-1.54a9.365,9.365,0,0,1,1.094-1.115c.209-.18.423-.353.647-.519a11.914,11.914,0,0,1,1.173-.769l2.646,2.675a.261.261,0,0,0,.37,0,.262.262,0,0,0,0-.371l-2.54-2.568a17.413,17.413,0,0,1,3.5-1.352l.064-.018,4.654,4.392a.266.266,0,0,0,.373-.01.264.264,0,0,0-.011-.373l-4.414-4.163a26.442,26.442,0,0,1,3.241-.564l.016,0c.711-.083,1.429-.139,2.147-.176.688.546,5.683,4.5,6.274,4.9a.262.262,0,0,0,.364-.067.264.264,0,0,0-.067-.365c-.508-.351-4.32-3.36-5.764-4.5a42.182,42.182,0,0,1,8.807.7.262.262,0,0,0,.306-.208.263.263,0,0,0-.209-.307,42.059,42.059,0,0,0-5.291-.651l2.411-2.782a.263.263,0,0,0-.026-.369.266.266,0,0,0-.371.025l-2.678,3.093c-1.2-.055-2.437-.059-3.671,0-.6.027-1.211.072-1.813.13l2.264-4.29a.261.261,0,0,0-.111-.354.26.26,0,0,0-.353.11l-2.426,4.6a26.444,26.444,0,0,0-3.852.736c-.342.092-.676.194-1,.3l.779-3.521a.263.263,0,0,0-.2-.313.26.26,0,0,0-.31.2l-.85,3.836a16.2,16.2,0,0,0-2.325,1.054l-.024.013q-.467.264-.906.554l.259-1.983a.262.262,0,0,0-.225-.3.263.263,0,0,0-.3.227l-.321,2.466c-.2.152-.393.311-.583.474a10.1,10.1,0,0,0-1.712,1.909Z" fill="#c2d959" fill-rule="evenodd"/><path d="M-352.414,345.391s2.237-2.007,2.192-4.223-1.162-2.89-1.178-3.466,1.124-1.533,2.719-1.272.587,1.568.893,3.854.893,4.259,2.453,5.445S-352.414,345.391-352.414,345.391Z" fill="#c2d959" fill-rule="evenodd"/><path d="M-351.4,337.636c.068-.579,1.182-1.457,2.715-1.206.485.079.73.257.84.528-.056.505-1.149,1.12-2.26,1.265C-351.36,338.387-351.394,337.676-351.4,337.636Z" fill="#c2d959" fill-rule="evenodd"/><path d="M-349.349,346.493a6.77,6.77,0,0,1,1.538-.675c11.508-3.654,18.112,5.5,16.674,14.168-1.314,7.911-7.983,13.262-18.212,10.583Z" fill="#d5801e" fill-rule="evenodd"/><path d="M-349.349,345.712a4.772,4.772,0,0,1,1.215-.719c9.085-3.9,14.3,5.87,13.163,15.117-1.036,8.441-6.3,14.152-14.378,11.292Z" fill="#dfa126" fill-rule="evenodd"/><path d="M-349.349,346.493a6.733,6.733,0,0,0-1.54-.675c-11.508-3.654-18.114,5.5-16.673,14.168,1.311,7.911,7.982,13.262,18.213,10.583Z" fill="#d5801e" fill-rule="evenodd"/><path d="M-349.349,345.712a4.792,4.792,0,0,0-1.215-.719c-9.085-3.9-14.3,5.87-13.163,15.117,1.034,8.441,6.3,14.152,14.378,11.292Z" fill="#dfa126" fill-rule="evenodd"/><path d="M-344.243,370.341c5.675-6.837,6.139-26.238-5.107-26.132-10.931-.1-10.8,18.224-5.572,25.529C-352.268,373.445-347.228,373.938-344.243,370.341Z" fill="#e5b32a" fill-rule="evenodd"/><path d="M-385.751,349.122s1.873-1.679,1.836-3.535-.975-2.419-.988-2.9.942-1.284,2.275-1.066.495,1.313.752,3.228.746,3.565,2.053,4.558S-385.751,349.122-385.751,349.122Z" fill="#c2d959" fill-rule="evenodd"/><path d="M-384.9,342.63a1.944,1.944,0,0,1,2.272-1.011c.408.067.612.215.709.443-.051.422-.968.937-1.9,1.058C-384.869,343.258-384.9,342.663-384.9,342.63Z" fill="#c2d959" fill-rule="evenodd"/><path d="M-383.184,350.045a5.651,5.651,0,0,1,1.289-.565c9.634-3.059,15.165,4.606,13.96,11.862-1.1,6.623-6.683,11.1-15.249,8.862Z" fill="#c5451d" fill-rule="evenodd"/><path d="M-383.184,349.392a4,4,0,0,1,1.017-.6c7.606-3.264,11.972,4.915,11.02,12.658-.868,7.066-5.274,11.848-12.037,9.454Z" fill="#c63819" fill-rule="evenodd"/><path d="M-383.186,350.045a5.529,5.529,0,0,0-1.288-.565c-9.635-3.059-15.164,4.606-13.96,11.862,1.1,6.623,6.682,11.1,15.248,8.862Z" fill="#c5451d" fill-rule="evenodd"/><path d="M-383.185,349.392a4,4,0,0,0-1.017-.6c-7.6-3.264-11.972,4.915-11.022,12.658.869,7.066,5.277,11.848,12.039,9.454Z" fill="#c63819" fill-rule="evenodd"/><path d="M-378.908,370.013c4.751-5.726,5.139-21.968-4.277-21.879-9.153-.085-9.038,15.258-4.664,21.375A5.516,5.516,0,0,0-378.908,370.013Z" fill="#c94b18" fill-rule="evenodd"/><path d="M-404.907,388.057V363.719a3.64,3.64,0,0,1,.28-1.408,3.649,3.649,0,0,1,.8-1.194,3.631,3.631,0,0,1,1.194-.8,3.64,3.64,0,0,1,1.408-.281h69.948a3.64,3.64,0,0,1,1.408.281,3.645,3.645,0,0,1,1.2.8,3.645,3.645,0,0,1,.8,1.2,3.636,3.636,0,0,1,.281,1.408v24.34a3.64,3.64,0,0,1-.281,1.408,3.631,3.631,0,0,1-.8,1.194,3.649,3.649,0,0,1-1.194.8,3.639,3.639,0,0,1-1.408.28h-69.946a3.644,3.644,0,0,1-1.409-.28,3.63,3.63,0,0,1-1.2-.8,3.63,3.63,0,0,1-.8-1.2A3.645,3.645,0,0,1-404.907,388.057Z" fill="#ca8b4b"/><path d="M-374.821,360.04h9.266a16.814,16.814,0,0,1,5.769,10.413c2.392,18.309-14.986,17.876-13.693,4.38C-373.224,372.138-369.43,360.04-374.821,360.04Z" fill="#b17240" fill-rule="evenodd"/><path d="M-446.627,388.06V363.718a3.639,3.639,0,0,1,.28-1.408,3.642,3.642,0,0,1,.8-1.193,3.649,3.649,0,0,1,1.194-.8,3.649,3.649,0,0,1,1.407-.28h44.794a3.636,3.636,0,0,1,1.408.281,3.645,3.645,0,0,1,1.2.8,3.645,3.645,0,0,1,.8,1.2,3.636,3.636,0,0,1,.281,1.408v24.34a3.64,3.64,0,0,1-.281,1.408,3.631,3.631,0,0,1-.8,1.194,3.649,3.649,0,0,1-1.194.8,3.639,3.639,0,0,1-1.408.28h-44.793a3.639,3.639,0,0,1-1.408-.28,3.649,3.649,0,0,1-1.194-.8,3.648,3.648,0,0,1-.8-1.194A3.639,3.639,0,0,1-446.627,388.06Z" fill="#e4b27a"/><path d="M-391.3,371.848v-7.769a.937.937,0,0,1,.285-.688.938.938,0,0,1,.689-.286h6.337a.936.936,0,0,1,.687.285.937.937,0,0,1,.285.688v7.77a.939.939,0,0,1-.285.688.937.937,0,0,1-.688.285h-6.337a.937.937,0,0,1-.688-.285A.937.937,0,0,1-391.3,371.848Z" fill="#31211d"/><path d="M-390.64,374.022h6.952a.666.666,0,0,1,.666.665.665.665,0,0,1-.666.663h-6.952a.664.664,0,0,1-.664-.663A.664.664,0,0,1-390.64,374.022Z" fill="#31211d" fill-rule="evenodd"/><path d="M-391.3,377.27h0a.639.639,0,0,1,.195-.47.64.64,0,0,1,.47-.195h6.953a.642.642,0,0,1,.471.195.644.644,0,0,1,.194.47.642.642,0,0,1-.194.47.641.641,0,0,1-.47.2h-6.954a.64.64,0,0,1-.47-.2A.639.639,0,0,1-391.3,377.27Z" fill="#31211d"/><path d="M-411.787,391.74H-438.4a4.05,4.05,0,0,1,4.039-4.04h18.534A4.052,4.052,0,0,1-411.787,391.74Z" fill="#ca8b4b" fill-rule="evenodd"/><path d="M-382.174,391.74h18.483a4.051,4.051,0,0,0-4.037-4.04h-10.407A4.052,4.052,0,0,0-382.174,391.74Z" fill="#e4b27a" fill-rule="evenodd"/><path d="M-353.441,391.74h18.487a4.054,4.054,0,0,0-4.041-4.04H-349.4A4.052,4.052,0,0,0-353.441,391.74Z" fill="#e4b27a" fill-rule="evenodd"/><path d="M-358.591,391.74a4.052,4.052,0,0,1,4.041-4.04h9.944a4.052,4.052,0,0,1,4.04,4.04Z" fill="#3f2e32" fill-rule="evenodd"/><path d="M-339.255,363.77a.64.64,0,0,1,.2-.47.638.638,0,0,1,.47-.195h6.952a.64.64,0,0,1,.47.195.64.64,0,0,1,.2.47.641.641,0,0,1-.2.47.64.64,0,0,1-.47.2h-6.952a.638.638,0,0,1-.47-.2A.641.641,0,0,1-339.255,363.77Z" fill="#e4b27a"/><path d="M-336.983,366.353a.64.64,0,0,1,.194-.47.644.644,0,0,1,.47-.194h4.682a.644.644,0,0,1,.47.194.641.641,0,0,1,.2.47h0a.638.638,0,0,1-.2.47.64.64,0,0,1-.47.2h-4.682a.641.641,0,0,1-.47-.2A.639.639,0,0,1-336.983,366.353Z" fill="#e4b27a"/><path d="M-338.59,365.688a.666.666,0,0,0-.664.664h0a.666.666,0,0,0,.664.664.666.666,0,0,0,.665-.664h0A.667.667,0,0,0-338.59,365.688Z" fill="#e4b27a" fill-rule="evenodd"/><path d="M-444.023,363.77a.64.64,0,0,1,.2-.47.638.638,0,0,1,.47-.195h6.953a.64.64,0,0,1,.47.195.64.64,0,0,1,.194.469h0a.642.642,0,0,1-.2.471.641.641,0,0,1-.47.2h-6.952a.638.638,0,0,1-.47-.2A.641.641,0,0,1-444.023,363.77Z" fill="#ca8b4b"/><path d="M-441.751,366.355a.642.642,0,0,1,.2-.471.642.642,0,0,1,.471-.2h4.68a.644.644,0,0,1,.47.194.64.64,0,0,1,.194.47h0a.636.636,0,0,1-.194.469.64.64,0,0,1-.47.2h-4.684a.638.638,0,0,1-.468-.194A.638.638,0,0,1-441.751,366.355Z" fill="#ca8b4b"/><path d="M-375.617,360.038h2.429c5.394,0,1.6,12.1,1.342,14.794-1.29,13.495,16.089,13.929,13.7-4.381C-359.4,360.917-370.015,353.057-375.617,360.038Z" fill="#c2d959" fill-rule="evenodd"/><path d="M-364.813,359.349c-.309-.218-.623-.421-.939-.607l-1.543-.216a8.951,8.951,0,0,0-2.02-1.083,6.976,6.976,0,0,0-1.79-.028,10.48,10.48,0,0,1,1.18.309c.1.033.193.066.287.1l-.669.9a.234.234,0,0,0,.049.329.236.236,0,0,0,.328-.049l.745-1a8.349,8.349,0,0,1,1.647.928l.027.02a8.092,8.092,0,0,1,.845.714l-1.567,1.43a.234.234,0,0,0-.014.331.234.234,0,0,0,.332.017l1.578-1.441a8.335,8.335,0,0,1,.866,1.1c.136.206.266.417.386.634a10.3,10.3,0,0,1,.549,1.133l-2.683,2.045a.236.236,0,0,0-.045.33.233.233,0,0,0,.327.043l2.581-1.963a15.5,15.5,0,0,1,.8,3.27l.008.057-4.444,3.636a.235.235,0,0,0-.033.331.236.236,0,0,0,.332.032l4.212-3.446a23.576,23.576,0,0,1,.129,2.95v.014c-.008.642-.041,1.287-.094,1.929-.562.55-4.654,4.537-5.082,5.015a.235.235,0,0,0,.016.331.237.237,0,0,0,.334-.017c.37-.412,3.485-3.454,4.669-4.608a37.764,37.764,0,0,1-1.642,7.752.236.236,0,0,0,.15.3.236.236,0,0,0,.3-.151,38.329,38.329,0,0,0,1.191-4.631l2.194,2.466a.239.239,0,0,0,.334.019.237.237,0,0,0,.017-.333l-2.44-2.737c.186-1.065.334-2.162.423-3.266.047-.542.076-1.085.093-1.626l3.558,2.508a.236.236,0,0,0,.326-.056.238.238,0,0,0-.056-.329l-3.815-2.692a23.878,23.878,0,0,0-.212-3.51c-.042-.312-.092-.622-.153-.928l3.044,1.1a.232.232,0,0,0,.3-.14.234.234,0,0,0-.142-.3l-3.313-1.2a14.843,14.843,0,0,0-.668-2.189l-.01-.025c-.12-.295-.25-.585-.389-.867l1.735.458a.236.236,0,0,0,.288-.167.235.235,0,0,0-.167-.287l-2.158-.569c-.112-.2-.228-.387-.353-.575a9.207,9.207,0,0,0-1.5-1.744Z" fill="#9bac48" fill-rule="evenodd"/><path d="M-417.448,360.039h-3.986c-8.848,0-2.623,19.85-2.2,24.272,2.114,22.144-26.4,22.856-22.47-7.187C-444.062,361.483-426.638,348.583-417.448,360.039Z" fill="#c2d959" fill-rule="evenodd"/><path d="M-435.174,358.909q.759-.535,1.541-.995l2.533-.356a14.683,14.683,0,0,1,3.313-1.777,11.638,11.638,0,0,1,2.94-.047,17.246,17.246,0,0,0-1.939.51c-.16.051-.316.107-.472.163l1.1,1.48a.386.386,0,0,1-.081.539.386.386,0,0,1-.539-.08L-428,356.7a13.7,13.7,0,0,0-2.7,1.524l-.043.03a13.534,13.534,0,0,0-1.389,1.173l2.574,2.345a.388.388,0,0,1,.024.545.386.386,0,0,1-.545.027l-2.591-2.365a14.235,14.235,0,0,0-1.42,1.812q-.336.506-.635,1.041a17.4,17.4,0,0,0-.9,1.858l4.4,3.355a.39.39,0,0,1,.072.541.387.387,0,0,1-.541.072l-4.229-3.221a25.7,25.7,0,0,0-1.311,5.366l-.012.1,7.289,5.963a.388.388,0,0,1,.055.544.39.39,0,0,1-.545.054l-6.912-5.654a40.259,40.259,0,0,0-.212,4.837v.025c.018,1.052.069,2.111.153,3.166.927.9,7.637,7.443,8.343,8.227a.386.386,0,0,1-.028.544.387.387,0,0,1-.546-.029c-.607-.676-5.72-5.667-7.662-7.561a61.983,61.983,0,0,0,2.7,12.72.388.388,0,0,1-.248.487.388.388,0,0,1-.487-.247,61.647,61.647,0,0,1-1.95-7.6l-3.6,4.044a.386.386,0,0,1-.545.032.387.387,0,0,1-.032-.545l4-4.494c-.3-1.744-.546-3.544-.7-5.357-.072-.888-.122-1.78-.15-2.669l-5.835,4.116a.385.385,0,0,1-.536-.094.386.386,0,0,1,.094-.537l6.258-4.415A39.128,39.128,0,0,1-438,370.7c.074-.513.156-1.02.252-1.522l-4.992,1.805a.387.387,0,0,1-.494-.232.385.385,0,0,1,.233-.493l5.437-1.967a23.624,23.624,0,0,1,1.1-3.591l.015-.039c.2-.486.407-.961.638-1.422l-2.848.75a.388.388,0,0,1-.472-.276.386.386,0,0,1,.275-.47l3.537-.934c.186-.32.382-.636.582-.941a14.814,14.814,0,0,1,2.463-2.862Z" fill="#9bac48" fill-rule="evenodd"/><path d="M-327.127,391.769s-6.933-6.7-2.809-12.354a25.148,25.148,0,0,1,3.63,8.948s.693-8.308,4.125-11.923c1.549,4.859-1.76,12.629-1.76,12.629s4.1-6.273,10.417-9.258c-2.164,5.962-7.634,11.958-7.634,11.958Z" fill="#505928"/><path d="M-356.731,307.191l86.114-6.245s-9.484,54.869-24.895,90.682l-29.251,17.792-67.136-4.612S-369.549,381.472-356.731,307.191Z" fill="#8ca6de"/><path d="M-324.763,409.42s7.414-10.5,2.633-19.3l26.618,1.512Z" fill="#4a72a8"/><path d="M-297.56,327.12a59.925,59.925,0,0,0-6.286,5.672c-2.107,2.031-4.128,4.164-6.12,6.308a160.446,160.446,0,0,0-10.795,13.028,160.63,160.63,0,0,0-9.639,14.066q-2.25,3.779-4.435,7.6c-.324.567-.628,1.151-.927,1.739-.109-.747-.226-1.49-.345-2.224a82.832,82.832,0,0,0-1.766-8.871c-1.582-5.718-3.338-12.024-6.742-16.968-1.059-1.538-3.767-.648-3.164,1.334.84,2.761,2.058,5.44,3.061,8.15a77.89,77.89,0,0,1,2.582,8.357c.695,2.829,1.4,5.665,1.874,8.542.477,2.893.611,5.819,1,8.718.3,2.212,3.189,2.831,3.99.54.945-2.7,2.71-5.317,4.061-7.837,1.3-2.428,2.686-4.794,4.151-7.127,2.921-4.653,5.846-9.312,9.055-13.773,3.236-4.5,6.658-8.859,10.172-13.142,1.748-2.13,3.55-4.212,5.378-6.273,1.937-2.184,4.1-4.252,5.886-6.555C-296.063,327.747-296.733,326.524-297.56,327.12Z" fill="#fff"/><path d="M-248.4,225.322h33.585s-1.68-3.9-6.858-2.36c.141-5.878-5.6-6.121-7-2.5-1.679-3.657-10.215-3.8-10.075,1.238-1.26-2.376-2.659-.557-2.519.7C-248.4,220.163-248.4,225.322-248.4,225.322Z" fill="#fff"/><path d="M-560.038,225.322h33.585s-1.68-3.9-6.858-2.36c.141-5.878-5.6-6.121-7-2.5-1.679-3.657-10.215-3.8-10.075,1.238-1.26-2.376-2.659-.557-2.519.7C-560.038,220.163-560.038,225.322-560.038,225.322Z" fill="#fff"/></g></g></svg>