<svg xmlns="http://www.w3.org/2000/svg" width="1088" height="234" viewBox="0 0 1088 234">
  <g id="Grupo_54097" data-name="Grupo 54097" transform="translate(-139 -3650)">
    <rect id="Rectángulo_5398" data-name="Rectángulo 5398" width="1088" height="234" transform="translate(139 3650)" fill="none"/>
    <g id="Grupo_54096" data-name="Grupo 54096" transform="translate(3.516 -3.583)">
      <ellipse id="Elipse_3996" data-name="Elipse 3996" cx="40.252" cy="5.399" rx="40.252" ry="5.399" transform="translate(1087.325 3868.989)" fill="#e6e6e6"/>
      <rect id="Rectángulo_5399" data-name="Rectángulo 5399" width="130.071" height="205.756" transform="translate(464.328 3667.378)" fill="#e6e6e6"/>
      <rect id="Rectángulo_5400" data-name="Rectángulo 5400" width="130.071" height="205.756" transform="translate(772.685 3667.378)" fill="#e6e6e6"/>
      <rect id="Rectángulo_5401" data-name="Rectángulo 5401" width="130.071" height="205.756" transform="translate(618.506 3667.378)" fill="#e6e6e6"/>
      <rect id="Rectángulo_5402" data-name="Rectángulo 5402" width="130.071" height="205.756" transform="translate(926.864 3667.378)" fill="#e6e6e6"/>
      <rect id="Rectángulo_5403" data-name="Rectángulo 5403" width="157.383" height="56.777" transform="translate(450.672 3789.964)" fill="#cddf77"/>
      <rect id="Rectángulo_5404" data-name="Rectángulo 5404" width="157.383" height="56.777" transform="translate(759.029 3789.964)" fill="#cddf77"/>
      <rect id="Rectángulo_5405" data-name="Rectángulo 5405" width="157.383" height="56.777" transform="translate(604.85 3680.046)" fill="#cddf77"/>
      <rect id="Rectángulo_5406" data-name="Rectángulo 5406" width="157.383" height="56.777" transform="translate(913.208 3680.046)" fill="#cddf77"/>
      <path id="Trazado_100830" data-name="Trazado 100830" d="M913.208,3736.823l-10.451,8.512v-57.283l10.451-8.006Z" fill="#819b00"/>
      <path id="Trazado_100831" data-name="Trazado 100831" d="M604.85,3736.823l-10.451,8.512v-57.283l10.451-8.006Z" fill="#819b00"/>
      <path id="Trazado_100832" data-name="Trazado 100832" d="M759.029,3846.741l-10.451,8.512v-57.283l10.451-8.005Z" fill="#819b00"/>
      <path id="Trazado_100833" data-name="Trazado 100833" d="M450.672,3846.741l-10.451,8.512v-57.283l10.451-8.005Z" fill="#819b00"/>
      <path id="Trazado_100834" data-name="Trazado 100834" d="M453.876,3736.976l10.451,8.512V3688.2l-10.451-8.005Z" fill="#819b00"/>
      <path id="Trazado_100835" data-name="Trazado 100835" d="M608.055,3846.893l10.451,8.512v-57.283l-10.451-8.005Z" fill="#819b00"/>
      <path id="Trazado_100836" data-name="Trazado 100836" d="M916.412,3846.893l10.451,8.512v-57.283l-10.451-8.005Z" fill="#819b00"/>
      <path id="Trazado_100837" data-name="Trazado 100837" d="M762.233,3736.976l10.451,8.512V3688.2l-10.451-8.005Z" fill="#819b00"/>
      <rect id="Rectángulo_5407" data-name="Rectángulo 5407" width="130.071" height="205.756" transform="translate(310.149 3667.378)" fill="#e6e6e6"/>
      <g id="Grupo_54073" data-name="Grupo 54073">
        <path id="Trazado_100838" data-name="Trazado 100838" d="M486.8,3711.327h-3.934v3.649h4.384v1.095h-5.691v-10.12h5.466v1.1h-4.159v3.2H486.8Z"/>
        <path id="Trazado_100839" data-name="Trazado 100839" d="M488.719,3714.72a3.453,3.453,0,0,0,1.742.525c.961,0,1.411-.48,1.411-1.081,0-.63-.376-.976-1.351-1.336-1.307-.466-1.922-1.186-1.922-2.057a2.241,2.241,0,0,1,2.507-2.132,3.628,3.628,0,0,1,1.787.451l-.33.961a2.821,2.821,0,0,0-1.487-.421c-.781,0-1.216.45-1.216.991,0,.6.435.871,1.381,1.232,1.262.48,1.907,1.11,1.907,2.191,0,1.276-.99,2.178-2.718,2.178a4.153,4.153,0,0,1-2.042-.5Z"/>
        <path id="Trazado_100840" data-name="Trazado 100840" d="M496.437,3706.717v2.087h1.892v1.007h-1.892v3.918c0,.9.256,1.412.992,1.412a2.888,2.888,0,0,0,.765-.091l.06.991a3.231,3.231,0,0,1-1.171.181,1.832,1.832,0,0,1-1.426-.556,2.7,2.7,0,0,1-.511-1.892v-3.963H494.02V3708.8h1.126v-1.742Z"/>
        <path id="Trazado_100841" data-name="Trazado 100841" d="M505.9,3714.089c0,.751.015,1.412.06,1.982h-1.171l-.075-1.186h-.03a2.734,2.734,0,0,1-2.4,1.351c-1.142,0-2.508-.631-2.508-3.182v-4.25h1.321v4.024c0,1.382.421,2.313,1.622,2.313a1.86,1.86,0,0,0,1.861-1.877v-4.46H505.9Z"/>
        <path id="Trazado_100842" data-name="Trazado 100842" d="M514.367,3705.411v8.783c0,.646.016,1.382.061,1.877h-1.187l-.06-1.261h-.029a2.689,2.689,0,0,1-2.478,1.426c-1.757,0-3.108-1.486-3.108-3.693-.015-2.417,1.487-3.9,3.258-3.9a2.43,2.43,0,0,1,2.192,1.111h.03v-4.339Zm-1.321,6.351a2.294,2.294,0,0,0-.06-.556,1.943,1.943,0,0,0-1.907-1.531c-1.366,0-2.177,1.2-2.177,2.807,0,1.472.721,2.689,2.147,2.689a1.986,1.986,0,0,0,1.937-1.577,2.257,2.257,0,0,0,.06-.571Z"/>
        <path id="Trazado_100843" data-name="Trazado 100843" d="M518.033,3706.763a.818.818,0,0,1-1.636,0,.8.8,0,0,1,.825-.826A.784.784,0,0,1,518.033,3706.763Zm-1.471,9.308V3708.8h1.321v7.267Z"/>
        <path id="Trazado_100844" data-name="Trazado 100844" d="M526.652,3712.378a3.552,3.552,0,0,1-3.619,3.858,3.455,3.455,0,0,1-3.483-3.738,3.549,3.549,0,0,1,3.6-3.859A3.441,3.441,0,0,1,526.652,3712.378Zm-5.765.075c0,1.591.916,2.792,2.207,2.792,1.261,0,2.207-1.185,2.207-2.822,0-1.232-.616-2.793-2.177-2.793S520.887,3711.071,520.887,3712.453Z"/>
        <path id="Trazado_100845" data-name="Trazado 100845" d="M537.78,3705.411v8.783c0,.646.015,1.382.06,1.877h-1.186l-.06-1.261h-.03a2.688,2.688,0,0,1-2.477,1.426c-1.757,0-3.108-1.486-3.108-3.693-.015-2.417,1.486-3.9,3.258-3.9a2.432,2.432,0,0,1,2.192,1.111h.03v-4.339Zm-1.321,6.351a2.344,2.344,0,0,0-.06-.556,1.944,1.944,0,0,0-1.907-1.531c-1.366,0-2.177,1.2-2.177,2.807,0,1.472.72,2.689,2.147,2.689a1.987,1.987,0,0,0,1.937-1.577,2.3,2.3,0,0,0,.06-.571Z"/>
        <path id="Trazado_100846" data-name="Trazado 100846" d="M540.709,3712.678a2.329,2.329,0,0,0,2.493,2.522,4.781,4.781,0,0,0,2.012-.375l.225.945a5.866,5.866,0,0,1-2.417.452,3.374,3.374,0,0,1-3.573-3.664c0-2.192,1.291-3.919,3.408-3.919,2.372,0,3,2.087,3,3.423a5.2,5.2,0,0,1-.045.616Zm3.874-.946a1.881,1.881,0,0,0-1.832-2.147,2.19,2.19,0,0,0-2.027,2.147Z"/>
        <path id="Trazado_100847" data-name="Trazado 100847" d="M555.862,3715.8a4.877,4.877,0,0,1-2.088.421,3.452,3.452,0,0,1-3.618-3.709,3.692,3.692,0,0,1,3.9-3.859,4.434,4.434,0,0,1,1.831.375l-.3,1.022a3.051,3.051,0,0,0-1.531-.346,2.74,2.74,0,0,0-.046,5.466,3.74,3.74,0,0,0,1.622-.361Z"/>
        <path id="Trazado_100848" data-name="Trazado 100848" d="M561.433,3716.071l-.1-.916h-.045a2.7,2.7,0,0,1-2.222,1.081,2.071,2.071,0,0,1-2.222-2.087c0-1.756,1.561-2.717,4.369-2.7v-.149a1.5,1.5,0,0,0-1.652-1.682,3.626,3.626,0,0,0-1.892.54l-.3-.871a4.52,4.52,0,0,1,2.387-.645c2.222,0,2.762,1.516,2.762,2.973v2.717a10.131,10.131,0,0,0,.121,1.742Zm-.2-3.709c-1.441-.029-3.078.226-3.078,1.637a1.17,1.17,0,0,0,1.247,1.262,1.808,1.808,0,0,0,1.756-1.217,1.378,1.378,0,0,0,.075-.42Z"/>
        <path id="Trazado_100849" data-name="Trazado 100849" d="M564.468,3714.72a3.452,3.452,0,0,0,1.741.525c.961,0,1.411-.48,1.411-1.081,0-.63-.375-.976-1.351-1.336-1.306-.466-1.922-1.186-1.922-2.057a2.242,2.242,0,0,1,2.508-2.132,3.624,3.624,0,0,1,1.786.451l-.33.961a2.82,2.82,0,0,0-1.486-.421c-.781,0-1.216.45-1.216.991,0,.6.435.871,1.381,1.232,1.261.48,1.907,1.11,1.907,2.191,0,1.276-.991,2.178-2.718,2.178a4.15,4.15,0,0,1-2.042-.5Z"/>
        <path id="Trazado_100850" data-name="Trazado 100850" d="M577.171,3712.378a3.551,3.551,0,0,1-3.618,3.858,3.454,3.454,0,0,1-3.483-3.738,3.548,3.548,0,0,1,3.6-3.859A3.441,3.441,0,0,1,577.171,3712.378Zm-5.765.075c0,1.591.916,2.792,2.207,2.792,1.261,0,2.207-1.185,2.207-2.822,0-1.232-.616-2.793-2.177-2.793S571.406,3711.071,571.406,3712.453Z"/>
      </g>
      <g id="Grupo_54074" data-name="Grupo 54074">
        <path id="Trazado_100851" data-name="Trazado 100851" d="M654.9,3716.154l-3.3-10.12h1.412l1.576,4.985c.435,1.366.811,2.6,1.081,3.783h.03c.285-1.171.706-2.447,1.156-3.768l1.712-5h1.4l-3.618,10.12Z"/>
        <path id="Trazado_100852" data-name="Trazado 100852" d="M662.247,3706.845a.819.819,0,0,1-1.637,0,.805.805,0,0,1,.826-.826A.784.784,0,0,1,662.247,3706.845Zm-1.471,9.309v-7.268H662.1v7.268Z"/>
        <path id="Trazado_100853" data-name="Trazado 100853" d="M670.566,3705.494v8.783c0,.645.015,1.382.06,1.877H669.44l-.06-1.262h-.03a2.686,2.686,0,0,1-2.477,1.427c-1.757,0-3.108-1.486-3.108-3.694-.016-2.417,1.486-3.9,3.257-3.9a2.433,2.433,0,0,1,2.193,1.112h.03v-4.339Zm-1.321,6.35a2.387,2.387,0,0,0-.06-.555,1.945,1.945,0,0,0-1.907-1.532c-1.366,0-2.177,1.2-2.177,2.808,0,1.472.72,2.688,2.147,2.688a1.987,1.987,0,0,0,1.937-1.577,2.336,2.336,0,0,0,.06-.57Z"/>
        <path id="Trazado_100854" data-name="Trazado 100854" d="M673.5,3712.76a2.328,2.328,0,0,0,2.492,2.523,4.781,4.781,0,0,0,2.012-.375l.226.945a5.878,5.878,0,0,1-2.418.451,3.375,3.375,0,0,1-3.574-3.664c0-2.191,1.292-3.919,3.409-3.919,2.372,0,3,2.087,3,3.424a4.96,4.96,0,0,1-.045.615Zm3.874-.945a1.882,1.882,0,0,0-1.832-2.148,2.191,2.191,0,0,0-2.027,2.148Z"/>
        <path id="Trazado_100855" data-name="Trazado 100855" d="M686.86,3712.46a3.552,3.552,0,0,1-3.619,3.859,3.455,3.455,0,0,1-3.483-3.738,3.549,3.549,0,0,1,3.6-3.86A3.442,3.442,0,0,1,686.86,3712.46Zm-5.766.076c0,1.59.916,2.792,2.208,2.792,1.26,0,2.207-1.186,2.207-2.823,0-1.231-.616-2.793-2.178-2.793S681.094,3711.154,681.094,3712.536Z"/>
        <path id="Trazado_100856" data-name="Trazado 100856" d="M691.848,3716.154v-6.261h-1.022v-1.007h1.022v-.345a3.43,3.43,0,0,1,.84-2.538,2.529,2.529,0,0,1,1.772-.674,3.047,3.047,0,0,1,1.126.21l-.18,1.02a1.975,1.975,0,0,0-.841-.165c-1.126,0-1.411.991-1.411,2.1v.389h1.756v1.007h-1.756v6.261Z"/>
        <path id="Trazado_100857" data-name="Trazado 100857" d="M702.478,3712.46a3.551,3.551,0,0,1-3.618,3.859,3.455,3.455,0,0,1-3.483-3.738,3.549,3.549,0,0,1,3.6-3.86A3.441,3.441,0,0,1,702.478,3712.46Zm-5.765.076c0,1.59.916,2.792,2.207,2.792,1.262,0,2.207-1.186,2.207-2.823,0-1.231-.615-2.793-2.177-2.793S696.713,3711.154,696.713,3712.536Z"/>
        <path id="Trazado_100858" data-name="Trazado 100858" d="M704.147,3711.154c0-.856-.015-1.592-.06-2.268h1.156l.045,1.427h.06a2.18,2.18,0,0,1,2.012-1.592,1.424,1.424,0,0,1,.375.046v1.246a1.981,1.981,0,0,0-.45-.045,1.853,1.853,0,0,0-1.772,1.7,3.7,3.7,0,0,0-.06.615v3.874h-1.306Z"/>
        <path id="Trazado_100859" data-name="Trazado 100859" d="M715.484,3712.46a3.552,3.552,0,0,1-3.619,3.859,3.455,3.455,0,0,1-3.483-3.738,3.549,3.549,0,0,1,3.6-3.86A3.442,3.442,0,0,1,715.484,3712.46Zm-5.766.076c0,1.59.916,2.792,2.208,2.792,1.26,0,2.207-1.186,2.207-2.823,0-1.231-.616-2.793-2.177-2.793S709.718,3711.154,709.718,3712.536Z"/>
      </g>
      <g id="Grupo_54075" data-name="Grupo 54075">
        <path id="Trazado_100860" data-name="Trazado 100860" d="M817.5,3813.752h-3.078v-1.112h7.492v1.112H818.82v9.008H817.5Z"/>
        <path id="Trazado_100861" data-name="Trazado 100861" d="M826.059,3822.76l-.106-.916h-.045a2.7,2.7,0,0,1-2.221,1.081,2.071,2.071,0,0,1-2.223-2.086c0-1.757,1.561-2.718,4.369-2.7v-.149a1.5,1.5,0,0,0-1.651-1.682,3.624,3.624,0,0,0-1.892.54l-.3-.871a4.527,4.527,0,0,1,2.388-.645c2.223,0,2.763,1.516,2.763,2.973v2.717a10.238,10.238,0,0,0,.12,1.742Zm-.2-3.709c-1.441-.029-3.078.226-3.078,1.637a1.169,1.169,0,0,0,1.246,1.262,1.807,1.807,0,0,0,1.757-1.217,1.378,1.378,0,0,0,.075-.42Z"/>
        <path id="Trazado_100862" data-name="Trazado 100862" d="M829.273,3812.1h1.322v10.66h-1.322Z"/>
        <path id="Trazado_100863" data-name="Trazado 100863" d="M832.817,3812.1h1.322v10.66h-1.322Z"/>
        <path id="Trazado_100864" data-name="Trazado 100864" d="M837.1,3819.367a2.328,2.328,0,0,0,2.493,2.522,4.784,4.784,0,0,0,2.012-.375l.225.946a5.878,5.878,0,0,1-2.418.451,3.375,3.375,0,0,1-3.573-3.664c0-2.192,1.291-3.919,3.408-3.919,2.372,0,3,2.087,3,3.424a4.988,4.988,0,0,1-.045.615Zm3.874-.945a1.882,1.882,0,0,0-1.832-2.148,2.191,2.191,0,0,0-2.027,2.148Z"/>
        <path id="Trazado_100865" data-name="Trazado 100865" d="M843.885,3817.76c0-.855-.015-1.591-.06-2.267h1.155l.046,1.427h.06a2.181,2.181,0,0,1,2.012-1.592,1.392,1.392,0,0,1,.376.046v1.246a2,2,0,0,0-.452-.045,1.854,1.854,0,0,0-1.771,1.7,3.73,3.73,0,0,0-.06.615v3.874h-1.306Z"/>
        <path id="Trazado_100866" data-name="Trazado 100866" d="M849.381,3819.367a2.328,2.328,0,0,0,2.493,2.522,4.78,4.78,0,0,0,2.012-.375l.225.946a5.871,5.871,0,0,1-2.418.451,3.375,3.375,0,0,1-3.573-3.664c0-2.192,1.291-3.919,3.408-3.919,2.372,0,3,2.087,3,3.424a4.988,4.988,0,0,1-.045.615Zm3.874-.945a1.881,1.881,0,0,0-1.832-2.148,2.189,2.189,0,0,0-2.026,2.148Z"/>
        <path id="Trazado_100867" data-name="Trazado 100867" d="M855.989,3821.409a3.456,3.456,0,0,0,1.742.525c.961,0,1.412-.48,1.412-1.081,0-.63-.376-.975-1.352-1.336-1.307-.466-1.922-1.186-1.922-2.056a2.242,2.242,0,0,1,2.508-2.133,3.627,3.627,0,0,1,1.786.451l-.33.961a2.821,2.821,0,0,0-1.486-.421c-.782,0-1.216.45-1.216.991,0,.6.434.871,1.381,1.232,1.261.48,1.907,1.11,1.907,2.191,0,1.276-.991,2.178-2.718,2.178a4.148,4.148,0,0,1-2.042-.5Z"/>
      </g>
      <g id="Grupo_54077" data-name="Grupo 54077">
        <g id="Grupo_54076" data-name="Grupo 54076">
          <path id="Trazado_100868" data-name="Trazado 100868" d="M985.124,3816.9a9.431,9.431,0,0,1-3.108.556,4.753,4.753,0,0,1-5.2-5.106c.015-3.017,2.087-5.224,5.481-5.224a6.262,6.262,0,0,1,2.522.464l-.315,1.067a5.252,5.252,0,0,0-2.237-.436,3.786,3.786,0,0,0-4.07,4.07c0,2.567,1.547,4.084,3.9,4.084a4.24,4.24,0,0,0,1.742-.271v-3.018h-2.057v-1.051h3.333Z"/>
          <path id="Trazado_100869" data-name="Trazado 100869" d="M988.55,3808.043a.819.819,0,0,1-1.637,0,.806.806,0,0,1,.826-.826A.785.785,0,0,1,988.55,3808.043Zm-1.472,9.309v-7.266H988.4v7.266Z"/>
          <path id="Trazado_100870" data-name="Trazado 100870" d="M990.592,3812.352c0-.855-.015-1.592-.06-2.266h1.156l.045,1.425h.06a2.18,2.18,0,0,1,2.012-1.591,1.435,1.435,0,0,1,.376.045v1.247a1.939,1.939,0,0,0-.451-.046,1.855,1.855,0,0,0-1.772,1.7,3.721,3.721,0,0,0-.06.615v3.874h-1.306Z"/>
          <path id="Trazado_100871" data-name="Trazado 100871" d="M999.452,3817.352l-.105-.916H999.3a2.707,2.707,0,0,1-2.223,1.081,2.071,2.071,0,0,1-2.222-2.087c0-1.756,1.562-2.717,4.37-2.7v-.15a1.5,1.5,0,0,0-1.652-1.682,3.621,3.621,0,0,0-1.892.54l-.3-.87a4.506,4.506,0,0,1,2.388-.646c2.221,0,2.762,1.516,2.762,2.973v2.718a10.233,10.233,0,0,0,.12,1.741Zm-.2-3.709c-1.442-.029-3.078.226-3.078,1.637a1.169,1.169,0,0,0,1.246,1.262,1.808,1.808,0,0,0,1.757-1.217,1.378,1.378,0,0,0,.075-.42Z"/>
          <path id="Trazado_100872" data-name="Trazado 100872" d="M1002.486,3816a3.457,3.457,0,0,0,1.743.525c.96,0,1.411-.48,1.411-1.081,0-.63-.376-.976-1.352-1.336-1.307-.466-1.922-1.186-1.922-2.057a2.242,2.242,0,0,1,2.508-2.132,3.627,3.627,0,0,1,1.786.451l-.33.961a2.815,2.815,0,0,0-1.486-.421c-.781,0-1.216.45-1.216.991,0,.6.435.871,1.381,1.231,1.262.481,1.907,1.111,1.907,2.192,0,1.276-.991,2.178-2.718,2.178a4.15,4.15,0,0,1-2.042-.5Z"/>
          <path id="Trazado_100873" data-name="Trazado 100873" d="M969.14,3823.015v2.088h1.891v1.006H969.14v3.918c0,.9.255,1.412.991,1.412a2.956,2.956,0,0,0,.766-.09l.059.991a3.234,3.234,0,0,1-1.171.18,1.836,1.836,0,0,1-1.427-.555,2.7,2.7,0,0,1-.509-1.892v-3.964h-1.127V3825.1h1.127v-1.742Z"/>
          <path id="Trazado_100874" data-name="Trazado 100874" d="M973.164,3828.976a2.329,2.329,0,0,0,2.493,2.523,4.781,4.781,0,0,0,2.012-.375l.226.946a5.9,5.9,0,0,1-2.418.45,3.375,3.375,0,0,1-3.574-3.664c0-2.192,1.291-3.919,3.409-3.919,2.372,0,3,2.088,3,3.424a5.22,5.22,0,0,1-.044.615Zm3.874-.945a1.881,1.881,0,0,0-1.832-2.148,2.189,2.189,0,0,0-2.026,2.148Zm.316-6.066-1.832,2.147h-.946l1.321-2.147Z"/>
          <path id="Trazado_100875" data-name="Trazado 100875" d="M985.133,3832.1a4.856,4.856,0,0,1-2.087.421,3.453,3.453,0,0,1-3.619-3.709,3.692,3.692,0,0,1,3.9-3.858,4.424,4.424,0,0,1,1.832.375l-.3,1.021a3.06,3.06,0,0,0-1.531-.345,2.739,2.739,0,0,0-.045,5.464,3.752,3.752,0,0,0,1.621-.359Z"/>
          <path id="Trazado_100876" data-name="Trazado 100876" d="M986.681,3827.07c0-.751-.016-1.367-.061-1.967h1.171l.075,1.2h.031a2.672,2.672,0,0,1,2.4-1.367c1.006,0,2.567.6,2.567,3.094v4.339h-1.321v-4.19c0-1.171-.436-2.146-1.682-2.146A1.936,1.936,0,0,0,988,3828v4.369h-1.321Z"/>
          <path id="Trazado_100877" data-name="Trazado 100877" d="M996.486,3823.06a.818.818,0,0,1-1.636,0,.8.8,0,0,1,.826-.825A.783.783,0,0,1,996.486,3823.06Zm-1.47,9.31V3825.1h1.321v7.267Z"/>
          <path id="Trazado_100878" data-name="Trazado 100878" d="M1003.709,3832.1a4.848,4.848,0,0,1-2.087.421,3.453,3.453,0,0,1-3.618-3.709,3.691,3.691,0,0,1,3.9-3.858,4.42,4.42,0,0,1,1.832.375l-.3,1.021a3.065,3.065,0,0,0-1.532-.345,2.739,2.739,0,0,0-.045,5.464,3.761,3.761,0,0,0,1.622-.359Z"/>
          <path id="Trazado_100879" data-name="Trazado 100879" d="M1009.281,3832.37l-.1-.916h-.045a2.708,2.708,0,0,1-2.222,1.081,2.07,2.07,0,0,1-2.222-2.087c0-1.757,1.561-2.718,4.369-2.7v-.151a1.5,1.5,0,0,0-1.652-1.681,3.62,3.62,0,0,0-1.891.54l-.3-.87a4.509,4.509,0,0,1,2.388-.647c2.222,0,2.762,1.517,2.762,2.974v2.718a10.349,10.349,0,0,0,.12,1.741Zm-.2-3.709c-1.441-.029-3.078.225-3.078,1.637a1.169,1.169,0,0,0,1.246,1.261,1.807,1.807,0,0,0,1.757-1.217,1.371,1.371,0,0,0,.075-.419Z"/>
          <path id="Trazado_100880" data-name="Trazado 100880" d="M1012.315,3831.018a3.463,3.463,0,0,0,1.743.526c.961,0,1.411-.481,1.411-1.081,0-.63-.376-.976-1.352-1.336-1.306-.466-1.922-1.187-1.922-2.057a2.242,2.242,0,0,1,2.508-2.133,3.628,3.628,0,0,1,1.786.451l-.33.961a2.824,2.824,0,0,0-1.486-.421c-.781,0-1.216.451-1.216.992,0,.6.435.871,1.381,1.231,1.262.481,1.907,1.11,1.907,2.191,0,1.277-.991,2.178-2.718,2.178a4.137,4.137,0,0,1-2.042-.5Z"/>
        </g>
      </g>
      <g id="Grupo_54078" data-name="Grupo 54078">
        <path id="Trazado_100881" data-name="Trazado 100881" d="M640.6,3807.368a18.729,18.729,0,0,1,2.777-.211,5.8,5.8,0,0,1,4.1,1.262,4.663,4.663,0,0,1,1.426,3.633,5.352,5.352,0,0,1-1.457,3.934,6.236,6.236,0,0,1-4.474,1.456,21.1,21.1,0,0,1-2.372-.12Zm1.306,8.948a8.131,8.131,0,0,0,1.321.075c2.793,0,4.309-1.561,4.309-4.294.015-2.387-1.336-3.9-4.1-3.9a7.4,7.4,0,0,0-1.532.136Z"/>
        <path id="Trazado_100882" data-name="Trazado 100882" d="M651.351,3813.959a2.327,2.327,0,0,0,2.492,2.522,4.781,4.781,0,0,0,2.012-.375l.226.946a5.9,5.9,0,0,1-2.418.451,3.375,3.375,0,0,1-3.573-3.664c0-2.193,1.291-3.919,3.408-3.919,2.372,0,3,2.087,3,3.423a4.979,4.979,0,0,1-.045.616Zm3.874-.946a1.882,1.882,0,0,0-1.832-2.147,2.19,2.19,0,0,0-2.027,2.147Z"/>
        <path id="Trazado_100883" data-name="Trazado 100883" d="M658.139,3812.052c0-.751-.015-1.367-.06-1.966h1.156l.06,1.171h.045a2.505,2.505,0,0,1,2.283-1.337,2.149,2.149,0,0,1,2.057,1.457h.029a3,3,0,0,1,.812-.947,2.479,2.479,0,0,1,1.606-.51c.961,0,2.387.63,2.387,3.153v4.279h-1.291v-4.114c0-1.4-.511-2.237-1.576-2.237a1.71,1.71,0,0,0-1.562,1.2,2.182,2.182,0,0,0-.105.661v4.489h-1.292V3813c0-1.157-.51-2-1.516-2a1.807,1.807,0,0,0-1.637,1.321,1.826,1.826,0,0,0-.1.646v4.384h-1.291Z"/>
        <path id="Trazado_100884" data-name="Trazado 100884" d="M677.24,3813.659a3.551,3.551,0,0,1-3.618,3.858,3.454,3.454,0,0,1-3.483-3.738,3.548,3.548,0,0,1,3.6-3.859A3.441,3.441,0,0,1,677.24,3813.659Zm-5.765.075c0,1.591.916,2.792,2.207,2.792,1.261,0,2.207-1.186,2.207-2.822,0-1.232-.616-2.793-2.177-2.793S671.475,3812.352,671.475,3813.734Z"/>
        <path id="Trazado_100885" data-name="Trazado 100885" d="M678.729,3816a3.452,3.452,0,0,0,1.741.525c.961,0,1.411-.48,1.411-1.081,0-.63-.375-.976-1.351-1.336-1.306-.466-1.922-1.186-1.922-2.057a2.242,2.242,0,0,1,2.508-2.132,3.624,3.624,0,0,1,1.786.451l-.33.961a2.818,2.818,0,0,0-1.486-.421c-.781,0-1.216.45-1.216.991,0,.6.435.871,1.381,1.231,1.261.481,1.907,1.111,1.907,2.192,0,1.276-.991,2.178-2.718,2.178a4.153,4.153,0,0,1-2.042-.5Z"/>
        <path id="Trazado_100886" data-name="Trazado 100886" d="M686.447,3808v2.088h1.892v1.005h-1.892v3.918c0,.9.256,1.413.991,1.413a2.942,2.942,0,0,0,.766-.09l.06.99a3.231,3.231,0,0,1-1.171.181,1.833,1.833,0,0,1-1.426-.556,2.691,2.691,0,0,1-.511-1.892v-3.964H684.03v-1.005h1.126v-1.743Z"/>
        <path id="Trazado_100887" data-name="Trazado 100887" d="M689.827,3812.352c0-.855-.015-1.592-.06-2.266h1.156l.045,1.425h.06a2.18,2.18,0,0,1,2.012-1.591,1.426,1.426,0,0,1,.375.045v1.247a1.923,1.923,0,0,0-.45-.046,1.854,1.854,0,0,0-1.772,1.7,3.728,3.728,0,0,0-.06.615v3.874h-1.306Z"/>
        <path id="Trazado_100888" data-name="Trazado 100888" d="M698.687,3817.352l-.106-.916h-.045a2.7,2.7,0,0,1-2.222,1.081,2.071,2.071,0,0,1-2.222-2.087c0-1.756,1.561-2.717,4.369-2.7v-.15a1.5,1.5,0,0,0-1.651-1.682,3.621,3.621,0,0,0-1.892.54l-.3-.87a4.509,4.509,0,0,1,2.388-.646c2.222,0,2.763,1.516,2.763,2.973v2.718a10.134,10.134,0,0,0,.12,1.741Zm-.2-3.709c-1.441-.029-3.078.226-3.078,1.637a1.17,1.17,0,0,0,1.246,1.262,1.808,1.808,0,0,0,1.757-1.217,1.378,1.378,0,0,0,.075-.42Z"/>
        <path id="Trazado_100889" data-name="Trazado 100889" d="M707.081,3817.082a4.871,4.871,0,0,1-2.087.421,3.453,3.453,0,0,1-3.619-3.709,3.692,3.692,0,0,1,3.9-3.859,4.436,4.436,0,0,1,1.832.375l-.3,1.022a3.056,3.056,0,0,0-1.532-.346,2.739,2.739,0,0,0-.045,5.465,3.737,3.737,0,0,0,1.621-.36Z"/>
        <path id="Trazado_100890" data-name="Trazado 100890" d="M710.1,3808.043a.818.818,0,0,1-1.636,0,.805.805,0,0,1,.826-.826A.784.784,0,0,1,710.1,3808.043Zm-1.471,9.309v-7.266h1.321v7.266Z"/>
        <path id="Trazado_100891" data-name="Trazado 100891" d="M718.719,3813.659a3.551,3.551,0,0,1-3.618,3.858,3.455,3.455,0,0,1-3.484-3.738,3.549,3.549,0,0,1,3.6-3.859A3.441,3.441,0,0,1,718.719,3813.659Zm-5.765.075c0,1.591.916,2.792,2.207,2.792,1.261,0,2.207-1.186,2.207-2.822,0-1.232-.616-2.793-2.177-2.793S712.954,3812.352,712.954,3813.734Zm4.189-6.787-1.832,2.147h-.946l1.322-2.147Z"/>
        <path id="Trazado_100892" data-name="Trazado 100892" d="M720.388,3812.052c0-.751-.015-1.367-.06-1.966H721.5l.075,1.2h.03a2.669,2.669,0,0,1,2.4-1.367c1.006,0,2.568.6,2.568,3.093v4.339h-1.322v-4.189c0-1.171-.435-2.147-1.681-2.147a1.878,1.878,0,0,0-1.772,1.351,1.9,1.9,0,0,0-.09.616v4.369h-1.321Z"/>
        <path id="Trazado_100893" data-name="Trazado 100893" d="M648.677,3821.71v8.783c0,.645.015,1.382.06,1.877h-1.186l-.06-1.261h-.03a2.689,2.689,0,0,1-2.478,1.426c-1.756,0-3.108-1.486-3.108-3.694-.015-2.417,1.487-3.9,3.258-3.9a2.43,2.43,0,0,1,2.193,1.112h.029v-4.339Zm-1.322,6.35a2.269,2.269,0,0,0-.06-.554,1.941,1.941,0,0,0-1.906-1.533c-1.367,0-2.178,1.2-2.178,2.808,0,1.472.721,2.687,2.147,2.687a1.985,1.985,0,0,0,1.937-1.576,2.242,2.242,0,0,0,.06-.57Z"/>
        <path id="Trazado_100894" data-name="Trazado 100894" d="M651.606,3828.976a2.329,2.329,0,0,0,2.493,2.523,4.781,4.781,0,0,0,2.012-.375l.225.946a5.889,5.889,0,0,1-2.417.45,3.374,3.374,0,0,1-3.573-3.664c0-2.192,1.291-3.919,3.408-3.919,2.372,0,3,2.088,3,3.424a4.957,4.957,0,0,1-.045.615Zm3.874-.945a1.881,1.881,0,0,0-1.832-2.148,2.19,2.19,0,0,0-2.026,2.148Z"/>
        <path id="Trazado_100895" data-name="Trazado 100895" d="M661.578,3827.07c0-.751-.015-1.367-.06-1.967h1.156l.06,1.171h.045a2.508,2.508,0,0,1,2.283-1.337,2.148,2.148,0,0,1,2.056,1.457h.03a3.022,3.022,0,0,1,.811-.946,2.483,2.483,0,0,1,1.607-.511c.961,0,2.387.631,2.387,3.153v4.28h-1.291v-4.114c0-1.4-.511-2.238-1.577-2.238a1.71,1.71,0,0,0-1.561,1.2,2.187,2.187,0,0,0-.1.662v4.489h-1.292v-4.355c0-1.156-.51-2-1.516-2a1.974,1.974,0,0,0-1.742,1.968v4.384h-1.291Z"/>
        <path id="Trazado_100896" data-name="Trazado 100896" d="M674.839,3828.976a2.328,2.328,0,0,0,2.492,2.523,4.781,4.781,0,0,0,2.012-.375l.225.946a5.888,5.888,0,0,1-2.417.45,3.375,3.375,0,0,1-3.574-3.664c0-2.192,1.292-3.919,3.409-3.919,2.372,0,3,2.088,3,3.424a4.734,4.734,0,0,1-.046.615Zm3.873-.945a1.881,1.881,0,0,0-1.831-2.148,2.19,2.19,0,0,0-2.027,2.148Zm.316-6.066-1.832,2.147h-.946l1.321-2.147Z"/>
        <path id="Trazado_100897" data-name="Trazado 100897" d="M683.218,3823.015v2.088h1.892v1.006h-1.892v3.918c0,.9.256,1.412.991,1.412a2.944,2.944,0,0,0,.766-.09l.06.991a3.234,3.234,0,0,1-1.171.18,1.832,1.832,0,0,1-1.426-.555,2.7,2.7,0,0,1-.511-1.892v-3.964H680.8V3825.1h1.126v-1.742Z"/>
        <path id="Trazado_100898" data-name="Trazado 100898" d="M693.084,3828.676a3.552,3.552,0,0,1-3.618,3.859,3.455,3.455,0,0,1-3.484-3.738,3.55,3.55,0,0,1,3.6-3.86A3.441,3.441,0,0,1,693.084,3828.676Zm-5.766.076c0,1.59.916,2.792,2.207,2.792,1.262,0,2.208-1.186,2.208-2.823,0-1.231-.616-2.793-2.177-2.793S687.318,3827.37,687.318,3828.752Z"/>
        <path id="Trazado_100899" data-name="Trazado 100899" d="M701.028,3821.71v8.783c0,.645.015,1.382.06,1.877H699.9l-.06-1.261h-.029a2.689,2.689,0,0,1-2.478,1.426c-1.757,0-3.108-1.486-3.108-3.694-.015-2.417,1.486-3.9,3.258-3.9a2.429,2.429,0,0,1,2.192,1.112h.03v-4.339Zm-1.321,6.35a2.318,2.318,0,0,0-.06-.554,1.943,1.943,0,0,0-1.907-1.533c-1.366,0-2.177,1.2-2.177,2.808,0,1.472.721,2.687,2.147,2.687a1.985,1.985,0,0,0,1.937-1.576,2.287,2.287,0,0,0,.06-.57Z"/>
        <path id="Trazado_100900" data-name="Trazado 100900" d="M709.8,3828.676a3.552,3.552,0,0,1-3.618,3.859,3.455,3.455,0,0,1-3.484-3.738,3.55,3.55,0,0,1,3.6-3.86A3.441,3.441,0,0,1,709.8,3828.676Zm-5.766.076c0,1.59.916,2.792,2.207,2.792,1.262,0,2.208-1.186,2.208-2.823,0-1.231-.616-2.793-2.177-2.793S704.033,3827.37,704.033,3828.752Z"/>
        <path id="Trazado_100901" data-name="Trazado 100901" d="M717.1,3823.841h-.03l-1.7.916-.256-1.005,2.132-1.142h1.127v9.76H717.1Z"/>
        <path id="Trazado_100902" data-name="Trazado 100902" d="M722.7,3831.439a5.6,5.6,0,0,0,1.066-.045,3.688,3.688,0,0,0,2.042-.946,4.285,4.285,0,0,0,1.291-2.6h-.045a2.863,2.863,0,0,1-2.3,1.051,2.826,2.826,0,0,1-2.883-2.987,3.346,3.346,0,0,1,3.333-3.469c2,0,3.229,1.622,3.229,4.114a6.161,6.161,0,0,1-1.682,4.579,4.874,4.874,0,0,1-2.838,1.307,6.169,6.169,0,0,1-1.216.075Zm.48-5.615a1.877,1.877,0,0,0,1.877,2.071,2.184,2.184,0,0,0,1.922-1.02.875.875,0,0,0,.12-.481c0-1.667-.616-2.943-2-2.943C723.976,3823.451,723.18,3824.442,723.18,3825.824Z"/>
      </g>
      <g id="Grupo_54079" data-name="Grupo 54079">
        <path id="Trazado_100903" data-name="Trazado 100903" d="M493.058,3822.663a4.634,4.634,0,0,0,2.342.661c1.336,0,2.118-.706,2.118-1.727,0-.946-.541-1.486-1.908-2.012-1.651-.585-2.672-1.442-2.672-2.868,0-1.577,1.306-2.748,3.273-2.748a4.6,4.6,0,0,1,2.237.5l-.36,1.066a4.032,4.032,0,0,0-1.922-.481c-1.382,0-1.907.827-1.907,1.517,0,.946.616,1.411,2.012,1.952,1.711.66,2.583,1.487,2.583,2.973,0,1.561-1.157,2.913-3.544,2.913a5.218,5.218,0,0,1-2.582-.646Z"/>
        <path id="Trazado_100904" data-name="Trazado 100904" d="M507.263,3820.561a3.552,3.552,0,0,1-3.618,3.859,3.456,3.456,0,0,1-3.484-3.739,3.549,3.549,0,0,1,3.6-3.859A3.441,3.441,0,0,1,507.263,3820.561Zm-5.766.075c0,1.591.916,2.792,2.207,2.792,1.262,0,2.208-1.185,2.208-2.822,0-1.231-.616-2.793-2.178-2.793S501.5,3819.255,501.5,3820.636Z"/>
        <path id="Trazado_100905" data-name="Trazado 100905" d="M514.111,3823.984a4.848,4.848,0,0,1-2.087.421,3.453,3.453,0,0,1-3.619-3.709,3.693,3.693,0,0,1,3.9-3.858,4.428,4.428,0,0,1,1.832.375l-.3,1.021a3.057,3.057,0,0,0-1.531-.346,2.74,2.74,0,0,0-.045,5.465,3.752,3.752,0,0,0,1.621-.359Z"/>
        <path id="Trazado_100906" data-name="Trazado 100906" d="M517.131,3814.945a.819.819,0,0,1-1.637,0,.805.805,0,0,1,.826-.825A.784.784,0,0,1,517.131,3814.945Zm-1.472,9.31v-7.267h1.321v7.267Z"/>
        <path id="Trazado_100907" data-name="Trazado 100907" d="M525.75,3820.561a3.552,3.552,0,0,1-3.619,3.859,3.456,3.456,0,0,1-3.484-3.739,3.549,3.549,0,0,1,3.6-3.859A3.442,3.442,0,0,1,525.75,3820.561Zm-5.766.075c0,1.591.916,2.792,2.207,2.792,1.261,0,2.207-1.185,2.207-2.822,0-1.231-.615-2.793-2.176-2.793S519.984,3819.255,519.984,3820.636Z"/>
        <path id="Trazado_100908" data-name="Trazado 100908" d="M533.694,3813.594v8.784c0,.645.015,1.381.06,1.877h-1.186l-.06-1.261h-.03A2.689,2.689,0,0,1,530,3824.42c-1.757,0-3.108-1.487-3.108-3.694-.015-2.418,1.486-3.9,3.257-3.9a2.429,2.429,0,0,1,2.193,1.111h.03v-4.339Zm-1.321,6.351a2.384,2.384,0,0,0-.06-.555,1.944,1.944,0,0,0-1.907-1.532c-1.366,0-2.177,1.2-2.177,2.808,0,1.471.72,2.687,2.147,2.687a1.986,1.986,0,0,0,1.937-1.576,2.343,2.343,0,0,0,.06-.57Z"/>
        <path id="Trazado_100909" data-name="Trazado 100909" d="M535.889,3819.255c0-.856-.016-1.592-.061-2.267h1.156l.045,1.426h.061a2.18,2.18,0,0,1,2.012-1.592,1.474,1.474,0,0,1,.375.045v1.247a1.987,1.987,0,0,0-.451-.046,1.853,1.853,0,0,0-1.771,1.7,3.722,3.722,0,0,0-.061.616v3.874h-1.3Z"/>
        <path id="Trazado_100910" data-name="Trazado 100910" d="M544.748,3824.255l-.1-.916H544.6a2.709,2.709,0,0,1-2.222,1.081,2.071,2.071,0,0,1-2.223-2.087c0-1.757,1.562-2.718,4.369-2.7v-.151a1.5,1.5,0,0,0-1.651-1.681,3.609,3.609,0,0,0-1.891.54l-.3-.871a4.509,4.509,0,0,1,2.387-.646c2.223,0,2.763,1.517,2.763,2.974v2.717a10.255,10.255,0,0,0,.12,1.742Zm-.2-3.709c-1.442-.03-3.078.225-3.078,1.636a1.17,1.17,0,0,0,1.246,1.262,1.808,1.808,0,0,0,1.757-1.217,1.411,1.411,0,0,0,.075-.42Z"/>
        <path id="Trazado_100911" data-name="Trazado 100911" d="M547.963,3818.955c0-.751-.016-1.367-.061-1.967h1.157l.059,1.171h.046a2.5,2.5,0,0,1,2.282-1.337,2.148,2.148,0,0,1,2.057,1.457h.03a2.986,2.986,0,0,1,.811-.946,2.48,2.48,0,0,1,1.606-.511c.961,0,2.388.631,2.388,3.153v4.28h-1.292v-4.115c0-1.4-.51-2.237-1.576-2.237a1.712,1.712,0,0,0-1.562,1.2,2.215,2.215,0,0,0-.105.661v4.49h-1.291V3819.9c0-1.156-.511-2-1.517-2a1.808,1.808,0,0,0-1.637,1.321,1.853,1.853,0,0,0-.1.647v4.384h-1.291Z"/>
        <path id="Trazado_100912" data-name="Trazado 100912" d="M564.512,3824.255l-.106-.916h-.045a2.708,2.708,0,0,1-2.222,1.081,2.071,2.071,0,0,1-2.222-2.087c0-1.757,1.562-2.718,4.369-2.7v-.151a1.5,1.5,0,0,0-1.651-1.681,3.618,3.618,0,0,0-1.893.54l-.3-.871a4.516,4.516,0,0,1,2.388-.646c2.222,0,2.763,1.517,2.763,2.974v2.717a10.149,10.149,0,0,0,.12,1.742Zm-.2-3.709c-1.441-.03-3.078.225-3.078,1.636a1.17,1.17,0,0,0,1.246,1.262,1.807,1.807,0,0,0,1.757-1.217,1.379,1.379,0,0,0,.075-.42Z"/>
      </g>
      <g id="Grupo_54080" data-name="Grupo 54080">
        <path id="Trazado_100913" data-name="Trazado 100913" d="M347.154,3814.17l-1.051,3.182h-1.352l3.438-10.12h1.577l3.454,10.12h-1.4l-1.081-3.182Zm3.318-1.022-.991-2.913c-.225-.66-.376-1.261-.525-1.847h-.031c-.15.6-.315,1.217-.51,1.832l-.991,2.928Z"/>
        <path id="Trazado_100914" data-name="Trazado 100914" d="M354.393,3816a3.453,3.453,0,0,0,1.742.525c.961,0,1.411-.48,1.411-1.081,0-.63-.375-.976-1.351-1.336-1.306-.466-1.922-1.186-1.922-2.057a2.241,2.241,0,0,1,2.507-2.132,3.628,3.628,0,0,1,1.787.451l-.33.961a2.822,2.822,0,0,0-1.487-.421c-.78,0-1.216.45-1.216.991,0,.6.436.871,1.382,1.231,1.261.481,1.906,1.111,1.906,2.192,0,1.276-.991,2.178-2.717,2.178a4.148,4.148,0,0,1-2.042-.5Z"/>
        <path id="Trazado_100915" data-name="Trazado 100915" d="M361.256,3813.959a2.327,2.327,0,0,0,2.492,2.522,4.781,4.781,0,0,0,2.012-.375l.225.946a5.885,5.885,0,0,1-2.417.451,3.375,3.375,0,0,1-3.574-3.664c0-2.193,1.292-3.919,3.409-3.919,2.372,0,3,2.087,3,3.423a4.746,4.746,0,0,1-.046.616Zm3.873-.946a1.881,1.881,0,0,0-1.831-2.147,2.189,2.189,0,0,0-2.027,2.147Z"/>
        <path id="Trazado_100916" data-name="Trazado 100916" d="M367.864,3816a3.452,3.452,0,0,0,1.741.525c.961,0,1.412-.48,1.412-1.081,0-.63-.375-.976-1.351-1.336-1.307-.466-1.922-1.186-1.922-2.057a2.241,2.241,0,0,1,2.507-2.132,3.631,3.631,0,0,1,1.787.451l-.33.961a2.822,2.822,0,0,0-1.487-.421c-.781,0-1.216.45-1.216.991,0,.6.435.871,1.381,1.231,1.261.481,1.907,1.111,1.907,2.192,0,1.276-.991,2.178-2.718,2.178a4.15,4.15,0,0,1-2.042-.5Z"/>
        <path id="Trazado_100917" data-name="Trazado 100917" d="M380.567,3813.659a3.552,3.552,0,0,1-3.619,3.858,3.454,3.454,0,0,1-3.483-3.738,3.549,3.549,0,0,1,3.6-3.859A3.441,3.441,0,0,1,380.567,3813.659Zm-5.766.075c0,1.591.916,2.792,2.208,2.792,1.261,0,2.207-1.186,2.207-2.822,0-1.232-.616-2.793-2.177-2.793S374.8,3812.352,374.8,3813.734Z"/>
        <path id="Trazado_100918" data-name="Trazado 100918" d="M382.235,3812.352c0-.855-.015-1.592-.06-2.266h1.156l.045,1.425h.061a2.18,2.18,0,0,1,2.011-1.591,1.429,1.429,0,0,1,.376.045v1.247a1.933,1.933,0,0,0-.451-.046,1.853,1.853,0,0,0-1.771,1.7,3.622,3.622,0,0,0-.06.615v3.874h-1.307Z"/>
        <path id="Trazado_100919" data-name="Trazado 100919" d="M389.894,3806.947l-1.831,2.147h-.947l1.322-2.147Zm-2.687,10.405v-7.266h1.321v7.266Z"/>
        <path id="Trazado_100920" data-name="Trazado 100920" d="M394.744,3817.352l-.1-.916h-.045a2.706,2.706,0,0,1-2.222,1.081,2.071,2.071,0,0,1-2.223-2.087c0-1.756,1.562-2.717,4.37-2.7v-.15a1.5,1.5,0,0,0-1.652-1.682,3.617,3.617,0,0,0-1.891.54l-.3-.87a4.506,4.506,0,0,1,2.388-.646c2.222,0,2.762,1.516,2.762,2.973v2.718a10.236,10.236,0,0,0,.12,1.741Zm-.195-3.709c-1.442-.029-3.078.226-3.078,1.637a1.17,1.17,0,0,0,1.246,1.262,1.808,1.808,0,0,0,1.757-1.217,1.377,1.377,0,0,0,.075-.42Z"/>
        <path id="Trazado_100921" data-name="Trazado 100921" d="M397.779,3816a3.453,3.453,0,0,0,1.742.525c.96,0,1.411-.48,1.411-1.081,0-.63-.375-.976-1.351-1.336-1.307-.466-1.922-1.186-1.922-2.057a2.241,2.241,0,0,1,2.507-2.132,3.631,3.631,0,0,1,1.787.451l-.33.961a2.822,2.822,0,0,0-1.487-.421c-.781,0-1.216.45-1.216.991,0,.6.435.871,1.381,1.231,1.262.481,1.907,1.111,1.907,2.192,0,1.276-.991,2.178-2.718,2.178a4.15,4.15,0,0,1-2.042-.5Z"/>
        <path id="Trazado_100922" data-name="Trazado 100922" d="M329.719,3827.475c0-.93-.031-1.681-.06-2.372h1.186l.06,1.246h.03a2.857,2.857,0,0,1,2.583-1.412c1.756,0,3.077,1.487,3.077,3.7,0,2.612-1.591,3.9-3.3,3.9a2.547,2.547,0,0,1-2.237-1.141h-.03v3.948h-1.306Zm1.306,1.937a2.991,2.991,0,0,0,.06.541,2.038,2.038,0,0,0,1.982,1.546c1.4,0,2.207-1.141,2.207-2.808,0-1.456-.766-2.7-2.162-2.7a2.108,2.108,0,0,0-2,1.636,2.158,2.158,0,0,0-.09.541Z"/>
        <path id="Trazado_100923" data-name="Trazado 100923" d="M339,3828.976a2.328,2.328,0,0,0,2.493,2.523,4.784,4.784,0,0,0,2.012-.375l.225.946a5.889,5.889,0,0,1-2.417.45,3.375,3.375,0,0,1-3.574-3.664c0-2.192,1.291-3.919,3.409-3.919,2.372,0,3,2.088,3,3.424a5.221,5.221,0,0,1-.044.615Zm3.874-.945a1.882,1.882,0,0,0-1.832-2.148,2.191,2.191,0,0,0-2.027,2.148Z"/>
        <path id="Trazado_100924" data-name="Trazado 100924" d="M345.788,3827.37c0-.856-.016-1.592-.06-2.267h1.156l.045,1.426h.06a2.18,2.18,0,0,1,2.012-1.592,1.469,1.469,0,0,1,.375.045v1.247a1.984,1.984,0,0,0-.45-.046,1.854,1.854,0,0,0-1.772,1.7,3.7,3.7,0,0,0-.06.615v3.874h-1.306Z"/>
        <path id="Trazado_100925" data-name="Trazado 100925" d="M350.518,3831.018a3.456,3.456,0,0,0,1.742.526c.961,0,1.411-.481,1.411-1.081,0-.63-.375-.976-1.351-1.336-1.306-.466-1.922-1.187-1.922-2.057a2.241,2.241,0,0,1,2.507-2.133,3.629,3.629,0,0,1,1.787.451l-.33.961a2.831,2.831,0,0,0-1.487-.421c-.78,0-1.216.451-1.216.992,0,.6.436.871,1.382,1.231,1.261.481,1.906,1.11,1.906,2.191,0,1.277-.991,2.178-2.717,2.178a4.134,4.134,0,0,1-2.042-.5Z"/>
        <path id="Trazado_100926" data-name="Trazado 100926" d="M363.221,3828.676a3.552,3.552,0,0,1-3.618,3.859,3.455,3.455,0,0,1-3.484-3.738,3.55,3.55,0,0,1,3.6-3.86A3.441,3.441,0,0,1,363.221,3828.676Zm-5.765.076c0,1.59.916,2.792,2.207,2.792,1.261,0,2.207-1.186,2.207-2.823,0-1.231-.616-2.793-2.177-2.793S357.456,3827.37,357.456,3828.752Z"/>
        <path id="Trazado_100927" data-name="Trazado 100927" d="M364.89,3827.07c0-.751-.015-1.367-.06-1.967H366l.075,1.2h.03a2.674,2.674,0,0,1,2.4-1.367c1.006,0,2.567.6,2.567,3.094v4.339h-1.321v-4.19c0-1.171-.436-2.146-1.682-2.146a1.877,1.877,0,0,0-1.772,1.35,1.91,1.91,0,0,0-.09.617v4.369H364.89Z"/>
        <path id="Trazado_100928" data-name="Trazado 100928" d="M377.249,3832.37l-.1-.916H377.1a2.708,2.708,0,0,1-2.222,1.081,2.07,2.07,0,0,1-2.222-2.087c0-1.757,1.561-2.718,4.369-2.7v-.151a1.5,1.5,0,0,0-1.651-1.681,3.621,3.621,0,0,0-1.892.54l-.3-.87a4.5,4.5,0,0,1,2.387-.647c2.222,0,2.763,1.517,2.763,2.974v2.718a10.142,10.142,0,0,0,.12,1.741Zm-.2-3.709c-1.441-.029-3.078.225-3.078,1.637a1.169,1.169,0,0,0,1.247,1.261,1.807,1.807,0,0,0,1.756-1.217,1.372,1.372,0,0,0,.075-.419Z"/>
        <path id="Trazado_100929" data-name="Trazado 100929" d="M380.463,3821.71h1.322v10.66h-1.322Z"/>
        <path id="Trazado_100930" data-name="Trazado 100930" d="M385.479,3823.06a.819.819,0,0,1-1.637,0,.805.805,0,0,1,.826-.825A.784.784,0,0,1,385.479,3823.06Zm-1.472,9.31V3825.1h1.322v7.267Z"/>
        <path id="Trazado_100931" data-name="Trazado 100931" d="M386.7,3831.6l3.289-4.279c.315-.391.616-.735.946-1.126v-.03H387V3825.1h5.54l-.014.825-3.244,4.22c-.3.405-.6.766-.931,1.141v.03H392.6v1.051h-5.9Z"/>
        <path id="Trazado_100932" data-name="Trazado 100932" d="M397.973,3832.37l-.106-.916h-.045a2.708,2.708,0,0,1-2.222,1.081,2.07,2.07,0,0,1-2.222-2.087c0-1.757,1.561-2.718,4.369-2.7v-.151a1.5,1.5,0,0,0-1.651-1.681,3.621,3.621,0,0,0-1.892.54l-.3-.87a4.509,4.509,0,0,1,2.388-.647c2.222,0,2.763,1.517,2.763,2.974v2.718a10.244,10.244,0,0,0,.12,1.741Zm-.2-3.709c-1.441-.029-3.078.225-3.078,1.637a1.169,1.169,0,0,0,1.246,1.261,1.806,1.806,0,0,0,1.757-1.217,1.372,1.372,0,0,0,.075-.419Z"/>
        <path id="Trazado_100933" data-name="Trazado 100933" d="M407.463,3821.71v8.783c0,.645.016,1.382.06,1.877h-1.186l-.06-1.261h-.03a2.686,2.686,0,0,1-2.477,1.426c-1.757,0-3.108-1.486-3.108-3.694-.015-2.417,1.486-3.9,3.258-3.9a2.428,2.428,0,0,1,2.192,1.112h.03v-4.339Zm-1.321,6.35a2.319,2.319,0,0,0-.06-.554,1.943,1.943,0,0,0-1.907-1.533c-1.366,0-2.177,1.2-2.177,2.808,0,1.472.721,2.687,2.148,2.687a1.985,1.985,0,0,0,1.936-1.576,2.289,2.289,0,0,0,.06-.57Z"/>
        <path id="Trazado_100934" data-name="Trazado 100934" d="M413.681,3832.37l-.105-.916h-.045a2.708,2.708,0,0,1-2.222,1.081,2.071,2.071,0,0,1-2.223-2.087c0-1.757,1.562-2.718,4.37-2.7v-.151a1.5,1.5,0,0,0-1.652-1.681,3.624,3.624,0,0,0-1.892.54l-.3-.87a4.509,4.509,0,0,1,2.388-.647c2.222,0,2.762,1.517,2.762,2.974v2.718a10.245,10.245,0,0,0,.12,1.741Zm-.2-3.709c-1.442-.029-3.078.225-3.078,1.637a1.169,1.169,0,0,0,1.246,1.261,1.807,1.807,0,0,0,1.757-1.217,1.373,1.373,0,0,0,.075-.419Z"/>
        <path id="Trazado_100935" data-name="Trazado 100935" d="M416.716,3831.018a3.456,3.456,0,0,0,1.742.526c.96,0,1.411-.481,1.411-1.081,0-.63-.376-.976-1.351-1.336-1.307-.466-1.922-1.187-1.922-2.057a2.241,2.241,0,0,1,2.507-2.133,3.632,3.632,0,0,1,1.787.451l-.33.961a2.831,2.831,0,0,0-1.487-.421c-.781,0-1.216.451-1.216.992,0,.6.435.871,1.381,1.231,1.262.481,1.907,1.11,1.907,2.191,0,1.277-.991,2.178-2.718,2.178a4.14,4.14,0,0,1-2.042-.5Z"/>
      </g>
      <g id="Grupo_54082" data-name="Grupo 54082">
        <g id="Grupo_54081" data-name="Grupo 54081">
          <path id="Trazado_100936" data-name="Trazado 100936" d="M793.3,3698.451a18.731,18.731,0,0,1,2.778-.211,5.8,5.8,0,0,1,4.1,1.261,4.668,4.668,0,0,1,1.426,3.634,5.352,5.352,0,0,1-1.457,3.934,6.232,6.232,0,0,1-4.474,1.456,21.1,21.1,0,0,1-2.372-.12Zm1.306,8.948a8.245,8.245,0,0,0,1.321.075c2.793,0,4.309-1.561,4.309-4.294.015-2.388-1.336-3.9-4.1-3.9a7.332,7.332,0,0,0-1.532.136Z"/>
          <path id="Trazado_100937" data-name="Trazado 100937" d="M804.051,3705.041a2.328,2.328,0,0,0,2.492,2.523,4.79,4.79,0,0,0,2.013-.375l.225.945a5.878,5.878,0,0,1-2.418.451,3.374,3.374,0,0,1-3.573-3.664c0-2.191,1.291-3.919,3.408-3.919,2.372,0,3,2.087,3,3.424a4.944,4.944,0,0,1-.045.615Zm3.874-.945a1.881,1.881,0,0,0-1.832-2.147,2.19,2.19,0,0,0-2.027,2.147Z"/>
          <path id="Trazado_100938" data-name="Trazado 100938" d="M810.839,3703.135c0-.751-.015-1.366-.06-1.968h1.156l.06,1.172h.045a2.507,2.507,0,0,1,2.283-1.337,2.15,2.15,0,0,1,2.057,1.457h.03a3,3,0,0,1,.811-.946,2.48,2.48,0,0,1,1.606-.511c.961,0,2.387.631,2.387,3.154v4.279h-1.291v-4.114c0-1.4-.51-2.238-1.576-2.238a1.711,1.711,0,0,0-1.562,1.2,2.183,2.183,0,0,0-.1.661v4.489h-1.291v-4.354c0-1.157-.511-2-1.517-2a1.808,1.808,0,0,0-1.637,1.322,1.846,1.846,0,0,0-.1.645v4.385h-1.291Z"/>
          <path id="Trazado_100939" data-name="Trazado 100939" d="M829.94,3704.742a3.551,3.551,0,0,1-3.618,3.858,3.454,3.454,0,0,1-3.483-3.738,3.549,3.549,0,0,1,3.6-3.86A3.442,3.442,0,0,1,829.94,3704.742Zm-5.765.075c0,1.591.916,2.792,2.207,2.792,1.261,0,2.207-1.186,2.207-2.822,0-1.232-.615-2.793-2.177-2.793S824.175,3703.435,824.175,3704.817Z"/>
          <path id="Trazado_100940" data-name="Trazado 100940" d="M831.429,3707.083a3.452,3.452,0,0,0,1.741.526c.961,0,1.411-.481,1.411-1.081,0-.63-.375-.976-1.351-1.336-1.306-.466-1.921-1.187-1.921-2.057a2.241,2.241,0,0,1,2.507-2.133,3.611,3.611,0,0,1,1.786.452l-.33.961a2.818,2.818,0,0,0-1.486-.421c-.781,0-1.216.45-1.216.991,0,.6.435.871,1.381,1.231,1.261.481,1.907,1.111,1.907,2.192,0,1.276-.991,2.177-2.718,2.177a4.142,4.142,0,0,1-2.042-.5Z"/>
          <path id="Trazado_100941" data-name="Trazado 100941" d="M839.147,3699.081v2.086h1.892v1.007h-1.892v3.919c0,.9.256,1.411.992,1.411a2.941,2.941,0,0,0,.765-.09l.06.991a3.234,3.234,0,0,1-1.171.18,1.832,1.832,0,0,1-1.426-.555,2.691,2.691,0,0,1-.511-1.892v-3.964H836.73v-1.007h1.126v-1.741Z"/>
          <path id="Trazado_100942" data-name="Trazado 100942" d="M842.527,3703.435c0-.855-.015-1.592-.06-2.268h1.156l.045,1.427h.06A2.181,2.181,0,0,1,845.74,3701a1.424,1.424,0,0,1,.375.046v1.246a1.982,1.982,0,0,0-.45-.045,1.854,1.854,0,0,0-1.772,1.7,3.7,3.7,0,0,0-.06.615v3.874h-1.306Z"/>
          <path id="Trazado_100943" data-name="Trazado 100943" d="M851.387,3708.435l-.106-.916h-.045a2.707,2.707,0,0,1-2.222,1.081,2.071,2.071,0,0,1-2.222-2.087c0-1.757,1.561-2.718,4.369-2.7v-.149a1.5,1.5,0,0,0-1.651-1.682,3.621,3.621,0,0,0-1.892.54l-.3-.871a4.518,4.518,0,0,1,2.388-.646c2.222,0,2.763,1.517,2.763,2.974v2.717a10.138,10.138,0,0,0,.12,1.742Zm-.2-3.709c-1.441-.029-3.078.226-3.078,1.637a1.169,1.169,0,0,0,1.246,1.261,1.807,1.807,0,0,0,1.757-1.216,1.378,1.378,0,0,0,.075-.42Z"/>
          <path id="Trazado_100944" data-name="Trazado 100944" d="M859.781,3708.165a4.874,4.874,0,0,1-2.087.42,3.453,3.453,0,0,1-3.619-3.709,3.692,3.692,0,0,1,3.9-3.858,4.416,4.416,0,0,1,1.832.375l-.3,1.022a3.056,3.056,0,0,0-1.532-.346,2.74,2.74,0,0,0-.045,5.466,3.738,3.738,0,0,0,1.622-.362Z"/>
          <path id="Trazado_100945" data-name="Trazado 100945" d="M862.8,3699.126a.818.818,0,0,1-1.636,0,.805.805,0,0,1,.826-.826A.784.784,0,0,1,862.8,3699.126Zm-1.471,9.309v-7.268h1.321v7.268Z"/>
          <path id="Trazado_100946" data-name="Trazado 100946" d="M871.419,3704.742a3.551,3.551,0,0,1-3.618,3.858,3.455,3.455,0,0,1-3.484-3.738,3.55,3.55,0,0,1,3.6-3.86A3.442,3.442,0,0,1,871.419,3704.742Zm-5.765.075c0,1.591.916,2.792,2.207,2.792,1.261,0,2.207-1.186,2.207-2.822,0-1.232-.615-2.793-2.177-2.793S865.654,3703.435,865.654,3704.817Zm4.189-6.787-1.832,2.147h-.946l1.322-2.147Z"/>
          <path id="Trazado_100947" data-name="Trazado 100947" d="M873.088,3703.135c0-.751-.015-1.366-.06-1.968H874.2l.075,1.2h.03a2.671,2.671,0,0,1,2.4-1.367c1.006,0,2.568.6,2.568,3.094v4.339h-1.321v-4.189c0-1.171-.436-2.147-1.682-2.147a1.938,1.938,0,0,0-1.862,1.967v4.369h-1.321Z"/>
          <path id="Trazado_100948" data-name="Trazado 100948" d="M793.861,3712.792v8.784c0,.645.015,1.382.06,1.877h-1.186l-.06-1.262h-.031a2.687,2.687,0,0,1-2.477,1.427c-1.756,0-3.107-1.487-3.107-3.694-.016-2.417,1.486-3.9,3.257-3.9a2.432,2.432,0,0,1,2.193,1.111h.029v-4.339Zm-1.322,6.351a2.346,2.346,0,0,0-.06-.556,1.944,1.944,0,0,0-1.906-1.531c-1.367,0-2.178,1.2-2.178,2.808,0,1.471.721,2.688,2.148,2.688a1.985,1.985,0,0,0,1.936-1.577,2.3,2.3,0,0,0,.06-.57Z"/>
          <path id="Trazado_100949" data-name="Trazado 100949" d="M796.791,3720.059a2.328,2.328,0,0,0,2.492,2.523,4.8,4.8,0,0,0,2.012-.375l.225.945a5.869,5.869,0,0,1-2.417.451,3.376,3.376,0,0,1-3.574-3.664c0-2.191,1.292-3.919,3.409-3.919,2.372,0,3,2.087,3,3.424a4.751,4.751,0,0,1-.046.615Zm3.873-.945a1.881,1.881,0,0,0-1.831-2.148,2.191,2.191,0,0,0-2.027,2.148Z"/>
          <path id="Trazado_100950" data-name="Trazado 100950" d="M806.762,3718.453c0-.856-.015-1.592-.06-2.268h1.156l.045,1.427h.06a2.18,2.18,0,0,1,2.012-1.592,1.438,1.438,0,0,1,.376.046v1.246a2,2,0,0,0-.451-.045,1.853,1.853,0,0,0-1.772,1.7,3.844,3.844,0,0,0-.06.616v3.874h-1.306Z"/>
          <path id="Trazado_100951" data-name="Trazado 100951" d="M812.259,3720.059a2.328,2.328,0,0,0,2.492,2.523,4.8,4.8,0,0,0,2.012-.375l.225.945a5.873,5.873,0,0,1-2.417.451,3.375,3.375,0,0,1-3.574-3.664c0-2.191,1.292-3.919,3.409-3.919,2.372,0,3,2.087,3,3.424a4.933,4.933,0,0,1-.046.615Zm3.873-.945a1.882,1.882,0,0,0-1.831-2.148,2.192,2.192,0,0,0-2.028,2.148Z"/>
          <path id="Trazado_100952" data-name="Trazado 100952" d="M818.867,3722.1a3.455,3.455,0,0,0,1.741.525c.961,0,1.411-.48,1.411-1.081,0-.629-.375-.975-1.351-1.336-1.306-.465-1.921-1.186-1.921-2.056a2.241,2.241,0,0,1,2.507-2.133,3.624,3.624,0,0,1,1.786.451l-.33.961a2.821,2.821,0,0,0-1.486-.421c-.781,0-1.216.45-1.216.991,0,.6.435.872,1.381,1.232,1.261.48,1.907,1.11,1.907,2.191,0,1.277-.991,2.178-2.718,2.178a4.137,4.137,0,0,1-2.042-.5Z"/>
          <path id="Trazado_100953" data-name="Trazado 100953" d="M831.074,3721.47c0,.751.015,1.412.061,1.983h-1.172l-.075-1.187h-.03a2.733,2.733,0,0,1-2.4,1.352c-1.141,0-2.508-.631-2.508-3.183v-4.25h1.321v4.024c0,1.382.421,2.313,1.623,2.313a1.911,1.911,0,0,0,1.741-1.2,1.94,1.94,0,0,0,.12-.676v-4.46h1.321Z"/>
          <path id="Trazado_100954" data-name="Trazado 100954" d="M833.268,3712.792h1.322v10.661h-1.322Z"/>
          <path id="Trazado_100955" data-name="Trazado 100955" d="M838.4,3714.1v2.087H840.3v1.007H838.4v3.919c0,.9.255,1.411.991,1.411a2.887,2.887,0,0,0,.766-.091l.06.991a3.217,3.217,0,0,1-1.171.181,1.83,1.83,0,0,1-1.427-.556,2.693,2.693,0,0,1-.51-1.891v-3.964h-1.127v-1.007h1.127v-1.741Z"/>
          <path id="Trazado_100956" data-name="Trazado 100956" d="M845.808,3723.453l-.106-.916h-.045a2.708,2.708,0,0,1-2.222,1.081,2.07,2.07,0,0,1-2.222-2.087c0-1.757,1.561-2.718,4.369-2.7v-.15a1.5,1.5,0,0,0-1.651-1.681,3.621,3.621,0,0,0-1.892.54l-.3-.871a4.516,4.516,0,0,1,2.388-.646c2.222,0,2.763,1.517,2.763,2.974v2.716a10.153,10.153,0,0,0,.12,1.743Zm-.2-3.709c-1.441-.03-3.078.225-3.078,1.636a1.169,1.169,0,0,0,1.246,1.262,1.808,1.808,0,0,0,1.757-1.217,1.374,1.374,0,0,0,.075-.42Z"/>
          <path id="Trazado_100957" data-name="Trazado 100957" d="M855.3,3712.792v8.784c0,.645.015,1.382.06,1.877h-1.186l-.06-1.262h-.03a2.69,2.69,0,0,1-2.478,1.427c-1.756,0-3.108-1.487-3.108-3.694-.015-2.417,1.487-3.9,3.258-3.9a2.432,2.432,0,0,1,2.193,1.111h.029v-4.339Zm-1.322,6.351a2.3,2.3,0,0,0-.06-.556,1.943,1.943,0,0,0-1.906-1.531c-1.367,0-2.178,1.2-2.178,2.808,0,1.471.721,2.688,2.147,2.688a1.986,1.986,0,0,0,1.937-1.577,2.25,2.25,0,0,0,.06-.57Z"/>
          <path id="Trazado_100958" data-name="Trazado 100958" d="M864.068,3719.759a3.552,3.552,0,0,1-3.618,3.859,3.455,3.455,0,0,1-3.483-3.739,3.548,3.548,0,0,1,3.6-3.859A3.441,3.441,0,0,1,864.068,3719.759Zm-5.765.075c0,1.591.916,2.792,2.207,2.792,1.261,0,2.207-1.185,2.207-2.822,0-1.231-.616-2.793-2.177-2.793S858.3,3718.453,858.3,3719.834Z"/>
          <path id="Trazado_100959" data-name="Trazado 100959" d="M865.557,3722.1a3.455,3.455,0,0,0,1.741.525c.961,0,1.411-.48,1.411-1.081,0-.629-.375-.975-1.351-1.336-1.306-.465-1.922-1.186-1.922-2.056a2.242,2.242,0,0,1,2.508-2.133,3.624,3.624,0,0,1,1.786.451l-.33.961a2.821,2.821,0,0,0-1.486-.421c-.781,0-1.216.45-1.216.991,0,.6.435.872,1.381,1.232,1.261.48,1.907,1.11,1.907,2.191,0,1.277-.991,2.178-2.718,2.178a4.14,4.14,0,0,1-2.042-.5Z"/>
          <path id="Trazado_100960" data-name="Trazado 100960" d="M874.447,3723.453v-.811l1.035-1.006c2.493-2.373,3.619-3.634,3.634-5.1a1.741,1.741,0,0,0-1.937-1.907,3.327,3.327,0,0,0-2.072.826l-.42-.931a4.283,4.283,0,0,1,2.763-.991,2.745,2.745,0,0,1,2.987,2.838c0,1.8-1.306,3.258-3.363,5.24l-.781.721v.03h4.385v1.1Z"/>
          <path id="Trazado_100961" data-name="Trazado 100961" d="M882.151,3723.453v-.811l1.035-1.006c2.493-2.373,3.619-3.634,3.634-5.1a1.741,1.741,0,0,0-1.937-1.907,3.327,3.327,0,0,0-2.072.826l-.42-.931a4.283,4.283,0,0,1,2.763-.991,2.746,2.746,0,0,1,2.988,2.838c0,1.8-1.307,3.258-3.364,5.24l-.781.721v.03h4.385v1.1Z"/>
        </g>
      </g>
      <g id="Grupo_54084" data-name="Grupo 54084">
        <g id="Grupo_54083" data-name="Grupo 54083">
          <path id="Trazado_100962" data-name="Trazado 100962" d="M962.1,3702.414h-3.934v3.649h4.385v1.1h-5.691v-10.12h5.466v1.1h-4.16v3.2H962.1Z"/>
          <path id="Trazado_100963" data-name="Trazado 100963" d="M964.02,3705.807a3.453,3.453,0,0,0,1.742.526c.96,0,1.411-.481,1.411-1.082,0-.629-.376-.975-1.351-1.335-1.307-.466-1.922-1.187-1.922-2.057a2.241,2.241,0,0,1,2.507-2.133,3.631,3.631,0,0,1,1.787.451l-.33.961a2.834,2.834,0,0,0-1.487-.421c-.781,0-1.216.45-1.216.991,0,.6.435.872,1.381,1.232,1.262.48,1.907,1.11,1.907,2.191,0,1.277-.991,2.178-2.718,2.178a4.14,4.14,0,0,1-2.042-.5Z"/>
          <path id="Trazado_100964" data-name="Trazado 100964" d="M975.326,3706.888a4.842,4.842,0,0,1-2.086.421,3.453,3.453,0,0,1-3.619-3.709,3.692,3.692,0,0,1,3.9-3.858,4.424,4.424,0,0,1,1.832.375l-.3,1.021a3.065,3.065,0,0,0-1.531-.346,2.74,2.74,0,0,0-.045,5.465,3.752,3.752,0,0,0,1.621-.359Z"/>
          <path id="Trazado_100965" data-name="Trazado 100965" d="M982.955,3705.177c0,.75.015,1.411.061,1.982h-1.171l-.076-1.187h-.029a2.736,2.736,0,0,1-2.4,1.352c-1.141,0-2.508-.631-2.508-3.183v-4.249h1.322v4.024c0,1.38.421,2.312,1.622,2.312a1.91,1.91,0,0,0,1.741-1.2,1.936,1.936,0,0,0,.12-.676v-4.459h1.321Z"/>
          <path id="Trazado_100966" data-name="Trazado 100966" d="M985.885,3703.765a2.329,2.329,0,0,0,2.493,2.523,4.785,4.785,0,0,0,2.012-.375l.225.946a5.883,5.883,0,0,1-2.417.45,3.375,3.375,0,0,1-3.574-3.664c0-2.192,1.291-3.919,3.409-3.919,2.372,0,3,2.088,3,3.424a5.24,5.24,0,0,1-.044.615Zm3.874-.945a1.882,1.882,0,0,0-1.832-2.148,2.191,2.191,0,0,0-2.027,2.148Z"/>
          <path id="Trazado_100967" data-name="Trazado 100967" d="M992.674,3696.5h1.321v10.66h-1.321Z"/>
          <path id="Trazado_100968" data-name="Trazado 100968" d="M1000.241,3707.159l-.105-.916h-.045a2.707,2.707,0,0,1-2.222,1.081,2.07,2.07,0,0,1-2.222-2.087c0-1.757,1.561-2.718,4.369-2.7v-.151a1.5,1.5,0,0,0-1.651-1.681,3.623,3.623,0,0,0-1.892.54l-.3-.87a4.507,4.507,0,0,1,2.388-.647c2.222,0,2.763,1.517,2.763,2.974v2.717a10.142,10.142,0,0,0,.12,1.742Zm-.2-3.709c-1.441-.03-3.078.225-3.078,1.636a1.169,1.169,0,0,0,1.246,1.262,1.807,1.807,0,0,0,1.757-1.217,1.374,1.374,0,0,0,.075-.42Z"/>
          <path id="Trazado_100969" data-name="Trazado 100969" d="M1003.276,3705.807a3.453,3.453,0,0,0,1.741.526c.961,0,1.412-.481,1.412-1.082,0-.629-.376-.975-1.352-1.335-1.306-.466-1.921-1.187-1.921-2.057a2.241,2.241,0,0,1,2.507-2.133,3.632,3.632,0,0,1,1.787.451l-.331.961a2.83,2.83,0,0,0-1.486-.421c-.781,0-1.216.45-1.216.991,0,.6.435.872,1.381,1.232,1.261.48,1.907,1.11,1.907,2.191,0,1.277-.991,2.178-2.718,2.178a4.14,4.14,0,0,1-2.042-.5Z"/>
          <path id="Trazado_100970" data-name="Trazado 100970" d="M1018.863,3696.5v8.783c0,.645.015,1.382.06,1.877h-1.186l-.06-1.261h-.03a2.691,2.691,0,0,1-2.478,1.426c-1.757,0-3.108-1.487-3.108-3.694-.015-2.418,1.487-3.9,3.258-3.9a2.431,2.431,0,0,1,2.193,1.111h.029V3696.5Zm-1.322,6.35a2.283,2.283,0,0,0-.06-.555,1.942,1.942,0,0,0-1.906-1.532c-1.367,0-2.178,1.2-2.178,2.808,0,1.471.721,2.687,2.147,2.687a1.986,1.986,0,0,0,1.937-1.576,2.247,2.247,0,0,0,.06-.57Z"/>
          <path id="Trazado_100971" data-name="Trazado 100971" d="M1021.792,3703.765a2.328,2.328,0,0,0,2.492,2.523,4.781,4.781,0,0,0,2.012-.375l.226.946a5.889,5.889,0,0,1-2.418.45,3.375,3.375,0,0,1-3.573-3.664c0-2.192,1.291-3.919,3.408-3.919,2.372,0,3,2.088,3,3.424a4.973,4.973,0,0,1-.045.615Zm3.874-.945a1.882,1.882,0,0,0-1.832-2.148,2.191,2.191,0,0,0-2.027,2.148Z"/>
          <path id="Trazado_100972" data-name="Trazado 100972" d="M977.827,3721.906a4.868,4.868,0,0,1-2.087.421,3.453,3.453,0,0,1-3.619-3.709,3.693,3.693,0,0,1,3.905-3.859,4.434,4.434,0,0,1,1.831.375l-.3,1.022a3.057,3.057,0,0,0-1.531-.346,2.739,2.739,0,0,0-.046,5.465,3.758,3.758,0,0,0,1.622-.359Z"/>
          <path id="Trazado_100973" data-name="Trazado 100973" d="M983.4,3722.176l-.1-.916h-.045a2.7,2.7,0,0,1-2.222,1.081,2.071,2.071,0,0,1-2.223-2.087c0-1.756,1.562-2.717,4.37-2.7v-.15a1.5,1.5,0,0,0-1.652-1.682,3.624,3.624,0,0,0-1.892.54l-.3-.87a4.509,4.509,0,0,1,2.388-.646c2.222,0,2.762,1.516,2.762,2.973v2.718a10.239,10.239,0,0,0,.12,1.741Zm-.2-3.709c-1.442-.029-3.078.226-3.078,1.637a1.17,1.17,0,0,0,1.246,1.262,1.808,1.808,0,0,0,1.757-1.217,1.378,1.378,0,0,0,.075-.42Z"/>
          <path id="Trazado_100974" data-name="Trazado 100974" d="M986.614,3716.876c0-.751-.016-1.367-.06-1.966h1.155l.061,1.171h.045a2.5,2.5,0,0,1,2.282-1.337,2.147,2.147,0,0,1,2.057,1.457h.03a3.013,3.013,0,0,1,.81-.947,2.484,2.484,0,0,1,1.607-.51c.961,0,2.388.63,2.388,3.153v4.279H995.7v-4.114c0-1.4-.511-2.237-1.577-2.237a1.71,1.71,0,0,0-1.562,1.2,2.188,2.188,0,0,0-.105.661v4.489h-1.291v-4.354c0-1.156-.51-2-1.517-2a1.806,1.806,0,0,0-1.636,1.321,1.825,1.825,0,0,0-.1.646v4.384h-1.291Z"/>
          <path id="Trazado_100975" data-name="Trazado 100975" d="M999.138,3717.282c0-.931-.03-1.682-.06-2.372h1.186l.061,1.246h.03a2.854,2.854,0,0,1,2.582-1.412c1.757,0,3.078,1.486,3.078,3.694,0,2.612-1.591,3.9-3.3,3.9a2.548,2.548,0,0,1-2.237-1.14h-.03v3.948h-1.307Zm1.307,1.936a2.981,2.981,0,0,0,.06.541,2.038,2.038,0,0,0,1.982,1.546c1.4,0,2.207-1.14,2.207-2.807,0-1.457-.766-2.7-2.162-2.7a2.111,2.111,0,0,0-2,1.636,2.2,2.2,0,0,0-.089.541Z"/>
          <path id="Trazado_100976" data-name="Trazado 100976" d="M1014.26,3718.483a3.552,3.552,0,0,1-3.619,3.858,3.454,3.454,0,0,1-3.483-3.738,3.548,3.548,0,0,1,3.6-3.859A3.442,3.442,0,0,1,1014.26,3718.483Zm-5.766.075c0,1.591.916,2.792,2.207,2.792,1.261,0,2.207-1.185,2.207-2.822,0-1.232-.615-2.793-2.177-2.793S1008.494,3717.176,1008.494,3718.558Z"/>
        </g>
      </g>
      <rect id="Rectángulo_5408" data-name="Rectángulo 5408" width="157.383" height="56.777" transform="translate(296.493 3680.046)" fill="#cddf77"/>
      <rect id="Rectángulo_5409" data-name="Rectángulo 5409" width="130.071" height="4.601" transform="translate(310.149 3736.823)" fill="#bfbfbf"/>
      <rect id="Rectángulo_5410" data-name="Rectángulo 5410" width="130.071" height="4.601" transform="translate(464.879 3846.741)" fill="#bfbfbf"/>
      <rect id="Rectángulo_5411" data-name="Rectángulo 5411" width="130.071" height="4.601" transform="translate(773.236 3846.741)" fill="#bfbfbf"/>
      <rect id="Rectángulo_5412" data-name="Rectángulo 5412" width="130.071" height="4.601" transform="translate(618.506 3736.823)" fill="#bfbfbf"/>
      <rect id="Rectángulo_5413" data-name="Rectángulo 5413" width="130.071" height="4.601" transform="translate(926.864 3736.823)" fill="#bfbfbf"/>
      <g id="Grupo_54086" data-name="Grupo 54086">
        <g id="Grupo_54085" data-name="Grupo 54085">
          <path id="Trazado_100977" data-name="Trazado 100977" d="M343.407,3705.854a13.627,13.627,0,0,1,2.508-.21,4.138,4.138,0,0,1,2.928.826,2.52,2.52,0,0,1,.8,1.922,2.657,2.657,0,0,1-1.907,2.582v.046a2.518,2.518,0,0,1,1.487,2.042,16.113,16.113,0,0,0,.781,2.777h-1.351a13,13,0,0,1-.676-2.417c-.3-1.4-.841-1.922-2.027-1.968h-1.232v4.385h-1.306Zm1.306,4.61h1.337c1.4,0,2.282-.766,2.282-1.922,0-1.307-.946-1.877-2.327-1.893a5.369,5.369,0,0,0-1.292.121Z"/>
          <path id="Trazado_100978" data-name="Trazado 100978" d="M352.237,3712.445a2.329,2.329,0,0,0,2.493,2.523,4.781,4.781,0,0,0,2.012-.375l.225.945a5.869,5.869,0,0,1-2.417.451,3.374,3.374,0,0,1-3.573-3.664c0-2.191,1.291-3.919,3.408-3.919,2.372,0,3,2.087,3,3.424a5.149,5.149,0,0,1-.045.615Zm3.874-.945a1.88,1.88,0,0,0-1.832-2.147,2.19,2.19,0,0,0-2.027,2.147Z"/>
          <path id="Trazado_100979" data-name="Trazado 100979" d="M365.106,3713.856c0,.751.016,1.413.061,1.983H364l-.076-1.187h-.029a2.736,2.736,0,0,1-2.4,1.352c-1.141,0-2.507-.631-2.507-3.183v-4.25H360.3v4.025c0,1.382.421,2.312,1.622,2.312a1.909,1.909,0,0,0,1.741-1.2,1.937,1.937,0,0,0,.12-.676v-4.46h1.321Z"/>
          <path id="Trazado_100980" data-name="Trazado 100980" d="M367.3,3710.539c0-.751-.015-1.366-.06-1.968h1.171l.075,1.2h.031a2.673,2.673,0,0,1,2.4-1.366c1.006,0,2.567.6,2.567,3.094v4.339h-1.321v-4.19c0-1.17-.435-2.146-1.682-2.146a1.877,1.877,0,0,0-1.772,1.351,1.905,1.905,0,0,0-.089.616v4.369H367.3Z"/>
          <path id="Trazado_100981" data-name="Trazado 100981" d="M377.106,3706.53a.818.818,0,0,1-1.636,0,.8.8,0,0,1,.826-.826A.784.784,0,0,1,377.106,3706.53Zm-1.471,9.309v-7.268h1.322v7.268Z"/>
          <path id="Trazado_100982" data-name="Trazado 100982" d="M385.726,3712.145a3.552,3.552,0,0,1-3.619,3.859,3.455,3.455,0,0,1-3.483-3.738,3.549,3.549,0,0,1,3.6-3.86A3.441,3.441,0,0,1,385.726,3712.145Zm-5.766.076c0,1.591.916,2.792,2.207,2.792,1.262,0,2.208-1.186,2.208-2.823,0-1.231-.616-2.793-2.178-2.793S379.96,3710.839,379.96,3712.221Z"/>
          <path id="Trazado_100983" data-name="Trazado 100983" d="M387.394,3710.539c0-.751-.015-1.366-.06-1.968h1.171l.075,1.2h.03a2.676,2.676,0,0,1,2.4-1.366c1.006,0,2.567.6,2.567,3.094v4.339h-1.321v-4.19c0-1.17-.436-2.146-1.682-2.146a1.877,1.877,0,0,0-1.772,1.351,1.9,1.9,0,0,0-.09.616v4.369h-1.321Z"/>
          <path id="Trazado_100984" data-name="Trazado 100984" d="M396.464,3712.445a2.328,2.328,0,0,0,2.493,2.523,4.788,4.788,0,0,0,2.012-.375l.225.945a5.871,5.871,0,0,1-2.418.451,3.374,3.374,0,0,1-3.573-3.664c0-2.191,1.291-3.919,3.408-3.919,2.372,0,3,2.087,3,3.424a4.942,4.942,0,0,1-.045.615Zm3.874-.945a1.881,1.881,0,0,0-1.832-2.147,2.19,2.19,0,0,0-2.027,2.147Z"/>
          <path id="Trazado_100985" data-name="Trazado 100985" d="M403.072,3714.487a3.456,3.456,0,0,0,1.742.526c.961,0,1.411-.481,1.411-1.081,0-.63-.375-.976-1.351-1.336-1.307-.466-1.922-1.187-1.922-2.057a2.242,2.242,0,0,1,2.508-2.133,3.627,3.627,0,0,1,1.786.451l-.33.961a2.827,2.827,0,0,0-1.486-.421c-.782,0-1.217.451-1.217.992,0,.6.435.871,1.382,1.231,1.261.481,1.907,1.11,1.907,2.192,0,1.276-.991,2.177-2.718,2.177a4.134,4.134,0,0,1-2.042-.5Z"/>
        </g>
      </g>
      <path id="Trazado_100986" data-name="Trazado 100986" d="M1056.935,3747.882l13.656-11.059h-13.656Z" fill="#819b00"/>
      <path id="Trazado_100987" data-name="Trazado 100987" d="M310.149,3747.882l-13.656-11.059h13.656Z" fill="#819b00"/>
      <path id="Trazado_100988" data-name="Trazado 100988" d="M1056.935,3857.8l13.656-11.059-13.656-7Z" fill="#819b00"/>
      <path id="Trazado_100989" data-name="Trazado 100989" d="M1047.168,3835.473l23.423,11.268v-56.777l-23.423-11.268Z" fill="#cddf77"/>
      <path id="Trazado_100990" data-name="Trazado 100990" d="M310.149,3857.8l-13.656-11.059,13.656-7Z" fill="#819b00"/>
      <path id="Trazado_100991" data-name="Trazado 100991" d="M319.916,3835.473l-23.423,11.268v-56.777l23.423-11.268Z" fill="#cddf77"/>
      <line id="Línea_139" data-name="Línea 139" x2="80.146" transform="translate(489.29 3733.686)" fill="none" stroke="#819b00" stroke-miterlimit="10" stroke-width="0.75"/>
      <line id="Línea_140" data-name="Línea 140" x2="80.146" transform="translate(800.223 3733.686)" fill="none" stroke="#819b00" stroke-miterlimit="10" stroke-width="0.75"/>
      <line id="Línea_141" data-name="Línea 141" x2="80.146" transform="translate(643.469 3846.741)" fill="none" stroke="#819b00" stroke-miterlimit="10" stroke-width="0.75"/>
      <line id="Línea_142" data-name="Línea 142" x2="80.146" transform="translate(951.826 3846.741)" fill="none" stroke="#819b00" stroke-miterlimit="10" stroke-width="0.75"/>
      <line id="Línea_143" data-name="Línea 143" x2="80.146" transform="translate(335.112 3846.741)" fill="none" stroke="#819b00" stroke-miterlimit="10" stroke-width="0.75"/>
      <g id="Grupo_54092" data-name="Grupo 54092">
        <g id="Grupo_54087" data-name="Grupo 54087">
          <path id="Trazado_100992" data-name="Trazado 100992" d="M1108.624,3761.959l3.4.629s9.291-14.325,9.558-18.692c.257-4.171,8.631-22.424-1.172-33.82a18.149,18.149,0,0,0-1.443-1.5.555.555,0,0,0-.056-.054l-.049.08a22.044,22.044,0,0,0-1.89,4.85c-1.429,4.863-3.2,13.889-3.612,29.478C1113.355,3742.926,1111.074,3756.272,1108.624,3761.959Z" fill="#e9a069"/>
          <path id="Trazado_100993" data-name="Trazado 100993" d="M1108.624,3761.959s-3.639,4.1-3.75,5.769a4.351,4.351,0,0,0,2.945,4.118c1.618.357.607-2.21.85-3.241s1.3-2.594,1.236-2.128-.711,2.3-.511,2.593.722.341.919-.639,1.827-2.122,1.508-3.173-.058-1.861.383-3.27,1.18-3.1,1.18-3.1l-2.622-.559Z" fill="#e9a069"/>
        </g>
        <path id="Trazado_100994" data-name="Trazado 100994" d="M1133.183,3687.82s.081,1.733-.958,2.072,1.07,4.077.905,6.6a5.343,5.343,0,0,1-1.283,3.539,4.152,4.152,0,0,0,.237-2.248,3.421,3.421,0,0,1-1.257,2.688c-1.3.9-.954,1.68-.954,1.68s-2.948-.883-3.031-3.094a5.832,5.832,0,0,0-.024,1.413s-2.546-1.911-2.668-4.114,2.005-4.061,2.973-4.094,3.128-1.935,3.069-2.653S1133.183,3687.82,1133.183,3687.82Z" fill="#323c66"/>
        <path id="Trazado_100995" data-name="Trazado 100995" d="M1125.036,3675.443c1.715-2.605,8.526-1.147,15.212,3.256s10.716,10.085,9,12.69-8.526,1.147-15.212-3.257S1123.32,3678.048,1125.036,3675.443Z" fill="#d9ab5b"/>
        <path id="Trazado_100996" data-name="Trazado 100996" d="M1110.331,3867.647l3.6,1.342s15.661-21.72,17.589-40.83a29.056,29.056,0,0,0-.515-9.77s.153-.874.42-2.42c.124-.721.277-1.589.451-2.584.509-2.917,1.21-6.909,2.01-11.454,1.843-10.458,4.23-23.828,6.085-33.657l-.971-.312-10.512-3.391-2.173-6.9-7.827-2.061s-1.748,3.421-3.311,19.578c-.289,2.12-.551,4.457-.748,6.992a138.329,138.329,0,0,0,.745,28.3q.539,4.212,1.374,8.686a38.8,38.8,0,0,1,.3,8.578C1116.065,3843.369,1110.331,3867.647,1110.331,3867.647Z" fill="#576d9f"/>
        <path id="Trazado_100997" data-name="Trazado 100997" d="M1114.434,3782.18l17,33.789c.124-.721.277-1.589.451-2.584.509-2.917,1.21-6.909,2.01-11.454,1.843-10.458,4.23-23.828,6.085-33.657l-.971-.312-10.512-3.391-2.173-6.9-9.349-2.781s-.226,4.141-1.789,20.3C1114.893,3777.308,1114.631,3779.645,1114.434,3782.18Z" fill="#3c4b6c"/>
        <path id="Trazado_100998" data-name="Trazado 100998" d="M1118.592,3756.459c-.518-.621,3.712.113,3.712.113,6.593,1.751,24.205-4.892,24.205-4.892s6.386,5.613,5.548,19.069c-.41,6.568-1.157,34.476-1.938,42.734-.282,2.993-.529,5.123-.63,5.974l0,.008a1.175,1.175,0,0,0,.191.731,38.651,38.651,0,0,1,2.882,6.061c7.663,20.42-1.18,45.568-1.18,45.568l-2.3-.925s-5.032-27.986-9.122-40.35a24.472,24.472,0,0,0-1.969-4.73c-1.778-2.869-3.428-7.558-4.925-13.134-2.83-10.543-5.109-24.258-6.625-34.844C1126.235,3777.852,1124.055,3763,1118.592,3756.459Z" fill="#576d9f"/>
        <path id="Trazado_100999" data-name="Trazado 100999" d="M1128.8,3675.739l12.019,18.236s1.375-2.693,2.9-1.727c2.381,1.5,7.5-3.645,6.429-10.916-.07-.475-.153-.927-.246-1.356-2.4-3.455-5.061-7.3-6.972-10.006C1137.411,3666.636,1128.8,3675.739,1128.8,3675.739Z" fill="#323c66"/>
        <path id="Trazado_101000" data-name="Trazado 101000" d="M1123.518,3712.577a20.521,20.521,0,0,0,6.7,3.992c10.613,4.022,16.072-4.668,18.514-10.811a9.5,9.5,0,0,0-3.558-1.645c-.779-.2-1.6-.377-2.289-.505-1.1-1.11-2.411-5.216-2-11.26l-.534.068-8.957,1.189s.022,2.8-.137,5.42c-.126,2.051-.367,4-.816,4.417-.694.055-1.111.1-1.111.1l-.006.008A56.224,56.224,0,0,0,1123.518,3712.577Z" fill="#f4ac75"/>
        <path id="Trazado_101001" data-name="Trazado 101001" d="M1118.565,3718.8c.013.24.036.479.064.728.865,6.761,2.118,28.588,2.118,28.588-2.115,4.16,29.311,13.8,30.668,9.828,2.034-3.1,0-9.047-1.754-13.6-.431-1.112-.526-2.3-.91-3.157a10.289,10.289,0,0,1-.585-1.7,10.067,10.067,0,0,1-.1-4.467,100.627,100.627,0,0,1,2.889-10.559c.462-1.439.879-2.712,1.2-3.774-.454-.63-.9-1.22-1.315-1.776a15.9,15.9,0,0,1-1.527-2.382,3.291,3.291,0,0,1-.374-2.278,11.125,11.125,0,0,1,.564-1.63c.108-.254.225-.5.347-.751a23.417,23.417,0,0,1,3.226-4.731c-2.527-2.093-7.9-3.031-7.9-3.031s-.087.288-.234.758c-.579,1.889-2.132,6.716-3.026,7.44-1.116.9-16.507,1.507-16.746-.272-.235-1.747,3.993-8.248,4.153-8.492l.005-.009-.487.034c-.794.063-1.506.2-2.159.226-4.191.178-4.941,1.315-4.941,1.315C1123.951,3707.8,1118.224,3712.406,1118.565,3718.8Z" fill="#e6b34f"/>
        <path id="Trazado_101002" data-name="Trazado 101002" d="M1131.389,3693.607s.024,2.8-.137,5.42c4.959.175,7.864-4.174,9.1-6.609Z" fill="#e19157"/>
        <path id="Trazado_101003" data-name="Trazado 101003" d="M1129.578,3695.985s11.7.939,12.172-6.357,2.3-12.087-5.149-12.995-9.084,1.782-9.834,4.179S1126.546,3695.553,1129.578,3695.985Z" fill="#f4ac75"/>
        <path id="Trazado_101004" data-name="Trazado 101004" d="M1127.374,3676.777c1.95-2.079,3.287-1.51,4.012-.8a8.2,8.2,0,0,1,10.42,2.354,13.964,13.964,0,0,0,4.034,8.524s-2.218,1.183-7.059-.4a8.379,8.379,0,0,1-3.812-3.005,27.374,27.374,0,0,0,4.337,6.044c-5.705-3.092-7.546-11.418-7.726-12.3a9.205,9.205,0,0,0-2.771,3.242c-.7,1.82-1.208,5.628-2.314,5.427C1126.495,3685.867,1124.449,3679.9,1127.374,3676.777Z" fill="#323c66"/>
        <path id="Trazado_101005" data-name="Trazado 101005" d="M1138.038,3873.7h18.16a9.966,9.966,0,0,0-.514-4.867c-.908-2.015-2.332-2.931-1.991-5.369a6.541,6.541,0,0,1-5.66,2.166,19.964,19.964,0,0,1-3.151,4.084C1143.695,3870.567,1138.4,3870.263,1138.038,3873.7Z" fill="#2c3a64"/>
        <path id="Trazado_101006" data-name="Trazado 101006" d="M1099.047,3873.7h18.16s.678-2.9-.514-4.867c-1.055-1.744-.651-2.738.131-4.18a7.072,7.072,0,0,1-3.059.576,6.4,6.4,0,0,1-2.7-.95,65.33,65.33,0,0,1-5.174,5.435C1104.7,3870.567,1099.412,3870.263,1099.047,3873.7Z" fill="#2c3a64"/>
        <path id="Trazado_101007" data-name="Trazado 101007" d="M1150.4,3684.922s5.441-10.831-2.162-15.112-13.17-2.6-17.353,2.636Z" fill="#e5b96f"/>
        <path id="Trazado_101008" data-name="Trazado 101008" d="M1125.872,3682.859a10.454,10.454,0,0,1,.178-3.551,2.953,2.953,0,0,1-.2-2.825c.509-.818,1.671-1.149,3.247-1.046,2.709.173,6.644,1.626,10.6,4.095,5.153,3.215,8.741,7.147,9.08,9.678a2.078,2.078,0,0,1-.25,1.42,2.4,2.4,0,0,1-1.748.99c-1.1.875-2.247,1.145-3.065.628-.8-.506-1.558-.008-2.1.581,6.659,2.743,12.184,3.166,13.758.645,1.417-2.272-.719-6.369-5.093-10.647a52.26,52.26,0,0,0-8.773-6.781,54.507,54.507,0,0,0-8.1-4.187c-6.61-2.708-12.084-3.112-13.65-.6C1118.242,3673.7,1120.82,3678.246,1125.872,3682.859Z" fill="#f7cb7a"/>
        <path id="Trazado_101009" data-name="Trazado 101009" d="M1137.454,3741.844a53.845,53.845,0,0,0,12.431,2.325c-.431-1.111-.75-2.119-1.134-2.979a10.289,10.289,0,0,1-.585-1.7,10.067,10.067,0,0,1-.1-4.467c.807-3.939,2.952-10.659,3.9-13.62-2.539-5.664-5.163-2.575-5.163-2.575s-7.675,3.442-10.942,9.787S1133.549,3740.592,1137.454,3741.844Z" fill="#e1a12e"/>
        <path id="Trazado_101010" data-name="Trazado 101010" d="M1147.251,3704.545a23.237,23.237,0,0,0-9.178,14.518l-2.21-.7s.855-7.029,9.309-14.248Z" fill="#3c4b6c"/>
        <path id="Trazado_101011" data-name="Trazado 101011" d="M1121.437,3719.313l2.314.151a23.48,23.48,0,0,1,5.088-15.893c-.794.063-1.513.14-2.159.225C1120.619,3712.566,1121.437,3719.313,1121.437,3719.313Z" fill="#3c4b6c"/>
        <path id="Trazado_101012" data-name="Trazado 101012" d="M1137.851,3724.525c.143-.608,1.559-6.519,1.559-6.519s.327-1.848-2.921-2.031-14.769-.79-14.769-.79a3.592,3.592,0,0,0-1.593,2.892c-.023,1.944-1.591,13.068-1.591,13.068l-1.613,24.465,35.134,15.139s2.408-12.365-.289-20.984c-1.573-5.026-3.6-10.275-3.6-10.275S1135.665,3733.815,1137.851,3724.525Z" fill="#576d9f"/>
        <g id="Grupo_54089" data-name="Grupo 54089">
          <g id="Grupo_54088" data-name="Grupo 54088">
            <path id="Trazado_101013" data-name="Trazado 101013" d="M1138.164,3718.2a.971.971,0,1,0-1.219.631A.97.97,0,0,0,1138.164,3718.2Z" fill="#df750d"/>
            <path id="Trazado_101014" data-name="Trazado 101014" d="M1138,3718.151a.97.97,0,1,0-1.219.631A.972.972,0,0,0,1138,3718.151Z" fill="#ec9037"/>
          </g>
          <path id="Trazado_101015" data-name="Trazado 101015" d="M1137.674,3717.856a.141.141,0,1,0-.141.142A.141.141,0,0,0,1137.674,3717.856Z" fill="#35488b"/>
          <path id="Trazado_101016" data-name="Trazado 101016" d="M1136.753,3717.858a.141.141,0,1,0-.141.141A.141.141,0,0,0,1136.753,3717.858Z" fill="#35488b"/>
        </g>
        <g id="Grupo_54091" data-name="Grupo 54091">
          <g id="Grupo_54090" data-name="Grupo 54090">
            <path id="Trazado_101017" data-name="Trazado 101017" d="M1123.878,3716.971a.971.971,0,1,0-1.218.631A.97.97,0,0,0,1123.878,3716.971Z" fill="#df750d"/>
            <path id="Trazado_101018" data-name="Trazado 101018" d="M1123.712,3716.918a.97.97,0,1,0-1.219.631A.971.971,0,0,0,1123.712,3716.918Z" fill="#ec9037"/>
          </g>
          <path id="Trazado_101019" data-name="Trazado 101019" d="M1123.389,3716.623a.141.141,0,1,0-.141.142A.141.141,0,0,0,1123.389,3716.623Z" fill="#35488b"/>
          <path id="Trazado_101020" data-name="Trazado 101020" d="M1122.468,3716.625a.141.141,0,1,0-.141.141A.142.142,0,0,0,1122.468,3716.625Z" fill="#35488b"/>
        </g>
        <path id="Trazado_101021" data-name="Trazado 101021" d="M1148.783,3689.21s.081,1.732-.958,2.071,1.07,4.078.905,6.6a5.344,5.344,0,0,1-1.283,3.539,4.146,4.146,0,0,0,.236-2.248,3.417,3.417,0,0,1-1.256,2.687c-1.305.9-.954,1.681-.954,1.681s-2.948-.883-3.031-3.095a5.887,5.887,0,0,0-.025,1.414s-2.545-1.911-2.667-4.114,2-4.061,2.972-4.094,3.128-1.935,3.07-2.653S1148.783,3689.21,1148.783,3689.21Z" fill="#323c66"/>
        <path id="Trazado_101022" data-name="Trazado 101022" d="M1148.77,3747.24s-3.5,2.21-4.015,2.191c-1.2-.045-3.573-2.67-5.548-1.456s-3.909,3.235-3.225,4.044,3-.145,4.116.016,3.854,1.526,5.79.884a42.209,42.209,0,0,0,5.88-3.154Z" fill="#f4ac75"/>
        <path id="Trazado_101023" data-name="Trazado 101023" d="M1153.074,3707.142s13.036,15.4,17.35,24.07c0,0-5.187,11.293-22,20.468a5.822,5.822,0,0,1-1.888-.979c-1.779-1.27.193-2.2.582-2.453,4.266-2.764,11.72-14.666,11.936-15.7s-9.343-10.3-12.247-13.721S1148.559,3705.378,1153.074,3707.142Z" fill="#f4ac75"/>
        <path id="Trazado_101024" data-name="Trazado 101024" d="M1133.185,3691.908a6.282,6.282,0,0,1-2.985.934c-1.229-.122-1.9-1.6-1.9-1.6A10.3,10.3,0,0,1,1133.185,3691.908Z" fill="#fcf0e7"/>
        <path id="Trazado_101025" data-name="Trazado 101025" d="M1153.074,3707.142l5.856,5.721s-1.337,8.447-10.2,9.551c0,0-7.274-5.824-2.928-11.891S1153.074,3707.142,1153.074,3707.142Z" fill="#e6b34f"/>
        <path id="Trazado_101026" data-name="Trazado 101026" d="M1121.738,3705.111s-4.512,2.086-5.968,9.371c0,0,.084,2.314,3.561,3.505,0,0,4.567-12.3,3.917-12.876A1.316,1.316,0,0,0,1121.738,3705.111Z" fill="#e6b34f"/>
        <path id="Trazado_101027" data-name="Trazado 101027" d="M1144.755,3749.431a1.864,1.864,0,0,0-.95-1.186c-.752-.335-1.453-1.066-1.514-.853a.984.984,0,0,0,.281,1A2.513,2.513,0,0,0,1144.755,3749.431Z" fill="#f4ac75"/>
      </g>
      <ellipse id="Elipse_3997" data-name="Elipse 3997" cx="40.252" cy="5.399" rx="40.252" ry="5.399" transform="translate(188.545 3868.989)" fill="#e6e6e6"/>
      <g id="Grupo_54095" data-name="Grupo 54095">
        <g id="man">
          <path id="Trazado_101028" data-name="Trazado 101028" d="M209.3,3863.133s-2.692,3.525-1.7,5.527,4.126,2.91,4.963,5.422,2.643,3.649,4.05,3.406l6.709-1.16s.722-1.994-1.874-2.109-4.064-2.983-4.394-5.824a51.066,51.066,0,0,0-1.37-6.527l-5.532-.331Z" fill="#323c66"/>
          <path id="Trazado_101029" data-name="Trazado 101029" d="M233.587,3865.808s-.793,6.346.635,7.06,18.484.476,18.484.476,0-2.142-2.935-2.618-8.092-2.221-8.965-6.108S233.587,3865.808,233.587,3865.808Z" fill="#323c66"/>
          <path id="Trazado_101030" data-name="Trazado 101030" d="M249.016,3768.894s-.964,12.026-2.1,26.482c-1.54,19.637-3.391,43.759-3.575,48.328-.316,7.935-1.587,20.627-1.587,20.627s-3.013,3.016-9.044,1.745a207.639,207.639,0,0,1-6.909-37.29c-.024-.314-.048-.631-.071-.947-1.428-19.516-3.649-60.611-3.649-60.611Z" fill="#576d9f"/>
          <path id="Trazado_101031" data-name="Trazado 101031" d="M249.016,3768.894s-.964,12.026-2.1,26.482l-21.115,33.41c-.024-.314-.048-.631-.071-.947-1.428-19.516-3.649-60.611-3.649-60.611Z" fill="#3c4b6c"/>
          <path id="Trazado_101032" data-name="Trazado 101032" d="M244.626,3768.466s-9.7,45.877-17.47,67.992-10.315,28.351-10.315,28.351-6.9-1.465-7.786-3.122c0,0-2.427-39.681,3.471-50.476,3.332-6.1,5.553-23.06,4.815-28.729s-1.375-17.031-1.375-17.031Z" fill="#576d9f"/>
          <g id="Grupo_54093" data-name="Grupo 54093">
            <path id="Trazado_101033" data-name="Trazado 101033" d="M275.023,3751.923s6.674,1.306,7.663,1.829,3.893,3.6,3.812,3.91-.355.47-.99.238-2.547-1.4-2.528-1.091,5.352,4.047,4.895,5.252-4.631,1.967-7.4.912-6.691-6.56-7.13-6.8C269.628,3754.116,275.023,3751.923,275.023,3751.923Z" fill="#f4ac75"/>
            <path id="Trazado_101034" data-name="Trazado 101034" d="M276.084,3754.905c1.275-1.861,1.224-2.235,1.224-2.235s-15.251-15.46-16.618-16.973-14.108-27.373-14.108-27.373l-20.965-.585s22.961,31.939,26.5,35.7c5.848,6.222,21.559,13.532,21.559,13.532A6.291,6.291,0,0,0,276.084,3754.905Z" fill="#e1a12e"/>
          </g>
          <path id="Trazado_101035" data-name="Trazado 101035" d="M233.7,3698.047s10,10.288,17.114,10.121a18.934,18.934,0,0,0-3.687-6.332c.464-.962.862-1.84,1.2-2.62a41.942,41.942,0,0,0,1.585-4.135l-3.867-5.527-2.623-3.75a20.7,20.7,0,0,1-1.509,4.1A16.963,16.963,0,0,1,233.7,3698.047Z" fill="#f4ac75"/>
          <path id="Trazado_101036" data-name="Trazado 101036" d="M241.915,3689.909a13.153,13.153,0,0,0,6.414,9.307,41.942,41.942,0,0,0,1.585-4.135l-3.867-5.527A13.433,13.433,0,0,0,241.915,3689.909Z" fill="#e19054"/>
          <path id="Trazado_101037" data-name="Trazado 101037" d="M251.953,3695.5s-11.289-1.333-10.351-8.35.112-11.916,7.36-11.363,8.287,3.419,8.544,5.837S254.914,3695.669,251.953,3695.5Z" fill="#f4ac75"/>
          <path id="Trazado_101038" data-name="Trazado 101038" d="M214.564,3769.151c5.679,4.87,38.663,4.777,37.225.759a46.141,46.141,0,0,1-2.1-8.117q-.228-1.355-.4-2.889a66.871,66.871,0,0,1,1.51-22.181q.232-1.027.5-2.08a64.484,64.484,0,0,0,1.783-10.745c.533-6.747-.14-12.9-2.23-16.485a.192.192,0,0,0-.03-.049c-7.238-1.309-12.754-12.247-12.754-12.247s-21.02,9.688-25.734,42.287c0,0-.348,3.535-.564,8.267-.266,5.74-.342,13.236.628,18.317C212.847,3766.4,213.543,3768.272,214.564,3769.151Z" fill="#e6b34f"/>
          <path id="Trazado_101039" data-name="Trazado 101039" d="M237.066,3675.749c-.108-.123-.356-.221-.906-.244a2.215,2.215,0,0,1,1.022-.307,2.8,2.8,0,0,1,1.8-2.5,1.67,1.67,0,0,0-.783,1.217c1.5-1.607,4.749-2.8,13.789-2.195,11.915.8,8.091,8.592,6.562,9.534s-5.44-1.538-8.308-1.27-3.361,4.489-4.327,5.079-.6-.436-1.922-1.024-1.423,1.631-1.024,3.068-1.387,3.362-1.387,3.362l-1.856-1.978c-1.855-1.978-3.688-10.433-2.879-12.251C236.923,3676.075,236.993,3675.912,237.066,3675.749Z" fill="#35488b"/>
          <path id="Trazado_101040" data-name="Trazado 101040" d="M212.39,3763.988c24.519-14.94,20.507-47.76,20.507-47.76s-12.139,15.513-21.135,29.443C211.5,3751.411,211.42,3758.907,212.39,3763.988Z" fill="#e1a12e"/>
          <g id="Grupo_54094" data-name="Grupo 54094">
            <path id="Trazado_101041" data-name="Trazado 101041" d="M205.366,3766.925a56.609,56.609,0,0,1,1.977,5.737,10.852,10.852,0,0,1-.49,3.627c-.235.075-.951.292-1.062-.216s.093-1.063-.1-.926.245,2.054-.728,2.254-4.073-.13-4.532-2.367,1.5-7.06,1.476-7.445C201.712,3764.324,205.366,3766.925,205.366,3766.925Z" fill="#f4ac75"/>
            <path id="Trazado_101042" data-name="Trazado 101042" d="M203.993,3768.189c2.362.418,2.889-.772,2.889-.772s6.959-23.726,7.825-25.714,21.031-17.626,21.031-17.626,8.32-5.932,7.229-11.63c-.949-4.952-4.49-7.224-7.987-8.242a10.556,10.556,0,0,0-11.295,3.728c-5.943,7.717-17.679,23.184-19.235,26.955-3.462,8.394-3.6,31.921-3.6,31.921A7.56,7.56,0,0,0,203.993,3768.189Z" fill="#e6b34f"/>
          </g>
          <path id="Trazado_101043" data-name="Trazado 101043" d="M280.733,3777.032a.913.913,0,1,0-.912.912A.912.912,0,0,0,280.733,3777.032Z" fill="#fae1b5"/>
        </g>
      </g>
    </g>
  </g>
</svg>
