<svg xmlns="http://www.w3.org/2000/svg" xmlns:xlink="http://www.w3.org/1999/xlink" width="352" height="371" viewBox="0 0 352 371">
  <defs>
    <clipPath id="clip-path">
      <circle id="Elipse_3992" data-name="Elipse 3992" cx="154.113" cy="154.113" r="154.113" fill="none"/>
    </clipPath>
  </defs>
  <g id="Grupo_54100" data-name="Grupo 54100" transform="translate(6590 10094)">
    <rect id="Rectángulo_5416" data-name="Rectángulo 5416" width="352" height="371" transform="translate(-6590 -10094)" fill="none"/>
    <g id="Grupo_53897" data-name="Grupo 53897" transform="translate(557.865 -280.886)">
      <g id="Grupo_53890" data-name="Grupo 53890" transform="translate(-7125.865 -9782.113)">
        <circle id="Elipse_3991" data-name="Elipse 3991" cx="154.113" cy="154.113" r="154.113" transform="translate(0)" fill="#dce9ff"/>
        <path id="Trazado_100518" data-name="Trazado 100518" d="M-773.217,1766.867a154.171,154.171,0,0,1-144.423,100.215,154.113,154.113,0,0,1-154.113-154.113c0-.052,0-.1,0-.158,31.132-10.106,67.806-15.939,107.07-15.939C-876.937,1696.874-802.121,1725.993-773.217,1766.867Z" transform="translate(1071.752 -1558.857)" fill="#cddf77"/>
        <path id="Trazado_99485" data-name="Trazado 99485" d="M-1000.227,1662.283s4.009-10.267,13.6-9.127c0,0,13.924-17.113,28.769-2.281,0,0,15.781-3.674,27.471,3.183,7.792,4.57,10.366,9.366,10.366,9.366Z" transform="translate(1065.005 -1553.947)" fill="#f7faff"/>
        <path id="Trazado_99486" data-name="Trazado 99486" d="M-1023.3,1628.027s3.068-7.857,10.407-6.984c0,0,10.655-13.1,22.016-1.745,0,0,12.077-2.813,21.021,2.434,5.963,3.5,7.934,7.172,7.934,7.172Z" transform="translate(1067.181 -1551.102)" fill="#f7faff"/>
        <path id="Trazado_99486-2" data-name="Trazado 99486" d="M-857.694,1600.522s3.069-7.857,10.408-6.984c0,0,10.655-13.1,22.016-1.745,0,0,12.077-2.813,21.021,2.434,5.963,3.5,7.934,7.173,7.934,7.173Z" transform="translate(1051.559 -1548.508)" fill="#f7faff"/>
      </g>
      <g id="Grupo_53894" data-name="Grupo 53894" transform="translate(-7125.865 -9782.113)">
        <g id="Grupo_53893" data-name="Grupo 53893" clip-path="url(#clip-path)">
          <path id="Trazado_100519" data-name="Trazado 100519" d="M-879.206,1735.5l27.114,24.3-13.557,4.108-21.7-14.2Z" transform="translate(1054.356 -1562.501)" fill="#ebaf7f"/>
          <g id="Grupo_53892" data-name="Grupo 53892" transform="translate(47.795 25.829)">
            <g id="Grupo_53891" data-name="Grupo 53891" transform="translate(0 286.019)">
              <path id="Trazado_100520" data-name="Trazado 100520" d="M-996.305,2077.26l-9.114-2.952a286.6,286.6,0,0,1,2.163-54.375c2.567-18.781,7.276-39.12,15.8-55.456a71.482,71.482,0,0,1,14.08-19.205s6.993-16.233,16.252-37.937c10.3-24.128,74.735-31.2,37.966,19.344-7.543,10.371-15.643,28.629-25.354,39.718-16.59,18.954-28.3,41.082-36.336,60.561A270.438,270.438,0,0,0-996.305,2077.26Z" transform="translate(1017.741 -1888.812)" fill="#ebaf7f"/>
              <path id="Trazado_100521" data-name="Trazado 100521" d="M-1018.291,2094.818c-2.762,4.477,3.2,8.861,10.582,13s4.323,4.547,13.759,11.572,15,6.251,16.445,5.223c1.286-.912-2.569-5.249-6.616-10-.511-.6-1.017-1.2-1.524-1.8-4.519-5.413-5.189-12.209-7.31-19.253-2.009-6.674,1.176-23.267,1.176-23.267l-12.6-10s-2.558,15.087-3.967,21.371c-.828,3.7-3.849,6.788-6.3,9.067A20.568,20.568,0,0,0-1018.291,2094.818Z" transform="translate(1018.979 -1904.987)" fill="#ebaf7f"/>
              <path id="Trazado_100522" data-name="Trazado 100522" d="M-1007.709,2110.984c7.379,4.131,4.323,4.546,13.759,11.572s15,6.251,16.445,5.223c1.286-.911-2.569-5.249-6.616-10l-.124.048a32.972,32.972,0,0,1-15.8-7.609c-5.934-5.268-10.531-12.659-14.6-16.329a20.563,20.563,0,0,0-3.65,4.1C-1021.053,2102.466-1015.087,2106.849-1007.709,2110.984Z" transform="translate(1018.979 -1908.158)" fill="#304886"/>
            </g>
            <path id="Trazado_100523" data-name="Trazado 100523" d="M-931.781,1573.117s-22.228-2.705-33.4,17.978-10.271,50.647-21.1,64.781,1.805,27.533,1.805,27.533l84.413,2.851a58.668,58.668,0,0,0,0-34.758C-905.937,1632.544-877.274,1575.984-931.781,1573.117Z" transform="translate(1016.309 -1573.001)" fill="#384987"/>
            <path id="Trazado_100524" data-name="Trazado 100524" d="M-909.27,1781.659c-14.743-47.126,14.934-46.513,13.4-70.1s-19.793-48.939-19.793-48.939-.654-.067-1.8-.172a1.624,1.624,0,0,1-1.38-1.054c-.681-1.865-.88-5.942-.869-10.194.015-6.491.513-13.382.513-13.382l-21.9-4.337-1.3-.256c.039,11.016-2.046,19.3-4.3,23.92a7.34,7.34,0,0,1-5.592,4.046c-4.7.659-12.981,2.066-18.561,4.4-2.711,1.131-4.778,2.481-5.5,4.066-6.013,13.222-12.016,46.59-16.236,70.394-2.351,13.266-4.971,24.414-3.989,29.12.216,1.031,18.919,7.716,21.529-4.678.852-4.036,2.94-12.111,5.376-21.159.368-1.369.744-2.76,1.126-4.164,4.3,11.667,6.5,17.066,6.378,22.106-.169,7.174-5.033,13.621-15.2,36.421C-982.982,1810.3-894.218,1829.791-909.27,1781.659Z" transform="translate(1016.885 -1578.682)" fill="#ebaf7f"/>
            <path id="Trazado_100525" data-name="Trazado 100525" d="M-913.395,1637.849s-.5,6.891-.513,13.382c-12.254-.345-18.73-11.523-21.384-17.719Z" transform="translate(1011.084 -1578.709)" fill="#d2925e"/>
            <path id="Trazado_100526" data-name="Trazado 100526" d="M-909.652,1639.991s-28.991.479-29.011-17.58-3.775-30.159,14.734-31.228,22.113,5.818,23.586,11.844S-902.111,1639.4-909.652,1639.991Z" transform="translate(1011.433 -1574.705)" fill="#ebaf7f"/>
            <path id="Trazado_100527" data-name="Trazado 100527" d="M-869.14,2081.419l-9.3,2.289a286.607,286.607,0,0,1-26.791-47.366c-7.706-17.318-14.412-37.09-15.764-55.466a71.535,71.535,0,0,1,1.857-23.742s-2.6-17.482-6.158-40.809c-3.949-25.934-9.068-59.09-13.081-83.47l2.422-.718,39.58-23.145s18.188,41.458,13.542,103.789c-.953,12.789,1.774,32.576-.642,47.116-4.125,24.849-2.427,49.824,1,70.618A270.4,270.4,0,0,0-869.14,2081.419Z" transform="translate(1011.375 -1595.263)" fill="#ebaf7f"/>
            <path id="Trazado_100528" data-name="Trazado 100528" d="M-902.176,1592.6c-4.474-5.423-7.857-4.244-9.757-2.615-15.544-8.623-26.066,4.176-26.066,4.176a34.5,34.5,0,0,1-11.283,20.381s5.161,2.743,17.466.131c14.6-3.1,18.621-19.557,19.2-21.7,1.77,1.589,5.258,5.043,6.322,8.426,1.445,4.6,2.1,14.066,4.855,13.744C-901.435,1615.149-895.455,1600.748-902.176,1592.6Z" transform="translate(1012.404 -1574.321)" fill="#384987"/>
            <path id="Trazado_100529" data-name="Trazado 100529" d="M-878.7,1960.468c-35.006,20-127.161-11.849-127.066-13.691.487-9.791,9.344-68.727,19.744-124.967,6.392-34.587,23.414-47.506,20.692-49.687l-.041-.041c-10.5-7.447-5.958-20.231-5.268-24.809-3.223.868-13.623,2.83-25.527-3.737,4.9-23.97,11.891-57.582,18.892-70.894a5.362,5.362,0,0,1,1.719-1.815.357.357,0,0,1-.067-.082c6.553-4.78,19.947-6.243,19.947-6.243s7.218,17.672,9.425,20.435c14.287,17.849,39.95,9.791,36.456-1.327-1.26-4.049-7.746-16.792-8.531-18.214a17.406,17.406,0,0,1,1.814.176c4.306.57,7.353,1,9.547,1.381,4.306.731,5.376,1.246,6.447,2.072,3.777,3.778,8.693,13.164,9.086,29.915.148,6.229,6.636,75.01-14.355,73.818-.474-.027-.068,1.1.84,3.223,2.966,6.812,11.375,23.9,13.813,45.827C-883.193,1893.136-878.7,1960.468-878.7,1960.468Z" transform="translate(1017.732 -1581.632)" fill="#fff"/>
            <path id="Trazado_100530" data-name="Trazado 100530" d="M-915.794,1633.157s.552,2.224,6.093,1.814c0,0,4.653-.342,4.481-2.791C-905.219,1632.18-909.755,1630.49-915.794,1633.157Z" transform="translate(1009.245 -1578.533)" fill="#fff"/>
            <path id="Trazado_100531" data-name="Trazado 100531" d="M-881.262,2119.335c.008,5.261,7.388,5.847,15.837,5.476s6.07,1.589,17.791,2.594,16.043-2.583,16.73-4.219c.614-1.451-4.948-3.108-10.888-5.014-.747-.237-1.5-.484-2.245-.731-6.692-2.222-10.84-7.647-16.353-12.52-5.221-4.616-11.25-20.4-11.25-20.4l-15.976-1.873s5.768,14.173,7.88,20.257c1.242,3.578.3,7.8-.581,11.024A20.594,20.594,0,0,0-881.262,2119.335Z" transform="translate(1006.586 -1621.078)" fill="#ebaf7f"/>
            <path id="Trazado_100532" data-name="Trazado 100532" d="M-864.763,2128.069c8.449-.372,6.07,1.589,17.791,2.594s16.043-2.583,16.73-4.219c.614-1.451-4.948-3.108-10.888-5.014l-.079.105a32.959,32.959,0,0,1-17.438,1.85c-7.819-1.354-15.618-5.217-21.009-6.2a20.592,20.592,0,0,0-.945,5.405C-880.592,2127.854-873.211,2128.44-864.763,2128.069Z" transform="translate(1005.925 -1624.337)" fill="#304886"/>
            <path id="Trazado_100533" data-name="Trazado 100533" d="M-878.7,1971.678c-35.006,20-127.161-11.849-127.066-13.691.487-9.791,9.344-68.727,19.744-124.967,6.392-34.586,23.414-47.506,20.692-49.686.65.528,10.522,8.492,28.628,7.408a299.613,299.613,0,0,0,31.756-3.549c2.966,6.812,11.375,23.9,13.813,45.827C-883.193,1904.346-878.7,1971.678-878.7,1971.678Z" transform="translate(1017.732 -1592.842)" fill="#e7b44f"/>
            <path id="Trazado_100534" data-name="Trazado 100534" d="M-961.288,1783.288s28.664,11.963,59.586.677l1.57,4.846s-31.81,11.049-62.395-1.523Z" transform="translate(1013.653 -1592.838)" fill="#d37c35"/>
            <path id="Trazado_100535" data-name="Trazado 100535" d="M-996.553,1781.461s40.059,18.352,80.383,23.237l1.285-7.1s-53.417-35.563-66.681-34.066S-996.553,1781.461-996.553,1781.461Z" transform="translate(1016.863 -1590.97)" fill="#ebaf7f"/>
            <g id="Grupo_53523" data-name="Grupo 53523" transform="translate(104.695 162.197)">
              <g id="Grupo_53520" data-name="Grupo 53520">
                <path id="Trazado_99550" data-name="Trazado 99550" d="M-900.343,1797.952h59.455a7.524,7.524,0,0,0,6.337-4.507l14.968-36.845c1.01-2.49-.187-4.507-2.676-4.507h-59.454a7.523,7.523,0,0,0-6.336,4.507l-14.967,36.845C-904.032,1795.934-902.835,1797.952-900.343,1797.952Z" transform="translate(903.378 -1752.092)" fill="#acc6fb"/>
              </g>
              <g id="Grupo_53522" data-name="Grupo 53522" transform="translate(3.543)">
                <path id="Trazado_99551" data-name="Trazado 99551" d="M-896.428,1797.952h59.448a7.524,7.524,0,0,0,6.338-4.507l14.968-36.845c1.01-2.49-.187-4.507-2.676-4.507h-59.455a7.525,7.525,0,0,0-6.337,4.507l-14.966,36.845C-900.116,1795.934-898.917,1797.952-896.428,1797.952Z" transform="translate(899.466 -1752.092)" fill="#80a0fa"/>
                <g id="Grupo_53521" data-name="Grupo 53521" transform="translate(69.542 2.828)">
                  <path id="Trazado_99552" data-name="Trazado 99552" d="M-813.815,1755.215h0a3.45,3.45,0,0,0-2.894,2.058h0c-.459,1.132.091,2.058,1.222,2.058h0a3.452,3.452,0,0,0,2.894-2.058h0C-812.134,1756.141-812.682,1755.215-813.815,1755.215Z" transform="translate(822.132 -1755.215)" fill="#384985"/>
                  <path id="Trazado_99553" data-name="Trazado 99553" d="M-820.9,1756.161h0a2.011,2.011,0,0,0-1.689,1.2h0c-.265.664.051,1.195.713,1.195h0a2.013,2.013,0,0,0,1.689-1.195h0C-819.917,1756.7-820.238,1756.161-820.9,1756.161Z" transform="translate(822.68 -1755.304)" fill="#384985"/>
                </g>
              </g>
              <path id="Trazado_99554" data-name="Trazado 99554" d="M-847.352,1775.663c.992-2.443-.183-4.422-2.626-4.422a7.385,7.385,0,0,0-6.219,4.422c-.993,2.441.183,4.421,2.626,4.421A7.386,7.386,0,0,0-847.352,1775.663Z" transform="translate(898.96 -1753.898)" fill="#acc6fb"/>
            </g>
            <path id="Trazado_100536" data-name="Trazado 100536" d="M-906.512,1800.366s5.176-.783,6.242-1.54a20.275,20.275,0,0,1,7.556-3.976c4.339-1.209,7.21-2.891,6.472-1.538s-6.767,6.029-5.537,6.275,13.412-2.232,13.9-1.054-9.966,8.564-13.534,8.931-16.387,0-16.387,0Z" transform="translate(1008.49 -1593.736)" fill="#ebaf7f"/>
          </g>
        </g>
      </g>
      <path id="Trazado_100540" data-name="Trazado 100540" d="M-815.269,1680.649a19.983,19.983,0,0,1-1.026,3.838l4.167,3.777a25.144,25.144,0,0,1-2.018,3.522l-5.351-1.725a20.044,20.044,0,0,1-2.82,2.819l1.724,5.351a25.2,25.2,0,0,1-3.522,2.018l-3.776-4.168a19.8,19.8,0,0,1-3.839,1.026l-1.188,5.506c-.672.053-1.348.1-2.034.1s-1.361-.049-2.035-.1l-1.189-5.506a19.841,19.841,0,0,1-3.838-1.026l-3.777,4.168a25.117,25.117,0,0,1-3.522-2.018l1.725-5.351a20.132,20.132,0,0,1-2.819-2.819l-5.351,1.725a25.327,25.327,0,0,1-2.018-3.522l4.168-3.777a19.826,19.826,0,0,1-1.026-3.838l-5.506-1.189c-.053-.674-.1-1.349-.1-2.035s.049-1.362.1-2.035l5.506-1.189a19.843,19.843,0,0,1,1.026-3.838l-4.168-3.777a25.135,25.135,0,0,1,2.018-3.522l5.351,1.726a20.038,20.038,0,0,1,2.821-2.819l-1.725-5.351a25.227,25.227,0,0,1,3.522-2.018l3.776,4.167a19.962,19.962,0,0,1,3.839-1.026l1.188-5.5c.673-.053,1.348-.1,2.034-.1s1.362.05,2.035.1l1.189,5.5a19.973,19.973,0,0,1,3.838,1.026l3.777-4.167a25.142,25.142,0,0,1,3.522,2.018l-1.725,5.351a20.034,20.034,0,0,1,2.819,2.82l5.351-1.725a25.171,25.171,0,0,1,2.018,3.522l-4.167,3.776a19.935,19.935,0,0,1,1.026,3.839l5.5,1.188c.053.672.1,1.348.1,2.034s-.05,1.361-.1,2.035Zm-19.683-16.535a13.31,13.31,0,0,0-13.311,13.311,13.31,13.31,0,0,0,13.311,13.31,13.31,13.31,0,0,0,13.311-13.31A13.31,13.31,0,0,0-834.952,1664.114Z" transform="translate(-6074.066 -11336.75)" fill="#384987"/>
      <path id="Trazado_100541" data-name="Trazado 100541" d="M-792.784,1640.45a10.745,10.745,0,0,1-.813,1.97l2.1,4.027a14.724,14.724,0,0,1-2.415,2.416l-4.028-2.1a10.517,10.517,0,0,1-1.97.813l-1.363,4.339a14.356,14.356,0,0,1-1.706.109,14.7,14.7,0,0,1-1.705-.108l-1.363-4.339a10.661,10.661,0,0,1-1.97-.813l-4.027,2.1a14.728,14.728,0,0,1-2.416-2.416l2.1-4.028a10.5,10.5,0,0,1-.813-1.97l-4.339-1.363a14.384,14.384,0,0,1-.11-1.706,14.752,14.752,0,0,1,.108-1.705l4.34-1.363a10.558,10.558,0,0,1,.813-1.97l-2.1-4.028a14.718,14.718,0,0,1,2.415-2.416l4.028,2.1a10.5,10.5,0,0,1,1.97-.813l1.363-4.339a14.358,14.358,0,0,1,1.706-.11,14.726,14.726,0,0,1,1.705.108l1.363,4.34a10.534,10.534,0,0,1,1.97.813l4.027-2.1a14.713,14.713,0,0,1,2.416,2.415l-2.1,4.028a10.514,10.514,0,0,1,.813,1.97l4.339,1.363a14.355,14.355,0,0,1,.11,1.706,14.729,14.729,0,0,1-.108,1.705Zm-10.195-8.393a5.324,5.324,0,0,0-5.324,5.324,5.324,5.324,0,0,0,5.324,5.324,5.324,5.324,0,0,0,5.324-5.324A5.324,5.324,0,0,0-802.979,1632.057Z" transform="translate(-6078.087 -11333.977)" fill="#d49b4b"/>
      <path id="Trazado_100542" data-name="Trazado 100542" d="M-780.5,1673.953a9.317,9.317,0,0,1-.864,2.093l1.324,2.787a12.066,12.066,0,0,1-2.06,2.061l-2.787-1.324a9.309,9.309,0,0,1-2.093.864l-1.035,2.912a11.871,11.871,0,0,1-1.455.1,11.867,11.867,0,0,1-1.454-.1l-1.035-2.912a9.326,9.326,0,0,1-2.093-.864l-2.787,1.324a12.109,12.109,0,0,1-2.061-2.061l1.325-2.787a9.241,9.241,0,0,1-.864-2.091l-2.913-1.036a12.057,12.057,0,0,1-.1-1.456,12.03,12.03,0,0,1,.1-1.455l2.913-1.035a9.189,9.189,0,0,1,.864-2.091l-1.325-2.788a12.1,12.1,0,0,1,2.061-2.06l2.787,1.324a9.286,9.286,0,0,1,2.093-.864l1.035-2.912a11.676,11.676,0,0,1,1.454-.1,12.093,12.093,0,0,1,1.455.1l1.035,2.913a9.231,9.231,0,0,1,2.093.864l2.787-1.325a12.087,12.087,0,0,1,2.06,2.061l-1.324,2.787a9.28,9.28,0,0,1,.864,2.093l2.912,1.035a11.871,11.871,0,0,1,.1,1.455,11.871,11.871,0,0,1-.1,1.455Zm-8.971-6.484a3.993,3.993,0,0,0-3.993,3.993,3.992,3.992,0,0,0,3.993,3.993,3.993,3.993,0,0,0,3.994-3.993A3.993,3.993,0,0,0-789.475,1667.469Z" transform="translate(-6079.612 -11337.443)" fill="#7cc1ea"/>
      <g id="Grupo_53895" data-name="Grupo 53895" transform="translate(-6935.61 -9710.141)">
        <path id="Trazado_100543" data-name="Trazado 100543" d="M-775.706,1625.543l-7.962-1.592-1.591,7.96,2.61.523.717-3.584a19.974,19.974,0,0,1,1.972,8.646,19.754,19.754,0,0,1-4.38,12.479l2.079,1.665A22.7,22.7,0,0,0-777.3,1637.5a22.65,22.65,0,0,0-2.337-10.024l3.408.681Z" transform="translate(854.471 -1623.951)" fill="#484b6b"/>
        <path id="Trazado_100544" data-name="Trazado 100544" d="M-832.815,1637.868l-1.882,1.882,1.809,1.809c-.732-.046-1.465-.088-2.2-.088a34.54,34.54,0,0,0-26.592,12.458l2.045,1.705a31.88,31.88,0,0,1,24.547-11.5c.677,0,1.354.039,2.029.081l-1.639,1.639,1.882,1.882,4.934-4.934Z" transform="translate(861.68 -1625.264)" fill="#484b6b"/>
      </g>
    </g>
  </g>
</svg>
