<svg xmlns="http://www.w3.org/2000/svg" xmlns:xlink="http://www.w3.org/1999/xlink" width="352" height="371" viewBox="0 0 352 371">
  <defs>
    <clipPath id="clip-path">
      <circle id="Elipse_3990" data-name="Elipse 3990" cx="154.113" cy="154.113" r="154.113" fill="none"/>
    </clipPath>
  </defs>
  <g id="Grupo_54099" data-name="Grupo 54099" transform="translate(-139 -1541)">
    <g id="Grupo_53896" data-name="Grupo 53896" transform="translate(6840.166 11354.113)">
      <g id="Grupo_53881" data-name="Grupo 53881" transform="translate(-6679.166 -9782.113)">
        <circle id="Elipse_3984" data-name="Elipse 3984" cx="154.113" cy="154.113" r="154.113" transform="translate(0)" fill="#dce9ff"/>
        <path id="Trazado_100477" data-name="Trazado 100477" d="M-279.989,1766.867a154.17,154.17,0,0,1-144.422,100.215A154.113,154.113,0,0,1-578.524,1712.97c0-.052,0-.1,0-.158,31.131-10.106,67.806-15.939,107.07-15.939C-383.709,1696.874-308.893,1725.993-279.989,1766.867Z" transform="translate(578.524 -1558.857)" fill="#cddf77"/>
        <path id="Trazado_99485" data-name="Trazado 99485" d="M-507,1662.283s4.01-10.267,13.6-9.127c0,0,13.923-17.113,28.769-2.281,0,0,15.781-3.674,27.47,3.183,7.793,4.57,10.366,9.366,10.366,9.366Z" transform="translate(571.777 -1553.947)" fill="#f7faff"/>
        <path id="Trazado_99486" data-name="Trazado 99486" d="M-530.073,1628.027s3.068-7.857,10.407-6.984c0,0,10.655-13.1,22.016-1.745,0,0,12.077-2.813,21.021,2.434,5.964,3.5,7.934,7.172,7.934,7.172Z" transform="translate(573.953 -1551.102)" fill="#f7faff"/>
        <path id="Trazado_99486-2" data-name="Trazado 99486" d="M-364.465,1600.522s3.068-7.857,10.407-6.984c0,0,10.655-13.1,22.016-1.745,0,0,12.077-2.813,21.021,2.434,5.964,3.5,7.934,7.173,7.934,7.173Z" transform="translate(558.331 -1548.508)" fill="#f7faff"/>
      </g>
      <g id="Grupo_53889" data-name="Grupo 53889" transform="translate(-6679.166 -9782.113)">
        <g id="Grupo_53888" data-name="Grupo 53888" clip-path="url(#clip-path)">
          <g id="Grupo_53887" data-name="Grupo 53887" transform="translate(45.393 17.727)">
            <ellipse id="Elipse_3987" data-name="Elipse 3987" cx="101.416" cy="13.604" rx="101.416" ry="13.604" transform="matrix(0.997, -0.076, 0.076, 0.997, 0, 533.127)" fill="#e6e6e6"/>
            <path id="Trazado_100498" data-name="Trazado 100498" d="M-314.154,1714.369a57.045,57.045,0,0,0,3.262-8.551c.352-1.675,7.757-11.46,7.669-12.518s-.7-4.407,0-4.407,3,2.2,3,2.2l.706,3.086s-.529,1.763,0,2.292,3.35,2.644,3.35,2.644l2.116,8.11s1.762,6.876,1.851,7.14-.529,4.144-3.173,5.641-8.816,4.231-8.9,4.5-1.675.969-2.116.529-7.758-10.226-7.758-10.226Z" transform="translate(508.191 -1575.831)" fill="#f4ac75"/>
            <path id="Trazado_100499" data-name="Trazado 100499" d="M-296.81,1684.375l11.738,43.092-3.526,2.027-12.708-45.12,4.32-1.322Z" transform="translate(506.979 -1575.281)" fill="#3c4b6c"/>
            <path id="Trazado_100500" data-name="Trazado 100500" d="M-293.865,1689.671s-3.614,4.143-3,5.29a3.093,3.093,0,0,0,2.468,1.587,4.327,4.327,0,0,0,1.5-.441,46.639,46.639,0,0,0-2.821,3.859c-.264.637-2.081,3.193-1.216,4.163s4.654,0,4.654,0-4.747,3.439-4.886,4.849.479,1.939.744,1.851a4.742,4.742,0,0,1,1.146.009s.529,2.459.881,2.459h6.523v2.2s4.849-3.879,3.791-5.995-2.727-1.763-2.727-1.763,3.52-3.261,1.58-5.157-5.369.573-5.369.573,3.883-4.937,3.788-6.611-2.915-2.557-2.915-2.557l-1.41.705S-286.841,1690.051-293.865,1689.671Z" transform="translate(506.59 -1575.905)" fill="#f4ac75"/>
            <path id="Trazado_100501" data-name="Trazado 100501" d="M-472.478,2131.6s-6.082,9.373-3.21,14.214,10.926,6.514,13.512,12.665,7.344,8.658,10.833,7.776l16.629-4.206s1.43-5.149-5.114-4.937-10.783-6.712-12.159-13.785a128.754,128.754,0,0,0-4.7-16.131l-13.961.232Z" transform="translate(523.502 -1617.179)" fill="#323c66"/>
            <path id="Trazado_100502" data-name="Trazado 100502" d="M-404.147,2133.505s-.771,16.1,2.953,17.615,46.529-2.364,46.529-2.364-.413-5.382-7.878-6.012-20.756-4.022-23.7-13.619S-404.147,2133.505-404.147,2133.505Z" transform="translate(516.686 -1617.044)" fill="#323c66"/>
            <path id="Trazado_100503" data-name="Trazado 100503" d="M-389.029,1862.209s-.106,30.4-.168,66.932c-.088,49.628-.094,110.581.325,122.1.733,19.994-.016,52.125-.016,52.125s-6.988,8.154-22.383,6.123c0,0-16.989-44.481-24.537-92.346-.12-.785-.241-1.576-.362-2.366-7.345-48.752-20.837-151.561-20.837-151.561Z" transform="translate(521.667 -1592.182)" fill="#576d9f"/>
            <path id="Trazado_100504" data-name="Trazado 100504" d="M-389.029,1851.209s-.106,40.359-.168,76.894l-46.612,88c-.12-.785-.241-1.575-.362-2.366-7.345-48.752-20.837-161.524-20.837-161.524Z" transform="translate(521.667 -1591.144)" fill="#3c4b6c"/>
            <path id="Trazado_100505" data-name="Trazado 100505" d="M-402.322,1856.956s-15.535,121.646-30.8,178.7-20.453,73.21-20.453,73.21-17.6-2.353-20.159-6.345c0,0-13.738-99.217-1-127.471,7.2-15.965,9.511-59,6.564-73.1s-6.733-42.52-6.733-42.52Z" transform="translate(523.849 -1591.686)" fill="#576d9f"/>
            <g id="Grupo_53884" data-name="Grupo 53884" transform="translate(62.081 118.335)">
              <path id="Trazado_100506" data-name="Trazado 100506" d="M-314.359,1723.925c2.844-4.921-12.657-11.159-12.657-11.159s-44.025,24.2-47.75,20.668-32.31-38.719-32.31-38.719l-52.779,2.566s63.831,75.815,73.447,84.593c15.889,14.5,66.4-52.285,66.4-52.285A15.83,15.83,0,0,0-314.359,1723.925Z" transform="translate(459.854 -1694.716)" fill="#e1a12e"/>
            </g>
            <path id="Trazado_100507" data-name="Trazado 100507" d="M-439.5,1665.549s27.1,23.92,44.942,22.13c0,0-4.115-9.746-10.481-15.2.98-2.508,1.813-4.788,2.517-6.814a105.257,105.257,0,0,0,3.183-10.692l-10.777-13.139-7.312-8.916a51.921,51.921,0,0,1-3,10.6C-426.974,1659.68-439.5,1665.549-439.5,1665.549Z" transform="translate(520.015 -1570.551)" fill="#f4ac75"/>
            <path id="Trazado_100508" data-name="Trazado 100508" d="M-418.439,1644.451s3.1,15.586,17.907,22.147a105.261,105.261,0,0,0,3.183-10.692l-10.776-13.139A33.855,33.855,0,0,0-418.439,1644.451Z" transform="translate(518.028 -1571.48)" fill="#e19054"/>
            <path id="Trazado_100509" data-name="Trazado 100509" d="M-392.283,1652.914s-28.618-1.173-27.613-18.983-2.013-29.958,16.3-29.962,21.478,6.993,22.589,13.019S-384.813,1652.76-392.283,1652.914Z" transform="translate(518.168 -1567.82)" fill="#f4ac75"/>
            <path id="Trazado_100510" data-name="Trazado 100510" d="M-482.6,1839.654c14.859,10.136,97.242,2.21,93.093-6.911a101.241,101.241,0,0,1-6.381-18.614q-.754-3.135-1.4-6.707c-2.32-13.074-3.2-30.588.706-52.567.293-1.648.613-3.315.957-5.012a146.369,146.369,0,0,0,2.968-25.708c.4-16.008-2.132-30.324-7.848-38.285a.464.464,0,0,0-.082-.109c-18.262-1.39-33.553-25.848-33.553-25.848s-51.17,27.716-58.44,105.554c0,0-.379,8.4-.266,19.592.13,13.573.975,31.236,4.1,42.971C-487.272,1833.587-485.274,1837.825-482.6,1839.654Z" transform="translate(525.05 -1573.096)" fill="#e7b44f"/>
            <path id="Trazado_100511" data-name="Trazado 100511" d="M-435.14,1605.026c-.3-.289-.938-.486-2.323-.438,0,0,.133-2.609,1.6-2.779.114-1.973,1.731-3.7,4.954-4.829a4.206,4.206,0,0,0-1.733,3.208c3.463-4.326,11.39-7.959,34.218-8.171,30.087-.278,21.98,20.027,18.321,22.689s-13.964-2.816-21.117-1.59-7.578,11.923-9.893,13.592-1.582-.982-5.026-2.2-3.259,4.372-1.981,7.9-2.838,8.714-2.838,8.714l-5.041-4.613c-5.042-4.612-11.274-25.5-9.592-30.22C-435.438,1605.872-435.292,1605.449-435.14,1605.026Z" transform="translate(519.823 -1566.693)" fill="#35488b"/>
            <path id="Trazado_100512" data-name="Trazado 100512" d="M-485.117,1843.479c58.719-42.254,42.321-123.931,42.321-123.931s-27.509,41.31-47.427,78.037C-489.785,1812.055-488.533,1830.9-485.117,1843.479Z" transform="translate(524.8 -1578.723)" fill="#e1a12e"/>
            <g id="Grupo_53885" data-name="Grupo 53885" transform="translate(10.006 109.662)">
              <path id="Trazado_100513" data-name="Trazado 100513" d="M-504.61,1865.819s5.734,11.886,6.071,14.031.043,8.971-.532,9.205-2.333.918-2.711-.337.03-2.69-.418-2.307,1.01,5.112-1.395,5.8-10.258.458-11.842-5.073,2.408-18.025,2.275-18.987C-514.292,1859.988-504.61,1865.819-504.61,1865.819Z" transform="translate(517.208 -1701.993)" fill="#e7b44f"/>
              <path id="Trazado_100514" data-name="Trazado 100514" d="M-507.962,1852.4c6.015.6,7.11-2.494,7.11-2.494s12.913-60.944,14.705-66.1,49.44-48.33,49.44-48.33,19.757-16.5,15.919-30.608c-3.336-12.257-12.671-17.285-21.65-19.168a26.6,26.6,0,0,0-27.659,11.541c-13.442,20.532-39.948,61.646-43.13,71.419-7.081,21.754-2.9,80.883-2.9,80.883A19.022,19.022,0,0,0-507.962,1852.4Z" transform="translate(517.354 -1685.139)" fill="#e7b44f"/>
            </g>
            <g id="Grupo_53886" data-name="Grupo 53886" transform="translate(63.592)">
              <path id="Trazado_100515" data-name="Trazado 100515" d="M-436.336,1592.1s1.332-28.05,21.549-28.047,29.539,9.726,32.03,25.053Z" transform="translate(456.124 -1564.055)" fill="#e5b96f"/>
              <path id="Trazado_100516" data-name="Trazado 100516" d="M-458.18,1605.79c.269,6,9.149,10.9,22.4,13.4-.3-1.225-.557-2.578-.779-4-.317-2.373-.875-12.88-.875-12.88,5.147-3.59,15.152-6.314,26.755-6.831,10.8-.479,20.4,1.057,26.061,3.784,3.294,1.592,5.268,3.577,5.362,5.81.091,1.927-2.76,7.454-5.14,9.133a21.771,21.771,0,0,1-.689,3.6c15.442-3.568,24.363-9.7,24.054-16.366-.281-6.311-10.108-11.4-24.52-13.767-1.2-.2-2.436-.376-3.708-.537-.921-.12-1.862-.217-2.826-.312a128.99,128.99,0,0,0-18.279-.433,122.206,122.206,0,0,0-24.56,3.48c-.287.067-.573.145-.86.223-.76.2-1.509.419-2.234.633C-450.446,1594.41-458.435,1599.949-458.18,1605.79Z" transform="translate(458.185 -1566.148)" fill="#f7cb7a"/>
            </g>
            <circle id="Elipse_3988" data-name="Elipse 3988" cx="28.278" cy="28.278" r="28.278" transform="translate(171.529 55.365)" fill="#3c4b6c"/>
            <circle id="Elipse_3989" data-name="Elipse 3989" cx="24.331" cy="24.331" r="24.331" transform="translate(175.476 59.313)" fill="#dce9ff"/>
            <path id="Trazado_100517" data-name="Trazado 100517" d="M-311.86,1634.44s17.484-5.315,23.925,14.8Z" transform="translate(507.974 -1570.635)" fill="#fff"/>
          </g>
        </g>
      </g>
      <path id="Trazado_100539" data-name="Trazado 100539" d="M-389.916,1645.983l7.06.765-2.182,1.418Z" transform="translate(-6118.435 -11336.17)" fill="#f7faff"/>
    </g>
    <rect id="Rectángulo_5415" data-name="Rectángulo 5415" width="352" height="371" transform="translate(139 1541)" fill="none"/>
  </g>
</svg>
