<svg xmlns="http://www.w3.org/2000/svg" width="106.583" height="106.583" viewBox="0 0 106.583 106.583">
  <g id="Grupo_54017" data-name="Grupo 54017" transform="translate(-2393.848 -2395.022)">
    <circle id="Elipse_3994" data-name="Elipse 3994" cx="53.291" cy="53.291" r="53.291" transform="translate(2393.848 2395.022)" fill="#576d9f"/>
    <path id="Trazado_100676" data-name="Trazado 100676" d="M2465.95,2420.179h-36.666a8.763,8.763,0,0,0-8.768,8.768V2468.8a8.763,8.763,0,0,0,8.768,8.768h23.53l.7-3.922a8.885,8.885,0,0,1,2.427-4.687l4.144-4.145h-27.614a2.391,2.391,0,0,1,0-4.782h30.289a2.391,2.391,0,0,1,1.531.574l10.426-10.394v-21.266a8.764,8.764,0,0,0-8.768-8.768Zm-3.189,34.274h-30.289a2.391,2.391,0,0,1,0-4.782h30.289a2.391,2.391,0,1,1,0,4.782Zm0-10.362h-30.289a2.391,2.391,0,0,1,0-4.782h30.289a2.391,2.391,0,1,1,0,4.782Z" fill="#fff"/>
    <path id="Trazado_100677" data-name="Trazado 100677" d="M2459.573,2416.991h-3.507a8.786,8.786,0,0,0-16.9,0h-3.507a2.409,2.409,0,0,0-2.392,2.391v6.376a5.607,5.607,0,0,0,5.58,5.58h17.536a5.606,5.606,0,0,0,5.579-5.58v-6.376A2.409,2.409,0,0,0,2459.573,2416.991Z" fill="#e6b34f"/>
    <g id="Grupo_54017-2" data-name="Grupo 54017">
      <path id="Trazado_100678" data-name="Trazado 100678" d="M2465.153,2441.7a2.409,2.409,0,0,1-2.392,2.391h-30.289a2.391,2.391,0,0,1,0-4.782h30.289A2.409,2.409,0,0,1,2465.153,2441.7Z" fill="#dcdcdc"/>
      <path id="Trazado_100679" data-name="Trazado 100679" d="M2465.153,2452.062a2.409,2.409,0,0,1-2.392,2.391h-30.289a2.391,2.391,0,0,1,0-4.782h30.289A2.409,2.409,0,0,1,2465.153,2452.062Z" fill="#dcdcdc"/>
      <path id="Trazado_100680" data-name="Trazado 100680" d="M2464.292,2460.607l-4.209,4.208h-27.611a2.391,2.391,0,0,1,0-4.782h30.289A2.391,2.391,0,0,1,2464.292,2460.607Z" fill="#dcdcdc"/>
    </g>
    <path id="Trazado_100681" data-name="Trazado 100681" d="M2447.617,2410.614a8.808,8.808,0,0,0-8.449,6.377h-3.507a2.409,2.409,0,0,0-2.392,2.391v6.376a5.607,5.607,0,0,0,5.58,5.58h8.768Z" fill="#cea529"/>
    <path id="Trazado_100682" data-name="Trazado 100682" d="M2460.456,2487.134a2.393,2.393,0,0,1-2.353-2.809l1.69-9.581a2.379,2.379,0,0,1,.663-1.272l23.674-23.674c2.907-2.911,5.764-2.126,7.326-.564l3.944,3.944a5.582,5.582,0,0,1,0,7.891l-23.673,23.673a2.378,2.378,0,0,1-1.275.667l-9.581,1.686Zm9.581-4.081h0Z" fill="#e6b34f"/>
    <path id="Trazado_100683" data-name="Trazado 100683" d="M2488.2,2447.838a5.8,5.8,0,0,0-4.074,1.96l-23.674,23.674a2.379,2.379,0,0,0-.663,1.272l-1.69,9.581a2.387,2.387,0,0,0,.663,2.107c.026.026.048.048.074.07l34.941-34.944-2.328-2.327a4.626,4.626,0,0,0-3.249-1.393Z" fill="#cea529"/>
  </g>
</svg>
