<svg xmlns="http://www.w3.org/2000/svg" xmlns:xlink="http://www.w3.org/1999/xlink" width="444" height="298" viewBox="0 0 444 298">
  <defs>
    <clipPath id="clip-path">
      <path id="Trazado_100737" data-name="Trazado 100737" d="M2350.138,1146.122c62.687,24.517,64.949-22.906,124.874,1.365,47.489,19.234,78.095,83.1,75.083,139.645-3.393,63.7-29.9,85.13-29.9,85.13H2172.15s-66.9-139.018,3.482-213.278C2225.378,1106.5,2283.408,1120.023,2350.138,1146.122Z" fill="#f0f8fb"/>
    </clipPath>
    <linearGradient id="linear-gradient" x1="455.196" y1="-0.052" x2="455.118" y2="1.556" gradientUnits="objectBoundingBox">
      <stop offset="0" stop-color="#a8bbce"/>
      <stop offset="1" stop-color="#7898d9"/>
    </linearGradient>
    <linearGradient id="linear-gradient-2" x1="359.928" y1="-0.052" x2="359.85" y2="1.556" xlink:href="#linear-gradient"/>
    <linearGradient id="linear-gradient-3" x1="9.542" y1="0.367" x2="9.956" y2="1.055" xlink:href="#linear-gradient"/>
    <linearGradient id="linear-gradient-4" x1="455.172" y1="-0.052" x2="455.094" y2="1.556" xlink:href="#linear-gradient"/>
    <linearGradient id="linear-gradient-5" x1="561.672" y1="-0.421" x2="561.576" y2="1.565" xlink:href="#linear-gradient"/>
    <linearGradient id="linear-gradient-6" x1="455.196" y1="-0.052" x2="455.118" y2="1.556" xlink:href="#linear-gradient"/>
  </defs>
  <g id="Grupo_54072" data-name="Grupo 54072" transform="translate(-139 -1088)">
    <g id="Grupo_54071" data-name="Grupo 54071" transform="translate(-1984.299 5.075)">
      <g id="Grupo_54025" data-name="Grupo 54025">
        <g id="Grupo_54024" data-name="Grupo 54024">
          <g id="Grupo_54023" data-name="Grupo 54023">
            <path id="Trazado_100698" data-name="Trazado 100698" d="M2350.138,1146.122c62.687,24.517,64.949-22.906,124.874,1.365,47.489,19.234,78.095,83.1,75.083,139.645-3.393,63.7-29.9,85.13-29.9,85.13H2172.15s-66.9-139.018,3.482-213.278C2225.378,1106.5,2283.408,1120.023,2350.138,1146.122Z" fill="#f0f8fb"/>
            <g id="Grupo_54022" data-name="Grupo 54022" clip-path="url(#clip-path)">
              <g id="Grupo_54021" data-name="Grupo 54021">
                <rect id="Rectángulo_5384" data-name="Rectángulo 5384" width="419.328" height="277.556" transform="translate(2140.488 1101.7)" fill="#dde7fc"/>
                <path id="Trazado_100699" data-name="Trazado 100699" d="M2364.529,1267.648c-45.685,0-89.846-21.319-117.257-45.3-22.663-19.83-77.044-50.161-106.785-31.217v178.684l225.219-1.479V1267.648Z" fill="#d3ddef"/>
                <path id="Trazado_100700" data-name="Trazado 100700" d="M2542.807,1267.609c-28.021-.538-150.258.576-178.279.038-45.683,0-89.844-21.318-117.256-45.3-.173-.151-.345-.3-.519-.455,11.875.475,24.506.838,36.03,4.9,11.216,3.958,20.318,14.217,31.312,19.153,27.422,12.312,62.461-6.126,91.67-1.559,40.6,6.348,112.071,13.671,128.4,10.775C2534.165,1255.212,2542.794,1264.947,2542.807,1267.609Z" fill="#aca2d2" opacity="0.22"/>
                <rect id="Rectángulo_5385" data-name="Rectángulo 5385" width="419.328" height="63.143" transform="translate(2140.489 1309.119)" fill="#cfdc82"/>
                <path id="Trazado_100701" data-name="Trazado 100701" d="M2171.855,1226.421a12.575,12.575,0,0,0-1.134-5.011h0a13.376,13.376,0,0,0-1.176-2.142h0a13.141,13.141,0,0,0-2.3,7.825c.061,2.031.587,6.073,2.111,6.457v3.014h.619v-3.114C2171.045,1232.827,2171.855,1229.917,2171.855,1226.421Z" opacity="0.61" fill="url(#linear-gradient)"/>
                <path id="Trazado_100702" data-name="Trazado 100702" d="M2164.248,1224.211a15.922,15.922,0,0,0-1.435-6.339h0a17.032,17.032,0,0,0-1.488-2.71h0a16.631,16.631,0,0,0-2.91,9.9c.076,2.569.742,7.681,2.67,8.167v3.813h.784V1233.1C2163.223,1232.315,2164.248,1228.634,2164.248,1224.211Z" opacity="0.61" fill="url(#linear-gradient-2)"/>
                <path id="Trazado_100703" data-name="Trazado 100703" d="M2365.706,1267.648h-1.177a164.458,164.458,0,0,1-44.247-6.312,200.368,200.368,0,0,0-33.854-6.418c-9.51-.966-18.9-2.109-27.543-3.46v-2.244c1.071-.864,1.881-4.9,1.881-9.739a23.2,23.2,0,0,0-1.134-6.943,21.382,21.382,0,0,0-1.177-2.968,23.138,23.138,0,0,0-2.3,10.842c.06,2.814.586,8.413,2.11,8.945v2.01c-14.682-2.321-27.134-5.247-34.21-8.922-9.686-5.03-23.744-6.834-38.025-7.036v-.65c.535-.432.94-2.448.94-4.869a11.6,11.6,0,0,0-.567-3.472,10.887,10.887,0,0,0-.588-1.484,11.558,11.558,0,0,0-1.15,5.421c.03,1.407.293,4.207,1.055,4.473v.577q-1.329-.017-2.659-.015v-3.5c.911-.735,1.6-4.166,1.6-8.288a19.7,19.7,0,0,0-.965-5.908,18.236,18.236,0,0,0-1-2.526,19.685,19.685,0,0,0-1.958,9.227c.052,2.4.5,7.16,1.8,7.613v3.383q-2.3.008-4.591.065v-2.211c.911-.735,1.6-4.166,1.6-8.288a19.706,19.706,0,0,0-.966-5.909,18.121,18.121,0,0,0-1-2.525,19.681,19.681,0,0,0-1.958,9.226c.052,2.395.5,7.16,1.8,7.613v2.107a316.046,316.046,0,0,0-36.926,3.383v55.414l225.218-6.237Z" opacity="0.61" fill="url(#linear-gradient-3)"/>
                <path id="Trazado_100704" data-name="Trazado 100704" d="M2559.816,1312.948c-2.062,3.827-29.464,1.884-69.25,2.83-20.6.489-44.451,8.8-69.972,8.746-22.533-.045-46.224-8.4-69.995-8.75-23.748-.348-47.668,7.309-70.218,6.769-25.469-.611-49.152-9.437-69.792-10.142-39.007-1.333-66.41,5.092-70.1,4.244v-56.817h419.328Z" fill="#dae39d"/>
                <g id="Grupo_54019" data-name="Grupo 54019" opacity="0.44" style="mix-blend-mode: screen;isolation: isolate">
                  <path id="Trazado_100705" data-name="Trazado 100705" d="M2178.8,1268.633c.815-.1,1.3.741.707,1.22a5.627,5.627,0,0,1-6.817,0c-.595-.479-.108-1.319.707-1.22A22.818,22.818,0,0,0,2178.8,1268.633Z" fill="#d2e5fc"/>
                  <path id="Trazado_100706" data-name="Trazado 100706" d="M2162.513,1268.192c1.3-.159,2.083,1.186,1.131,1.951a9,9,0,0,1-10.91,0c-.951-.765-.172-2.11,1.132-1.951A36.562,36.562,0,0,0,2162.513,1268.192Z" fill="#d2e5fc"/>
                  <path id="Trazado_100707" data-name="Trazado 100707" d="M2373.046,1268.66c1.236-.151,1.974,1.124,1.072,1.85a8.535,8.535,0,0,1-10.342,0c-.9-.726-.164-2,1.072-1.85A34.592,34.592,0,0,0,2373.046,1268.66Z" fill="#d2e5fc"/>
                  <path id="Trazado_100708" data-name="Trazado 100708" d="M2399.665,1263.882c.928-.113,1.483.844.8,1.39a6.412,6.412,0,0,1-7.769,0c-.678-.546-.123-1.5.806-1.39A25.991,25.991,0,0,0,2399.665,1263.882Z" fill="#d2e5fc"/>
                  <path id="Trazado_100709" data-name="Trazado 100709" d="M2389.453,1271.655c.7-.086,1.119.637.608,1.048a4.837,4.837,0,0,1-5.862,0c-.511-.411-.093-1.134.608-1.048A19.625,19.625,0,0,0,2389.453,1271.655Z" fill="#d2e5fc"/>
                  <path id="Trazado_100710" data-name="Trazado 100710" d="M2412.046,1274.745c.515-.062.823.469.447.772a3.56,3.56,0,0,1-4.312,0c-.376-.3-.068-.834.447-.772A14.369,14.369,0,0,0,2412.046,1274.745Z" fill="#d2e5fc"/>
                  <path id="Trazado_100711" data-name="Trazado 100711" d="M2388.859,1263.122c.5-.042.8.312.432.513a4.72,4.72,0,0,1-4.166,0c-.364-.2-.066-.555.432-.513A20.2,20.2,0,0,0,2388.859,1263.122Z" fill="#d2e5fc"/>
                  <path id="Trazado_100712" data-name="Trazado 100712" d="M2382.992,1264.731c.5-.042.8.311.432.513a4.725,4.725,0,0,1-4.167,0c-.363-.2-.066-.555.432-.513A20.217,20.217,0,0,0,2382.992,1264.731Z" fill="#d2e5fc"/>
                  <path id="Trazado_100713" data-name="Trazado 100713" d="M2382.992,1263.122c.5-.042.8.312.432.513a4.722,4.722,0,0,1-4.167,0c-.363-.2-.066-.555.432-.513A20.217,20.217,0,0,0,2382.992,1263.122Z" fill="#d2e5fc"/>
                  <path id="Trazado_100714" data-name="Trazado 100714" d="M2377.481,1263.623c.5-.042.8.312.433.513a4.725,4.725,0,0,1-4.167,0c-.364-.2-.066-.555.432-.513A20.233,20.233,0,0,0,2377.481,1263.623Z" fill="#d2e5fc"/>
                  <path id="Trazado_100715" data-name="Trazado 100715" d="M2371.535,1262.622c.5-.042.8.312.432.513a4.725,4.725,0,0,1-4.167,0c-.364-.2-.066-.555.432-.513A20.217,20.217,0,0,0,2371.535,1262.622Z" fill="#d2e5fc"/>
                </g>
                <g id="Grupo_54020" data-name="Grupo 54020">
                  <path id="Trazado_100716" data-name="Trazado 100716" d="M2175.125,1263.966c.814-.1,1.3.741.707,1.219a5.626,5.626,0,0,1-6.818,0c-.594-.478-.108-1.319.707-1.219A22.813,22.813,0,0,0,2175.125,1263.966Z" fill="#d2e5fc" opacity="0.44" style="mix-blend-mode: screen;isolation: isolate"/>
                  <path id="Trazado_100717" data-name="Trazado 100717" d="M2189.644,1268.2c.963-.117,1.538.875.835,1.44a6.643,6.643,0,0,1-8.052,0c-.7-.565-.127-1.557.835-1.44A26.921,26.921,0,0,0,2189.644,1268.2Z" fill="#d2e5fc" opacity="0.44" style="mix-blend-mode: screen;isolation: isolate"/>
                  <path id="Trazado_100718" data-name="Trazado 100718" d="M2311.458,1275.446c.518-.064.828.471.45.775a3.578,3.578,0,0,1-4.338,0c-.378-.3-.068-.839.45-.775A14.537,14.537,0,0,0,2311.458,1275.446Z" fill="#d2e5fc" opacity="0.44" style="mix-blend-mode: screen;isolation: isolate"/>
                  <path id="Trazado_100719" data-name="Trazado 100719" d="M2302.891,1272.3c.662-.08,1.057.6.574.991a4.57,4.57,0,0,1-5.536,0c-.482-.389-.087-1.071.574-.991A18.515,18.515,0,0,0,2302.891,1272.3Z" fill="#d2e5fc" opacity="0.44" style="mix-blend-mode: screen;isolation: isolate"/>
                  <path id="Trazado_100720" data-name="Trazado 100720" d="M2294.289,1266.37c.661-.08,1.057.6.574.991a4.57,4.57,0,0,1-5.536,0c-.483-.389-.088-1.071.574-.991A18.515,18.515,0,0,0,2294.289,1266.37Z" fill="#d2e5fc" opacity="0.44" style="mix-blend-mode: screen;isolation: isolate"/>
                  <path id="Trazado_100721" data-name="Trazado 100721" d="M2308.357,1267.336c.716-.087,1.143.651.621,1.071a4.938,4.938,0,0,1-5.983,0c-.522-.42-.1-1.158.62-1.071A20.006,20.006,0,0,0,2308.357,1267.336Z" fill="#d2e5fc" opacity="0.44" style="mix-blend-mode: screen;isolation: isolate"/>
                  <path id="Trazado_100722" data-name="Trazado 100722" d="M2467.3,1268.2c.874-.107,1.4.8.758,1.308a6.034,6.034,0,0,1-7.312,0c-.638-.513-.116-1.415.758-1.308A24.431,24.431,0,0,0,2467.3,1268.2Z" fill="#d2e5fc" opacity="0.44" style="mix-blend-mode: screen;isolation: isolate"/>
                  <path id="Trazado_100723" data-name="Trazado 100723" d="M2519.086,1267.3c.8-.1,1.276.726.693,1.195a5.516,5.516,0,0,1-6.685,0c-.583-.469-.106-1.293.693-1.195A22.47,22.47,0,0,0,2519.086,1267.3Z" fill="#d2e5fc" opacity="0.44" style="mix-blend-mode: screen;isolation: isolate"/>
                  <path id="Trazado_100724" data-name="Trazado 100724" d="M2510.574,1265.122c.825-.1,1.319.751.716,1.236a5.7,5.7,0,0,1-6.906,0c-.6-.485-.109-1.336.717-1.236A23.082,23.082,0,0,0,2510.574,1265.122Z" fill="#d2e5fc" opacity="0.44" style="mix-blend-mode: screen;isolation: isolate"/>
                  <path id="Trazado_100725" data-name="Trazado 100725" d="M2470.212,1278.447c.665-.081,1.062.6.577.995a4.589,4.589,0,0,1-5.562,0c-.486-.39-.088-1.076.576-.995A18.586,18.586,0,0,0,2470.212,1278.447Z" fill="#d2e5fc" opacity="0.44" style="mix-blend-mode: screen;isolation: isolate"/>
                  <path id="Trazado_100726" data-name="Trazado 100726" d="M2523.907,1264.151c.665-.081,1.062.6.577.995a4.59,4.59,0,0,1-5.562,0c-.485-.391-.088-1.076.577-.995A18.565,18.565,0,0,0,2523.907,1264.151Z" fill="#d2e5fc" opacity="0.44" style="mix-blend-mode: screen;isolation: isolate"/>
                  <path id="Trazado_100727" data-name="Trazado 100727" d="M2531.883,1267.937c.8-.1,1.276.727.693,1.2a5.516,5.516,0,0,1-6.685,0c-.583-.469-.106-1.293.693-1.2A22.369,22.369,0,0,0,2531.883,1267.937Z" fill="#d2e5fc" opacity="0.44" style="mix-blend-mode: screen;isolation: isolate"/>
                  <path id="Trazado_100728" data-name="Trazado 100728" d="M2536.705,1264.792c.664-.081,1.061.6.576.995a4.591,4.591,0,0,1-5.562,0c-.485-.391-.088-1.076.577-.995A18.692,18.692,0,0,0,2536.705,1264.792Z" fill="#d2e5fc" opacity="0.44" style="mix-blend-mode: screen;isolation: isolate"/>
                  <path id="Trazado_100729" data-name="Trazado 100729" d="M2546.406,1265.929c.654-.08,1.045.6.568.98a4.522,4.522,0,0,1-5.477,0c-.477-.385-.087-1.06.568-.98A18.325,18.325,0,0,0,2546.406,1265.929Z" fill="#d2e5fc" opacity="0.44" style="mix-blend-mode: screen;isolation: isolate"/>
                  <path id="Trazado_100730" data-name="Trazado 100730" d="M2550.356,1263.352c.544-.067.87.495.472.815a3.759,3.759,0,0,1-4.556,0c-.4-.32-.072-.882.472-.815A15.266,15.266,0,0,0,2550.356,1263.352Z" fill="#d2e5fc" opacity="0.44" style="mix-blend-mode: screen;isolation: isolate"/>
                  <path id="Trazado_100731" data-name="Trazado 100731" d="M2461.558,1264.37c.665-.081,1.062.6.577.995a4.589,4.589,0,0,1-5.562,0c-.485-.39-.088-1.076.577-.995A18.567,18.567,0,0,0,2461.558,1264.37Z" fill="#d2e5fc" opacity="0.44" style="mix-blend-mode: screen;isolation: isolate"/>
                  <path id="Trazado_100732" data-name="Trazado 100732" d="M2477.4,1266.6c.848-.1,1.354.771.736,1.269a5.854,5.854,0,0,1-7.094,0c-.619-.5-.112-1.373.736-1.269A23.756,23.756,0,0,0,2477.4,1266.6Z" fill="#d2e5fc" opacity="0.44" style="mix-blend-mode: screen;isolation: isolate"/>
                </g>
                <path id="Trazado_100733" data-name="Trazado 100733" d="M2320.362,1298.487c71.141,14.462,176.576,8.593,239.454,2.926v11.928c-4.833,3-31.862,1.548-69.25,2.437-20.6.489-44.451,8.8-69.972,8.746-22.533-.045-46.224-8.4-69.995-8.75-23.748-.348-47.668,7.309-70.218,6.769-25.469-.611-49.152-9.437-69.792-10.142-39.007-1.333-66.41,5.092-70.1,4.244v-25.062C2188.994,1287.751,2258.768,1285.966,2320.362,1298.487Z" fill="#dae39d"/>
                <path id="Trazado_100734" data-name="Trazado 100734" d="M2253.922,1241.907a12.588,12.588,0,0,0-1.135-5.011h0a13.527,13.527,0,0,0-1.176-2.142h0a13.142,13.142,0,0,0-2.3,7.826c.06,2.031.586,6.072,2.11,6.457v3.013h.62v-3.113C2253.112,1248.314,2253.922,1245.4,2253.922,1241.907Z" fill="url(#linear-gradient-4)"/>
                <path id="Trazado_100735" data-name="Trazado 100735" d="M2150.485,1179.6a10.2,10.2,0,0,0-.919-4.06h0a10.918,10.918,0,0,0-.953-1.736h0a10.656,10.656,0,0,0-1.864,6.341c.049,1.645.475,4.919,1.71,5.231v2.442h.5v-2.523C2149.829,1184.789,2150.485,1182.431,2150.485,1179.6Z" opacity="0.61" fill="url(#linear-gradient-5)"/>
                <path id="Trazado_100736" data-name="Trazado 100736" d="M2156.042,1176.047a12.584,12.584,0,0,0-1.134-5.011h0a13.482,13.482,0,0,0-1.176-2.142h0a13.148,13.148,0,0,0-2.3,7.826c.061,2.031.587,6.072,2.111,6.456v3.014h.619v-3.113C2155.232,1182.454,2156.042,1179.544,2156.042,1176.047Z" opacity="0.61" fill="url(#linear-gradient-6)"/>
              </g>
            </g>
          </g>
        </g>
        <path id="Trazado_100738" data-name="Trazado 100738" d="M2144.322,1372.262h398.411a.826.826,0,0,1,.9.72h0a.826.826,0,0,1-.9.72H2144.322a.827.827,0,0,1-.9-.72h0A.827.827,0,0,1,2144.322,1372.262Z" fill="#5b6d9a"/>
      </g>
      <g id="Grupo_54041" data-name="Grupo 54041">
        <g id="Grupo_54035" data-name="Grupo 54035">
          <g id="Grupo_54026" data-name="Grupo 54026">
            <path id="Trazado_100739" data-name="Trazado 100739" d="M2452.887,1356.325s-.745-4.695-6.405-4.166-6.988,12.12,1.642,15.183C2458.125,1370.891,2464.44,1357.641,2452.887,1356.325Z" fill="#ad5549"/>
            <path id="Trazado_100740" data-name="Trazado 100740" d="M2458.343,1354.236s-4.535.54-5.9,2.392a9.782,9.782,0,0,1,4.974-1.678S2458.321,1354.752,2458.343,1354.236Z" fill="#343d63"/>
          </g>
          <g id="Grupo_54027" data-name="Grupo 54027">
            <path id="Trazado_100741" data-name="Trazado 100741" d="M2467.413,1356.107s-4.385-1.838-6.914,3.252,6.626,12.322,13.773,6.6C2482.555,1359.322,2474.613,1346.977,2467.413,1356.107Z" fill="#ad5549"/>
            <path id="Trazado_100742" data-name="Trazado 100742" d="M2468.509,1350.369s-1.928,4.139-1.073,6.277a9.777,9.777,0,0,1,1.192-5.113S2468.936,1350.659,2468.509,1350.369Z" fill="#343d63"/>
          </g>
          <g id="Grupo_54028" data-name="Grupo 54028">
            <path id="Trazado_100743" data-name="Trazado 100743" d="M2481.62,1343.48s-4.384-1.839-6.913,3.252,6.625,12.322,13.772,6.6C2496.762,1346.694,2488.82,1334.35,2481.62,1343.48Z" fill="#d8964f"/>
            <path id="Trazado_100744" data-name="Trazado 100744" d="M2482.716,1337.742s-1.927,4.139-1.073,6.276a9.775,9.775,0,0,1,1.192-5.113S2483.143,1338.032,2482.716,1337.742Z" fill="#343d63"/>
          </g>
          <g id="Grupo_54029" data-name="Grupo 54029">
            <path id="Trazado_100745" data-name="Trazado 100745" d="M2471.034,1331.005s-4.385-1.839-6.914,3.252,6.625,12.322,13.772,6.6C2486.175,1334.219,2478.234,1321.875,2471.034,1331.005Z" fill="#ad5549"/>
            <path id="Trazado_100746" data-name="Trazado 100746" d="M2472.13,1325.267s-1.928,4.139-1.073,6.276a9.777,9.777,0,0,1,1.192-5.113S2472.556,1325.556,2472.13,1325.267Z" fill="#343d63"/>
          </g>
          <g id="Grupo_54030" data-name="Grupo 54030">
            <path id="Trazado_100747" data-name="Trazado 100747" d="M2502.5,1339.383s-.959-4.657-6.589-3.869-6.427,12.426,2.334,15.091C2508.4,1353.694,2514.1,1340.17,2502.5,1339.383Z" fill="#d8964f"/>
            <path id="Trazado_100748" data-name="Trazado 100748" d="M2507.856,1337.047s-4.5.746-5.785,2.659a9.771,9.771,0,0,1,4.892-1.9S2507.858,1337.563,2507.856,1337.047Z" fill="#343d63"/>
          </g>
          <g id="Grupo_54031" data-name="Grupo 54031">
            <path id="Trazado_100749" data-name="Trazado 100749" d="M2525.79,1351.572s-.959-4.657-6.588-3.87-6.428,12.427,2.332,15.092C2531.687,1365.883,2537.391,1352.358,2525.79,1351.572Z" fill="#ad5549"/>
            <path id="Trazado_100750" data-name="Trazado 100750" d="M2531.145,1349.236s-4.505.746-5.786,2.659a9.779,9.779,0,0,1,4.892-1.9S2531.146,1349.752,2531.145,1349.236Z" fill="#343d63"/>
          </g>
          <g id="Grupo_54032" data-name="Grupo 54032">
            <path id="Trazado_100751" data-name="Trazado 100751" d="M2504.464,1352.717s-4.211-2.207-7.167,2.647,5.545,12.845,13.156,7.754C2519.274,1357.218,2512.42,1344.238,2504.464,1352.717Z" fill="#d8964f"/>
            <path id="Trazado_100752" data-name="Trazado 100752" d="M2506.414,1347.094s-2.274,3.958-1.606,6.161a9.769,9.769,0,0,1,1.626-4.991S2506.815,1347.419,2506.414,1347.094Z" fill="#343d63"/>
          </g>
          <g id="Grupo_54033" data-name="Grupo 54033">
            <path id="Trazado_100753" data-name="Trazado 100753" d="M2458.546,1344.693s-4.385-1.839-6.913,3.252,6.625,12.322,13.772,6.6C2473.687,1347.907,2465.746,1335.563,2458.546,1344.693Z" fill="#bf5b53"/>
            <path id="Trazado_100754" data-name="Trazado 100754" d="M2459.642,1338.955s-1.928,4.139-1.073,6.276a9.775,9.775,0,0,1,1.192-5.113S2460.069,1339.245,2459.642,1338.955Z" fill="#343d63"/>
          </g>
          <g id="Grupo_54034" data-name="Grupo 54034">
            <path id="Trazado_100755" data-name="Trazado 100755" d="M2485.889,1356.924s-4.384-1.839-6.913,3.252,6.625,12.321,13.772,6.6C2501.031,1360.138,2493.09,1347.794,2485.889,1356.924Z" fill="#ad5549"/>
            <path id="Trazado_100756" data-name="Trazado 100756" d="M2486.985,1351.185s-1.928,4.139-1.072,6.277a9.781,9.781,0,0,1,1.191-5.113S2487.412,1351.475,2486.985,1351.185Z" fill="#343d63"/>
          </g>
        </g>
        <g id="Grupo_54040" data-name="Grupo 54040">
          <path id="Trazado_100757" data-name="Trazado 100757" d="M2533.345,1353.3l-103.12.254a2.321,2.321,0,0,1-2.32-2.309l-.021-8.326a2.321,2.321,0,0,1,2.309-2.32l103.121-.254a2.321,2.321,0,0,1,2.32,2.309l.021,8.325A2.323,2.323,0,0,1,2533.345,1353.3Z" fill="#f1cd85"/>
          <rect id="Rectángulo_5386" data-name="Rectángulo 5386" width="3.395" height="31.422" rx="0.64" transform="translate(2438.104 1340.58) rotate(-0.141)" fill="#f1cd85"/>
          <path id="Trazado_100758" data-name="Trazado 100758" d="M2528.734,1371.139,2528.66,1341a.642.642,0,0,1,.638-.641l2.115-.006a.642.642,0,0,1,.642.639l.074,30.141a.642.642,0,0,1-.638.642l-2.115.005A.642.642,0,0,1,2528.734,1371.139Z" fill="#f1cd85"/>
          <path id="Trazado_100759" data-name="Trazado 100759" d="M2533.391,1371.767l-103.121.254a2.321,2.321,0,0,1-2.32-2.309l-.021-8.325a2.322,2.322,0,0,1,2.31-2.321l103.12-.254a2.321,2.321,0,0,1,2.32,2.309l.021,8.326A2.321,2.321,0,0,1,2533.391,1371.767Z" fill="#f1cd85"/>
          <g id="Grupo_54036" data-name="Grupo 54036">
            <path id="Trazado_100760" data-name="Trazado 100760" d="M2431.344,1344.158a1.2,1.2,0,1,1,1.2,1.2A1.2,1.2,0,0,1,2431.344,1344.158Z" fill="#b28c51"/>
            <path id="Trazado_100761" data-name="Trazado 100761" d="M2431.359,1350.109a1.2,1.2,0,1,1,1.2,1.195A1.2,1.2,0,0,1,2431.359,1350.109Z" fill="#b28c51"/>
          </g>
          <g id="Grupo_54037" data-name="Grupo 54037">
            <path id="Trazado_100762" data-name="Trazado 100762" d="M2431.39,1362.565a1.2,1.2,0,1,1,1.2,1.2A1.2,1.2,0,0,1,2431.39,1362.565Z" fill="#b28c51"/>
            <path id="Trazado_100763" data-name="Trazado 100763" d="M2431.4,1368.516a1.2,1.2,0,1,1,1.2,1.2A1.2,1.2,0,0,1,2431.4,1368.516Z" fill="#b28c51"/>
          </g>
          <g id="Grupo_54038" data-name="Grupo 54038">
            <path id="Trazado_100764" data-name="Trazado 100764" d="M2529.167,1343.917a1.2,1.2,0,1,1,1.2,1.2A1.2,1.2,0,0,1,2529.167,1343.917Z" fill="#b28c51"/>
            <path id="Trazado_100765" data-name="Trazado 100765" d="M2529.181,1349.868a1.2,1.2,0,1,1,1.2,1.195A1.2,1.2,0,0,1,2529.181,1349.868Z" fill="#b28c51"/>
          </g>
          <g id="Grupo_54039" data-name="Grupo 54039">
            <path id="Trazado_100766" data-name="Trazado 100766" d="M2529.212,1362.324a1.2,1.2,0,1,1,1.2,1.2A1.2,1.2,0,0,1,2529.212,1362.324Z" fill="#b28c51"/>
            <path id="Trazado_100767" data-name="Trazado 100767" d="M2529.226,1368.275a1.2,1.2,0,1,1,1.2,1.195A1.2,1.2,0,0,1,2529.226,1368.275Z" fill="#b28c51"/>
          </g>
        </g>
      </g>
      <g id="Grupo_54048" data-name="Grupo 54048">
        <g id="Grupo_54047" data-name="Grupo 54047">
          <g id="Grupo_54046" data-name="Grupo 54046">
            <g id="Grupo_54045" data-name="Grupo 54045">
              <path id="Trazado_100768" data-name="Trazado 100768" d="M2212.233,1194.672c15.042,6.32,19.884-7.49,19.507-7.125a39.452,39.452,0,0,1,4-2.047c6.028-3.017,9.672-10.035,9.535-17.1,8.65-5.376,10.9-16.763,4.971-23.056,1.825-7-2.99-14.679-9.111-18.226-4.634-8.249-16.325-4.719-22.627,1.753a18.482,18.482,0,0,0-4.994,12.879c-7.415,3.134-11.294,11.482-9.608,19.9C2193.9,1170.067,2196.883,1188.222,2212.233,1194.672Z" fill="#2f4855"/>
              <g id="Grupo_54042" data-name="Grupo 54042">
                <path id="Trazado_100769" data-name="Trazado 100769" d="M2196.779,1242.979l-2.568-.661c.049-.2,4.927-19.987,10.126-39.682,3.055-11.575,5.622-20.856,7.63-27.585,3.958-13.265,4.839-13.633,5.617-13.959l1,2.506a.814.814,0,0,0,.283-.185c-.633.731-3.1,6.2-12.291,41.121C2201.507,1223.8,2196.826,1242.79,2196.779,1242.979Z" fill="#a15845"/>
              </g>
              <g id="Grupo_54043" data-name="Grupo 54043">
                <path id="Trazado_100770" data-name="Trazado 100770" d="M2267.841,1249.747s-.87-1.195-1.129-1.614c-.3-.492-1.1-2.037-1.1-2.037s-2.517-5.511-2.095-5.665,1.38.548,1.655.833.622.593.9.878a.768.768,0,0,0,1.091,0c.379-.318-.468-1.694-.856-2.111a62.158,62.158,0,0,0-5.535-4.435c-.476-.374-3.085-10.742-4.26-14.223h0c-1.755-5.755-3.27-11.759-3.453-12.37l-.1-25.783-9.439-3.624s-.288,28.616-.14,30.049c.071.681,5.169,13.7,5.174,13.7,2.914,6.252,5.5,11.754,5.963,12.825,0,0,.535,3.581.741,5.881a19.967,19.967,0,0,0,1.475,4.97,14.905,14.905,0,0,0,1.923,4.666c1.275,2.024.994-.5.994-.5s-1.686-4.187-1.334-4.269c.272-.063,1.058,2.28,2.445,4.535.356.58.71,1.151,1.04,1.673.864,1.369,1.953,1.213,1.277-.369a16.171,16.171,0,0,0-1.049-2.086,13.366,13.366,0,0,1-.869-2.016,17.662,17.662,0,0,1-.881-2.084c.08.006.143-.313.541.291.478.725,1.152,2.5,1.938,3.508.445.573,1.3,1.829,1.3,1.829a15.067,15.067,0,0,0,1.743,1.812c.7-.359-.068-2.041-.776-2.738a10.756,10.756,0,0,0-1.161-1.975s-1.312-3.057-.882-3.257c.352-.164,4.905,6.526,5.583,6.116C2269.119,1251.823,2267.841,1249.747,2267.841,1249.747Z" fill="#e2a290"/>
                <path id="Trazado_100771" data-name="Trazado 100771" d="M2259.124,1239.7s2.67,1.956,4.346.762a2.218,2.218,0,0,1-1.951.919C2260.261,1241.258,2259.124,1239.7,2259.124,1239.7Z" fill="#d7735a"/>
              </g>
              <path id="Trazado_100772" data-name="Trazado 100772" d="M2229.414,1249.432l5.7,52.7s-2.786,11.145-2.45,14.312,6.195,44.7,6.195,44.7l-.265,2.281-.142,6.758,21.9.171a97.143,97.143,0,0,1-11.074-6.368,4.623,4.623,0,0,1-1.845-3.3c-1.724-12.8,1.687-55.5,1.687-55.5l2.687-55.585Z" fill="#e2a290"/>
              <path id="Trazado_100773" data-name="Trazado 100773" d="M2216.952,1259.419c-1.228.321-3.119,45.552-4.136,47.557-6.449,12.709-7.982,51.349-7.982,51.349l-2.66,5.411.61,5.214s4.262,2.315,7.638.389l.03-4.681-.4-6.974,16.271-48.141,8.9-49.1Z" fill="#e2a290"/>
              <path id="Trazado_100774" data-name="Trazado 100774" d="M2258.641,1283.934l.774-31.209c.134-8.82-2.707-17.281-6.2-25.313l-7.382-12.852c-2.378.782-3.689-6.5-6.188-6.207-1.885.218-3.176.668-4.926.775-3.3.2-5.3,6.872-8.835,6.453-.016.212-2.21,1.053-2.264,1.2-1.69,4.717-6,9.763-8.3,23.768-2.614,15.9-2.6,43.219-2.276,45.084C2238.03,1286.775,2243.985,1287.679,2258.641,1283.934Z" fill="#3c4b6c"/>
              <path id="Trazado_100775" data-name="Trazado 100775" d="M2238.347,1371.923h22.611c.836-.078,1.04-.785.75-1.221-.6-.9-3.235-1.555-6.2-2.985-5.2.567-16.081-3.393-16.9-4.641C2238.133,1365.576,2237.882,1371.816,2238.347,1371.923Z" fill="#2f4855"/>
              <path id="Trazado_100776" data-name="Trazado 100776" d="M2202.188,1363.722s1.911,4.886,4.082,4.716,4.168-3.808,4.168-3.808a21.7,21.7,0,0,1,.435,6.072c-.38,2.156-3.474,4.37-5.592,3.405S2200.287,1368.148,2202.188,1363.722Z" fill="#2f4855"/>
              <path id="Trazado_100777" data-name="Trazado 100777" d="M2244.218,1194.365a33.117,33.117,0,0,0,6.168-1.491c1.812-.653,4.824-2.083,4.824-2.083s-1.692-14.7-5.953-23.606c-1.761-3.679-3.542-5.455-6.026-5.881C2243.212,1161.3,2244.218,1194.365,2244.218,1194.365Z" fill="#d3c7c5"/>
              <path id="Trazado_100778" data-name="Trazado 100778" d="M2249.691,1177.727c-.638-2.385-2.065-5.521-2.879-7.684-1.381-3.673-1.791-7.1-3.009-8.573-.658-.791-9.094-.674-10.13-.778-.427-.046-2.115.065-3.749.168l0-.005c-.958.111-10.463.878-11.842,1.49-6.848,6.863-10.16,16.1-15.308,26.2,0,0,3.856,2.267,6.931,3.7,1.335.621,3.9,1.614,3.9,1.614l5.934-10.219c.066-.051.374-.389.463-.17.137.339,4.47,32.189,4.47,32.189s17.567,1.476,21.69-.55c0,0,.762-21.263,2.28-27.5C2249,1185.307,2250.721,1181.57,2249.691,1177.727Z" fill="#fff"/>
              <path id="Trazado_100779" data-name="Trazado 100779" d="M2228.769,1151.084s1.317,7.417,1.054,10.343,1,12.355,6.693,12.386,1.823-9.79,1.287-12.657-1.405-13.94-1.405-13.94Z" fill="#e2a290"/>
              <path id="Trazado_100780" data-name="Trazado 100780" d="M2229.323,1154.633c2.824,2.371,5.932,3.11,7.965,2.487-.448-4.271-.89-9.9-.89-9.9l-7.629,3.868S2229.048,1152.654,2229.323,1154.633Z" fill="#d7735a"/>
              <path id="Trazado_100781" data-name="Trazado 100781" d="M2233.064,1131.247a8.591,8.591,0,0,0-6.367,4.486c-1.944,4.007-.981,16.054,6.339,19.51,5.785,2.731,11.213-3.928,11.265-11.033C2244.345,1138.228,2242.8,1128.81,2233.064,1131.247Z" fill="#e2a290"/>
              <path id="Trazado_100782" data-name="Trazado 100782" d="M2237.288,1128.325c-.777,8.58-8.86,13.495-11.465,14.467a8.046,8.046,0,0,1,.458-11.618C2229.22,1128.869,2237.288,1128.325,2237.288,1128.325Z" fill="#2f4855"/>
              <path id="Trazado_100783" data-name="Trazado 100783" d="M2227.842,1144.963c.733,1.7.423,3.481-.693,3.975s-2.613-.484-3.346-2.186-.422-3.481.693-3.975S2227.11,1143.261,2227.842,1144.963Z" fill="#e2a290"/>
              <path id="Trazado_100784" data-name="Trazado 100784" d="M2234.071,1149.127l6.434-.061a2.812,2.812,0,0,1-2.953,2.554C2234.1,1151.753,2234.071,1149.127,2234.071,1149.127Z" fill="#fff"/>
              <path id="Trazado_100785" data-name="Trazado 100785" d="M2222.143,1242.861v10.12c0,5.261-3.706,9.526-8.276,9.526h-8.514v-23.591h13.363a3.187,3.187,0,0,1,2.359,1.086A4.222,4.222,0,0,1,2222.143,1242.861Z" fill="#a05845"/>
              <path id="Trazado_100786" data-name="Trazado 100786" d="M2221.075,1240h-.057a3.446,3.446,0,0,0-3.18,3.661v7.444c0,6.3-4.434,11.4-9.9,11.4h-5.183c-5.47,0-9.9-5.1-9.9-11.4V1243.7c0-2.642,1.861-4.784,4.155-4.784h21.714A3.187,3.187,0,0,1,2221.075,1240Z" fill="#d8735a"/>
              <g id="Grupo_54044" data-name="Grupo 54044">
                <path id="Trazado_100787" data-name="Trazado 100787" d="M2222.166,1242.655l-2.648-.013c0-.187.084-18.967-.168-38.118-.147-11.239-.38-20.4-.69-27.236-.531-11.676-1.179-13.769-1.365-14.11a11.941,11.941,0,0,1,.289-2.086,1.5,1.5,0,0,1,1.433.155c.683.471,1.106,1.372,1.526,4.992.259,2.242.492,5.424.692,9.457.335,6.759.586,16.029.747,27.551C2222.254,1222.851,2222.167,1242.459,2222.166,1242.655Z" fill="#a15845"/>
              </g>
              <path id="Trazado_100788" data-name="Trazado 100788" d="M2235.458,1224.671c.339.072,2.671.209,2.671.209s3.42-2.071,3.909-1.091c.149.294-3.544,2.4-3.544,2.4s-3.57.117-4.423.091c-1.59-.039-4.931-.49-9.9-4.188-4.3-2.2-25.906-14.8-26.225-17.2-.189-1.418,3.1-8.815,6.286-15.513,1.407.785,3.589,1.98,5.478,2.862.892.412,2.332.993,3.185,1.333-2.065,3.986-4.019,8.09-3.765,8.94.221.745,18.675,14.826,18.675,14.826l3.687-.5s6.5.771,6.651,1.549-2.742.568-3.126.686a4.091,4.091,0,0,0-1.01.457,13.032,13.032,0,0,0,3.713,1.366c2.182.079,4.709-.242,4.983.072.319.366-3,1.372-5.335,1.516-.958.052-1.537-.242-1.954-.163-.567.117.43.575,2.026.477.912-.059,2.5-.562,3.5-.706a5.155,5.155,0,0,1,2.71.039c.228.235-4.677,1.81-4.677,1.81s-3.192.418-3.921.379C2235.055,1224.318,2234.612,1224.5,2235.458,1224.671Z" fill="#e2a290"/>
            </g>
          </g>
        </g>
      </g>
      <g id="Grupo_54065" data-name="Grupo 54065">
        <path id="Trazado_100789" data-name="Trazado 100789" d="M2464.674,1289.086a2.661,2.661,0,1,1-2.661-2.661A2.661,2.661,0,0,1,2464.674,1289.086Z" fill="#ebcb82"/>
        <g id="Grupo_54049" data-name="Grupo 54049">
          <rect id="Rectángulo_5387" data-name="Rectángulo 5387" width="34.76" height="30.287" transform="translate(2427.704 1238.69) rotate(-0.319)" fill="#fdfae2"/>
          <rect id="Rectángulo_5388" data-name="Rectángulo 5388" width="12.298" height="30.287" transform="translate(2427.704 1238.69) rotate(-0.319)" fill="#ebcb82"/>
        </g>
        <g id="Grupo_54050" data-name="Grupo 54050">
          <rect id="Rectángulo_5389" data-name="Rectángulo 5389" width="49.492" height="38.879" transform="translate(2425.74 1268.146) rotate(-0.319)" fill="#ebcb82"/>
          <rect id="Rectángulo_5390" data-name="Rectángulo 5390" width="17.51" height="38.879" transform="translate(2425.74 1268.146) rotate(-0.319)" fill="#d79252"/>
        </g>
        <g id="Grupo_54052" data-name="Grupo 54052">
          <path id="Trazado_100790" data-name="Trazado 100790" d="M2464.915,1273.422c.573,1.571-.763,3.91-2.738,4.811s-4.508.238-5.168-1.3c-.947-2.2.162-2.7,1.622-3.225.278-.1.568-.2.86-.313.172-.066.344-.137.514-.214s.35-.171.522-.265c.208-.114.413-.235.614-.355C2462.648,1271.667,2463.969,1270.827,2464.915,1273.422Z" fill="#c76a6a"/>
          <g id="Grupo_54051" data-name="Grupo 54051">
            <path id="Trazado_100791" data-name="Trazado 100791" d="M2458.04,1271.437s0,0,.013-.008l-.007-.008C2458.041,1271.43,2458.038,1271.436,2458.04,1271.437Z" fill="#7cbea5"/>
            <path id="Trazado_100792" data-name="Trazado 100792" d="M2461.5,1271.271a.291.291,0,0,0-.386.176c.272-.124.29.262.164.6a3.787,3.787,0,0,1-1.495.7.711.711,0,0,0-.074.02c-.08-.9-1.165-2.53-2.037-1.761l.379.411a.282.282,0,0,1,.093-.086c.4-.239,1.3.824,1.443,1.482-.616.264-1.539,1.093-1.739.949-.258-.184.083-.408.083-.408l.36-.059s-.511-.328-.777-.069a.557.557,0,0,0,.071.923,6.542,6.542,0,0,0,1.554-.588,2.4,2.4,0,0,0-.613,1.176c-.09.621.824,1.02.824,1.02s-.625-.522-.425-1.058a7.653,7.653,0,0,1,.757-1.308l.762,1.673a1.492,1.492,0,0,0-.06-1.137,2.315,2.315,0,0,0-.435-.721l.345-.123a3.861,3.861,0,0,1,.89-.014c.478.064.184.954.184.954a1,1,0,0,0,.274-.6c.055-.706-.345-.7-.67-.7.2-.123.406-.2.68-.394C2462.113,1272.011,2461.774,1271.381,2461.5,1271.271Z" fill="#7cbea5"/>
          </g>
        </g>
        <g id="Grupo_54054" data-name="Grupo 54054">
          <path id="Trazado_100793" data-name="Trazado 100793" d="M2468.6,1273.092c-.528-1.588.873-3.886,2.873-4.727s4.512-.1,5.129,1.45c.884,2.229-.238,2.7-1.713,3.175-.28.091-.573.183-.868.287-.174.061-.348.127-.52.2s-.354.16-.529.249c-.211.108-.419.222-.624.336C2470.814,1274.913,2469.47,1275.713,2468.6,1273.092Z" fill="#c76a6a"/>
          <g id="Grupo_54053" data-name="Grupo 54053">
            <path id="Trazado_100794" data-name="Trazado 100794" d="M2475.414,1275.282s0,0-.014.007l.007.008C2475.413,1275.289,2475.416,1275.283,2475.414,1275.282Z" fill="#7cbea5"/>
            <path id="Trazado_100795" data-name="Trazado 100795" d="M2471.955,1275.345a.292.292,0,0,0,.392-.165c-.276.116-.283-.271-.147-.605a3.765,3.765,0,0,1,1.514-.659.744.744,0,0,0,.074-.017c.055.9,1.094,2.563,1.987,1.821l-.368-.423a.265.265,0,0,1-.095.084c-.408.227-1.272-.863-1.4-1.525.624-.245,1.57-1.046,1.766-.9.252.191-.095.405-.095.405l-.361.048s.5.343.774.093a.559.559,0,0,0-.044-.926,6.6,6.6,0,0,0-1.571.542,2.391,2.391,0,0,0,.646-1.158c.108-.617-.794-1.044-.794-1.044s.61.541.394,1.071a7.676,7.676,0,0,1-.793,1.285l-.714-1.7a1.5,1.5,0,0,0,.027,1.139,2.349,2.349,0,0,0,.414.734l-.347.112a3.831,3.831,0,0,1-.891-.012c-.475-.079-.156-.96-.156-.96a.992.992,0,0,0-.291.589c-.076.7.325.713.65.721-.2.116-.412.19-.692.373C2471.359,1274.586,2471.68,1275.226,2471.955,1275.345Z" fill="#7cbea5"/>
          </g>
        </g>
        <g id="Grupo_54056" data-name="Grupo 54056">
          <path id="Trazado_100796" data-name="Trazado 100796" d="M2485.858,1276.765c-.339,1.642-2.689,2.87-4.824,2.533s-3.922-2.3-3.675-3.96c.354-2.38,1.551-2.187,3.054-1.817.286.071.584.147.888.214.18.04.362.076.546.1s.383.051.578.067c.235.019.47.031.7.042C2484.867,1274.029,2486.419,1274.055,2485.858,1276.765Z" fill="#c76a6a"/>
          <g id="Grupo_54055" data-name="Grupo 54055">
            <path id="Trazado_100797" data-name="Trazado 100797" d="M2481.106,1271.277s0,0,.016,0l0-.01C2481.11,1271.272,2481.1,1271.275,2481.106,1271.277Z" fill="#7cbea5"/>
            <path id="Trazado_100798" data-name="Trazado 100798" d="M2484.1,1273.055a.286.286,0,0,0-.417-.066c.294.046.107.382-.176.6a3.734,3.734,0,0,1-1.628-.236c-.023-.009-.047-.017-.072-.024.4-.8.342-2.778-.8-2.614l.105.557a.256.256,0,0,1,.123-.021c.463.021.66,1.413.44,2.049-.657-.12-1.869.066-1.962-.166-.12-.3.284-.3.284-.3l.333.151s-.258-.561-.617-.49a.552.552,0,0,0-.424.817,6.522,6.522,0,0,0,1.617.367,2.3,2.3,0,0,0-1.132.651c-.4.473.16,1.316.16,1.316s-.253-.787.2-1.127a7.346,7.346,0,0,1,1.322-.682l-.234,1.832a1.456,1.456,0,0,0,.545-.99,2.4,2.4,0,0,0,.012-.85l.353.089a3.923,3.923,0,0,1,.758.481c.369.319-.345.906-.345.906a.951.951,0,0,0,.543-.35c.417-.564.078-.784-.2-.963.234.009.449.055.78.046C2484.237,1274.022,2484.281,1273.3,2484.1,1273.055Z" fill="#7cbea5"/>
          </g>
        </g>
        <g id="Grupo_54058" data-name="Grupo 54058">
          <path id="Trazado_100799" data-name="Trazado 100799" d="M2459.571,1276.162c-.34,1.641-2.689,2.869-4.824,2.532s-3.922-2.3-3.675-3.96c.354-2.379,1.551-2.187,3.054-1.816.286.07.584.147.888.213q.27.062.546.1c.19.03.383.051.578.067.234.019.47.031.7.042C2458.58,1273.425,2460.132,1273.451,2459.571,1276.162Z" fill="#dc8b7f"/>
          <g id="Grupo_54057" data-name="Grupo 54057">
            <path id="Trazado_100800" data-name="Trazado 100800" d="M2454.819,1270.673s0,0,.015,0v-.01C2454.823,1270.668,2454.818,1270.672,2454.819,1270.673Z" fill="#7cbea5"/>
            <path id="Trazado_100801" data-name="Trazado 100801" d="M2457.817,1272.451a.287.287,0,0,0-.418-.066c.294.047.107.382-.176.6a3.719,3.719,0,0,1-1.628-.236.754.754,0,0,0-.072-.024c.4-.8.342-2.778-.795-2.614l.1.557a.257.257,0,0,1,.123-.021c.463.021.66,1.413.44,2.049-.658-.12-1.869.066-1.962-.166-.12-.3.284-.3.284-.3l.333.151s-.258-.561-.618-.49a.552.552,0,0,0-.423.817,6.477,6.477,0,0,0,1.617.367,2.306,2.306,0,0,0-1.132.651c-.4.473.16,1.316.16,1.316s-.254-.787.2-1.127a7.393,7.393,0,0,1,1.322-.682l-.234,1.833a1.46,1.46,0,0,0,.545-.991,2.365,2.365,0,0,0,.011-.849l.354.088a3.877,3.877,0,0,1,.758.482c.369.319-.345.905-.345.905a.944.944,0,0,0,.543-.35c.417-.564.078-.784-.2-.963.234.009.449.055.779.047C2457.949,1273.418,2457.993,1272.7,2457.817,1272.451Z" fill="#7cbea5"/>
          </g>
        </g>
        <g id="Grupo_54060" data-name="Grupo 54060">
          <path id="Trazado_100802" data-name="Trazado 100802" d="M2471.262,1276.595c-.529-1.588.873-3.886,2.872-4.727s4.513-.1,5.13,1.45c.884,2.229-.238,2.7-1.713,3.176-.28.091-.573.182-.868.287-.174.06-.348.126-.52.2s-.355.16-.529.249c-.211.108-.419.223-.624.336C2473.478,1278.417,2472.134,1279.217,2471.262,1276.595Z" fill="#d87575"/>
          <g id="Grupo_54059" data-name="Grupo 54059">
            <path id="Trazado_100803" data-name="Trazado 100803" d="M2478.078,1278.785s0,0-.014.008l.007.008C2478.077,1278.792,2478.08,1278.786,2478.078,1278.785Z" fill="#7cbea5"/>
            <path id="Trazado_100804" data-name="Trazado 100804" d="M2474.619,1278.848a.292.292,0,0,0,.392-.165c-.276.116-.283-.27-.147-.6a3.759,3.759,0,0,1,1.514-.659l.074-.018c.055.9,1.094,2.563,1.987,1.821l-.368-.422a.272.272,0,0,1-.1.083c-.407.227-1.272-.863-1.4-1.524.624-.246,1.57-1.046,1.766-.9.252.192-.095.406-.095.406l-.361.047s.5.344.774.093a.557.557,0,0,0-.045-.925,6.566,6.566,0,0,0-1.57.542,2.4,2.4,0,0,0,.646-1.158c.108-.618-.795-1.044-.795-1.044s.611.541.4,1.07a7.662,7.662,0,0,1-.793,1.285l-.714-1.7a1.492,1.492,0,0,0,.027,1.138,2.338,2.338,0,0,0,.414.734l-.347.112a3.837,3.837,0,0,1-.891-.012c-.475-.078-.156-.959-.156-.959a.986.986,0,0,0-.291.588c-.076.7.324.713.65.721-.205.116-.412.19-.692.373C2474.022,1278.089,2474.344,1278.729,2474.619,1278.848Z" fill="#7cbea5"/>
          </g>
        </g>
        <g id="Grupo_54062" data-name="Grupo 54062">
          <path id="Trazado_100805" data-name="Trazado 100805" d="M2472.114,1276.2c-.642,1.543-3.178,2.279-5.209,1.522s-3.414-3.041-2.86-4.619c.8-2.264,1.933-1.836,3.339-1.172.267.126.544.261.831.387q.252.112.515.212c.181.067.367.126.554.181.227.066.456.124.682.182C2471.657,1273.318,2473.175,1273.654,2472.114,1276.2Z" fill="#dc8b7f"/>
          <g id="Grupo_54061" data-name="Grupo 54061">
            <path id="Trazado_100806" data-name="Trazado 100806" d="M2468.486,1269.868s0,0,.015,0v-.01C2468.491,1269.863,2468.485,1269.866,2468.486,1269.868Z" fill="#7cbea5"/>
            <path id="Trazado_100807" data-name="Trazado 100807" d="M2471.092,1272.211a.289.289,0,0,0-.4-.149c.28.1.034.4-.285.55a3.746,3.746,0,0,1-1.552-.557c-.02-.013-.043-.026-.066-.038.548-.708.858-2.657-.287-2.723l0,.567a.256.256,0,0,1,.125,0c.451.113.382,1.519.046,2.1-.623-.249-1.846-.308-1.894-.554-.062-.317.335-.236.335-.236l.3.214s-.148-.6-.514-.6a.547.547,0,0,0-.57.717,6.633,6.633,0,0,0,1.518.682,2.273,2.273,0,0,0-1.233.413c-.483.384-.091,1.323-.091,1.323s-.1-.822.4-1.066a7.216,7.216,0,0,1,1.426-.405l-.575,1.75a1.432,1.432,0,0,0,.721-.862,2.362,2.362,0,0,0,.171-.831l.331.157a4.015,4.015,0,0,1,.653.624c.3.387-.509.82-.509.82a.939.939,0,0,0,.6-.236c.516-.47.224-.753-.012-.984.228.055.43.144.756.2C2471.04,1273.185,2471.219,1272.489,2471.092,1272.211Z" fill="#7cbea5"/>
          </g>
        </g>
        <g id="Grupo_54063" data-name="Grupo 54063">
          <rect id="Rectángulo_5391" data-name="Rectángulo 5391" width="35.802" height="31.526" transform="translate(2450.031 1275.752) rotate(-0.319)" fill="#ebcb82"/>
          <rect id="Rectángulo_5392" data-name="Rectángulo 5392" width="12.666" height="31.526" transform="matrix(1, -0.006, 0.006, 1, 2450.031, 1275.752)" fill="#d79252"/>
        </g>
        <path id="Trazado_100808" data-name="Trazado 100808" d="M2460.063,1235.681a3.21,3.21,0,0,1-4.819-2.38,3.2,3.2,0,0,1-5.439-.276,3.216,3.216,0,0,0-3.919,2.307c-.017.065-.018.131-.031.2a15.12,15.12,0,0,1-6.563-1,3.18,3.18,0,0,1-4.308-2.021,3.205,3.205,0,0,0-3.991,3.52c-.074-.025-.143-.061-.221-.081a3.2,3.2,0,0,0-3.1.879l.071,4.537h0l-.041-2.675,17.115-.1c.034-.031.069-.061.1-.093,0,.031.014.061.019.093l17.506-.1A3.208,3.208,0,0,0,2460.063,1235.681Z" fill="#a15845"/>
        <path id="Trazado_100809" data-name="Trazado 100809" d="M2475.306,1267.841a12,12,0,0,1-7.2-5.195,3.2,3.2,0,0,1-5.439-.276,3.215,3.215,0,0,0-3.919,2.307c-.017.065-.018.131-.031.2a15.109,15.109,0,0,1-6.563-1,3.18,3.18,0,0,1-4.308-2.021,3.2,3.2,0,0,0-3.991,3.52c-.075-.025-.143-.062-.221-.082a3.173,3.173,0,0,0-2.436.356,2.5,2.5,0,0,1-3.2-1.157,5.99,5.99,0,0,1-4.777,2.951,2.568,2.568,0,0,0-4.972.015,2.518,2.518,0,0,0-.072.676l12.386-.073v0Z" fill="#a15845"/>
        <g id="Grupo_54064" data-name="Grupo 54064">
          <rect id="Rectángulo_5393" data-name="Rectángulo 5393" width="75.817" height="3.916" transform="translate(2416.613 1306.917)" fill="#2f4855"/>
          <rect id="Rectángulo_5394" data-name="Rectángulo 5394" width="49.57" height="3.427" transform="translate(2416.409 1340.095)" fill="#2f4855"/>
          <rect id="Rectángulo_5395" data-name="Rectángulo 5395" width="3.198" height="63.358" transform="translate(2481.792 1308.874)" fill="#2f4855"/>
          <rect id="Rectángulo_5396" data-name="Rectángulo 5396" width="3.198" height="63.87" transform="translate(2436.563 1308.874)" fill="#2f4855"/>
          <path id="Trazado_100810" data-name="Trazado 100810" d="M2459.044,1372.745l17.228-63.411-2.824-.918-17.527,64.329Z" fill="#2f4855"/>
          <path id="Trazado_100811" data-name="Trazado 100811" d="M2410.582,1372.745l14.735-63.527-2.861-.795-14.956,64.321Z" fill="#2f4855"/>
        </g>
      </g>
      <g id="Grupo_54070" data-name="Grupo 54070">
        <g id="Grupo_54068" data-name="Grupo 54068">
          <g id="man">
            <path id="Trazado_100812" data-name="Trazado 100812" d="M2368.97,1362.922s1.034,8.27-.827,9.2-24.084.62-24.084.62,0-2.791,3.824-3.411,10.544-2.894,11.681-7.959S2368.97,1362.922,2368.97,1362.922Z" fill="#323c66"/>
            <path id="Trazado_100813" data-name="Trazado 100813" d="M2401.552,1357.855s3.368,7.622,1.854,9.048-22.888,7.522-22.888,7.522-.8-2.674,2.681-4.368,9.266-5.8,8.9-10.982S2401.552,1357.855,2401.552,1357.855Z" fill="#323c66"/>
            <path id="Trazado_100814" data-name="Trazado 100814" d="M2348.867,1236.649s1.256,15.669,2.732,34.505c2.006,25.586,4.419,57.015,4.657,62.969.413,10.338,2.069,26.876,2.069,26.876s3.926,3.929,11.784,2.273a270.535,270.535,0,0,0,9-48.586q.047-.615.093-1.235c1.86-25.428,4.754-78.972,4.754-78.972Z" fill="#576d9f"/>
            <path id="Trazado_100815" data-name="Trazado 100815" d="M2348.867,1236.649s1.256,15.669,2.732,34.505l27.512,43.532q.047-.615.093-1.235c1.86-25.428,4.754-78.972,4.754-78.972Z" fill="#3c4b6c"/>
            <path id="Trazado_100816" data-name="Trazado 100816" d="M2354.587,1236.092s12.639,59.775,22.763,88.589,13.44,36.94,13.44,36.94,8.984-1.908,10.144-4.068c0,0,3.162-51.7-4.522-65.767-4.342-7.948-7.237-30.046-6.274-37.433s1.791-22.19,1.791-22.19Z" fill="#576d9f"/>
            <g id="Grupo_54066" data-name="Grupo 54066">
              <path id="Trazado_100817" data-name="Trazado 100817" d="M2314.98,1214.537s-8.7,1.7-9.984,2.383-5.071,4.69-4.966,5.094.462.612,1.289.31,3.32-1.817,3.294-1.422-6.973,5.274-6.377,6.843,6.033,2.564,9.642,1.19,8.719-8.548,9.29-8.863C2322.011,1217.393,2314.98,1214.537,2314.98,1214.537Z" fill="#f4ac75"/>
              <path id="Trazado_100818" data-name="Trazado 100818" d="M2313.6,1218.422c-1.661-2.425-1.6-2.912-1.6-2.912s19.872-20.144,21.653-22.115,18.381-35.666,18.381-35.666l27.316-.762s-29.917,41.615-34.528,46.521c-7.619,8.106-28.09,17.631-28.09,17.631A8.189,8.189,0,0,1,2313.6,1218.422Z" fill="#e1a12e"/>
            </g>
            <path id="Trazado_100819" data-name="Trazado 100819" d="M2368.823,1144.339s-13.027,13.405-22.3,13.187c0,0,1.737-5.188,4.8-8.25-.6-1.254-1.123-2.4-1.566-3.414a54.623,54.623,0,0,1-2.065-5.387l5.038-7.2,3.418-4.887a26.891,26.891,0,0,0,1.966,5.348A22.1,22.1,0,0,0,2368.823,1144.339Z" fill="#f4ac75"/>
            <path id="Trazado_100820" data-name="Trazado 100820" d="M2358.119,1133.735s-.981,8.159-8.357,12.127a54.623,54.623,0,0,1-2.065-5.387l5.038-7.2A17.492,17.492,0,0,1,2358.119,1133.735Z" fill="#e19054"/>
            <path id="Trazado_100821" data-name="Trazado 100821" d="M2345.039,1141.025s14.71-1.736,13.488-10.879-.146-15.526-9.589-14.805-10.8,4.454-11.133,7.605S2341.182,1141.241,2345.039,1141.025Z" fill="#f4ac75"/>
            <path id="Trazado_100822" data-name="Trazado 100822" d="M2393.756,1236.984c-7.4,6.345-50.376,6.223-48.5.989A60.3,60.3,0,0,0,2348,1227.4q.3-1.764.522-3.764a87.145,87.145,0,0,0-1.967-28.9c-.2-.892-.419-1.793-.649-2.709a83.9,83.9,0,0,1-2.323-14c-.7-8.791.182-16.8,2.905-21.48a.288.288,0,0,1,.039-.064c9.431-1.706,16.618-15.957,16.618-15.957s27.388,12.623,33.53,55.1c0,0,.453,4.606.735,10.771.346,7.479.446,17.246-.818,23.867C2395.994,1233.4,2395.086,1235.839,2393.756,1236.984Z" fill="#e6b34f"/>
            <path id="Trazado_100823" data-name="Trazado 100823" d="M2364.436,1115.286c.142-.161.465-.288,1.181-.318a2.881,2.881,0,0,0-1.332-.4c-.136-1.012-.643-2.807-2.35-3.264a2.178,2.178,0,0,1,1.021,1.586c-1.957-2.094-6.188-3.654-17.967-2.861-15.525,1.046-10.542,11.2-8.55,12.423s7.089-2,10.825-1.654,4.379,5.848,5.638,6.617.778-.569,2.5-1.335,1.853,2.126,1.333,4,1.808,4.381,1.808,4.381l2.417-2.578c2.418-2.577,4.806-13.593,3.752-15.961C2364.624,1115.711,2364.532,1115.5,2364.436,1115.286Z" fill="#35488b"/>
            <path id="Trazado_100824" data-name="Trazado 100824" d="M2396.589,1230.257c-31.948-19.467-26.72-62.23-26.72-62.23s15.816,20.214,27.538,38.363C2397.753,1213.869,2397.853,1223.636,2396.589,1230.257Z" fill="#e1a12e"/>
            <g id="Grupo_54067" data-name="Grupo 54067">
              <path id="Trazado_100825" data-name="Trazado 100825" d="M2405.74,1234.084s-2.486,6.355-2.575,7.474.332,4.628.638,4.726,1.239.381,1.384-.281-.122-1.386.125-1.206-.319,2.676.948,2.936,5.307-.17,5.905-3.084-1.954-9.2-1.923-9.7C2410.5,1230.695,2405.74,1234.084,2405.74,1234.084Z" fill="#f4ac75"/>
              <path id="Trazado_100826" data-name="Trazado 100826" d="M2407.529,1235.73c-3.077.546-3.764-1.005-3.764-1.005s-9.067-30.914-10.2-33.5-27.4-22.967-27.4-22.967-10.84-7.728-9.418-15.152c1.236-6.452,5.85-9.414,10.405-10.739a13.756,13.756,0,0,1,14.718,4.857c7.743,10.055,23.035,30.208,25.062,35.121,4.511,10.937,4.694,41.591,4.694,41.591A9.833,9.833,0,0,1,2407.529,1235.73Z" fill="#e6b34f"/>
            </g>
            <path id="Trazado_100827" data-name="Trazado 100827" d="M2307.541,1247.252a1.189,1.189,0,1,1,1.189,1.189A1.188,1.188,0,0,1,2307.541,1247.252Z" fill="#fae1b5"/>
          </g>
        </g>
        <g id="Grupo_54069" data-name="Grupo 54069">
          <path id="Trazado_100828" data-name="Trazado 100828" d="M2365.022,1112.241s-.7-14.817-11.3-14.816-15.485,5.138-16.791,13.234Z" fill="#e5b96f"/>
          <path id="Trazado_100829" data-name="Trazado 100829" d="M2365.107,1110.484c-.371-.109-.752-.22-1.14-.325-.146-.04-.292-.08-.439-.115a61.868,61.868,0,0,0-12.528-1.788,65.125,65.125,0,0,0-9.324.222c-.492.049-.972.1-1.441.16-.649.083-1.282.173-1.892.277-7.351,1.218-12.365,3.832-12.508,7.076-.157,3.429,4.394,6.579,12.27,8.413a11.247,11.247,0,0,1-.351-1.849,8.466,8.466,0,0,1-2.622-4.694c.047-1.148,1.054-2.169,2.735-2.987,2.889-1.4,7.787-2.191,13.294-1.945,5.919.266,11.022,1.666,13.648,3.511,0,0-.285,5.4-.447,6.622-.113.731-.246,1.426-.4,2.056,6.76-1.288,11.29-3.806,11.427-6.889C2375.522,1115.227,2371.447,1112.379,2365.107,1110.484Z" fill="#f7cb7a"/>
        </g>
      </g>
    </g>
    <rect id="Rectángulo_5397" data-name="Rectángulo 5397" width="444" height="298" transform="translate(139 1088)" fill="none"/>
  </g>
</svg>
