<svg xmlns="http://www.w3.org/2000/svg" width="106.583" height="106.583" viewBox="0 0 106.583 106.583">
  <g id="Grupo_54018" data-name="Grupo 54018" transform="translate(-2857.284 -2395.022)">
    <circle id="Elipse_3995" data-name="Elipse 3995" cx="53.291" cy="53.291" r="53.291" transform="translate(2857.284 2395.022)" fill="#576d9f"/>
    <path id="Trazado_100684" data-name="Trazado 100684" d="M2924.118,2419.143h-36.666a8.763,8.763,0,0,0-8.768,8.768v39.854a8.763,8.763,0,0,0,8.768,8.768h25.985a27.8,27.8,0,0,1-4.368-12.754H2890.64a2.391,2.391,0,0,1,0-4.782h18.333v-5.58H2890.64a2.391,2.391,0,0,1,0-4.782h18.333a9.481,9.481,0,0,1,1.881-5.58H2890.64a2.391,2.391,0,0,1,0-4.782h29.014l12.534-4.273.7-.191v-5.9A8.763,8.763,0,0,0,2924.118,2419.143Z" fill="#fff"/>
    <path id="Trazado_100685" data-name="Trazado 100685" d="M2917.741,2415.955h-3.507a8.786,8.786,0,0,0-16.9,0h-3.507a2.408,2.408,0,0,0-2.391,2.391v6.376a5.606,5.606,0,0,0,5.579,5.58h17.536a5.606,5.606,0,0,0,5.579-5.58v-6.376A2.408,2.408,0,0,0,2917.741,2415.955Z" fill="#c2d959"/>
    <g id="Grupo_54018-2" data-name="Grupo 54018">
      <path id="Trazado_100686" data-name="Trazado 100686" d="M2919.654,2438.273l-4.208,1.435a9.527,9.527,0,0,0-4.592,3.347H2890.64a2.391,2.391,0,0,1,0-4.782Z" fill="#dcdcdc"/>
      <path id="Trazado_100687" data-name="Trazado 100687" d="M2908.973,2448.635v4.782H2890.64a2.391,2.391,0,0,1,0-4.782Z" fill="#dcdcdc"/>
      <path id="Trazado_100688" data-name="Trazado 100688" d="M2909.069,2463.779H2890.64a2.391,2.391,0,0,1,0-4.782h18.333v2.551C2908.973,2462.313,2909,2463.046,2909.069,2463.779Z" fill="#dcdcdc"/>
    </g>
    <path id="Trazado_100689" data-name="Trazado 100689" d="M2891.438,2419.143h-3.986a8.763,8.763,0,0,0-8.768,8.768v39.854a8.763,8.763,0,0,0,8.768,8.768h18.333v-12.754H2890.64a2.391,2.391,0,0,1,0-4.782h15.145v-5.58H2890.64a2.391,2.391,0,0,1,0-4.782h15.145v-5.58H2890.64a2.391,2.391,0,0,1,0-4.782h15.145V2430.3h-8.768a5.606,5.606,0,0,1-5.579-5.58Z" fill="#fff"/>
    <path id="Trazado_100690" data-name="Trazado 100690" d="M2905.785,2409.578a8.808,8.808,0,0,0-8.449,6.377h-3.507a2.408,2.408,0,0,0-2.391,2.391v6.376a5.606,5.606,0,0,0,5.579,5.58h8.768Z" fill="#96ba3f"/>
    <path id="Trazado_100691" data-name="Trazado 100691" d="M2905.785,2438.273H2890.64a2.391,2.391,0,0,0,0,4.782h15.145Z" fill="#dcdcdc"/>
    <path id="Trazado_100692" data-name="Trazado 100692" d="M2905.785,2448.635H2890.64a2.391,2.391,0,0,0,0,4.782h15.145Z" fill="#dcdcdc"/>
    <path id="Trazado_100693" data-name="Trazado 100693" d="M2905.785,2459H2890.64a2.391,2.391,0,0,0,0,4.782h15.145Z" fill="#dcdcdc"/>
    <path id="Trazado_100694" data-name="Trazado 100694" d="M2935.277,2486.1a3.16,3.16,0,0,1-1.25-.255c-.762-.326-18.677-8.127-18.677-24.283v-12.814a3.181,3.181,0,0,1,2.162-3.016l16.738-5.694a3.247,3.247,0,0,1,2.057,0l16.739,5.694a3.186,3.186,0,0,1,2.158,3.016v12.814c0,16.156-17.915,23.961-18.677,24.283a3.162,3.162,0,0,1-1.25.255Z" fill="#c2d959"/>
    <path id="Trazado_100695" data-name="Trazado 100695" d="M2934.48,2471.75a3.169,3.169,0,0,1-2.254-.934l-6.377-6.377a3.188,3.188,0,0,1,4.508-4.508l3.779,3.778,7.358-9.813a3.186,3.186,0,1,1,5.1,3.822l-9.565,12.754a3.189,3.189,0,0,1-2.324,1.269Z" fill="#fff"/>
    <path id="Trazado_100696" data-name="Trazado 100696" d="M2935.277,2439.867a3.223,3.223,0,0,0-1.027.169l-16.738,5.694a3.19,3.19,0,0,0-2.162,3.016v12.814c0,16.156,17.915,23.961,18.677,24.283a3.16,3.16,0,0,0,1.25.255v-14.45a3.353,3.353,0,0,1-.571.1l-.226.006a3.169,3.169,0,0,1-2.254-.934l-6.377-6.377a3.188,3.188,0,1,1,4.508-4.508l3.779,3.778,1.141-1.524Z" fill="#96ba3f"/>
    <path id="Trazado_100697" data-name="Trazado 100697" d="M2928.1,2459a3.188,3.188,0,0,0-2.254,5.442l6.377,6.377a3.19,3.19,0,0,0,2.254.934l.226-.006a3.087,3.087,0,0,0,.571-.1v-9.463l-1.141,1.524-3.779-3.778a3.176,3.176,0,0,0-2.254-.934Z" fill="#dcdcdc"/>
  </g>
</svg>
