<svg xmlns="http://www.w3.org/2000/svg" width="444" height="306.001" viewBox="0 0 444 306.001">
  <g id="Grupo_54102" data-name="Grupo 54102" transform="translate(-139 -3134)">
    <g id="Grupo_53849" data-name="Grupo 53849" transform="translate(0 8.738)">
      <g id="Grupo_53848" data-name="Grupo 53848" transform="translate(-26.688 -13.967)">
        <g id="Grupo_53804" data-name="Grupo 53804" transform="translate(468.421 3320.242)">
          <g id="Grupo_53799" data-name="Grupo 53799" transform="translate(67.224 50.207)">
            <path id="Trazado_100254" data-name="Trazado 100254" d="M526.159,3378.916s-8.8-10.265-.543-16.784c0,0,6.031-3.65,10.947-3.354,0,0-6.968,11.684-4.714,12.845s6.825-13.578,6.825-13.578,13.723-1.33,18.137.792c0,0-11.732,9.6-9.26,10.172s15.142-8.851,15.142-8.851,12.771,2.173,12.09,9.964-5.082,10.2-7.016,9.99-13.248-4.527-13.5-2.941,6.565,6.764,11.333,7.006c0,0-9,9.929-14.988,7.064s-6.5-7.409-10.225-9.113-6.915-1.7-5.375.038,8.291,3.426,10.425,7.2,4.047,6.318-2.144,5.386-16.256-5.462-16.7-10.65Z" transform="translate(-511.289 -3357.634)" fill="#819b00"/>
            <g id="Grupo_53798" data-name="Grupo 53798" transform="translate(0 12.638)">
              <path id="Trazado_100255" data-name="Trazado 100255" d="M568.741,3369.524s-34.689-1.337-42.349,8.584a25.1,25.1,0,0,1-6.907,9.694l-.813,2.215s6.01-6.338,8.162-6.722C526.834,3383.295,523.47,3371,568.741,3369.524Z" transform="translate(-511.522 -3369.464)" fill="#819b00"/>
              <path id="Trazado_100256" data-name="Trazado 100256" d="M519.942,3386.685a21.781,21.781,0,0,0-7.963,15.345l1.352.121s2.378-10.172,6.676-14.151S519.942,3386.685,519.942,3386.685Z" transform="translate(-511.979 -3368.346)" fill="#819b00"/>
            </g>
          </g>
          <g id="Grupo_53801" data-name="Grupo 53801" transform="translate(0 22.34)">
            <path id="Trazado_100257" data-name="Trazado 100257" d="M500.39,3367.79s14-7.836,7.463-18.473c0,0-5.224-6.531-10.822-8.211,0,0,2.986,15.862,0,16.234s-2.052-17.914-2.052-17.914-14.742-7.091-20.527-6.531c0,0,9.144,15.488,6.159,15.115s-13.25-16.048-13.25-16.048-15.115-2.8-17.54,6.158,1.492,13.436,3.732,14,16.607.373,16.234,2.238-10.077,4.853-15.488,3.173c0,0,5.971,14.741,13.808,14s10.264-5.6,15.115-5.972,8.4.934,5.971,2.239-10.636.429-14.555,3.76-7.091,5.384.187,6.877,20.339.56,22.951-5.038Z" transform="translate(-449.055 -3331.549)" fill="#cddf77"/>
            <g id="Grupo_53800" data-name="Grupo 53800" transform="translate(7.67 9.371)">
              <path id="Trazado_100258" data-name="Trazado 100258" d="M456.235,3340.321s39.186,12.689,43.664,26.87a29.767,29.767,0,0,0,3.732,13.623v2.8s-4.1-9.517-6.345-10.823C497.286,3372.789,506.057,3360.473,456.235,3340.321Z" transform="translate(-456.235 -3340.321)" fill="#cddf77"/>
              <path id="Trazado_100259" data-name="Trazado 100259" d="M500.719,3378.334a25.844,25.844,0,0,1,2.6,20.348l-1.554-.418s1.509-12.3-1.653-18.492S500.719,3378.334,500.719,3378.334Z" transform="translate(-453.323 -3337.842)" fill="#cddf77"/>
            </g>
          </g>
          <g id="Grupo_53803" data-name="Grupo 53803" transform="translate(61.471)">
            <path id="Trazado_100260" data-name="Trazado 100260" d="M518.723,3358.411s-18.448-10.331-9.839-24.352c0,0,6.888-8.609,14.267-10.823,0,0-3.936,20.907,0,21.4s2.705-23.614,2.705-23.614,19.432-9.347,27.058-8.608c0,0-12.053,20.415-8.117,19.923s17.464-21.154,17.464-21.154,19.924-3.689,23.121,8.117-1.968,17.71-4.92,18.448-21.891.493-21.4,2.952,13.283,6.4,20.416,4.181c0,0-7.87,19.432-18.2,18.448s-13.528-7.379-19.925-7.872-11.068,1.229-7.87,2.952,14.02.564,19.185,4.956,9.347,7.1-.246,9.065-26.811.738-30.254-6.642Z" transform="translate(-506.595 -3310.638)" fill="#cddf77"/>
            <g id="Grupo_53802" data-name="Grupo 53802" transform="translate(2.384 12.353)">
              <path id="Trazado_100261" data-name="Trazado 100261" d="M575.819,3322.2s-51.654,16.726-57.557,35.42a39.241,39.241,0,0,1-4.92,17.956v3.69s5.411-12.544,8.363-14.267C521.7,3365,510.144,3348.766,575.819,3322.2Z" transform="translate(-508.518 -3322.201)" fill="#cddf77"/>
              <path id="Trazado_100262" data-name="Trazado 100262" d="M513.651,3372.309s-7.967,12.1-3.425,26.823l2.049-.551s-1.989-16.219,2.178-24.375S513.651,3372.309,513.651,3372.309Z" transform="translate(-508.826 -3318.933)" fill="#cddf77"/>
            </g>
          </g>
          <path id="Trazado_100263" data-name="Trazado 100263" d="M519.677,3429.469a36.137,36.137,0,0,0,36.137-36.137H483.54A36.137,36.137,0,0,0,519.677,3429.469Z" transform="translate(-446.699 -3304.987)" fill="#e7e7e7"/>
          <path id="Trazado_100264" data-name="Trazado 100264" d="M528.287,3429.193a36.159,36.159,0,0,1-40.625-35.86h8.977A36.142,36.142,0,0,0,528.287,3429.193Z" transform="translate(-446.417 -3304.987)" fill="#ccccce"/>
          <rect id="Rectángulo_5294" data-name="Rectángulo 5294" width="74.284" height="1.109" transform="translate(35.652 88.346)" fill="#959596"/>
        </g>
        <g id="Grupo_53805" data-name="Grupo 53805" transform="translate(476.745 3289.765)">
          <path id="Trazado_100265" data-name="Trazado 100265" d="M492.356,3435.3l-35.509-147.384,2.48-5.8,35.179,153.168a.627.627,0,0,1-.611.767h-.586A.979.979,0,0,1,492.356,3435.3Z" transform="translate(-456.847 -3282.11)" fill="#515970"/>
        </g>
        <g id="Grupo_53806" data-name="Grupo 53806" transform="translate(350.815 3378.931)">
          <path id="Trazado_100266" data-name="Trazado 100266" d="M340.156,3430.341h0a1.183,1.183,0,0,1-1.167-1.375l10.458-63.393h4.482l-12.472,63.7A1.327,1.327,0,0,1,340.156,3430.341Z" transform="translate(-338.973 -3365.573)" fill="#515970"/>
        </g>
        <g id="Grupo_53807" data-name="Grupo 53807" transform="translate(451.143 3378.931)">
          <path id="Trazado_100267" data-name="Trazado 100267" d="M434.066,3430.341h0a1.183,1.183,0,0,1-1.167-1.375l10.458-63.393h4.482l-12.472,63.7A1.327,1.327,0,0,1,434.066,3430.341Z" transform="translate(-432.883 -3365.573)" fill="#7ea2e7"/>
        </g>
        <path id="Trazado_100268" data-name="Trazado 100268" d="M464.75,3376.076H339.844l25.878-162.235H490.628Z" transform="translate(11.902 2.989)" fill="#e7e7e7"/>
        <rect id="Rectángulo_5295" data-name="Rectángulo 5295" width="143.452" height="4.773" transform="translate(342.545 3377.827)" fill="#515970"/>
        <g id="Grupo_53808" data-name="Grupo 53808" transform="translate(380.28 3226.583)">
          <path id="Trazado_100269" data-name="Trazado 100269" d="M413.362,3247.164a26.178,26.178,0,0,1-.56,3.775c-2.6,11.594-12.928,20.478-24.594,20.5-12.908.021-22.572-10.809-21.587-24.194s12.247-24.251,25.156-24.273a21.653,21.653,0,0,1,7.622,1.343,20.884,20.884,0,0,1,8.561,5.932,21.782,21.782,0,0,1,2.341,3.263,21.37,21.37,0,0,1,1.084,2.1,22.992,22.992,0,0,1,1.836,6.487,24.663,24.663,0,0,1,.207,3.546Q413.419,3246.393,413.362,3247.164Z" transform="translate(-366.552 -3222.97)" fill="#cddf77"/>
          <path id="Trazado_100270" data-name="Trazado 100270" d="M409.885,3235.428l-21.391,11.6s8.826-15.543,12.449-21.478a21.09,21.09,0,0,1,5.517,4.52,21.78,21.78,0,0,1,2.341,3.263A21.366,21.366,0,0,1,409.885,3235.428Z" transform="translate(-365.053 -3222.794)" fill="#fff"/>
          <path id="Trazado_100271" data-name="Trazado 100271" d="M411.847,3232.627l-19.54,10.595s8.063-14.2,11.372-19.619a19.258,19.258,0,0,1,5.039,4.129,20.079,20.079,0,0,1,3.128,4.9Z" transform="translate(-364.792 -3222.927)" fill="#ec9037"/>
        </g>
        <g id="Grupo_53814" data-name="Grupo 53814" transform="translate(363.898 3307.407)">
          <g id="Grupo_53809" data-name="Grupo 53809" transform="translate(0)">
            <path id="Trazado_100272" data-name="Trazado 100272" d="M454.026,3357.949l-102.807-.006,10.408-59.319,102.809.008Zm-101.977-.6,101.357.006,10.2-58.123-101.357-.007Z" transform="translate(-351.219 -3298.624)" fill="#becffa"/>
          </g>
          <g id="Grupo_53811" data-name="Grupo 53811" transform="translate(5.498 32.833)">
            <path id="Trazado_100273" data-name="Trazado 100273" d="M447.545,3347.547l-91.18-.006s16.174-8.674,20.611-8.219,10.814,3.966,14.914,4.1,8.54-12.174,13.1-11.594,6.283,11.469,8.646,10.406,9.46-1.525,13.548,0,10.042-4.847,13.636-4.647S447.545,3347.547,447.545,3347.547Z" transform="translate(-356.365 -3329.188)" fill="#cddf77"/>
            <g id="Grupo_53810" data-name="Grupo 53810" transform="translate(4.164)">
              <path id="Trazado_100274" data-name="Trazado 100274" d="M378,3330.281H360.586l.162-.923h17.415Z" transform="translate(-360.24 -3329.356)" fill="#ec9037"/>
              <path id="Trazado_100275" data-name="Trazado 100275" d="M377.677,3332.128H360.263l.162-.924H377.84Z" transform="translate(-360.263 -3329.23)" fill="#ec9037"/>
            </g>
          </g>
          <g id="Grupo_53813" data-name="Grupo 53813" transform="translate(10.715 4.794)">
            <path id="Trazado_100276" data-name="Trazado 100276" d="M361.249,3319.709l91.179.006s-13.129-8.676-17.726-8.221-12.2,3.964-16.353,4.1-4.269-12.176-9.036-11.6-10.307,11.468-12.3,10.4-8.925-1.526-13.547,0-8.342-4.848-12.006-4.649S361.249,3319.709,361.249,3319.709Z" transform="translate(-361.249 -3303.052)" fill="#6d7728"/>
            <g id="Grupo_53812" data-name="Grupo 53812" transform="translate(3.866)">
              <path id="Trazado_100277" data-name="Trazado 100277" d="M382.606,3304.037H365.191l.162-.924h17.415Z" transform="translate(-364.845 -3303.112)" fill="#6d7728"/>
              <path id="Trazado_100278" data-name="Trazado 100278" d="M382.282,3305.883H364.867l.162-.924h17.415Z" transform="translate(-364.867 -3302.985)" fill="#6d7728"/>
            </g>
          </g>
        </g>
        <g id="Grupo_53815" data-name="Grupo 53815" transform="translate(376.526 3280.395)">
          <path id="Trazado_100279" data-name="Trazado 100279" d="M367.038,3292.079h-4l3.475-18.74h4Z" transform="translate(-363.039 -3273.339)" fill="#9d9ea0"/>
          <path id="Trazado_100280" data-name="Trazado 100280" d="M372.137,3291.809h-4l2.692-14.517h4Z" transform="translate(-362.69 -3273.069)" fill="#9d9ea0"/>
          <path id="Trazado_100281" data-name="Trazado 100281" d="M377.236,3291.849h-4l2.807-15.139h4Z" transform="translate(-362.342 -3273.109)" fill="#9d9ea0"/>
          <path id="Trazado_100282" data-name="Trazado 100282" d="M382.336,3291.617h-4l2.135-11.516h4Z" transform="translate(-361.993 -3272.877)" fill="#9d9ea0"/>
          <path id="Trazado_100283" data-name="Trazado 100283" d="M387.435,3291.671h-4l2.291-12.354h4Z" transform="translate(-361.645 -3272.931)" fill="#9d9ea0"/>
          <path id="Trazado_100284" data-name="Trazado 100284" d="M392.534,3291.493h-4l1.777-9.581h4Z" transform="translate(-361.296 -3272.753)" fill="#9d9ea0"/>
        </g>
        <g id="Grupo_53816" data-name="Grupo 53816" transform="translate(430.024 3280.395)">
          <path id="Trazado_100285" data-name="Trazado 100285" d="M417.113,3292.079h-4l3.475-18.74h4Z" transform="translate(-413.114 -3273.339)" fill="#6d7728"/>
          <path id="Trazado_100286" data-name="Trazado 100286" d="M422.213,3291.809h-4l2.692-14.517h4Z" transform="translate(-412.766 -3273.069)" fill="#6d7728"/>
          <path id="Trazado_100287" data-name="Trazado 100287" d="M427.312,3291.849h-4l2.807-15.139h4Z" transform="translate(-412.417 -3273.109)" fill="#6d7728"/>
          <path id="Trazado_100288" data-name="Trazado 100288" d="M432.411,3291.617h-4l2.135-11.516h4Z" transform="translate(-412.069 -3272.877)" fill="#6d7728"/>
          <path id="Trazado_100289" data-name="Trazado 100289" d="M437.511,3291.671h-4l2.291-12.354h4Z" transform="translate(-411.72 -3272.931)" fill="#6d7728"/>
          <path id="Trazado_100290" data-name="Trazado 100290" d="M442.61,3291.493h-4l1.777-9.581h4Z" transform="translate(-411.372 -3272.753)" fill="#6d7728"/>
        </g>
        <g id="Grupo_53825" data-name="Grupo 53825" transform="translate(436.062 3232.016)">
          <g id="Grupo_53817" data-name="Grupo 53817" transform="translate(4.197 4.161)">
            <path id="Trazado_100291" data-name="Trazado 100291" d="M435.713,3233.733H422.695l.335-1.783h13.018Z" transform="translate(-422.695 -3231.95)" fill="#9d9ea0"/>
            <path id="Trazado_100292" data-name="Trazado 100292" d="M450.748,3233.733H436.374l.335-1.783h14.374Z" transform="translate(-421.76 -3231.95)" fill="#9d9ea0"/>
            <path id="Trazado_100293" data-name="Trazado 100293" d="M460,3233.733h-9.164l.335-1.783h9.164Z" transform="translate(-420.771 -3231.95)" fill="#9d9ea0"/>
            <path id="Trazado_100294" data-name="Trazado 100294" d="M467.88,3233.733h-7.072l.335-1.783h7.072Z" transform="translate(-420.09 -3231.95)" fill="#9d9ea0"/>
          </g>
          <g id="Grupo_53818" data-name="Grupo 53818" transform="translate(2.768 11.77)">
            <path id="Trazado_100295" data-name="Trazado 100295" d="M434.376,3240.856H421.357l.335-1.783h13.018Z" transform="translate(-421.357 -3239.072)" fill="#9d9ea0"/>
            <path id="Trazado_100296" data-name="Trazado 100296" d="M449.411,3240.856H435.036l.335-1.783h14.375Z" transform="translate(-420.423 -3239.072)" fill="#9d9ea0"/>
            <path id="Trazado_100297" data-name="Trazado 100297" d="M458.667,3240.856H449.5l.335-1.783H459Z" transform="translate(-419.434 -3239.072)" fill="#9d9ea0"/>
            <path id="Trazado_100298" data-name="Trazado 100298" d="M466.542,3240.856H459.47l.335-1.783h7.072Z" transform="translate(-418.753 -3239.072)" fill="#9d9ea0"/>
          </g>
          <g id="Grupo_53819" data-name="Grupo 53819" transform="translate(4.979)">
            <path id="Trazado_100299" data-name="Trazado 100299" d="M443.4,3229.839H423.426l.335-1.784h19.973Z" transform="translate(-423.426 -3228.055)" fill="#9d9ea0"/>
            <path id="Trazado_100300" data-name="Trazado 100300" d="M455.416,3229.839H443.9l.335-1.784h11.513Z" transform="translate(-422.027 -3228.055)" fill="#9d9ea0"/>
            <path id="Trazado_100301" data-name="Trazado 100301" d="M468.985,3229.839H456.2l.335-1.784H469.32Z" transform="translate(-421.186 -3228.055)" fill="#9d9ea0"/>
          </g>
          <g id="Grupo_53820" data-name="Grupo 53820" transform="translate(3.459 8.09)">
            <path id="Trazado_100302" data-name="Trazado 100302" d="M441.978,3237.412H422l.335-1.784h19.973Z" transform="translate(-422.004 -3235.628)" fill="#9d9ea0"/>
            <path id="Trazado_100303" data-name="Trazado 100303" d="M453.994,3237.412H442.481l.335-1.784h11.513Z" transform="translate(-420.605 -3235.628)" fill="#9d9ea0"/>
            <path id="Trazado_100304" data-name="Trazado 100304" d="M467.563,3237.412H454.777l.335-1.784H467.9Z" transform="translate(-419.765 -3235.628)" fill="#9d9ea0"/>
          </g>
          <g id="Grupo_53821" data-name="Grupo 53821" transform="translate(1.34 19.379)">
            <path id="Trazado_100305" data-name="Trazado 100305" d="M433.038,3247.978H420.02l.335-1.783h13.018Z" transform="translate(-420.02 -3246.194)" fill="#9d9ea0"/>
            <path id="Trazado_100306" data-name="Trazado 100306" d="M448.073,3247.978H433.7l.335-1.783h14.374Z" transform="translate(-419.085 -3246.194)" fill="#9d9ea0"/>
            <path id="Trazado_100307" data-name="Trazado 100307" d="M457.33,3247.978h-9.164l.335-1.783h9.164Z" transform="translate(-418.097 -3246.194)" fill="#9d9ea0"/>
            <path id="Trazado_100308" data-name="Trazado 100308" d="M465.2,3247.978h-7.072l.335-1.783h7.072Z" transform="translate(-417.415 -3246.194)" fill="#9d9ea0"/>
          </g>
          <g id="Grupo_53822" data-name="Grupo 53822" transform="translate(2.03 15.699)">
            <path id="Trazado_100309" data-name="Trazado 100309" d="M440.64,3244.534H420.667l.335-1.783h19.973Z" transform="translate(-420.667 -3242.75)" fill="#9d9ea0"/>
            <path id="Trazado_100310" data-name="Trazado 100310" d="M452.656,3244.534H441.143l.335-1.783h11.513Z" transform="translate(-419.267 -3242.75)" fill="#9d9ea0"/>
            <path id="Trazado_100311" data-name="Trazado 100311" d="M466.226,3244.534H453.44l.335-1.783h12.786Z" transform="translate(-418.427 -3242.75)" fill="#9d9ea0"/>
          </g>
          <g id="Grupo_53823" data-name="Grupo 53823" transform="translate(0 26.512)">
            <path id="Trazado_100312" data-name="Trazado 100312" d="M431.784,3254.655H418.766l.335-1.783h13.019Z" transform="translate(-418.766 -3252.871)" fill="#9d9ea0"/>
            <path id="Trazado_100313" data-name="Trazado 100313" d="M446.819,3254.655H432.445l.335-1.783h14.374Z" transform="translate(-417.831 -3252.871)" fill="#9d9ea0"/>
            <path id="Trazado_100314" data-name="Trazado 100314" d="M456.076,3254.655h-9.164l.335-1.783h9.164Z" transform="translate(-416.843 -3252.871)" fill="#9d9ea0"/>
            <path id="Trazado_100315" data-name="Trazado 100315" d="M463.951,3254.655h-7.072l.335-1.783h7.072Z" transform="translate(-416.161 -3252.871)" fill="#9d9ea0"/>
          </g>
          <g id="Grupo_53824" data-name="Grupo 53824" transform="translate(0.691 22.833)">
            <path id="Trazado_100316" data-name="Trazado 100316" d="M439.386,3251.211H419.413l.335-1.783h19.973Z" transform="translate(-419.413 -3249.427)" fill="#9d9ea0"/>
            <path id="Trazado_100317" data-name="Trazado 100317" d="M451.4,3251.211H439.889l.335-1.783h11.513Z" transform="translate(-418.013 -3249.427)" fill="#9d9ea0"/>
            <path id="Trazado_100318" data-name="Trazado 100318" d="M464.972,3251.211H452.186l.335-1.783h12.786Z" transform="translate(-417.173 -3249.427)" fill="#9d9ea0"/>
          </g>
        </g>
        <g id="Grupo_53826" data-name="Grupo 53826" transform="translate(412.383 3280.272)">
          <path id="Trazado_100319" data-name="Trazado 100319" d="M403.629,3276h-6.372l.164-.873h6.372Z" transform="translate(-396.557 -3273.094)" fill="#9d9ea0"/>
          <path id="Trazado_100320" data-name="Trazado 100320" d="M410.988,3276h-7.036l.164-.873h7.036Z" transform="translate(-396.1 -3273.094)" fill="#9d9ea0"/>
          <path id="Trazado_100321" data-name="Trazado 100321" d="M402.974,3279.49H396.6l.164-.873h6.372Z" transform="translate(-396.602 -3272.856)" fill="#9d9ea0"/>
          <path id="Trazado_100322" data-name="Trazado 100322" d="M410.333,3279.49H403.3l.164-.873H410.5Z" transform="translate(-396.144 -3272.856)" fill="#9d9ea0"/>
          <path id="Trazado_100323" data-name="Trazado 100323" d="M407.391,3274.1h-9.776l.164-.873h9.776Z" transform="translate(-396.533 -3273.224)" fill="#9d9ea0"/>
          <path id="Trazado_100324" data-name="Trazado 100324" d="M413.272,3274.1h-5.636l.164-.873h5.636Z" transform="translate(-395.848 -3273.224)" fill="#9d9ea0"/>
          <path id="Trazado_100325" data-name="Trazado 100325" d="M406.695,3277.8h-9.776l.164-.873h9.776Z" transform="translate(-396.58 -3272.971)" fill="#9d9ea0"/>
          <path id="Trazado_100326" data-name="Trazado 100326" d="M412.576,3277.8h-5.635l.164-.873h5.635Z" transform="translate(-395.895 -3272.971)" fill="#9d9ea0"/>
        </g>
        <g id="Grupo_53827" data-name="Grupo 53827" transform="translate(463.426 3280.272)">
          <path id="Trazado_100327" data-name="Trazado 100327" d="M451.407,3276h-6.372l.164-.873h6.372Z" transform="translate(-444.335 -3273.094)" fill="#fff"/>
          <path id="Trazado_100328" data-name="Trazado 100328" d="M458.766,3276H451.73l.164-.873h7.036Z" transform="translate(-443.878 -3273.094)" fill="#fff"/>
          <path id="Trazado_100329" data-name="Trazado 100329" d="M450.752,3279.49H444.38l.164-.873h6.372Z" transform="translate(-444.38 -3272.856)" fill="#fff"/>
          <path id="Trazado_100330" data-name="Trazado 100330" d="M458.111,3279.49h-7.036l.164-.873h7.036Z" transform="translate(-443.923 -3272.856)" fill="#fff"/>
          <path id="Trazado_100331" data-name="Trazado 100331" d="M455.169,3274.1h-9.776l.164-.873h9.776Z" transform="translate(-444.311 -3273.224)" fill="#fff"/>
          <path id="Trazado_100332" data-name="Trazado 100332" d="M461.05,3274.1h-5.635l.164-.873h5.635Z" transform="translate(-443.626 -3273.224)" fill="#fff"/>
          <path id="Trazado_100333" data-name="Trazado 100333" d="M454.473,3277.8H444.7l.164-.873h9.776Z" transform="translate(-444.358 -3272.971)" fill="#fff"/>
          <path id="Trazado_100334" data-name="Trazado 100334" d="M460.354,3277.8h-5.635l.164-.873h5.636Z" transform="translate(-443.673 -3272.971)" fill="#fff"/>
        </g>
        <g id="Grupo_53831" data-name="Grupo 53831" transform="translate(431.929 3170.105)">
          <g id="Grupo_53828" data-name="Grupo 53828" transform="translate(0 250.187)">
            <path id="Trazado_100335" data-name="Trazado 100335" d="M444.269,3425.289c-.223,3.05-4.526,3.082-9.408,2.516s-3.585.669-10.422.764-9.192-2.164-9.523-3.141c-.295-.866,3-1.6,6.52-2.454.443-.106.888-.218,1.332-.33,3.972-1.01,6.6-3.982,10-6.578,3.219-2.458,7.369-11.358,7.369-11.358l9.339-.421s-3.934,7.976-5.41,11.414c-.869,2.023-.5,4.508-.122,6.416A11.928,11.928,0,0,1,444.269,3425.289Z" transform="translate(-414.898 -3404.288)" fill="#f4ac75"/>
            <path id="Trazado_100336" data-name="Trazado 100336" d="M434.861,3426.665c-4.883-.566-3.585.669-10.422.764s-9.192-2.164-9.523-3.141c-.295-.866,3-1.6,6.52-2.454l.042.065a19.163,19.163,0,0,0,10.032,1.8c4.589-.459,9.27-2.375,12.435-2.718a11.928,11.928,0,0,1,.324,3.172C444.046,3427.2,439.743,3427.231,434.861,3426.665Z" transform="translate(-414.898 -3403.147)" fill="#2c3a64"/>
          </g>
          <g id="Grupo_53829" data-name="Grupo 53829" transform="translate(64.498 244.573)">
            <path id="Trazado_100337" data-name="Trazado 100337" d="M504.64,3426.281c-.22,3.05-4.523,3.086-9.406,2.526s-3.584.673-10.419.774-9.2-2.155-9.526-3.131c-.3-.866,3-1.6,6.517-2.46.443-.107.887-.219,1.331-.332,3.971-1.014,6.6-3.988,9.993-6.587,3.217-2.462,0-17.037,0-17.037l10.272-1s-.494,12.272-.486,17.851c0,2.2,1.015,4.318,1.394,6.225A11.93,11.93,0,0,1,504.64,3426.281Z" transform="translate(-475.27 -3399.033)" fill="#f4ac75"/>
            <path id="Trazado_100338" data-name="Trazado 100338" d="M495.234,3427.266c-4.883-.562-3.584.673-10.419.774s-9.2-2.155-9.526-3.131c-.3-.866,3-1.6,6.517-2.46l.042.064a19.159,19.159,0,0,0,10.034,1.786c4.587-.464,9.268-2.385,12.432-2.731a11.93,11.93,0,0,1,.327,3.172C504.42,3427.791,500.116,3427.827,495.234,3427.266Z" transform="translate(-475.27 -3397.493)" fill="#2c3a64"/>
          </g>
          <path id="Trazado_100339" data-name="Trazado 100339" d="M474.74,3190.021c-1.768-7.273.8-10.66,3.108-12.463,1.1-2.677,2.349-4.607,3.629-5.333a13.1,13.1,0,0,1,7.088-1.357,3.324,3.324,0,0,0-1.495-.709c1.213-.18,3.922,1.023,3.922,1.023,16.878-6.5,19.53,18.348,19.176,24.121s-.306,12.573,8.476,17.122c16.754,8.679-5.569,41.388-5.569,41.388.426-4.666-21.1-29.288-32.332-36.661-2.734-4.025-3.706-11.135-3.779-11.7.472,5.638,1.437,8.8,2.3,10.581C474.144,3211.326,473.386,3200.013,474.74,3190.021Z" transform="translate(-410.849 -3170.105)" fill="#9d3f3a"/>
          <path id="Trazado_100340" data-name="Trazado 100340" d="M480.943,3215.55c-.056.025,5.423,2.87,9.545,1.742,3.877-1.057,6.41-6.083,6.357-6.095-1.642-.326-2.115-2.582-2.081-12.277l-.741.146-12.479,2.471s.284,3.927.293,7.627C481.844,3212.272,481.655,3215.217,480.943,3215.55Z" transform="translate(-410.384 -3168.136)" fill="#f4ac75"/>
          <path id="Trazado_100341" data-name="Trazado 100341" d="M481.5,3201.529s.284,3.927.293,7.627c6.983-.2,10.674-6.567,12.187-10.1Z" transform="translate(-410.346 -3168.126)" fill="#e19054"/>
          <path id="Trazado_100342" data-name="Trazado 100342" d="M433.988,3418.21a3.062,3.062,0,0,0,2.774,3.988l4.875.228,5.159.158a4.142,4.142,0,0,0,3.339-1.523,145.024,145.024,0,0,0,24.478-46.346q.325-1.03.687-2.083c5.077-14.8,15.6-33.387,21.148-50.206.884-2.679,1.676-5.2,2.388-7.587.228-.765.45-1.516.66-2.255a178.391,178.391,0,0,0,6.362-33.489l-40.052.321A882.2,882.2,0,0,1,433.988,3418.21Z" transform="translate(-413.603 -3162.657)" fill="#576d9f"/>
          <path id="Trazado_100343" data-name="Trazado 100343" d="M469.381,3261.172c.1,19.059-2.8,27.235-2.8,27.235a53.819,53.819,0,0,0,37.53,2.3c.239-.075,14.582-4.136,14.582-4.136-.342-.771-3.175-13.524-3.507-14.231-4.3-9.241-5.476-13.121-5.987-15.962a60.465,60.465,0,0,1-.5-15.968,128.082,128.082,0,0,1,4.943-25.075c-5.554-1.264-10.754-3.484-16.535-5.652-1.329,1.656-5.393,3.388-8.919,3.309-4.061-.09-5.377-1.828-5.166-3.725-4.326,2.408-7.779,4.681-7.779,4.681-3.676,6.387-11.134,12.589-11.674,22.387C463.445,3238.744,469.378,3260.638,469.381,3261.172Z" transform="translate(-411.571 -3167.429)" fill="#fff"/>
          <path id="Trazado_100344" data-name="Trazado 100344" d="M501.636,3261.959c1.751,2.478,5.108,17.539,13.458,19.432-4.3-10.734-7.57-15.44-8.081-18.74a81.471,81.471,0,0,1-.5-18.549c-2.795-4.9-4.881-8.258-4.881-8.258-.22-.792-4.442-13.85-5.8-2.178S499.68,3259.188,501.636,3261.959Z" transform="translate(-409.381 -3166.091)" fill="#6a99a7"/>
          <path id="Trazado_100345" data-name="Trazado 100345" d="M479.673,3206.433s16.522.272,16.534-10.019,2.152-17.187-8.4-17.8-12.6,3.315-13.442,6.75S475.375,3206.1,479.673,3206.433Z" transform="translate(-410.847 -3169.528)" fill="#f4ac75"/>
          <path id="Trazado_100346" data-name="Trazado 100346" d="M479.893,3178.512s4.524,12.073,11.466,13.859,9.954-.075,9.954-.075a19.654,19.654,0,0,1-6.43-11.614S483.306,3172.765,479.893,3178.512Z" transform="translate(-410.456 -3169.673)" fill="#9d3f3a"/>
          <path id="Trazado_100347" data-name="Trazado 100347" d="M481.478,3179.421s-3.378,2.7-4.2,5.316-1.194,8.016-2.767,7.833c0,0-3.408-8.207.422-12.849C478.993,3174.8,481.478,3179.421,481.478,3179.421Z" transform="translate(-410.919 -3169.603)" fill="#9d3f3a"/>
          <path id="Trazado_100348" data-name="Trazado 100348" d="M455.487,3270.234l-7.8,23.792,4.451,1.785,12.9-21.02Z" transform="translate(-412.657 -3163.262)" fill="#f4ac75"/>
          <path id="Trazado_100349" data-name="Trazado 100349" d="M476.151,3212.338s-9.2,3.652-11.864,9.344-6.7,43.877-8.3,47.8-2.814,7.025-2.814,7.025,4.64,3.909,9.305,4.2S476.151,3212.338,476.151,3212.338Z" transform="translate(-412.282 -3167.219)" fill="#eab96c"/>
          <path id="Trazado_100350" data-name="Trazado 100350" d="M483.387,3209.267s-9.558,23.615-9.839,28.394-1.125,78.151-1.125,78.151.562,3.374-5.9,1.968-8.153-2.811-8.153-2.811,6.185-45.261,4.5-61,12.932-41.418,12.932-41.418Z" transform="translate(-411.927 -3167.429)" fill="#eab96c"/>
          <path id="Trazado_100351" data-name="Trazado 100351" d="M441.139,3420.57l5.6.172a3.235,3.235,0,0,0,2.6-1.173,144.538,144.538,0,0,0,24.777-46.71q.325-1.03.687-2.083c5.077-14.8,15.6-33.387,21.148-50.206.884-2.679,1.676-5.2,2.388-7.587.228-.765.45-1.516.66-2.255l-5.9-4.475s-17.708,28.675-23.189,55.66C465.148,3385.351,446.076,3413.556,441.139,3420.57Z" transform="translate(-413.104 -3160.801)" fill="#3c4b6c"/>
          <path id="Trazado_100352" data-name="Trazado 100352" d="M489.451,3364.911c-.1,12.415.493,40.085,2,53.612a2.445,2.445,0,0,0,2.432,2.172h4.178c1.762,0,3.08-.013,3.955-.026a1.607,1.607,0,0,0,1.55-1.3c4.156-21.148,7.13-38.717,9.307-53.9,1.821-12.707,3.441-23.6,4.687-32.979,1.253-9.438,2.125-17.339,2.437-24.016q.072-1.577.1-3.067t.016-2.909l-34.606-3.374C485.951,3322.122,489.507,3357.284,489.451,3364.911Z" transform="translate(-410.072 -3161.288)" fill="#576d9f"/>
          <path id="Trazado_100353" data-name="Trazado 100353" d="M497.261,3420.1c1.583,0,2.807-.011,3.674-.021a1.951,1.951,0,0,0,1.885-1.574c4.128-21.026,7.086-38.51,9.254-53.625,1.821-12.707,3.441-23.6,4.687-32.979,1.253-9.438,2.125-17.339,2.437-24.016l-12.7,7.469s8.106,2.86,5.013,24.506S501.565,3417.032,497.261,3420.1Z" transform="translate(-409.269 -3160.689)" fill="#3c4b6c"/>
          <path id="Trazado_100354" data-name="Trazado 100354" d="M496.488,3314.377s2.437,8.807,10.87,7.683,20.427-6.185,20.427-6.185-3.6-11.388-8.085-26.35c-5.425-18.113-12.142-41.462-15.307-56.19a91.067,91.067,0,0,1-1.72-10.041l-7-13.575s-10.432,23.414-10.994,29.317S496.488,3314.377,496.488,3314.377Z" transform="translate(-410.13 -3167.398)" fill="#eab96c"/>
          <path id="Trazado_100355" data-name="Trazado 100355" d="M505.7,3238.156l-9.235-28.438c.026.012,11.664,3.463,17.519,6.421,0,0,3.659,4.718,5.923,15.6,0,0,2.392,26.132-2.949,35.689,0,0-16.868,3.374-43.855-5.9v-6.185s29.518,1.547,35.562,2.25Z" transform="translate(-410.92 -3167.398)" fill="#f4ac75"/>
          <path id="Trazado_100356" data-name="Trazado 100356" d="M496.082,3249.894c.376,9.558,2.626,28.112,22.678,38.045.053.026.107.053.16.076-5.425-18.113-12.142-41.462-15.307-56.19C499.931,3237.328,495.877,3244.631,496.082,3249.894Z" transform="translate(-409.35 -3165.887)" fill="#f29f55"/>
          <path id="Trazado_100357" data-name="Trazado 100357" d="M495.033,3209.718s17.119,1.206,21.242,10.388,5.436,39.732.188,48.728c0,0-7.225,2.058-20-.332l-.472-.09s-4.076-9.979-.421-11.947c0,0,10.776.562,9.651-3S495.033,3209.718,495.033,3209.718Z" transform="translate(-409.489 -3167.398)" fill="#eab96c"/>
          <g id="Grupo_53830" data-name="Grupo 53830" transform="translate(40.593 83.026)">
            <path id="Trazado_100358" data-name="Trazado 100358" d="M454.8,3256.558l.5,1.621,28.09-8.738a1.08,1.08,0,0,0,.189-.994.794.794,0,0,0-.693-.627Z" transform="translate(-452.765 -3247.82)" fill="#9d3f3a"/>
            <path id="Trazado_100359" data-name="Trazado 100359" d="M452.894,3257.531l2.032-1.532.5,1.621Z" transform="translate(-452.894 -3247.261)" fill="#9d3f3a"/>
          </g>
          <path id="Trazado_100360" data-name="Trazado 100360" d="M449.266,3291.9s-7.126,3.938-8.064,6.938-.293,9.282.839,9.189,2.818-6.751,3.756-7.22,2.25-1.874,2.25-.844-.937,2.907-.469,3.188,1.969-2.624,3-3.188,1.465-5.2,2.468-6.443S449.266,3291.9,449.266,3291.9Z" transform="translate(-413.131 -3161.782)" fill="#f4ac75"/>
          <path id="Trazado_100361" data-name="Trazado 100361" d="M474.134,3252.638s-6.373-3.924-9.046-3.321-9.487,5.538-6.209,6.607,5.93-.052,7.191.723,2.19,2.2,8.064,2.175S474.134,3252.638,474.134,3252.638Z" transform="translate(-411.952 -3164.696)" fill="#f4ac75"/>
        </g>
        <g id="Grupo_53840" data-name="Grupo 53840" transform="translate(264.527 3216.469)">
          <g id="Grupo_53835" data-name="Grupo 53835" transform="translate(0 66.68)">
            <g id="Grupo_53832" data-name="Grupo 53832" transform="translate(34.167 77.547)">
              <path id="Trazado_100362" data-name="Trazado 100362" d="M291.528,3431.384h-.117a1.229,1.229,0,0,1-1.224-1.261l1.857-80.977,5.472-.642-4.665,81.625A1.329,1.329,0,0,1,291.528,3431.384Z" transform="translate(-290.186 -3348.504)" fill="#9d9ea0"/>
            </g>
            <g id="Grupo_53833" data-name="Grupo 53833" transform="translate(2.284 77.547)">
              <path id="Trazado_100363" data-name="Trazado 100363" d="M261.684,3431.384h-.117a1.229,1.229,0,0,1-1.224-1.261l1.858-80.977,5.471-.642-4.665,81.625A1.329,1.329,0,0,1,261.684,3431.384Z" transform="translate(-260.342 -3348.504)" fill="#9d9ea0"/>
            </g>
            <g id="Grupo_53834" data-name="Grupo 53834" transform="translate(85.619 77.547)">
              <path id="Trazado_100364" data-name="Trazado 100364" d="M344.333,3431.384h.116a1.23,1.23,0,0,0,1.225-1.261l-1.858-80.977-5.471-.642,4.665,81.625A1.328,1.328,0,0,0,344.333,3431.384Z" transform="translate(-338.346 -3348.504)" fill="#9d9ea0"/>
            </g>
            <path id="Trazado_100365" data-name="Trazado 100365" d="M258.2,3349.085V3293.6a17.627,17.627,0,0,1,17.576-17.679h39.745A17.627,17.627,0,0,1,333.1,3293.6V3351.2Z" transform="translate(-258.204 -3275.918)" fill="#9d9ea0"/>
            <path id="Rectángulo_5296" data-name="Rectángulo 5296" d="M0,0H82.018a0,0,0,0,1,0,0V8.76a0,0,0,0,1,0,0H4.954A4.954,4.954,0,0,1,0,3.806V0A0,0,0,0,1,0,0Z" transform="translate(0 73.167)" fill="#9d9ea0"/>
            <rect id="Rectángulo_5297" data-name="Rectángulo 5297" width="65.862" height="8.76" rx="3.663" transform="translate(29.255 73.167)" fill="#9d9ea0"/>
          </g>
          <g id="Grupo_53839" data-name="Grupo 53839" transform="translate(17.384)">
            <path id="Trazado_100366" data-name="Trazado 100366" d="M314.624,3256.734s-3.327,2.83-4.049,10.17c-.549,5.573,3.317,48.837,6.226,52.275,8.185,9.675,18.443,5.587,22.461,7.055l3.79-3.406s-13.328-9.837-14.341-13.046C324.807,3297.427,327.228,3261.4,314.624,3256.734Z" transform="translate(-272.012 -3210.549)" fill="#f4daba"/>
            <path id="Trazado_100367" data-name="Trazado 100367" d="M314.055,3224.341s.225-7.935-10.24-9.491-13.355.89-15.135,3.559-5.115,13.567-4.782,17.9,12.27,9.7,12.075,12.23S314.055,3224.341,314.055,3224.341Z" transform="translate(-273.833 -3213.445)" fill="#233862"/>
            <path id="Trazado_100368" data-name="Trazado 100368" d="M357.606,3420.9c-.34,2.68,3.317,3.47,7.571,3.843s2.935,1.214,8.737,2.505,8.2-.249,8.652-1.037c.4-.7-2.275-1.912-5.124-3.279-.359-.17-.718-.346-1.077-.521-3.205-1.577-4.927-4.617-7.368-7.467-2.312-2.7-4.3-11.143-4.3-11.143l-7.876-2.017s1.961,7.605,2.621,10.846c.389,1.906-.358,3.993-1.011,5.579A10.7,10.7,0,0,0,357.606,3420.9Z" transform="translate(-268.848 -3200.636)" fill="#f4ac75"/>
            <path id="Trazado_100369" data-name="Trazado 100369" d="M365.129,3423.689c4.254.373,2.935,1.214,8.737,2.505s8.2-.249,8.652-1.037c.4-.7-2.275-1.912-5.124-3.279l-.047.049a16.361,16.361,0,0,1-8.85-.218c-3.826-1.209-7.478-3.7-10.113-4.554a10.7,10.7,0,0,0-.827,2.691C357.218,3422.527,360.875,3423.316,365.129,3423.689Z" transform="translate(-268.799 -3199.586)" fill="#2c3a64"/>
            <path id="Trazado_100370" data-name="Trazado 100370" d="M303.1,3317.821s52.651,5.462,61.329,13.522,7.133,83.149,7.133,83.149c-1.351,1.4-2.348,1.368-4.483,1.2a29.767,29.767,0,0,1-6.225-1.922s-11.276-36.871-11.417-45.409-1.924-23.024-5.505-23.877-46.206,3.925-50.88-9.539,3.086-24.541,3.086-24.541Z" transform="translate(-273.308 -3206.881)" fill="#6d7728"/>
            <path id="Trazado_100371" data-name="Trazado 100371" d="M279.472,3335.1a23.954,23.954,0,0,0,13.15,4.109c12.2.444,27.416-1.01,30.411-3.84a5.153,5.153,0,0,0,1.265-3.476c.33-4.68-1.9-12.38-3.406-18.751-.974-4.14-1.639-7.717-1.1-9.545,1.655-5.565,6.8-16.9,7.24-20.63s-4-23.693-10.152-26.165-29.882,0-29.882,0c-9.271,1.882-9.661,21.648-6.582,38.472.08.433.16.864.244,1.29C284,3313.652,273.133,3330.856,279.472,3335.1Z" transform="translate(-274.273 -3210.619)" fill="#f4daba"/>
            <g id="Grupo_53836" data-name="Grupo 53836" transform="translate(15.819 9.343)">
              <path id="Trazado_100372" data-name="Trazado 100372" d="M309.081,3261.216c-.167,1.084-3.134,2.843-9.478,1.171-6.078-1.6-6.807-3.582-6.806-4.889,0-1.547,2.642-3.632,2.608-13.152l.729.143,12.255,2.427s-.279,3.857-.287,7.489C308.091,3257.457,309.358,3259.412,309.081,3261.216Z" transform="translate(-289.043 -3220.739)" fill="#f4ac75"/>
              <path id="Trazado_100373" data-name="Trazado 100373" d="M308.174,3246.907s-.279,3.857-.287,7.489c-6.858-.193-10.483-6.448-11.968-9.916Z" transform="translate(-288.829 -3220.73)" fill="#e19054"/>
              <path id="Trazado_100374" data-name="Trazado 100374" d="M310.583,3251.723s-16.224.268-16.236-9.839-2.112-16.877,8.245-17.476,12.376,3.256,13.2,6.628S314.8,3251.393,310.583,3251.723Z" transform="translate(-288.949 -3222.106)" fill="#f4ac75"/>
              <path id="Trazado_100375" data-name="Trazado 100375" d="M310.316,3224.3s-4.442,11.856-11.259,13.609-9.774-.073-9.774-.073a19.31,19.31,0,0,0,6.314-11.406S306.966,3218.66,310.316,3224.3Z" transform="translate(-289.283 -3222.249)" fill="#233862"/>
              <path id="Trazado_100376" data-name="Trazado 100376" d="M307.941,3225.2s3.317,2.647,4.126,5.221,1.173,7.872,2.717,7.691c0,0,3.347-8.059-.415-12.618C310.381,3220.656,307.941,3225.2,307.941,3225.2Z" transform="translate(-288.008 -3222.18)" fill="#233862"/>
            </g>
            <path id="Trazado_100377" data-name="Trazado 100377" d="M320.542,3423.338c-.038,2.7,3.683,3.066,7.951,2.946s3.051.867,8.959,1.482,8.12-1.192,8.482-2.027c.322-.74-2.472-1.639-5.455-2.667-.376-.128-.752-.262-1.128-.394-3.36-1.2-5.409-4.02-8.151-6.57-2.6-2.416,3.137-14.1,3.137-14.1l-7.517-3.72s-1.426,8.343-3.262,15.639c-.474,1.885-2.02,4.992-2.492,6.643A10.739,10.739,0,0,0,320.542,3423.338Z" transform="translate(-271.328 -3200.875)" fill="#f4ac75"/>
            <path id="Trazado_100378" data-name="Trazado 100378" d="M279.777,3331.135c2.272,1.521,6.01,5.875,12.827,6.117,11.25-2.558,24.057-5.537,31.676-7.316.33-4.68-1.9-12.38-3.406-18.751-8.884,2.712-22.105-6.529-26.549-10.181-4.671-3.838-4.523-16.621-4.523-16.621l-9.4,8.935c.08.433.16.864.244,1.29C283.984,3311.692,273.439,3326.888,279.777,3331.135Z" transform="translate(-274.255 -3208.66)" fill="#ebc8a4"/>
            <path id="Trazado_100379" data-name="Trazado 100379" d="M328.493,3424.859c4.268-.119,3.051.867,8.959,1.482s8.12-1.192,8.482-2.027c.322-.74-2.472-1.639-5.455-2.667l-.042.053a16.374,16.374,0,0,1-8.818.8c-3.936-.761-7.841-2.812-10.554-3.359a10.739,10.739,0,0,0-.522,2.768C320.5,3424.616,324.225,3424.979,328.493,3424.859Z" transform="translate(-271.328 -3199.45)" fill="#2c3a64"/>
            <path id="Trazado_100380" data-name="Trazado 100380" d="M292.78,3320.564c13.367-.38,53.293,2.805,60.964,8.588,9.44,7.118-17.53,84.094-17.53,84.094a34.747,34.747,0,0,1-4.124.191c-4.283-.484-6.028-1.79-6.028-1.79s.1-45.306,3.255-53.973c2.912-8.007,4.7-10.84,1.048-11.318s-49.178,5.33-52.978-8.416c-2.968-10.737,1.418-20.673,1.418-20.673S280.447,3320.914,292.78,3320.564Z" transform="translate(-274.347 -3206.412)" fill="#9bac48"/>
            <path id="Trazado_100381" data-name="Trazado 100381" d="M287.206,3256.735s-9.285.789-10.008,8.128c-.549,5.572-4.587,45.1-1.679,48.54,8.185,9.675,35.477,11.725,39.5,13.193l1.106-4.575s-29.136-14.679-28.691-18.015S296.113,3255.414,287.206,3256.735Z" transform="translate(-274.476 -3210.551)" fill="#f4daba"/>
            <path id="Trazado_100382" data-name="Trazado 100382" d="M293.868,3218.9s.666-4.234-5.206-5.327-5.982,11.379-6.61,14.386.939,4.808,3.178,4.991S293.868,3218.9,293.868,3218.9Z" transform="translate(-273.968 -3213.504)" fill="#233862"/>
            <g id="Grupo_53837" data-name="Grupo 53837" transform="translate(39.48 107.9)">
              <path id="Trazado_100383" data-name="Trazado 100383" d="M313.911,3317.774s8.3-2.347,10.274-1.8,8.748,5.033,7.8,6.251-6.917-.729-9.663-.36-4.867,1.723-6.844,1.431a23.015,23.015,0,0,1-4.044-1.07Z" transform="translate(-311.43 -3314.406)" fill="#f4ac75"/>
              <path id="Trazado_100384" data-name="Trazado 100384" d="M313.752,3317.869s4.06-2.085,5.215-3.272a.324.324,0,0,1,.5.058c.309.488.6,1.43-.825,2.367A7.653,7.653,0,0,1,313.752,3317.869Z" transform="translate(-311.271 -3314.501)" fill="#f4ac75"/>
            </g>
            <g id="Grupo_53838" data-name="Grupo 53838" transform="translate(67.25 112.279)">
              <path id="Trazado_100385" data-name="Trazado 100385" d="M341.214,3318.6s8.611.472,10.3,1.632,6.642,7.6,5.346,8.442-6.306-2.935-9.023-3.477-5.163.05-6.938-.869a22.887,22.887,0,0,1-3.477-2.323Z" transform="translate(-337.424 -3318.6)" fill="#f4ac75"/>
            </g>
          </g>
        </g>
        <g id="Grupo_53846" data-name="Grupo 53846" transform="translate(165.687 3202.291)">
          <g id="Grupo_53841" data-name="Grupo 53841" transform="translate(30.043)">
            <path id="Trazado_100386" data-name="Trazado 100386" d="M311.58,3427.89H276.546c-1.685-2.056-1.064-9.645-.81-12.122.053-.5.089-.79.089-.79s11.964-9.569,13.607-2.241c.05.229.111.454.177.675,2.07,6.854,11.356,9.969,16.72,10.836C309.815,3424.813,311.1,3426.626,311.58,3427.89Z" transform="translate(-188.232 -3185.898)" fill="#253353"/>
            <path id="Trazado_100387" data-name="Trazado 100387" d="M221.193,3320.186c1.265,0,60.012,11.03,69.729,23.059,4.855,6.009,5.576,75.408,5.576,75.408s-6.005,7.446-18.976,3.123c0,0-9.51-47.481-8.807-61.882.193-3.983-40.14-.577-47.522-2.487s-25.419-17.969-21.445-25.793S221.193,3320.186,221.193,3320.186Z" transform="translate(-193.441 -3192.034)" fill="#515970"/>
            <path id="Trazado_100388" data-name="Trazado 100388" d="M259.7,3317.134s3.759,3.244,7.615,4.161a34.527,34.527,0,0,1,5.6,1.7c3.488,1.6,10.105,8.749,9.49,9.46-1.973,2.278-9.921-3.656-11.442-3.236s2.495,3.866.9,4.8c-.831.489-2.4-2.489-3.864-2.909-1.984-.567-3.3-3.562-3.894-3.767-1.156-.4-5.984-4.727-5.984-4.727Z" transform="translate(-189.414 -3192.243)" fill="#f4ac75"/>
            <path id="Trazado_100389" data-name="Trazado 100389" d="M326.073,3427.89H291.039c-1.685-2.056-1.064-9.645-.809-12.122.052-.5.089-.79.089-.79s11.963-9.569,13.606-2.241c.05.229.111.454.177.675,2.07,6.854,11.356,9.969,16.72,10.836C324.308,3424.813,325.6,3426.626,326.073,3427.89Z" transform="translate(-187.241 -3185.898)" fill="#293e6a"/>
            <path id="Trazado_100390" data-name="Trazado 100390" d="M237.4,3320.186c1.264,0,60.012,11.03,69.729,23.059,4.853,6.009,5.576,75.408,5.576,75.408s-6.006,7.446-18.977,3.123c0,0-9.509-47.481-8.807-61.882.194-3.983-40.14-.577-47.521-2.487s-25.42-17.969-21.446-25.793S237.4,3320.186,237.4,3320.186Z" transform="translate(-192.334 -3192.034)" fill="#515970"/>
            <path id="Trazado_100391" data-name="Trazado 100391" d="M233.791,3255.372a57.057,57.057,0,0,1-12.487-2.718c-4.787-1.553-8.646-3.825-6.16-8.2,2.293-4.033,6-13.041,5.751-20.5l8.908,7.179,6.051,4.876a72.429,72.429,0,0,1-.686,7.912c-.122.919-.263,1.91-.429,2.97a2.158,2.158,0,0,0,.995,2.167l.137.085A3.379,3.379,0,0,1,233.791,3255.372Z" transform="translate(-192.404 -3198.611)" fill="#f4ac75"/>
            <path id="Trazado_100392" data-name="Trazado 100392" d="M235.161,3234.363s.31,1.043-.222,4.9c-5.394-.88-10.438-5.183-10.438-5.183,2.747-.754,3.746-3.722,5.791-3.445Z" transform="translate(-191.711 -3198.156)" fill="#e19054"/>
            <path id="Trazado_100393" data-name="Trazado 100393" d="M240.738,3237.142s-20.751,3.448-22.7-9.508-5.939-21.236,7.228-23.985,16.49,1.807,18.192,5.973S246.085,3235.911,240.738,3237.142Z" transform="translate(-192.298 -3200.055)" fill="#f4ac75"/>
            <path id="Trazado_100394" data-name="Trazado 100394" d="M246.828,3204.064c.9,3.121-1.511,6.921-5.559,8.172-6.009,1.857-4.681,9.146-7.385,9.047s-3.795-4.19-6.21-.921c-2.06,2.788,1.715,6.093,1.455,7.622-.445,2.625-4.6,7.994-8.35,7.725s-10.757-17.876-9.354-23.324,7.01-11.192,12.319-11.985,12.679,1.474,14.382,1.474S246.341,3202.379,246.828,3204.064Z" transform="translate(-192.617 -3200.232)" fill="#35488b"/>
            <path id="Trazado_100395" data-name="Trazado 100395" d="M253.168,3321.8c-.346,2.99-.976,5.024-1.966,5.686-3.093,2.073-7.2,4.648-11.773,7.2-16.232,9.052-38.455,17.787-42.975,2.489-5.31-17.966-1.822-51.7,3.386-72.657,3-12.072,11.289-24.739,16.895-24.725,9.55.016,23.279,2.537,28.824,16.212,2.146,5.3,5.3,23.656,6.91,40.473C253.429,3306.492,253.84,3315.963,253.168,3321.8Z" transform="translate(-193.809 -3197.529)" fill="#576d9f"/>
            <path id="Trazado_100396" data-name="Trazado 100396" d="M214.366,3240.207l2.163-4.872s19.172,1.952,22.426,12.969C238.955,3248.3,224.134,3240.443,214.366,3240.207Z" transform="translate(-192.404 -3197.833)" fill="#dfeafd"/>
            <path id="Trazado_100397" data-name="Trazado 100397" d="M251.433,3318.4c-.346,2.99-.976,5.024-1.966,5.686-3.093,2.073-7.2,4.648-11.773,7.2-4.777-2.9-14.584-9.833-16.878-18-3-10.678-.9-23.816-.9-23.816Z" transform="translate(-192.073 -3194.133)" fill="#3c4b6c"/>
            <path id="Trazado_100398" data-name="Trazado 100398" d="M218.007,3255.491s1.662,45.891,4.272,54.964c4.45,15.472,45.037,20.982,45.037,20.982a8.309,8.309,0,0,0,1.323-7.211s-24.263-19.126-24.974-22.767,5.287-28.313-1.566-37.285S222.612,3247.428,218.007,3255.491Z" transform="translate(-192.155 -3196.686)" fill="#576d9f"/>
          </g>
          <g id="Grupo_53845" data-name="Grupo 53845" transform="translate(0 76.274)">
            <g id="Grupo_53842" data-name="Grupo 53842" transform="translate(3.036 90.52)">
              <path id="Trazado_100399" data-name="Trazado 100399" d="M170.505,3431.117l-.134,0a1.815,1.815,0,0,1-1.834-1.941l7.291-72.818,6.362.568-10.47,73.209A1.183,1.183,0,0,1,170.505,3431.117Z" transform="translate(-168.529 -3356.356)" fill="#9d9ea0"/>
            </g>
            <g id="Grupo_53843" data-name="Grupo 53843" transform="translate(40.566 90.52)">
              <path id="Trazado_100400" data-name="Trazado 100400" d="M205.633,3431.117l-.134,0a1.814,1.814,0,0,1-1.833-1.941l7.29-72.818,6.363.568-10.47,73.209A1.183,1.183,0,0,1,205.633,3431.117Z" transform="translate(-203.658 -3356.356)" fill="#9d9ea0"/>
            </g>
            <g id="Grupo_53844" data-name="Grupo 53844" transform="translate(101.311 90.52)">
              <path id="Trazado_100401" data-name="Trazado 100401" d="M272.2,3431.117l.134,0a1.815,1.815,0,0,0,1.834-1.941l-7.291-72.818-6.362.568,10.47,73.209A1.182,1.182,0,0,0,272.2,3431.117Z" transform="translate(-260.518 -3356.356)" fill="#9d9ea0"/>
            </g>
            <path id="Trazado_100402" data-name="Trazado 100402" d="M172.759,3351.83l-6.92-60.819c-.908-8.763,2.026-17.345,14.673-18.01l22.25-1.356c13.189-.544,19.143,10.432,20.811,18.882l13.21,66.854Z" transform="translate(-165.687 -3271.626)" fill="#9d9ea0"/>
            <path id="Rectángulo_5298" data-name="Rectángulo 5298" d="M3.377,0h99.215a3.377,3.377,0,0,1,3.377,3.377v8.28a0,0,0,0,1,0,0H3.377A3.377,3.377,0,0,1,0,8.28v-4.9A3.377,3.377,0,0,1,3.377,0Z" transform="translate(113.152 91.585) rotate(180)" fill="#9d9ea0"/>
            <path id="Rectángulo_5299" data-name="Rectángulo 5299" d="M2.622,0H61.29a2.622,2.622,0,0,1,2.622,2.622v9.035a0,0,0,0,1,0,0H2.622A2.622,2.622,0,0,1,0,9.035V2.622A2.622,2.622,0,0,1,2.622,0Z" transform="translate(71.096 91.585) rotate(180)" fill="#9d9ea0"/>
          </g>
        </g>
        <path id="Trazado_100403" data-name="Trazado 100403" d="M207.233,3211.354s-4.849-17.811,7.794-21.9,20.443.1,25.1,9.177Z" transform="translate(2.777 1.215)" fill="#e5b96f"/>
        <g id="Grupo_53847" data-name="Grupo 53847" transform="translate(199.726 3197.192)">
          <path id="Trazado_100404" data-name="Trazado 100404" d="M257.685,3199.695c-1.579-4.219-9.873-5.27-20.556-3.226a82.98,82.98,0,0,0-13.351,3.8,79.59,79.59,0,0,0-15.144,7.469c-7.821,5.064-12.247,10.535-10.819,14.353,1.407,3.755,8.143,4.993,17.148,3.781-1.427-3.073-1.831-7.035-1.138-9.154,1.271-3.675,2.939-7.458,11.6-10.7,6.654-2.489,12.966-3.469,17.064-2.909,2.383.323,4.017,1.168,4.531,2.543.443,1.185-.842,3.938-1.992,5.471.083,1.867.287,1.378.611,3.69C254.573,3209.459,259.221,3203.8,257.685,3199.695Z" transform="translate(-197.549 -3195.459)" fill="#f7cb7a"/>
        </g>
      </g>
    </g>
    <rect id="Rectángulo_5419" data-name="Rectángulo 5419" width="444" height="306" transform="translate(139 3134)" fill="none"/>
  </g>
</svg>
