<svg xmlns="http://www.w3.org/2000/svg" width="444" height="233" viewBox="0 0 444 233">
  <g id="Grupo_54438" data-name="Grupo 54438" transform="translate(-783 -1325)">
    <rect id="Rectángulo_5495" data-name="Rectángulo 5495" width="444" height="233" transform="translate(783 1325)" fill="#fff"/>
    <g id="Grupo_54098" data-name="Grupo 54098" transform="translate(824 1325)">
      <g id="Grupo_53533" data-name="Grupo 53533" transform="translate(0 0)">
        <g id="Grupo_53532" data-name="Grupo 53532">
          <path id="Trazado_99462" data-name="Trazado 99462" d="M906.37,883.023s2.756-7.708,9.345-6.851c0,0,9.566-12.847,19.768-1.713,0,0,10.844-2.759,18.875,2.388,5.355,3.432,7.123,7.032,7.123,7.032Z" transform="translate(-824.695 -770.645)" fill="#f8fcff" opacity="0.5"/>
          <path id="Trazado_99463" data-name="Trazado 99463" d="M642.6,701.355s3.019-8.445,10.238-7.506c0,0,10.481-14.075,21.657-1.877,0,0,11.88-3.022,20.678,2.617,5.866,3.76,7.8,7.7,7.8,7.7Z" transform="translate(-607.915 -615.512)" fill="#f8fcff" opacity="0.5"/>
          <path id="Trazado_99464" data-name="Trazado 99464" d="M1308.421,663.638a14.122,14.122,0,0,1,13.591-6.573s13.914-12.325,28.751-1.643c0,0,15.772-2.646,27.452,2.292,7.788,3.292,10.36,6.746,10.36,6.746Z" transform="translate(-1158.792 -585.038)" fill="#f8fcff" opacity="0.5"/>
          <path id="Trazado_99465" data-name="Trazado 99465" d="M769.77,429.174c-.247,1.218-.524,2.469-.833,3.72-.279,1.253-.649,2.577-1.049,3.9-.186.642-.4,1.288-.586,1.931-.649,2.04-1.388,4.149-2.283,6.332-.279.715-.556,1.467-.865,2.183-.078.223-.167.448-.26.672-.056.133-.115.266-.172.4H727.036l-10.737-.033H620.158l-13.585-.018h-.042l-14.313-.02H518.06l-30.915-.035H431.236s-.019-.059-.057-.174c-.01-.035-.022-.075-.037-.119l-.184-.566-.03-.071v-.035a.139.139,0,0,1-.03-.072c-.123-.286-.216-.609-.34-1-.062-.18-.123-.4-.216-.609v-.072l-.03-.035c-.424-1.276-.949-2.939-1.556-4.948q-.081-.273-.167-.552c-.454-1.517-.954-3.217-1.486-5.089-1.265-4.542-2.716-10.088-4.134-16.347-.555-2.469-1.111-5.044-1.636-7.728-.309-1.549-.62-3.162-.917-4.791q-.129-.716-.255-1.433c-.546-3.05-1.059-6.193-1.522-9.4-.61-4.217-1.133-8.552-1.532-12.954q-.3-3.24-.5-6.524c0-.057-.008-.116-.01-.172s-.008-.118-.012-.176c-.182-3.082-.3-6.185-.331-9.287q-.041-3.745.079-7.483c.061-1.682.154-3.364.247-5.046.247-3.577.617-7.154,1.142-10.624.339-2.361.77-4.723,1.265-7.011a88.182,88.182,0,0,1,5-16.061c.772-1.752,1.574-3.469,2.469-5.151,2-3.828,4.041-7.4,6.11-10.767h.03c1.079-1.788,2.16-3.469,3.239-5.081a128.5,128.5,0,0,1,12.281-15.811c50.754-55.052,108.945-1.93,144.954-38.883,35.2-36.093,101.079-36.63,130.543-3.327.556.644,1.142,1.288,1.7,2a57.724,57.724,0,0,1,10.71,20.555,67.844,67.844,0,0,1,2.543,19.813q-.015,1.131-.063,2.283a87.95,87.95,0,0,1-1.032,10.162q-.55,3.478-1.392,7.105a130.9,130.9,0,0,1-5.8,18.244q-.372.911-.741,1.825c-8.052,19.531-1.419,31.228,8.733,41.924,6.262,6.618,13.823,12.842,20.117,20.283.833,1,1.635,2,2.437,3.041.307.413.61.826.909,1.245.841,1.177,1.65,2.379,2.423,3.618q.588.964,1.135,1.958a46.548,46.548,0,0,1,2.844,6.173,44.731,44.731,0,0,1,1.461,4.7,45.378,45.378,0,0,1,1.136,6.52A57.52,57.52,0,0,1,769.77,429.174Z" transform="translate(-411.94 -216.42)" fill="#dceaff"/>
          <path id="Trazado_99466" data-name="Trazado 99466" d="M708.578,1337.368H583.308l-52.222-.035H436.647s-.055-.1-.161-.294c-.076-.139-.178-.327-.311-.566l-.051-.07v-.035s-.051-.037-.051-.072a8.371,8.371,0,0,1-.573-1,6.281,6.281,0,0,0-.366-.609v-.072l-.051-.035c-.715-1.277-1.6-2.939-2.627-4.948l-.281-.552c-.51-1.518-1.072-3.217-1.669-5.089-1.421-4.542-3.05-10.088-4.644-16.347-.624-2.469-1.248-5.044-1.838-7.728-.347-1.549-.7-3.162-1.03-4.792q-.145-.716-.287-1.433c-.613-3.051-1.189-6.193-1.709-9.4-1.021-6.287-1.827-12.838-2.28-19.478,40.563,2.158,118.756,7.838,177.571,21.4,82.992,19.132,103.5,22.221,138.658,25.654C754.621,1313.778,732.172,1326.518,708.578,1337.368Z" transform="translate(-418.038 -1105.546)" fill="#ffcf83"/>
          <g id="Grupo_53473" data-name="Grupo 53473" transform="translate(187.587 130.132)">
            <path id="Trazado_99467" data-name="Trazado 99467" d="M1676.183,1192.283l-3.036,59.372h3.036l1.366-59.372Z" transform="translate(-1654.519 -1174.171)" fill="#adc8fe"/>
            <path id="Trazado_99468" data-name="Trazado 99468" d="M1694.715,1085.791l.771,3.656,13.812-16.392Z" transform="translate(-1672.81 -1073.055)" fill="#adc8fe"/>
            <path id="Trazado_99469" data-name="Trazado 99469" d="M1706.586,1184.235l-3.726-.279,11.893,17.833Z" transform="translate(-1679.718 -1167.11)" fill="#adc8fe"/>
            <path id="Trazado_99470" data-name="Trazado 99470" d="M1569.77,1187.966l2.163-3.046-21.413.97Z" transform="translate(-1550.52 -1167.926)" fill="#adc8fe"/>
            <circle id="Elipse_3953" data-name="Elipse 3953" cx="1.67" cy="1.67" r="1.67" transform="translate(20.077 15.944) rotate(-22.5)" fill="#adc8fe"/>
          </g>
          <path id="Trazado_99471" data-name="Trazado 99471" d="M778.255,1336.947s-105.03-30.385-138.14-33.446-1.392,4.092-1.392,4.092,89.884,24.948,110.912,35.234S778.255,1336.947,778.255,1336.947Z" transform="translate(-593.009 -1137.716)" fill="#f7c274"/>
          <path id="Trazado_99472" data-name="Trazado 99472" d="M788.068,1365.32s-85.371-45.972-113.25-54.6-1.8,3.434-1.8,3.434,73.216,38.392,89.686,51.376S788.068,1365.32,788.068,1365.32Z" transform="translate(-624.316 -1141.844)" fill="#f7c274"/>
          <g id="Grupo_53474" data-name="Grupo 53474" transform="translate(107.203 144.535)">
            <path id="Trazado_99473" data-name="Trazado 99473" d="M1167.585,1265.46l-2.485,48.6h2.485l1.118-48.6Z" transform="translate(-1149.852 -1250.635)" fill="#adc8fe"/>
            <path id="Trazado_99474" data-name="Trazado 99474" d="M1182.753,1178.294l.631,2.993,11.3-13.417Z" transform="translate(-1164.824 -1167.869)" fill="#adc8fe"/>
            <path id="Trazado_99475" data-name="Trazado 99475" d="M1192.471,1258.872l-3.05-.228,9.734,14.6Z" transform="translate(-1170.479 -1244.854)" fill="#adc8fe"/>
            <path id="Trazado_99476" data-name="Trazado 99476" d="M1080.484,1261.927l1.77-2.493-17.527.794Z" transform="translate(-1064.727 -1245.524)" fill="#adc8fe"/>
            <path id="Trazado_99477" data-name="Trazado 99477" d="M1175.666,1251.014a1.366,1.366,0,1,1,1.366,1.367A1.366,1.366,0,0,1,1175.666,1251.014Z" transform="translate(-1158.813 -1237.225)" fill="#adc8fe"/>
          </g>
          <g id="Grupo_53475" data-name="Grupo 53475" transform="translate(4.171 172.597)">
            <path id="Trazado_99478" data-name="Trazado 99478" d="M792.574,1375.831q-.295,4.444-.963,9.251c-.01.073-.02.143-.032.218-.239,1.639-.506,3.318-.8,5-.279,1.756-.649,3.611-1.05,5.467-.186.9-.4,1.805-.587,2.706-.649,2.861-1.39,5.815-2.287,8.875-.279,1-.556,2.056-.866,3.061-.078.313-.168.629-.26.941H452.446c-.046-.2-.107-.457-.184-.793l-.031-.1v-.049a.243.243,0,0,1-.03-.1c-.124-.4-.217-.854-.34-1.4-.063-.252-.124-.554-.217-.854v-.1l-.03-.049c-.425-1.789-.951-4.12-1.558-6.935-.5-2.32-1.057-4.964-1.656-7.908-1.267-6.367-2.72-14.139-4.141-22.914-.556-3.46-1.113-7.07-1.639-10.832-.31-2.172-.621-4.433-.918-6.715,30.55,13.433,109.116,43.621,165.224,26.74,10.083-3.033,21.208-5.748,32.881-8.177q3.912-.816,7.9-1.586c30.266-5.863,63.355-9.925,91.083-12.725h.007l.957-.1.937-.094,1.135-.113c.785-.076,1.565-.155,2.341-.229l.3-.029q.893-.088,1.778-.173,3.268-.317,6.409-.607l1.406-.13,1.541-.143q1.033-.093,2.05-.186l1.25-.112,2.2-.2,1.069-.094c.489-.043.974-.084,1.456-.128.039,0,.078-.007.119-.01l2.344-.2.736-.063a.24.24,0,0,0,.032,0l.019,0c6.254-.536,11.869-.991,16.675-1.376.842,1.177,1.652,2.379,2.427,3.618q.589.964,1.137,1.958a46.5,46.5,0,0,1,2.848,6.174,44.574,44.574,0,0,1,1.463,4.7A45.336,45.336,0,0,1,792.574,1375.831Z" transform="translate(-441.702 -1352.594)" fill="#d9e69d"/>
            <path id="Trazado_99479" data-name="Trazado 99479" d="M1458.619,1464.351a96.867,96.867,0,0,0-32.857,41.777c-.069.162-.137.327-.2.491l-7.386-.491-2.31-.153c.223-.783,10.524-20.307,35.44-40.038Q1454.924,1465.122,1458.619,1464.351Z" transform="translate(-1254.238 -1447.374)" fill="#cddf7f"/>
            <path id="Trazado_99480" data-name="Trazado 99480" d="M1517.824,1491.677c.235-.824,12.215-23.608,41.814-44.225l2.33,2.278s-22.767,12.509-34.982,42.56Z" transform="translate(-1339.209 -1433.042)" fill="#cddf7f"/>
            <path id="Trazado_99481" data-name="Trazado 99481" d="M1658.686,1491.677c.235-.824,12.215-23.608,41.814-44.225l2.329,2.278s-22.767,12.509-34.982,42.56Z" transform="translate(-1456.691 -1433.042)" fill="#cddf7f"/>
            <path id="Trazado_99482" data-name="Trazado 99482" d="M2031.144,1397.228c-18.63,5.623-48.452,18.509-70.753,46.738h-14.277l-10.492-3.8c.666-1.286,29.1-31.028,92.883-49.115A48.334,48.334,0,0,1,2031.144,1397.228Z" transform="translate(-1682.681 -1385.212)" fill="#cddf7f"/>
          </g>
          <path id="Trazado_99483" data-name="Trazado 99483" d="M2115.109,625.343q-.017,1.131-.068,2.283a82.02,82.02,0,0,1-1.108,10.162l-44.052-.625s3.987-10.164,13.523-9.034c0,0,13.844-16.942,28.6-2.26C2112.009,625.87,2113.176,625.6,2115.109,625.343Z" transform="translate(-1792.373 -558.592)" fill="#f8fcff"/>
          <path id="Trazado_99484" data-name="Trazado 99484" d="M1644.95,392.548s2.23-5.367,7.562-4.771c0,0,7.742-8.946,16-1.193,0,0,8.776-1.921,15.275,1.663,4.333,2.39,5.764,4.9,5.764,4.9Z" transform="translate(-1441.322 -358.053)" fill="#f8fcff"/>
          <path id="Trazado_99485" data-name="Trazado 99485" d="M591,902.164s2.24-5.734,7.6-5.1c0,0,7.776-9.558,16.068-1.274,0,0,8.814-2.052,15.342,1.777,4.352,2.553,5.789,5.231,5.789,5.231Z" transform="translate(-564.149 -789.724)" fill="#f8fcff"/>
          <path id="Trazado_99486" data-name="Trazado 99486" d="M514.17,799.453s1.714-4.388,5.813-3.9c0,0,5.951-7.314,12.3-.975,0,0,6.745-1.571,11.741,1.36a11.988,11.988,0,0,1,4.431,4Z" transform="translate(-498.99 -704.557)" fill="#f8fcff"/>
          <g id="Grupo_53477" data-name="Grupo 53477" transform="translate(111.251 190.581)">
            <path id="Trazado_99487" data-name="Trazado 99487" d="M1100.3,1525.965s-5.526,21.324-5.031,23.009,3.271,7.412,3.271,7.412h-2.671a2.013,2.013,0,0,1-1.035-1.85c.044-1.322-3.7-6.477-3.7-6.477s1.469-8.186,0-11.411C1084.8,1522.761,1095.4,1522.893,1100.3,1525.965Z" transform="translate(-1088.185 -1516.185)" fill="#cca283"/>
            <path id="Trazado_99488" data-name="Trazado 99488" d="M1312.366,1583.936s-1.586,11.456-1.674,12.161-.837,1.586-.793,2.732.441,5.022,1.675,5.992a3.51,3.51,0,0,1,1.366,2.159h-3.349a4.47,4.47,0,0,1-.485-1.938c.088-.793-.925-1.63-.969-3.261s0-4.67-.441-5.728-.308-8.327-1.762-9.957S1312.366,1583.936,1312.366,1583.936Z" transform="translate(-1271.867 -1566.777)" fill="#cca283"/>
            <path id="Trazado_99489" data-name="Trazado 99489" d="M1096.2,1484.311c-.036.528-.054,1.02-.054,1.511.091,12.4,12.365,8.687,12.8,8.359a2.63,2.63,0,0,1,1.329-.291c6.137,2.441,14.733.2,16.517-.528s6.538,1.074,8.741.91c.892-.073,1.639-1,2.2-2.167a16.41,16.41,0,0,0,1.33-4.535,28.647,28.647,0,0,1,1.366-3.988c.309-.765.655-1.6,1.02-2.459.073-.146.128-.309.2-.455-.182-.2-.346-.419-.51-.638a26.752,26.752,0,0,1-2.386-4.261,21.374,21.374,0,0,0-2.8-4.608c-1.8-.565-3.952.455-4.844.4a24.907,24.907,0,0,1-2.987-.365c-.382-.072-.728-.127-1.056-.182-1.821-.273-12.857,1.147-20.651,1.366-1.6.055-3.059.036-4.28-.037-.091,0-.182-.018-.273-.018a17.976,17.976,0,0,0-5.9.309c-1,.31-1.02.692-1.02.692C1091.828,1476.371,1096.2,1484.311,1096.2,1484.311Z" transform="translate(-1092.13 -1470.982)" fill="#efcdaf"/>
            <path id="Trazado_99490" data-name="Trazado 99490" d="M1338.78,1583.936s-1.586,11.456-1.674,12.161-.838,1.586-.793,2.732.441,5.022,1.674,5.992a3.51,3.51,0,0,1,1.366,2.159H1336a4.474,4.474,0,0,1-.485-1.938c.088-.793-.925-1.63-.969-3.261s0-4.67-.441-5.728-.308-8.327-1.762-9.957S1338.78,1583.936,1338.78,1583.936Z" transform="translate(-1294.268 -1566.777)" fill="#efcdaf"/>
            <path id="Trazado_99491" data-name="Trazado 99491" d="M1123.771,1561.7s-4.461,16.554-3.965,18.239,3.271,7.413,3.271,7.413h-2.671a2.013,2.013,0,0,1-1.036-1.85c.044-1.322-3.7-6.477-3.7-6.477s-.3-9.344-2.505-12.12S1118.874,1558.633,1123.771,1561.7Z" transform="translate(-1108.212 -1547.155)" fill="#efcdaf"/>
            <g id="Grupo_53476" data-name="Grupo 53476" transform="translate(43.642 0.181)">
              <path id="Trazado_99492" data-name="Trazado 99492" d="M1481.386,1586.33c.181.243.34.415.34.415a6.792,6.792,0,0,0,.793.04,2.16,2.16,0,0,0,1.068-.291,1.344,1.344,0,0,0,.522-.622s-.151-.391-.945-.494c-.585-.076-1.158-.482-1.648-.533h0a.7.7,0,0,0-.492.117C1480.655,1585.22,1481.056,1585.89,1481.386,1586.33Z" transform="translate(-1464.029 -1567.725)" fill="#efcdaf"/>
              <path id="Trazado_99493" data-name="Trazado 99493" d="M1485.054,1594.183c.023-.01.3.043.665.041a1.725,1.725,0,0,0,1.721-.915s-.151-.391-.945-.494a.75.75,0,0,1-.083-.013c-.51-.091-1.013-.412-1.453-.5a.75.75,0,0,0-.606.1.332.332,0,0,0-.143.241C1484.138,1593.186,1485.054,1594.183,1485.054,1594.183Z" transform="translate(-1466.853 -1574.033)" fill="#efcdaf"/>
              <path id="Trazado_99494" data-name="Trazado 99494" d="M1370.006,1475.595c.219,5.682,1.275,16.554,1.931,17.519a25.468,25.468,0,0,1,3.952.437c3.278.673,4.188,1.912,4.5,2.495a14.724,14.724,0,0,0,3.788,3.915c.492.091.783.728,1.293,1.766a2.374,2.374,0,0,0,2.295,1.165,1.816,1.816,0,0,0,1.511-1.183,7.319,7.319,0,0,1-.346-2.04c.055-1.02-.6-4.061-.055-4.88a3.809,3.809,0,0,0-.036-2.422c-.109-.455-.219-.765-.219-.765a2.032,2.032,0,0,0-.164-.364c-.109-.237-.237-.51-.382-.8-.164-.346-.383-.729-.619-1.148a47.33,47.33,0,0,0-4.389-6.41,43.45,43.45,0,0,0-7.1-7.066,31.547,31.547,0,0,0-5.809-3.642C1369.969,1472.244,1369.933,1473.61,1370.006,1475.595Z" transform="translate(-1369.97 -1472.172)" fill="#efcdaf"/>
            </g>
            <path id="Trazado_99495" data-name="Trazado 99495" d="M1221.995,1510.545c-.115-.294-.056-5.278-3.654-6.3s-5.568.551-10.058-1.26-9.217-3.309-9.69-1.339.394,7.484,0,10.005,8.131,3.414,11.628,1.865S1223.26,1513.775,1221.995,1510.545Z" transform="translate(-1180.861 -1496.196)" fill="#2b478b"/>
            <path id="Trazado_99496" data-name="Trazado 99496" d="M1085.489,1486.484a9.037,9.037,0,0,0-2.724,5.534c-.394,3.545.709,19.12.709,19.12l.9-.05.965-17.232Z" transform="translate(-1082.68 -1484.129)" fill="#2b478b"/>
            <path id="Trazado_99497" data-name="Trazado 99497" d="M1088.507,1646.99s-1.943-2.091-.735-2.564.735.945.735,1.5Z" transform="translate(-1086.663 -1617.997)" fill="#2b478b"/>
            <path id="Trazado_99498" data-name="Trazado 99498" d="M1107.907,1472.637c2.258,1.111,4.753,2.131,6.228,2.167,3.223.055,11.054-1.8,14.241-2s16.1,2.786,19.14,1.821a.5.5,0,0,1,.236-.036,6.058,6.058,0,0,1,2.95,1.184c.71.455,1.493,1,2.313,1.62a148.454,148.454,0,0,1,12.183,10.89,47.348,47.348,0,0,0-4.389-6.41,43.451,43.451,0,0,0-7.1-7.066,31.581,31.581,0,0,0-5.809-3.642c-1.8-.565-3.952.455-4.844.4a24.913,24.913,0,0,1-2.987-.365c-.382-.072-.728-.127-1.056-.182-1.821-.273-12.857,1.147-20.651,1.366-1.6.055-3.059.036-4.28-.037-.091,0-.182-.018-.272-.018A17.976,17.976,0,0,0,1107.907,1472.637Z" transform="translate(-1104.075 -1470.982)" fill="#ffe7d7"/>
            <path id="Trazado_99499" data-name="Trazado 99499" d="M1176.736,1472.42c1.409,1.149,4.113,1.608,7.934.9,4.648-.866,5.751,1.182,9.611,1.339a3.844,3.844,0,0,0,4.156-3.42c-.375-.062-.731-.123-1.061-.173C1195.567,1470.788,1184.522,1472.2,1176.736,1472.42Z" transform="translate(-1162.448 -1471.02)" fill="#2b478b"/>
            <path id="Trazado_99500" data-name="Trazado 99500" d="M1404.5,1501.373a8.1,8.1,0,0,0,.309,1.093,9,9,0,0,0,.6,1.183c2.058,3.278.109,7.212-.364,10.235,3.278.673,4.188,1.911,4.5,2.494a14.718,14.718,0,0,0,3.788,3.916c.491.09.783.728,1.293,1.766a2.373,2.373,0,0,0,2.295,1.165,1.817,1.817,0,0,0,1.512-1.184,7.31,7.31,0,0,1-.346-2.039c.055-1.02-.6-4.061-.055-4.881a3.809,3.809,0,0,0-.036-2.422,1.747,1.747,0,0,0,1.73-.91s-.164-.4-.947-.51h-.091a1.428,1.428,0,0,0,.528-.637s-.164-.382-.947-.492c-.583-.073-1.166-.474-1.657-.528a47.323,47.323,0,0,0-4.389-6.41,43.433,43.433,0,0,0-7.1-7.066,10.877,10.877,0,0,0-.692,2.586A8.063,8.063,0,0,0,1404.5,1501.373Z" transform="translate(-1355.491 -1492.324)" fill="#2b478b"/>
            <path id="Trazado_99501" data-name="Trazado 99501" d="M1096.2,1491.416c-.035.529-.049,1.031-.045,1.51,4,2.966,11.012,1.469,11.539-2.1.607-4.11-4.917-4.69-4.512-8.077a3.961,3.961,0,0,0-1.314-3.313c-6.858-.407-6.923,1.008-6.923,1.008C1091.836,1483.486,1096.2,1491.416,1096.2,1491.416Z" transform="translate(-1092.132 -1478.09)" fill="#2b478b"/>
          </g>
          <g id="Grupo_53515" data-name="Grupo 53515" transform="translate(58.122 47.914)">
            <path id="Rectángulo_5067" data-name="Rectángulo 5067" d="M53.009,0h53.41a53.009,53.009,0,0,1,53.009,53.009v0a53.009,53.009,0,0,1-53.009,53.009H53.009A53.009,53.009,0,0,1,0,53.009v0A53.009,53.009,0,0,1,53.009,0Z" fill="#f8fcff" opacity="0.71"/>
            <g id="Grupo_53478" data-name="Grupo 53478" transform="translate(113.644 4.248)">
              <path id="Trazado_99502" data-name="Trazado 99502" d="M1495.887,566.9a1.906,1.906,0,1,1,1.906,1.906A1.906,1.906,0,0,1,1495.887,566.9Z" transform="translate(-1495.887 -564.204)" fill="#aec3ff"/>
              <path id="Trazado_99503" data-name="Trazado 99503" d="M1561.016,566.9a1.906,1.906,0,1,1,1.906,1.906A1.906,1.906,0,0,1,1561.016,566.9Z" transform="translate(-1551.122 -564.204)" fill="#aec3ff"/>
              <circle id="Elipse_3954" data-name="Elipse 3954" cx="1.906" cy="1.906" r="1.906" transform="translate(19.316 2.696) rotate(-45)" fill="#f99746"/>
            </g>
            <g id="Grupo_53481" data-name="Grupo 53481" transform="translate(15.135 83.998)">
              <g id="Grupo_53479" data-name="Grupo 53479">
                <path id="Trazado_99504" data-name="Trazado 99504" d="M891.806,1098.9H847.42v-14.124h44.386Zm-43.841-.545h43.3v-13.035h-43.3Z" transform="translate(-847.42 -1084.776)" fill="#aec3ff"/>
              </g>
              <g id="Grupo_53480" data-name="Grupo 53480" transform="translate(3.216 3.795)">
                <rect id="Rectángulo_5068" data-name="Rectángulo 5068" width="17.169" height="1.119" fill="#aec3ff"/>
                <rect id="Rectángulo_5069" data-name="Rectángulo 5069" width="12.183" height="1.119" transform="translate(18.977)" fill="#aec3ff"/>
                <rect id="Rectángulo_5070" data-name="Rectángulo 5070" width="9.475" height="1.119" transform="translate(0 3.197)" fill="#aec3ff"/>
                <rect id="Rectángulo_5071" data-name="Rectángulo 5071" width="12.183" height="1.119" transform="translate(11.078 3.197)" fill="#aec3ff"/>
                <rect id="Rectángulo_5072" data-name="Rectángulo 5072" width="12.183" height="1.119" transform="translate(24.522 3.197)" fill="#aec3ff"/>
              </g>
            </g>
            <g id="Grupo_53484" data-name="Grupo 53484" transform="translate(88.254 83.998)">
              <g id="Grupo_53482" data-name="Grupo 53482">
                <path id="Trazado_99505" data-name="Trazado 99505" d="M1350.72,1091.769h-21.975v-6.992h21.975Zm-21.705-.27h21.435v-6.453h-21.435Z" transform="translate(-1328.746 -1084.776)" fill="#aec3ff"/>
              </g>
              <g id="Grupo_53483" data-name="Grupo 53483" transform="translate(1.592 1.879)">
                <rect id="Rectángulo_5073" data-name="Rectángulo 5073" width="8.5" height="0.554" fill="#aec3ff"/>
                <rect id="Rectángulo_5074" data-name="Rectángulo 5074" width="6.031" height="0.554" transform="translate(9.395)" fill="#aec3ff"/>
                <rect id="Rectángulo_5075" data-name="Rectángulo 5075" width="4.691" height="0.554" transform="translate(0 1.583)" fill="#aec3ff"/>
                <rect id="Rectángulo_5076" data-name="Rectángulo 5076" width="6.031" height="0.554" transform="translate(5.484 1.583)" fill="#aec3ff"/>
                <rect id="Rectángulo_5077" data-name="Rectángulo 5077" width="6.031" height="0.554" transform="translate(12.14 1.583)" fill="#aec3ff"/>
              </g>
            </g>
            <g id="Grupo_53487" data-name="Grupo 53487" transform="translate(114.457 83.998)">
              <g id="Grupo_53485" data-name="Grupo 53485">
                <path id="Trazado_99506" data-name="Trazado 99506" d="M1523.211,1091.769h-21.975v-6.992h21.975Zm-21.705-.27h21.435v-6.453h-21.435Z" transform="translate(-1501.236 -1084.776)" fill="#aec3ff"/>
              </g>
              <g id="Grupo_53486" data-name="Grupo 53486" transform="translate(1.592 1.879)">
                <rect id="Rectángulo_5078" data-name="Rectángulo 5078" width="8.5" height="0.554" fill="#aec3ff"/>
                <rect id="Rectángulo_5079" data-name="Rectángulo 5079" width="6.031" height="0.554" transform="translate(9.395)" fill="#aec3ff"/>
                <rect id="Rectángulo_5080" data-name="Rectángulo 5080" width="4.691" height="0.554" transform="translate(0 1.583)" fill="#aec3ff"/>
                <rect id="Rectángulo_5081" data-name="Rectángulo 5081" width="6.031" height="0.554" transform="translate(5.485 1.583)" fill="#aec3ff"/>
                <rect id="Rectángulo_5082" data-name="Rectángulo 5082" width="6.031" height="0.554" transform="translate(12.14 1.583)" fill="#aec3ff"/>
              </g>
            </g>
            <g id="Grupo_53490" data-name="Grupo 53490" transform="translate(88.254 52.897)">
              <g id="Grupo_53488" data-name="Grupo 53488">
                <path id="Trazado_99507" data-name="Trazado 99507" d="M1350.72,887.037h-21.975v-6.993h21.975Zm-21.705-.27h21.435v-6.453h-21.435Z" transform="translate(-1328.746 -880.045)" fill="#aec3ff"/>
              </g>
              <g id="Grupo_53489" data-name="Grupo 53489" transform="translate(1.592 1.879)">
                <rect id="Rectángulo_5083" data-name="Rectángulo 5083" width="8.5" height="0.554" fill="#aec3ff"/>
                <rect id="Rectángulo_5084" data-name="Rectángulo 5084" width="6.031" height="0.554" transform="translate(9.395)" fill="#aec3ff"/>
                <rect id="Rectángulo_5085" data-name="Rectángulo 5085" width="4.691" height="0.554" transform="translate(0 1.583)" fill="#aec3ff"/>
                <rect id="Rectángulo_5086" data-name="Rectángulo 5086" width="6.031" height="0.554" transform="translate(5.484 1.583)" fill="#aec3ff"/>
                <rect id="Rectángulo_5087" data-name="Rectángulo 5087" width="6.031" height="0.554" transform="translate(12.14 1.583)" fill="#aec3ff"/>
              </g>
            </g>
            <g id="Grupo_53493" data-name="Grupo 53493" transform="translate(114.457 52.897)">
              <g id="Grupo_53491" data-name="Grupo 53491">
                <path id="Trazado_99508" data-name="Trazado 99508" d="M1523.211,887.037h-21.975v-6.993h21.975Zm-21.705-.27h21.435v-6.453h-21.435Z" transform="translate(-1501.236 -880.045)" fill="#aec3ff"/>
              </g>
              <g id="Grupo_53492" data-name="Grupo 53492" transform="translate(1.592 1.879)">
                <rect id="Rectángulo_5088" data-name="Rectángulo 5088" width="8.5" height="0.554" fill="#aec3ff"/>
                <rect id="Rectángulo_5089" data-name="Rectángulo 5089" width="6.031" height="0.554" transform="translate(9.395)" fill="#aec3ff"/>
                <rect id="Rectángulo_5090" data-name="Rectángulo 5090" width="4.691" height="0.554" transform="translate(0 1.583)" fill="#aec3ff"/>
                <rect id="Rectángulo_5091" data-name="Rectángulo 5091" width="6.031" height="0.554" transform="translate(5.485 1.583)" fill="#aec3ff"/>
                <rect id="Rectángulo_5092" data-name="Rectángulo 5092" width="6.031" height="0.554" transform="translate(12.14 1.583)" fill="#aec3ff"/>
              </g>
            </g>
            <g id="Grupo_53496" data-name="Grupo 53496" transform="translate(88.254 25.825)">
              <g id="Grupo_53494" data-name="Grupo 53494">
                <path id="Trazado_99509" data-name="Trazado 99509" d="M1350.72,708.824h-21.975v-6.992h21.975Zm-21.705-.27h21.435V702.1h-21.435Z" transform="translate(-1328.746 -701.832)" fill="#aec3ff"/>
              </g>
              <g id="Grupo_53495" data-name="Grupo 53495" transform="translate(1.592 1.879)">
                <rect id="Rectángulo_5093" data-name="Rectángulo 5093" width="8.5" height="0.554" fill="#aec3ff"/>
                <rect id="Rectángulo_5094" data-name="Rectángulo 5094" width="6.031" height="0.554" transform="translate(9.395)" fill="#aec3ff"/>
                <rect id="Rectángulo_5095" data-name="Rectángulo 5095" width="4.691" height="0.554" transform="translate(0 1.583)" fill="#aec3ff"/>
                <rect id="Rectángulo_5096" data-name="Rectángulo 5096" width="6.031" height="0.554" transform="translate(5.484 1.583)" fill="#aec3ff"/>
                <rect id="Rectángulo_5097" data-name="Rectángulo 5097" width="6.031" height="0.554" transform="translate(12.14 1.583)" fill="#aec3ff"/>
              </g>
            </g>
            <g id="Grupo_53499" data-name="Grupo 53499" transform="translate(114.457 25.825)">
              <g id="Grupo_53497" data-name="Grupo 53497">
                <path id="Trazado_99510" data-name="Trazado 99510" d="M1523.211,708.824h-21.975v-6.992h21.975Zm-21.705-.27h21.435V702.1h-21.435Z" transform="translate(-1501.236 -701.832)" fill="#aec3ff"/>
              </g>
              <g id="Grupo_53498" data-name="Grupo 53498" transform="translate(1.592 1.879)">
                <rect id="Rectángulo_5098" data-name="Rectángulo 5098" width="8.5" height="0.554" fill="#aec3ff"/>
                <rect id="Rectángulo_5099" data-name="Rectángulo 5099" width="6.031" height="0.554" transform="translate(9.395)" fill="#aec3ff"/>
                <rect id="Rectángulo_5100" data-name="Rectángulo 5100" width="4.691" height="0.554" transform="translate(0 1.583)" fill="#aec3ff"/>
                <rect id="Rectángulo_5101" data-name="Rectángulo 5101" width="6.031" height="0.554" transform="translate(5.485 1.583)" fill="#aec3ff"/>
                <rect id="Rectángulo_5102" data-name="Rectángulo 5102" width="6.031" height="0.554" transform="translate(12.14 1.583)" fill="#aec3ff"/>
              </g>
            </g>
            <g id="Grupo_53507" data-name="Grupo 53507" transform="translate(67.055 12.384)">
              <g id="Grupo_53504" data-name="Grupo 53504">
                <path id="Trazado_99511" data-name="Trazado 99511" d="M1233.451,659.2a2.486,2.486,0,1,1,2.486,2.486A2.486,2.486,0,0,1,1233.451,659.2Z" transform="translate(-1226.728 -650.125)" fill="#f99746"/>
                <g id="Grupo_53503" data-name="Grupo 53503">
                  <rect id="Rectángulo_5103" data-name="Rectángulo 5103" width="1.039" height="5.437" rx="0.52" transform="translate(8.744)" fill="#f99746"/>
                  <rect id="Rectángulo_5104" data-name="Rectángulo 5104" width="1.039" height="5.437" rx="0.52" transform="translate(8.744 12.868)" fill="#f99746"/>
                  <g id="Grupo_53500" data-name="Grupo 53500" transform="translate(1.723 3.497)">
                    <path id="Trazado_99512" data-name="Trazado 99512" d="M1269.044,686.665l.142-.2a.4.4,0,0,1,.557-.087l3.748,2.734a.4.4,0,0,1,.087.557l-.142.2a.4.4,0,0,1-.557.087l-3.748-2.735A.4.4,0,0,1,1269.044,686.665Z" transform="translate(-1258.573 -678.721)" fill="#f99746"/>
                    <path id="Trazado_99513" data-name="Trazado 99513" d="M1200.614,636.734l.143-.2a.4.4,0,0,1,.557-.087l3.748,2.734a.4.4,0,0,1,.087.557l-.143.2a.4.4,0,0,1-.557.087l-3.747-2.735A.4.4,0,0,1,1200.614,636.734Z" transform="translate(-1200.538 -636.375)" fill="#f99746"/>
                  </g>
                  <g id="Grupo_53501" data-name="Grupo 53501" transform="translate(2.203 2.831)">
                    <path id="Trazado_99514" data-name="Trazado 99514" d="M1207.854,688.573l.161.18a.4.4,0,0,1-.032.563l-3.459,3.092a.4.4,0,0,1-.563-.031l-.161-.18a.4.4,0,0,1,.032-.563l3.459-3.092A.4.4,0,0,1,1207.854,688.573Z" transform="translate(-1203.7 -679.865)" fill="#f99746"/>
                    <path id="Trazado_99515" data-name="Trazado 99515" d="M1271.013,632.122l.161.18a.4.4,0,0,1-.031.563l-3.459,3.092a.4.4,0,0,1-.563-.032l-.161-.18a.4.4,0,0,1,.032-.563l3.459-3.092A.4.4,0,0,1,1271.013,632.122Z" transform="translate(-1257.264 -631.99)" fill="#f99746"/>
                  </g>
                  <g id="Grupo_53502" data-name="Grupo 53502" transform="translate(0 8.454)">
                    <path id="Trazado_99516" data-name="Trazado 99516" d="M1194.637,669.461l0,.242a.4.4,0,0,1-.4.394l-4.639-.052a.4.4,0,0,1-.394-.4l0-.242a.4.4,0,0,1,.4-.394l4.639.052A.4.4,0,0,1,1194.637,669.461Z" transform="translate(-1189.198 -669.006)" fill="#f99746"/>
                    <path id="Rectángulo_5105" data-name="Rectángulo 5105" d="M.52,0h0a.519.519,0,0,1,.519.519v4.4a.52.52,0,0,1-.52.52h0A.52.52,0,0,1,0,4.917V.52A.52.52,0,0,1,.52,0Z" transform="matrix(0.011, -1, 1, 0.011, 12.863, 1.18)" fill="#f99746"/>
                  </g>
                </g>
              </g>
              <g id="Grupo_53506" data-name="Grupo 53506" transform="translate(21.199 6.649)">
                <g id="Grupo_53505" data-name="Grupo 53505">
                  <path id="Trazado_99517" data-name="Trazado 99517" d="M1378.289,661.143h-49.543v-4.018h49.543Zm-49.073-.47h48.6V657.6h-48.6Z" transform="translate(-1328.746 -657.125)" fill="#aec3ff"/>
                </g>
                <rect id="Rectángulo_5106" data-name="Rectángulo 5106" width="38.456" height="3.548" transform="translate(0.235 0.235)" fill="#aec3ff"/>
              </g>
            </g>
            <g id="Grupo_53510" data-name="Grupo 53510" transform="translate(72.882 39.941)">
              <path id="Trazado_99518" data-name="Trazado 99518" d="M1227.554,804.12c0-3.246,4.979-9.367,4.979-9.367s4.979,6.121,4.979,9.367-2.229,5.878-4.979,5.878S1227.554,807.367,1227.554,804.12Z" transform="translate(-1227.554 -794.753)" fill="#aec3ff"/>
              <g id="Grupo_53509" data-name="Grupo 53509" transform="translate(15.372 5.614)">
                <g id="Grupo_53508" data-name="Grupo 53508">
                  <path id="Trazado_99519" data-name="Trazado 99519" d="M1378.289,835.726h-49.543v-4.018h49.543Zm-49.073-.47h48.6v-3.078h-48.6Z" transform="translate(-1328.746 -831.708)" fill="#f99746"/>
                </g>
                <rect id="Rectángulo_5107" data-name="Rectángulo 5107" width="23.501" height="3.548" transform="translate(0.235 0.235)" fill="#f99746"/>
              </g>
            </g>
            <g id="Grupo_53513" data-name="Grupo 53513" transform="translate(75.622 68.325)">
              <path id="Trazado_99520" data-name="Trazado 99520" d="M1249.957,994.6v-13h-2.805v13a2.96,2.96,0,1,0,2.805,0Z" transform="translate(-1245.595 -981.605)" fill="#aec3ff"/>
              <g id="Grupo_53512" data-name="Grupo 53512" transform="translate(12.632 7.273)">
                <g id="Grupo_53511" data-name="Grupo 53511">
                  <path id="Trazado_99521" data-name="Trazado 99521" d="M1378.289,1033.5h-49.543v-4.018h49.543Zm-49.073-.47h48.6v-3.077h-48.6Z" transform="translate(-1328.746 -1029.479)" fill="#aec3ff"/>
                </g>
                <rect id="Rectángulo_5108" data-name="Rectángulo 5108" width="32.244" height="3.547" transform="translate(0.235 0.235)" fill="#aec3ff"/>
              </g>
              <path id="Trazado_99522" data-name="Trazado 99522" d="M1252.44,1073.516a1.92,1.92,0,1,1,1.92,1.92A1.919,1.919,0,0,1,1252.44,1073.516Z" transform="translate(-1251.4 -1057.926)" fill="#f99746"/>
              <rect id="Rectángulo_5109" data-name="Rectángulo 5109" width="1.144" height="6.014" transform="translate(2.345 8.715)" fill="#f99746"/>
            </g>
            <g id="Grupo_53514" data-name="Grupo 53514" transform="translate(15.408 59.174)">
              <rect id="Rectángulo_5110" data-name="Rectángulo 5110" width="4.629" height="6.436" transform="translate(0 14.077)" fill="#aec3ff"/>
              <rect id="Rectángulo_5111" data-name="Rectángulo 5111" width="4.629" height="10.702" transform="translate(7.93 9.811)" fill="#aec3ff"/>
              <rect id="Rectángulo_5112" data-name="Rectángulo 5112" width="4.629" height="14.198" transform="translate(15.859 6.315)" fill="#f99746"/>
              <rect id="Rectángulo_5113" data-name="Rectángulo 5113" width="4.629" height="11.361" transform="translate(23.789 9.152)" fill="#aec3ff"/>
              <rect id="Rectángulo_5114" data-name="Rectángulo 5114" width="4.629" height="17.407" transform="translate(31.719 3.106)" fill="#aec3ff"/>
              <rect id="Rectángulo_5115" data-name="Rectángulo 5115" width="4.629" height="20.513" transform="translate(39.648)" fill="#f99746"/>
            </g>
            <rect id="Rectángulo_5116" data-name="Rectángulo 5116" width="4.826" height="0.443" transform="translate(31.959 37.742)" fill="#fff"/>
            <rect id="Rectángulo_5117" data-name="Rectángulo 5117" width="3.021" height="0.443" transform="translate(31.959 38.756)" fill="#fff"/>
          </g>
          <g id="Grupo_53526" data-name="Grupo 53526" transform="translate(200.765 23.888)">
            <path id="Trazado_99523" data-name="Trazado 99523" d="M2282.442,777.12s18.524,21.053,24.987,34.047c0,0-7.77,16.919-32.962,30.664a8.734,8.734,0,0,1-2.828-1.466c-2.666-1.9.288-3.3.871-3.676,6.391-4.14,17.558-21.972,17.881-23.519s-14-15.425-18.348-20.556S2275.677,774.477,2282.442,777.12Z" transform="translate(-2163.315 -715.534)" fill="#ffb27d"/>
            <path id="Trazado_99524" data-name="Trazado 99524" d="M1699.669,775.153s-24.245,23.082-29.851,22.47-27.535-5.908-27.535-5.908l-1.828,4.2s22,12.919,32.572,12.734,24.4-10.253,24.4-10.253Z" transform="translate(-1628.945 -714.163)" fill="#ffb27d"/>
            <path id="Trazado_99525" data-name="Trazado 99525" d="M2070.5,575.27s.12,2.6-1.436,3.1,1.6,6.109,1.356,9.892-1.922,5.3-1.922,5.3a6.213,6.213,0,0,0,.355-3.368,5.12,5.12,0,0,1-1.883,4.027c-1.954,1.35-1.429,2.517-1.429,2.517s-4.417-1.323-4.541-4.636a8.755,8.755,0,0,0-.037,2.118s-3.813-2.864-4-6.163,3-6.084,4.453-6.135,4.686-2.9,4.6-3.974S2070.5,575.27,2070.5,575.27Z" transform="translate(-1982.182 -544.645)" fill="#2c3a64"/>
            <ellipse id="Elipse_3955" data-name="Elipse 3955" cx="8.461" cy="21.717" rx="8.461" ry="21.717" transform="matrix(0.55, -0.835, 0.835, 0.55, 71.461, 19.148)" fill="#e2af64"/>
            <path id="Trazado_99526" data-name="Trazado 99526" d="M1996.076,1256.773c-2.778,14.724-6.356,34.754-9.116,50.424-.327,1.85-.642,3.638-.944,5.349-.068.4-.137.789-.205,1.175h-27.594q-.058-.59-.111-1.175a205.192,205.192,0,0,1-.3-34.94c.3-3.8.687-7.3,1.12-10.475,1.815-18.755,2.425-26.7,2.61-29.331l.039-.579c0-.036,0-.068.006-.1l.006-.088c0-.053.008-.1.01-.141l.006-.115c0-.039,0-.057,0-.057l9.406,2.8,4.6,1.369,1.085,3.446,2.169,6.89,15.748,5.081Z" transform="translate(-1897.578 -1105.615)" fill="#364a6b"/>
            <path id="Trazado_99527" data-name="Trazado 99527" d="M2051.963,1233.635c-.476,7.65-1.259,34.625-2.134,52.064q-.03.6-.059,1.175h-28.608q-.133-.584-.265-1.175c-3.037-13.657-5.524-28.992-7.3-41.438-.314.014-3.58-22.229-11.764-32.035-.074-.088-.084-.158-.039-.211.405-.521,5.6.38,5.6.38a11.625,11.625,0,0,0,1.416.278c3.928.539,9.631-.329,15.289-1.649h0c1.529-.357,3.053-.746,4.539-1.149,4.19-1.138,8.068-2.387,10.835-3.327.688-.233,1.3-.448,1.84-.636.435-.153.816-.29,1.138-.4h0c.772-.278,1.2-.441,1.2-.441s.194.17.525.523a27.861,27.861,0,0,1,5.618,9.886A46.239,46.239,0,0,1,2051.963,1233.635Z" transform="translate(-1935.367 -1078.768)" fill="#516e9f"/>
            <path id="Trazado_99528" data-name="Trazado 99528" d="M2102.87,401.729l18.006,27.32s2.059-4.033,4.346-2.586c3.567,2.254,11.23-5.461,9.632-16.354-.106-.712-.231-1.389-.369-2.032-3.592-5.176-7.583-10.94-10.446-14.991C2115.771,388.091,2102.87,401.729,2102.87,401.729Z" transform="translate(-2021.115 -389.204)" fill="#2c3a64"/>
            <path id="Trazado_99529" data-name="Trazado 99529" d="M2050.777,650.229a30.751,30.751,0,0,0,10.034,5.981c15.9,6.025,24.079-6.994,27.737-16.2a14.237,14.237,0,0,0-5.33-2.465c-.934-.241-1.912-.458-2.791-.633a1.772,1.772,0,0,1-1.138-.753c-1.517-2.289-3.051-8.088-2.5-16.24l-.8.1-13.421,1.782s.034,4.193-.2,8.12a40.262,40.262,0,0,1-.49,4.563,2.7,2.7,0,0,1-2.4,2.2h0a.037.037,0,0,1-.009.011A84.124,84.124,0,0,0,2050.777,650.229Z" transform="translate(-1976.935 -582.514)" fill="#ffb27d"/>
            <path id="Trazado_99530" data-name="Trazado 99530" d="M2127.255,622.394s.036,4.19-.2,8.12c7.43.263,11.78-6.253,13.625-9.9Z" transform="translate(-2041.622 -583.1)" fill="#ed985f"/>
            <path id="Trazado_99531" data-name="Trazado 99531" d="M2084.486,492.422s17.529,1.406,18.237-9.523,3.446-18.109-7.716-19.469-13.608,2.67-14.732,6.26S2079.945,491.775,2084.486,492.422Z" transform="translate(-2001.566 -449.565)" fill="#ffb27d"/>
            <path id="Trazado_99532" data-name="Trazado 99532" d="M2075.63,451.641c2.922-3.115,4.926-2.263,6.011-1.2a12.289,12.289,0,0,1,15.61,3.527,20.923,20.923,0,0,0,6.045,12.77s-3.324,1.772-10.577-.593a12.559,12.559,0,0,1-5.71-4.5,41.035,41.035,0,0,0,6.5,9.054c-8.547-4.632-11.3-17.106-11.574-18.424-1.133.894-3.377,2.849-4.151,4.856-1.052,2.728-1.811,8.433-3.468,8.132C2074.313,465.259,2071.248,456.313,2075.63,451.641Z" transform="translate(-1996.012 -437.56)" fill="#2c3a64"/>
            <path id="Trazado_99533" data-name="Trazado 99533" d="M2152.655,399.952s8.152-16.226-3.24-22.641-19.729-3.9-26,3.949Z" transform="translate(-2038.542 -373.669)" fill="#edbd77"/>
            <path id="Trazado_99534" data-name="Trazado 99534" d="M1981.212,762.766c.624.65,1.014,1.017,1.014,1.017,13.278-1.653,13.9-15.288,13.9-15.288s-10.393-13.706-20.1-16.721a50.961,50.961,0,0,0-5.9-1.28c-3.036,2.518-6.533,6.207-9.822,9.207-3.793,3.459-10.319,4.634-12.734-1.5-.967-2.457,1.359-7.558,1.6-7.924a.051.051,0,0,0,.008-.013c-.249.016-.491.035-.729.051-1.19.1-2.262.24-3.235.338-4.735.475-11.276,3.613-24.493,20.342,0,0,7.141,8.82,14.4,9.333-.291,13.973,1.209,36.732,1.209,36.732-3.169,6.232,43.914,20.668,45.946,14.724,3.048-4.65.006-13.554-2.628-20.378-.646-1.666-.788-3.441-1.363-4.73a15.447,15.447,0,0,1-.877-2.547,15.083,15.083,0,0,1-.152-6.692A143.989,143.989,0,0,1,1981.212,762.766Z" transform="translate(-1866.634 -676.091)" fill="#efb75b"/>
            <path id="Trazado_99535" data-name="Trazado 99535" d="M2056.911,416.323q-.513-.529-1.059-1.063l0,0a78.2,78.2,0,0,0-13.14-10.156,81.533,81.533,0,0,0-12.132-6.273h0q-1.148-.473-2.265-.879c-8.87-3.244-16.018-3.491-18.182-.023-2.283,3.658,1.58,10.469,9.146,17.379v0c-.006-.061-.014-.119-.019-.178s-.01-.119-.016-.18-.012-.139-.017-.21c0-.051-.008-.1-.012-.155,0-.086-.01-.172-.016-.261-.006-.109-.012-.219-.016-.331,0-.012,0-.025,0-.039,0-.08-.006-.163-.008-.245v-.076c0-.053,0-.106,0-.161,0-.192,0-.388,0-.581,0-.069,0-.139.006-.208,0-.039,0-.078,0-.118,0-.065.005-.129.011-.192.006-.119.014-.237.023-.354s.022-.235.034-.354c0-.006,0-.014,0-.02,0-.043.009-.086.014-.127s.006-.055.009-.08c.012-.082.022-.165.034-.247.017-.135.039-.268.065-.4l.011-.067c.028-.159.059-.315.1-.472.015-.078.035-.157.055-.233l.006-.029c-.809-1.7-.955-3.176-.3-4.233.764-1.226,2.5-1.721,4.862-1.566h0c.064,0,.129.01.2.016h0a18.98,18.98,0,0,1,2.839.456h0c.239.055.48.114.727.178.892.235,1.831.527,2.8.877h.012a49.943,49.943,0,0,1,9.306,4.607c1.333.832,2.6,1.7,3.776,2.577h0l.351.264c5.456,4.139,9.062,8.586,9.474,11.658a3.115,3.115,0,0,1-.376,2.128,1.527,1.527,0,0,1-.1.137.161.161,0,0,1-.012.02,2.865,2.865,0,0,1-.949.816s0,0,0,0a1.74,1.74,0,0,1-.16.084s0,0,0,0a5.016,5.016,0,0,1-1.39.423h0c-.051.041-.1.08-.152.119s-.077.059-.115.086l-.114.082a.345.345,0,0,0-.035.025c-.067.043-.132.088-.2.131-.1.067-.2.129-.307.19-.051.029-.1.059-.153.086s-.1.055-.153.08c-.068.035-.135.068-.2.1a.651.651,0,0,1-.076.035l-.077.033s0,0,0,0l-.018.008-.094.039c-.047.018-.092.037-.139.053s-.115.043-.172.061-.11.035-.163.049l-.015.006c-.045.012-.088.024-.133.033a.362.362,0,0,1-.049.014c-.041.01-.082.02-.125.027s-.1.019-.155.027c-.031.006-.062.01-.094.014s-.075.01-.111.013-.1.01-.145.012a.573.573,0,0,1-.059,0h-.023a.264.264,0,0,1-.038,0h-.013a.407.407,0,0,1-.051,0,3.03,3.03,0,0,1-.378-.023,2.784,2.784,0,0,1-.362-.073c-.059-.018-.118-.035-.174-.055s-.086-.033-.127-.051a.941.941,0,0,1-.094-.041c-.026-.012-.051-.023-.076-.037a.475.475,0,0,1-.066-.035c-.045-.023-.088-.049-.131-.076a2.152,2.152,0,0,0-.269-.145c-.029-.014-.059-.026-.086-.037l-.035-.014a1.113,1.113,0,0,0-.13-.043,1.755,1.755,0,0,0-.5-.074h-.024a.05.05,0,0,0-.017,0h-.024c-.022,0-.041,0-.062,0a.292.292,0,0,0-.041,0c-.037,0-.072.008-.108.014l-.011,0a.409.409,0,0,0-.049.01.58.58,0,0,0-.084.018c-.027.006-.054.014-.084.022a.893.893,0,0,0-.1.029l-.065.023a1.007,1.007,0,0,0-.1.037h0c-.026.01-.049.02-.075.031s-.047.022-.068.033-.053.028-.08.041l-.076.041-.079.047-.074.047c-.026.016-.051.031-.076.049a.642.642,0,0,0-.075.053c-.049.033-.1.07-.145.11a.637.637,0,0,0-.071.057c-.023.02-.047.039-.071.061-.047.039-.092.08-.137.121s-.09.082-.133.127c-.022.022-.043.043-.065.066l-.063.065c-.025.024-.047.047-.068.071h0q1.286.532,2.531.983a46.009,46.009,0,0,0,7.423,2.067c5.234.942,9.152.329,10.658-2.083C2065.489,427.995,2062.744,422.342,2056.911,416.323Z" transform="translate(-1941.909 -392.116)" fill="#ffcf83"/>
            <path id="Trazado_99536" data-name="Trazado 99536" d="M2236.443,966.665c6.781,2.173,3.615-1.545,8.853-1.167-.645-1.666-1.123-3.175-1.7-4.463a15.417,15.417,0,0,1-.877-2.548,15.091,15.091,0,0,1-.151-6.692,130.288,130.288,0,0,1,3.961-14.667c-1.5-3.937-7.894,2.518-7.894,2.518s-5.922,6.221-4.372,16.8C2235.71,966.3,2230.592,964.79,2236.443,966.665Z" transform="translate(-2131.953 -850.453)" fill="#eba63f"/>
            <path id="Trazado_99537" data-name="Trazado 99537" d="M2189.582,736.042a34.81,34.81,0,0,0-13.75,21.75l-3.311-1.052s1.395-10.63,14.061-21.445c0,0,.954.189,1.274.269C2188.287,735.671,2189.582,736.042,2189.582,736.042Z" transform="translate(-2080.185 -680.36)" fill="#516e9f"/>
            <path id="Trazado_99538" data-name="Trazado 99538" d="M2030.253,754.188l3.467.228a35.173,35.173,0,0,1,7.623-23.811c-1.19.1-2.268.21-3.235.338C2031.07,741.687,2030.253,754.188,2030.253,754.188Z" transform="translate(-1959.529 -676.382)" fill="#516e9f"/>
            <path id="Trazado_99539" data-name="Trazado 99539" d="M2017.092,859.137c.214-.911,2.336-9.767,2.336-9.767s.489-2.769-4.376-3.042-22.126-1.183-22.126-1.183a5.378,5.378,0,0,0-2.387,4.333c-.035,2.913-2.383,19.579-2.383,19.579l-2.416,36.652,52.635,22.68s3.609-18.525-.432-31.437c-2.357-7.531-5.4-15.393-5.4-15.393S2013.816,873.054,2017.092,859.137Z" transform="translate(-1921.776 -773.522)" fill="#516e9f"/>
            <g id="Grupo_53517" data-name="Grupo 53517" transform="translate(92.694 74.171)">
              <g id="Grupo_53516" data-name="Grupo 53516">
                <path id="Trazado_99540" data-name="Trazado 99540" d="M2179.359,864.341a1.454,1.454,0,1,0-1.826.946A1.454,1.454,0,0,0,2179.359,864.341Z" transform="translate(-2176.271 -862.368)" fill="#ed7d2b"/>
                <path id="Trazado_99541" data-name="Trazado 99541" d="M2177.72,863.821a1.454,1.454,0,1,0-1.825.946A1.453,1.453,0,0,0,2177.72,863.821Z" transform="translate(-2174.88 -861.926)" fill="#f99746"/>
              </g>
              <path id="Trazado_99542" data-name="Trazado 99542" d="M2188.026,870.314a.211.211,0,1,0-.21.212A.211.211,0,0,0,2188.026,870.314Z" transform="translate(-2185.671 -868.861)" fill="#2b478b"/>
              <path id="Trazado_99543" data-name="Trazado 99543" d="M2178.945,870.328a.211.211,0,1,0-.211.212A.212.212,0,0,0,2178.945,870.328Z" transform="translate(-2177.969 -868.872)" fill="#2b478b"/>
            </g>
            <g id="Grupo_53519" data-name="Grupo 53519" transform="translate(71.292 72.324)">
              <g id="Grupo_53518" data-name="Grupo 53518">
                <path id="Trazado_99544" data-name="Trazado 99544" d="M2038.473,852.181a1.454,1.454,0,1,0-1.826.945A1.454,1.454,0,0,0,2038.473,852.181Z" transform="translate(-2035.384 -850.207)" fill="#ed7d2b"/>
                <path id="Trazado_99545" data-name="Trazado 99545" d="M2036.834,851.661a1.454,1.454,0,1,0-1.826.946A1.454,1.454,0,0,0,2036.834,851.661Z" transform="translate(-2033.994 -849.766)" fill="#f99746"/>
              </g>
              <path id="Trazado_99546" data-name="Trazado 99546" d="M2047.141,858.153a.211.211,0,1,0-.211.212A.212.212,0,0,0,2047.141,858.153Z" transform="translate(-2044.786 -856.7)" fill="#2b478b"/>
              <path id="Trazado_99547" data-name="Trazado 99547" d="M2038.058,858.168a.211.211,0,1,0-.211.211A.211.211,0,0,0,2038.058,858.168Z" transform="translate(-2037.083 -856.713)" fill="#2b478b"/>
            </g>
            <path id="Trazado_99548" data-name="Trazado 99548" d="M2224.35,588.977s.121,2.6-1.436,3.1,1.6,6.109,1.356,9.892-1.922,5.3-1.922,5.3a6.21,6.21,0,0,0,.354-3.368,5.12,5.12,0,0,1-1.882,4.027c-1.955,1.35-1.429,2.517-1.429,2.517s-4.417-1.323-4.541-4.636a8.75,8.75,0,0,0-.037,2.118s-3.813-2.864-4-6.163,3-6.084,4.453-6.134,4.687-2.9,4.6-3.974S2224.35,588.977,2224.35,588.977Z" transform="translate(-2112.657 -556.269)" fill="#2c3a64"/>
            <path id="Trazado_99549" data-name="Trazado 99549" d="M2105.271,609.492s-2.612,1.584-4.471,1.4c-1.841-.182-2.844-2.4-2.844-2.4A15.433,15.433,0,0,1,2105.271,609.492Z" transform="translate(-2016.948 -572.742)" fill="#fff2e9"/>
            <g id="Grupo_53523" data-name="Grupo 53523" transform="translate(54.792 103.973)">
              <g id="Grupo_53520" data-name="Grupo 53520" transform="translate(2.099)">
                <path id="Trazado_99550" data-name="Trazado 99550" d="M1987.193,1085.236h-35.179a4.452,4.452,0,0,1-3.75-2.667l-8.856-21.8c-.6-1.473.111-2.666,1.584-2.666h35.179a4.452,4.452,0,0,1,3.749,2.666l8.856,21.8C1989.374,1084.042,1988.665,1085.236,1987.193,1085.236Z" transform="translate(-1939.196 -1058.102)" fill="#a4c9ff"/>
              </g>
              <g id="Grupo_53522" data-name="Grupo 53522">
                <path id="Trazado_99551" data-name="Trazado 99551" d="M1973.373,1085.236h-35.179a4.452,4.452,0,0,1-3.75-2.667l-8.856-21.8c-.6-1.473.111-2.666,1.584-2.666h35.179a4.453,4.453,0,0,1,3.75,2.666l8.856,21.8C1975.555,1084.042,1974.846,1085.236,1973.373,1085.236Z" transform="translate(-1925.376 -1058.102)" fill="#71a4ff"/>
                <g id="Grupo_53521" data-name="Grupo 53521" transform="translate(2.907 1.672)">
                  <path id="Trazado_99552" data-name="Trazado 99552" d="M1945.33,1069.108h0a2.04,2.04,0,0,1,1.712,1.218h0c.272.67-.054,1.218-.723,1.218h0a2.04,2.04,0,0,1-1.712-1.218h0C1944.335,1069.656,1944.66,1069.108,1945.33,1069.108Z" transform="translate(-1944.511 -1069.108)" fill="#2b478b"/>
                  <path id="Trazado_99553" data-name="Trazado 99553" d="M1972.687,1072.447h0a1.19,1.19,0,0,1,1,.71h0c.159.391-.031.711-.422.711h0a1.191,1.191,0,0,1-1-.711h0C1972.106,1072.766,1972.3,1072.447,1972.687,1072.447Z" transform="translate(-1968.001 -1071.94)" fill="#2b478b"/>
                </g>
              </g>
              <path id="Trazado_99554" data-name="Trazado 99554" d="M2064.789,1128.26c-.587-1.445.108-2.617,1.554-2.617a4.369,4.369,0,0,1,3.679,2.617c.587,1.445-.109,2.617-1.554,2.617A4.37,4.37,0,0,1,2064.789,1128.26Z" transform="translate(-2043.434 -1115.383)" fill="#a4c9ff"/>
            </g>
            <g id="Grupo_53524" data-name="Grupo 53524" transform="translate(91.32 117.079)">
              <path id="Trazado_99555" data-name="Trazado 99555" d="M2244.954,1148.721s-4.837-2.758-6-4.032c-.752-.823-.8.235-.75.533a4.072,4.072,0,0,0,1.563,2.9C2241.746,1149.744,2244.954,1148.721,2244.954,1148.721Z" transform="translate(-2227.197 -1144.382)" fill="#ffb27d"/>
              <path id="Trazado_99556" data-name="Trazado 99556" d="M2183.59,1159.509s-8.726-2.621-10.735-2.393a28.711,28.711,0,0,0-6.968,2.031c-.37.373,1.21.767,2.412.416a10.28,10.28,0,0,1,3.967.055,61.442,61.442,0,0,0-6.116,1.6.18.18,0,0,0-.04.3,3.16,3.16,0,0,0,2.129.227,37.378,37.378,0,0,1,4.28-.177l-5.561,1.208a.15.15,0,0,0-.119.147c.01.264.454.547,1.752.606a42.6,42.6,0,0,0,4.392-.456l-3.02,1.594a2.626,2.626,0,0,0,2.274.015,19.74,19.74,0,0,1,4.942-.986c.729.154,4.364,1.438,6.081,1.218a9.838,9.838,0,0,0,2.405-.531Z" transform="translate(-2165.832 -1155.17)" fill="#ffb27d"/>
            </g>
            <g id="Grupo_53525" data-name="Grupo 53525" transform="translate(0 69.23)">
              <path id="Trazado_99557" data-name="Trazado 99557" d="M1578.027,846.433s-4.377-4.677-5.986-5.235-7.351-1.526-7.351-1.526.023,1.374,2.593,2.322,3.108,5.405,4.628,6.667,5.538,2.353,5.538,2.353Z" transform="translate(-1564.69 -838.111)" fill="#ffb27d"/>
              <path id="Trazado_99558" data-name="Trazado 99558" d="M1590.695,888.847s-4.265-.186-5.651-1.057-3.643-2.009-3.208-2.7,5.138-.17,5.138-.17Z" transform="translate(-1579.185 -876.323)" fill="#ffb27d"/>
              <path id="Trazado_99559" data-name="Trazado 99559" d="M1577.044,833.3c-.224-.1-5.911-3.9-5.911-3.9s-.479,1.8.359,2.145S1577.044,833.3,1577.044,833.3Z" transform="translate(-1570.038 -829.398)" fill="#ffb27d"/>
            </g>
            <path id="Trazado_99560" data-name="Trazado 99560" d="M2296.645,1096.992a95.11,95.11,0,0,1-22.176,16.418,8.735,8.735,0,0,1-2.829-1.466c-2.664-1.9.288-3.3.872-3.675,2.9-1.876,6.775-6.565,10.179-11.276Z" transform="translate(-2163.316 -987.111)" fill="#ffb27d"/>
          </g>
          <rect id="Rectángulo_5118" data-name="Rectángulo 5118" width="46.443" height="41.288" transform="translate(72.396 59.15)" fill="#f8fcff"/>
          <rect id="Rectángulo_5119" data-name="Rectángulo 5119" width="39.438" height="4.638" transform="translate(76.288 62.687)" fill="#88a8dc"/>
          <rect id="Rectángulo_5120" data-name="Rectángulo 5120" width="3.044" height="3.044" transform="translate(106.243 70.544)" fill="#f99746"/>
          <rect id="Rectángulo_5121" data-name="Rectángulo 5121" width="3.044" height="3.044" transform="translate(111.89 70.544)" fill="#f99746"/>
          <rect id="Rectángulo_5122" data-name="Rectángulo 5122" width="3.044" height="3.044" transform="translate(106.243 75.933)" fill="#f99746"/>
          <rect id="Rectángulo_5123" data-name="Rectángulo 5123" width="3.044" height="3.044" transform="translate(111.89 75.933)" fill="#f99746"/>
          <rect id="Rectángulo_5124" data-name="Rectángulo 5124" width="3.044" height="3.044" transform="translate(106.243 81.269)" fill="#f99746"/>
          <rect id="Rectángulo_5125" data-name="Rectángulo 5125" width="3.044" height="3.044" transform="translate(111.89 81.269)" fill="#f99746"/>
          <rect id="Rectángulo_5126" data-name="Rectángulo 5126" width="3.044" height="3.044" transform="translate(106.243 86.865)" fill="#f99746"/>
          <rect id="Rectángulo_5127" data-name="Rectángulo 5127" width="3.044" height="3.044" transform="translate(111.89 86.865)" fill="#f99746"/>
          <rect id="Rectángulo_5128" data-name="Rectángulo 5128" width="3.044" height="3.044" transform="translate(95.053 70.461)" fill="#a5a2a0"/>
          <rect id="Rectángulo_5129" data-name="Rectángulo 5129" width="3.044" height="3.044" transform="translate(100.7 70.461)" fill="#a5a2a0"/>
          <rect id="Rectángulo_5130" data-name="Rectángulo 5130" width="3.044" height="3.044" transform="translate(95.053 75.85)" fill="#a5a2a0"/>
          <rect id="Rectángulo_5131" data-name="Rectángulo 5131" width="3.044" height="3.044" transform="translate(100.7 75.85)" fill="#a5a2a0"/>
          <rect id="Rectángulo_5132" data-name="Rectángulo 5132" width="3.044" height="3.044" transform="translate(95.053 81.187)" fill="#a5a2a0"/>
          <rect id="Rectángulo_5133" data-name="Rectángulo 5133" width="3.044" height="3.044" transform="translate(100.7 81.187)" fill="#a5a2a0"/>
          <rect id="Rectángulo_5134" data-name="Rectángulo 5134" width="3.044" height="3.044" transform="translate(95.053 86.782)" fill="#a5a2a0"/>
          <rect id="Rectángulo_5135" data-name="Rectángulo 5135" width="3.044" height="3.044" transform="translate(100.7 86.782)" fill="#a5a2a0"/>
          <rect id="Rectángulo_5136" data-name="Rectángulo 5136" width="3.044" height="3.044" transform="translate(89.939 70.461)" fill="#a5a2a0"/>
          <rect id="Rectángulo_5137" data-name="Rectángulo 5137" width="3.044" height="3.044" transform="translate(84.292 75.85)" fill="#a5a2a0"/>
          <rect id="Rectángulo_5138" data-name="Rectángulo 5138" width="3.044" height="3.044" transform="translate(89.939 75.85)" fill="#a5a2a0"/>
          <rect id="Rectángulo_5139" data-name="Rectángulo 5139" width="3.044" height="3.044" transform="translate(84.292 81.187)" fill="#a5a2a0"/>
          <rect id="Rectángulo_5140" data-name="Rectángulo 5140" width="3.044" height="3.044" transform="translate(89.939 81.187)" fill="#a5a2a0"/>
          <rect id="Rectángulo_5141" data-name="Rectángulo 5141" width="3.044" height="3.044" transform="translate(84.292 86.782)" fill="#a5a2a0"/>
          <rect id="Rectángulo_5142" data-name="Rectángulo 5142" width="3.044" height="3.044" transform="translate(89.939 86.782)" fill="#a5a2a0"/>
          <rect id="Rectángulo_5143" data-name="Rectángulo 5143" width="3.044" height="3.044" transform="translate(95.053 91.784)" fill="#a5a2a0"/>
          <rect id="Rectángulo_5144" data-name="Rectángulo 5144" width="3.044" height="3.044" transform="translate(100.7 91.784)" fill="#a5a2a0"/>
          <rect id="Rectángulo_5145" data-name="Rectángulo 5145" width="3.044" height="3.044" transform="translate(78.477 75.85)" fill="#a5a2a0"/>
          <rect id="Rectángulo_5146" data-name="Rectángulo 5146" width="3.044" height="3.044" transform="translate(78.477 81.187)" fill="#a5a2a0"/>
          <rect id="Rectángulo_5147" data-name="Rectángulo 5147" width="3.044" height="3.044" transform="translate(78.477 86.782)" fill="#a5a2a0"/>
          <rect id="Rectángulo_5148" data-name="Rectángulo 5148" width="3.044" height="3.044" transform="translate(78.477 91.784)" fill="#a5a2a0"/>
          <rect id="Rectángulo_5149" data-name="Rectángulo 5149" width="3.044" height="3.044" transform="translate(89.939 91.784)" fill="#a5a2a0"/>
          <g id="Grupo_53527" data-name="Grupo 53527" transform="translate(69.609 87.201)">
            <path id="Trazado_99561" data-name="Trazado 99561" d="M862.2,809.5a12.531,12.531,0,1,1-10.23-12.322c-1.565,5.7-3.641,13.253-3.78,13.724.258-.407,7.882-3.824,13.087-6.127A12.462,12.462,0,0,1,862.2,809.5Z" transform="translate(-837.129 -795.977)" fill="#88a8dc"/>
            <path id="Trazado_99562" data-name="Trazado 99562" d="M931.132,797.882c-4.6,2.026-12.212,5.42-12.456,5.8.132-.448,2.239-8.1,3.65-13.237A13.77,13.77,0,0,1,931.132,797.882Z" transform="translate(-906.288 -790.45)" fill="#f99746"/>
          </g>
          <g id="Grupo_53531" data-name="Grupo 53531" transform="translate(0 128.96)">
            <g id="Grupo_53528" data-name="Grupo 53528">
              <path id="Trazado_99563" data-name="Trazado 99563" d="M444.931,1263.673V1336.2H431.11c-.007-.021-.013-.047-.022-.072l-.015-.047c-.046-.139-.107-.327-.184-.566l-.03-.07v-.035a.139.139,0,0,1-.031-.072c-.123-.286-.216-.609-.34-1-.063-.18-.124-.4-.216-.609v-.073l-.031-.035c-.425-1.276-.951-2.939-1.558-4.948q-.081-.273-.167-.552c-.455-1.517-.956-3.217-1.489-5.089q-.368-1.319-.756-2.751c-1.073-3.966-2.24-8.548-3.385-13.6-.557-2.469-1.113-5.044-1.639-7.728-.31-1.548-.621-3.162-.919-4.791q-.129-.716-.255-1.433c-.546-3.05-1.061-6.193-1.524-9.4-.611-4.217-1.135-8.553-1.534-12.954q-.3-3.24-.5-6.524c0-.057-.009-.115-.01-.172Z" transform="translate(-416.162 -1233.543)" fill="#fff3e9"/>
              <path id="Trazado_99564" data-name="Trazado 99564" d="M528.854,1065.341l14.641,34.89h44.481l-23.19-34.762Z" transform="translate(-511.444 -1065.34)" fill="#ed9f4a"/>
              <path id="Trazado_99565" data-name="Trazado 99565" d="M576.421,1100.23l-1.322-1.982-21.868-32.78-35.932-.127,13.114,31.25v71.4H575.1V1100.23Z" transform="translate(-501.644 -1065.34)" fill="#f9ddbf"/>
              <path id="Rectángulo_5150" data-name="Rectángulo 5150" d="M0,0H12.24a0,0,0,0,1,0,0V17.533a6.019,6.019,0,0,1-6.019,6.019h0A6.221,6.221,0,0,1,0,17.331V0A0,0,0,0,1,0,0Z" transform="translate(57.868 40.998) rotate(180)" fill="#efcdaf"/>
              <path id="Trazado_99566" data-name="Trazado 99566" d="M467.7,1065.337l-.1.154-.866,1.336L445.823,1099.1l-1.983,3.06H415.1q-.3-3.239-.5-6.524c0-.057-.009-.115-.01-.172s-.009-.117-.012-.176c-.183-3.082-.3-6.186-.332-9.287l13.78-20.658h5.841l20.4,0Z" transform="translate(-414.244 -1065.337)" fill="#efb75b"/>
            </g>
            <g id="Grupo_53530" data-name="Grupo 53530" transform="translate(36.282 44.635)">
              <path id="Trazado_99567" data-name="Trazado 99567" d="M785.749,1359.159,796.173,1384h31.668l-16.51-24.749Z" transform="translate(-765.595 -1359.159)" fill="#ed9f4a"/>
              <g id="Grupo_53529" data-name="Grupo 53529">
                <path id="Trazado_99568" data-name="Trazado 99568" d="M821.594,1384l-16.51-24.749-25.582-.091L789.926,1384H790V1417.1l31.6.072V1384Z" transform="translate(-760.297 -1359.159)" fill="#f9ddbf"/>
                <rect id="Rectángulo_5151" data-name="Rectángulo 5151" width="26.758" height="33.106" transform="translate(2.94 24.839)" fill="#fff3e9"/>
                <path id="Trazado_99569" data-name="Trazado 99569" d="M653.079,1385.97h28.745l16.991-26.218-8.563,0-19.688.005Z" transform="translate(-653.079 -1359.662)" fill="#efb75b"/>
                <path id="Trazado_99570" data-name="Trazado 99570" d="M910.329,1516.672v27.663h13.312v-27.409a8.407,8.407,0,0,0-2.191-5.769,6.263,6.263,0,0,0-4.575-2.062,6.078,6.078,0,0,0-4.488,2.062A8.149,8.149,0,0,0,910.329,1516.672Z" transform="translate(-871.25 -1486.318)" fill="#efcdaf"/>
                <path id="Trazado_99571" data-name="Trazado 99571" d="M947.3,1440.877a1.51,1.51,0,1,0-1.494,1.729A1.624,1.624,0,0,0,947.3,1440.877Z" transform="translate(-900.071 -1426.997)" fill="#efcdaf"/>
                <path id="Trazado_99572" data-name="Trazado 99572" d="M653.079,1385.98h5.455l31.718-26.217-19.688.005Z" transform="translate(-653.079 -1359.672)" fill="#eba63f"/>
              </g>
            </g>
          </g>
          <path id="Trazado_99573" data-name="Trazado 99573" d="M523.456,1644.993H484.287l-.016-.047c-.049-.139-.113-.327-.2-.566l-.032-.07v-.035a.136.136,0,0,1-.033-.073,10.4,10.4,0,0,1-.362-1c-.067-.18-.131-.4-.23-.609v-.073l-.033-.035c-.452-1.276-1.011-2.939-1.657-4.948q-.087-.273-.178-.552c-.484-1.518-1.017-3.217-1.584-5.089q-.392-1.319-.8-2.751c3.871-1.173,8.931-1.982,13.437-.39a16.791,16.791,0,0,1,6.413,4.067c3.1,3.07,4.382,6.1,7.991,4.924a12.052,12.052,0,0,1,3.127-.523C515.941,1636.94,523.976,1639.608,523.456,1644.993Z" transform="translate(-469.3 -1413.453)" fill="#82b378"/>
          <path id="Trazado_99574" data-name="Trazado 99574" d="M776.426,1737.6v.25c0,.4-.184.735-.41.735H414.654c-.226,0-.41-.33-.41-.735v-.25c0-.4.184-.737.41-.737H776.016C776.242,1736.859,776.426,1737.192,776.426,1737.6Z" transform="translate(-414.244 -1505.888)" fill="#516e9f"/>
        </g>
      </g>
    </g>
  </g>
</svg>
